<svg width="14" height="14" viewBox="0 0 14 14" fill="none" xmlns="http://www.w3.org/2000/svg">
<path fill-rule="evenodd" clip-rule="evenodd" d="M3.50391 13.6521H10.0039C11.6744 13.6521 13.2539 12.0726 13.2539 10.4021V3.9021C13.2539 2.2316 11.6744 0.6521 10.0039 0.6521H3.50391C1.83341 0.6521 0.253906 2.2316 0.253906 3.9021V10.4021C0.253906 12.0726 1.83341 13.6521 3.50391 13.6521ZM1.87891 3.9021C1.87891 3.14241 2.74422 2.2771 3.50391 2.2771H10.0039C10.7636 2.2771 11.6289 3.14241 11.6289 3.9021V10.4021C11.6289 11.1618 10.7636 12.0271 10.0039 12.0271H3.50391C2.72959 12.0271 1.87891 11.1764 1.87891 10.4021V3.9021Z" fill="#0A142F"/>
</svg>
