<svg width="15" height="14" viewBox="0 0 15 14" fill="none" xmlns="http://www.w3.org/2000/svg">
<path fill-rule="evenodd" clip-rule="evenodd" d="M1.90184 3.58531H1.88208C0.894311 3.58531 0.253906 2.93907 0.253906 2.1199C0.253906 1.2848 0.913243 0.6521 1.92077 0.6521C2.92747 0.6521 3.54647 1.28321 3.56623 2.11751C3.56623 2.93668 2.92747 3.58531 1.90184 3.58531ZM14.2541 13.0964H11.1599V8.72165C11.1599 7.57657 10.6759 6.79486 9.61155 6.79486C8.79746 6.79486 8.34473 7.32237 8.13401 7.83076C8.06443 7.99143 8.06569 8.2077 8.06698 8.4306C8.06716 8.46087 8.06733 8.49125 8.06733 8.52164V13.0964H5.00195C5.00195 13.0964 5.04146 5.34698 5.00195 4.64256H8.06733V5.96932C8.24843 5.38921 9.22796 4.56128 10.7911 4.56128C12.7304 4.56128 14.2541 5.77728 14.2541 8.39573V13.0964ZM3.33614 4.64282H0.607422V13.0966H3.33614V4.64282Z" fill="#203D7A"/>
</svg>
