<svg width="258" height="150" viewBox="0 0 258 150" fill="none" xmlns="http://www.w3.org/2000/svg">
<g clip-path="url(#clip0_362_2426)">
<path d="M201.134 8.11608C172.233 0.321434 140.92 13.6071 126.858 39.2947C124.42 43.7143 121.956 46.7947 121.5 45.8572C120.268 43.875 122.866 31.3393 125.465 27.0536C127.152 24.2946 126.697 23.3839 121.34 18.8036C112.929 11.625 100.554 7.17858 86.8129 6.26786C48.0004 3.83036 16.6611 34.2321 16.6611 74.1429C16.6611 97.5268 28.2861 114.188 50.2772 122.277C62.0361 126.696 86.6522 125.036 99.4825 119.223C111.402 113.866 121.956 104.25 128.813 92.3304C134.304 83.3036 134.304 83.3036 134.304 88.8214C134.304 92.0357 133.072 97.3929 131.706 100.902C129.108 107.33 129.108 107.33 135.67 113.116C145.286 121.688 159.349 125.652 176.947 124.875C188.706 124.259 191.92 123.509 201.858 118.607C215.625 111.723 225.858 101.491 232.125 87.8839C249.108 51.8304 235.661 17.2768 201.134 8.11608ZM112.956 80.0893C108.375 90.6429 97.2058 101.491 87.2683 105.295C78.8575 108.348 67.8486 109.125 62.0629 106.982C44.7861 100.42 37.3129 90.0268 37.4468 72.4554C37.6076 52.4464 47.2236 35.7857 63.429 27.9911C84.6701 17.5982 110.491 27.2143 116.009 47.4107C118.447 56.25 117.081 70.9286 112.956 80.0893ZM213.509 81.6161C209.09 90.6429 200.679 99.5089 192.429 103.634C184.34 107.759 168.134 108.991 161.09 106.232C152.518 102.857 148.259 99.5089 143.813 92.625C139.983 86.8125 139.688 85.125 139.688 71.6786C139.688 54.7232 142.741 46.3125 152.974 36.0804C173.599 15.4554 209.813 21.5625 216.858 46.6339C219.616 56.25 217.929 72.6161 213.509 81.6161Z" fill="url(#paint0_linear_362_2426)"/>
<path d="M140.598 22.259C140.598 22.259 133.66 27.0536 130.982 39.1072C125.116 65.5179 100.714 99.9108 89.9996 102.054C67.4996 106.554 68.571 86.25 68.571 86.25C68.571 86.25 68.7049 71.9197 81.8299 79.4197C81.8299 79.4197 82.9014 81.2947 85.3121 82.3661C87.7228 83.4375 90.4014 86.384 90.4014 86.384C90.4014 86.384 90.6692 87.7233 92.0085 86.384C93.3478 85.0447 89.0621 79.4197 89.0621 79.4197C89.0621 79.4197 91.4728 77.009 88.5264 73.5268C85.5799 70.0447 79.4192 72.4554 79.4192 72.4554C79.4192 72.4554 70.8478 71.6518 67.6335 75.9375C64.4192 80.2233 63.0799 91.2054 63.8835 94.6875C63.8835 94.6875 56.1157 85.0447 56.1157 92.8125C56.1157 100.58 48.3478 89.8661 48.3478 89.8661C48.3478 89.8661 41.3835 78.3483 41.3835 68.4375C41.3835 58.5268 46.2049 46.8215 45.2674 43.8482C44.3299 40.8482 41.3835 45.6697 41.3835 45.6697C41.3835 45.6697 38.7049 41.9197 36.5621 45.4018C34.4192 48.884 34.6871 52.634 34.6871 52.634C34.6871 52.634 34.9549 47.009 32.8121 48.884C31.7407 49.8215 31.7407 53.9732 32.0085 57.884C32.0889 58.875 32.1692 59.8393 32.2496 60.7232C32.4103 62.4107 32.6782 63.75 32.6782 65.3572C32.4103 63.75 30.2674 54.9107 28.3924 56.5179C25.1782 60 29.7317 66.6965 30.2674 71.5179C29.4639 69.6429 27.321 64.8215 24.6424 65.3572C21.9639 65.625 24.9103 78.2143 27.321 81.4286C25.9817 81.1608 21.9639 76.875 21.9639 81.6965C21.9639 84.9108 27.0532 91.6072 31.6335 94.3929C32.3835 94.8215 33.1603 95.1697 34.0174 95.4375C34.8478 95.6786 35.7585 95.8393 36.696 95.8929C36.1603 97.7679 37.2317 98.8393 38.571 99.9108C41.2496 102.054 44.9996 102.589 46.6067 105.804C44.7317 105.536 42.5889 104.732 40.9817 106.071C39.9103 107.143 41.2496 109.018 42.696 109.58C43.5264 109.821 44.3299 109.688 44.3299 109.688C44.3299 109.688 42.9907 109.42 42.7228 111.563C42.4549 113.705 46.4728 114.777 46.4728 114.777C46.4728 114.777 43.3924 117.134 45.9371 119.866C49.4192 123.616 62.4103 128.973 89.9996 122.411C101.25 119.732 111.16 109.821 118.66 96.6965C136.151 66.1072 147.482 24.3482 183.294 23.8393C231.026 23.1697 192.75 6.34824 192.75 6.34824C192.75 6.34824 163.982 2.06252 140.598 22.259Z" fill="#203D7A"/>
<path d="M55.982 86.7858C55.982 86.7858 55.4731 86.6251 54.9106 86.2233C51.9642 83.8394 48.482 81.1608 47.9463 76.8751C47.6784 74.7323 50.0891 71.2501 51.9642 72.8573C54.9106 75.5358 54.3749 80.3573 55.4195 84.1608C55.6874 85.768 55.982 86.7858 55.982 86.7858Z" fill="#8698CF"/>
<path d="M29.7322 53.5714C28.5804 47.1429 27.9107 40.125 31.9554 34.5C32.9732 33.0268 34.3393 31.0446 36.4286 31.6071C36.9107 31.9553 37.0715 32.7857 37.2322 33.3482C37.4197 34.1786 31.3393 39.9107 30 50.1429C29.5447 52.1518 29.7322 53.5714 29.7322 53.5714Z" fill="#8698CF"/>
<path d="M39.8302 112.42C34.982 108.027 34.0713 107.438 30.9106 101.705C30.3481 100.714 28.6338 101.25 28.6338 103.688C30.5891 107.813 32.3838 108.214 35.4374 110.089C37.9016 111.616 39.8302 112.42 39.8302 112.42Z" fill="#8698CF"/>
</g>
<defs>
<linearGradient id="paint0_linear_362_2426" x1="65.6456" y1="139.851" x2="189.961" y2="-8.30236" gradientUnits="userSpaceOnUse">
<stop offset="0.65" stop-color="#D7D1CD"/>
<stop offset="0.9109" stop-color="#203D7A"/>
</linearGradient>
<clipPath id="clip0_362_2426">
<rect width="257.143" height="150" fill="white"/>
</clipPath>
</defs>
</svg>
