<svg width="124" height="18" viewBox="0 0 124 18" fill="none" xmlns="http://www.w3.org/2000/svg">
<g clip-path="url(#clip0)">
<path d="M3.85062 0.0468944C2.7182 0.0937887 1.86888 0.234472 1.39704 0.422049C1.06675 0.562732 0.594909 0.984782 0.406173 1.31304C0.0758839 1.87577 -0.0656685 2.62608 0.0286998 3.23571C0.119603 3.67143 0.320421 4.07705 0.612302 4.41448C0.904182 4.75192 1.27755 5.01011 1.69736 5.16481C2.11717 5.31952 2.56965 5.36566 3.01232 5.29891C3.45499 5.23217 3.87334 5.05472 4.22809 4.78323C4.7943 4.31428 5.59643 2.76677 6.30419 0.844099C6.49293 0.328261 6.49293 0.140683 6.39856 0.0937887C6.30419 0.0468944 4.27527 0 3.85062 0.0468944ZM15.5995 0.0468944C14.4199 0.187577 13.3346 0.890993 12.6269 1.87577L3.04848 17.4447C3.0013 17.5854 3.0013 17.5854 3.09567 17.6792C3.19004 17.773 3.23722 17.773 4.55838 17.773C5.73798 17.7261 5.87953 17.7261 6.30419 17.6323C7.38943 17.3509 8.23874 16.6944 8.85213 15.7565C9.5599 14.7248 18.3833 0.328261 18.4305 0.234472L18.3361 0.0937887C18.289 0 18.1474 0 17.1094 0L15.5995 0.0468944ZM27.0652 0.0468944C26.0272 0.187577 25.0835 0.656521 24.3757 1.40683L19.2798 9.56645L14.4199 17.4916C14.3727 17.773 14.467 17.773 15.5995 17.773L17.1094 17.7261C18.4305 17.5854 19.5629 16.882 20.2707 15.8034C21.1672 14.3966 29.8019 0.375155 29.8019 0.281366C29.8491 0 29.7547 0 28.4807 0L27.018 0.0468944H27.0652ZM92.1793 4.26739C88.6405 4.68944 85.9982 7.4562 85.5264 11.0671C85.432 11.9581 85.4792 13.0366 85.7151 13.8807C85.8567 14.3966 86.2813 15.1938 86.6116 15.6627C87.4137 16.7413 88.7349 17.4916 90.1976 17.8199C93.6892 18.5702 97.1337 16.9289 98.6907 13.7869C98.9267 13.318 98.9738 13.2711 99.021 13.4118C99.0682 13.5525 98.9738 14.209 98.9267 14.5373L98.5964 15.2876C98.3604 15.8503 98.3604 15.8972 98.7851 16.2723C99.6816 17.1164 100.814 17.6792 102.135 17.8668C102.607 17.9605 103.504 18.0074 104.07 17.9605C105.155 17.8668 105.91 17.6792 106.901 17.2102C109.543 15.8972 111.147 13.1773 111.147 10.1292C111.147 7.12794 109.354 4.9708 106.24 4.31428C105.627 4.22049 103.787 4.22049 103.173 4.36118C102.05 4.57831 100.992 5.05123 100.083 5.74281C99.1747 6.43439 98.4396 7.32583 97.9358 8.3472L97.6527 8.90993C97.5583 8.90993 97.6527 7.92515 97.747 7.64378C97.747 7.4562 97.8886 7.12794 98.0302 6.89347L98.2189 6.33074C98.1717 6.19006 97.5583 5.62732 97.1337 5.34596C96.0025 4.60236 94.6673 4.22554 93.3117 4.26739H92.1793ZM94.2082 6.47142C95.0598 6.67907 95.8105 7.17844 96.3283 7.88174C96.8461 8.58504 97.0978 9.44724 97.0393 10.3168C97.0393 13.5994 94.5385 16.1317 91.5659 15.8503C91.07 15.8263 90.5837 15.7052 90.135 15.4942C89.6862 15.2831 89.2837 14.9861 88.9506 14.6202C88.6175 14.2543 88.3603 13.8266 88.1937 13.3618C88.0272 12.8969 87.9545 12.404 87.9799 11.9112C87.9799 9.1913 89.6786 6.94037 92.085 6.42453C92.6512 6.28384 93.642 6.33074 94.2082 6.47142ZM105.768 6.47142C107.137 6.79968 108.08 7.73757 108.505 9.00372C108.599 9.42577 108.599 9.51956 108.599 10.3637C108.599 11.1609 108.599 11.2546 108.458 11.7705C108.222 12.8022 107.75 13.6463 107.09 14.3028C106.335 15.1 105.344 15.6158 104.353 15.8034C103.787 15.8972 102.843 15.8503 102.277 15.7096C101.239 15.3814 100.437 14.7248 99.9647 13.8338C99.6344 13.0835 99.4929 12.3332 99.5872 11.3953C99.8232 8.81614 101.427 6.89347 103.739 6.42453C104.211 6.28384 105.297 6.33074 105.768 6.47142ZM79.6755 4.45496C78.8262 4.59565 78.1185 5.11149 77.741 5.8618C76.789 9.78824 75.8924 13.7278 75.0515 17.6792C75.0515 17.773 75.193 17.773 78.3544 17.773L81.7044 17.7261L82.0347 17.6323L82.6009 17.3509C83.12 17.0227 83.639 16.3192 83.7334 15.8503V15.6627H77.8825L77.9297 15.522L79.1565 9.9885L80.3361 4.50186C80.3361 4.40807 80.2889 4.40807 80.1474 4.40807L79.6755 4.45496ZM116.29 4.50186C115.441 4.73633 114.781 5.25217 114.403 6.00248C113.529 9.84936 112.648 13.6947 111.761 17.5385L111.714 17.7261H111.902C112.988 17.7261 114.12 16.882 114.497 15.8503C114.771 14.9096 114.991 13.9546 115.158 12.9897L115.205 12.8022H117.376L119.924 12.7084C122 12.2863 123.368 11.114 123.887 9.1913C124.029 8.72235 124.029 7.5031 123.934 7.03416C123.746 6.42453 123.51 5.95558 123.038 5.53354C122.639 5.11191 122.134 4.80423 121.575 4.64254C120.962 4.45496 120.584 4.40807 118.555 4.40807C116.857 4.40807 116.621 4.40807 116.29 4.50186ZM120.49 6.70589C120.914 6.89347 121.15 7.12794 121.339 7.4562C121.481 7.69068 121.481 7.83136 121.528 8.11273C121.575 9.28508 120.867 10.223 119.688 10.5981L117.517 10.6919L115.677 10.645L116.479 6.94037L116.574 6.51832H118.367L120.207 6.56521L120.49 6.70589ZM34.4731 4.54875C34.1428 4.64254 33.7182 4.92391 33.5294 5.15838L25.7441 17.7261L26.6877 17.773C27.773 17.773 28.0561 17.7261 28.5279 17.3978C28.811 17.1633 28.9526 16.9758 29.566 15.9441L29.9906 15.2407H36.3133L36.502 16.5068L36.738 17.773H36.9739C37.7288 17.6792 38.3894 17.1633 38.6725 16.4599C38.9084 15.8972 38.9084 15.991 37.8704 9.9885L36.8795 4.50186L35.8415 4.45496C34.8506 4.45496 34.709 4.45496 34.4731 4.54875ZM35.5584 9.89471L36.0774 13.1304H31.1702L33.1048 9.89471L35.0393 6.659L35.5584 9.89471ZM42.8719 4.50186C42.4168 4.63257 42.0036 4.87846 41.6727 5.21548C41.3419 5.5525 41.1048 5.9691 40.9845 6.42453L40.9373 6.56521H42.9191L44.948 6.61211L42.4944 17.6792C42.4944 17.773 42.4944 17.773 42.7775 17.773C43.91 17.773 44.9952 16.9758 45.2783 15.8972C45.3727 15.7096 47.2128 7.40931 47.3544 6.70589V6.56521H48.534C49.6664 6.51832 49.7608 6.51832 50.0911 6.42453C50.7988 6.14316 51.3179 5.72111 51.6482 5.06459L51.8841 4.59565V4.45496H47.4959L42.8719 4.50186ZM55.2341 4.54875C54.8095 4.64254 54.432 4.87701 54.1017 5.20527C53.4883 5.8149 53.5827 5.43975 52.1672 11.9112L50.8932 17.7261L54.7151 17.773L58.537 17.7261L58.8201 17.6323C59.2186 17.4745 59.5749 17.2273 59.8614 16.9101C60.1478 16.5928 60.3567 16.2141 60.4716 15.8034L60.5188 15.6627H57.1215C53.913 15.6627 53.7243 15.6627 53.7243 15.5689L54.1489 13.8807L54.5264 12.1456C54.5264 12.0519 54.7151 12.0519 57.0271 12.0519C59.811 12.005 59.7166 12.0519 60.3772 11.7236C60.8962 11.4422 61.5096 10.645 61.6512 10.0823V9.94161H58.3483C55.187 9.94161 54.9982 9.94161 54.9982 9.84782C55.2609 8.85383 55.4969 7.85306 55.706 6.84658L55.7532 6.51832H58.3011C61.1322 6.51832 61.1322 6.51832 61.6984 6.23695C62.2646 5.95558 62.878 5.20528 62.9723 4.59565L63.0195 4.45496H59.2448C56.1306 4.45496 55.4701 4.45496 55.2341 4.54875ZM66.2281 4.50186C65.8034 4.64254 65.4259 5.0177 65.2372 5.43975C65.1428 5.62732 64.671 7.73757 63.7745 11.6767L62.4533 17.7261L63.1611 17.773C63.8217 17.7261 63.8688 17.7261 64.1519 17.5854C64.5294 17.3978 64.9069 17.0227 65.0484 16.6944L65.5203 14.631L65.8978 12.8022H68.3513L69.2478 15.2876L70.1915 17.773L70.4274 17.7261C71.3239 17.6323 71.9845 16.882 71.9845 15.991C71.9845 15.6627 71.8901 15.3814 71.2767 13.8807L70.7577 12.6615L71.1824 12.5677C72.1745 12.3581 73.0672 11.8237 73.7174 11.0499C74.3676 10.2762 74.7377 9.30794 74.7684 8.3003C74.7684 7.4562 74.7212 7.08105 74.3909 6.47142C74.2494 6.09627 74.1078 5.95558 73.7775 5.62732C73.3529 5.20527 73.0226 4.9708 72.5035 4.78323C71.7958 4.45496 71.8901 4.50186 69.0591 4.45496L66.2281 4.50186ZM70.7105 6.56521C71.7958 6.75279 72.4564 7.69068 72.2204 8.76925C72.0317 9.70713 71.3711 10.3637 70.3802 10.5981C70.05 10.6919 69.8612 10.6919 68.2098 10.6919L66.4168 10.645L67.3133 6.61211V6.51832H68.8704L70.7105 6.56521Z" fill="#141414"/>
</g>
<defs>
<clipPath id="clip0">
<rect width="124" height="18" fill="white"/>
</clipPath>
</defs>
</svg>
