<svg width="17" height="18" viewBox="0 0 17 18" fill="none" xmlns="http://www.w3.org/2000/svg">
<path fill-rule="evenodd" clip-rule="evenodd" d="M4.13601 4.86399C4.25789 4.74211 4.4232 4.67363 4.59557 4.67363C4.76794 4.67363 4.93324 4.74211 5.05513 4.86399L8.73158 8.54044C8.85346 8.66233 8.92194 8.82763 8.92194 9C8.92194 9.17237 8.85346 9.33767 8.73158 9.45956L5.05513 13.136C4.93324 13.2579 4.76794 13.3264 4.59557 13.3264C4.4232 13.3264 4.25789 13.2579 4.13601 13.136C4.01413 13.0141 3.94566 12.8488 3.94566 12.6765C3.94566 12.5041 4.01413 12.3388 4.13601 12.2169L7.35291 9L4.13601 5.7831C4.01413 5.66122 3.94566 5.49591 3.94566 5.32354C3.94566 5.15118 4.01413 4.98587 4.13601 4.86399Z" fill="black"/>
<path fill-rule="evenodd" clip-rule="evenodd" d="M7.81258 9.45956C7.6907 9.33767 7.62223 9.17237 7.62223 9C7.62223 8.82763 7.6907 8.66233 7.81258 8.54044L11.489 4.86399C11.6109 4.74211 11.7762 4.67363 11.9486 4.67363C12.121 4.67363 12.2863 4.74211 12.4082 4.86399C12.53 4.98587 12.5985 5.15118 12.5985 5.32354C12.5985 5.49591 12.53 5.66122 12.4082 5.7831L9.19126 9L12.4082 12.2169C12.53 12.3388 12.5985 12.5041 12.5985 12.6765C12.5985 12.8488 12.53 13.0141 12.4082 13.136C12.2863 13.2579 12.121 13.3264 11.9486 13.3264C11.7762 13.3264 11.6109 13.2579 11.489 13.136L7.81258 9.45956Z" fill="black"/>
</svg>
