<svg width="349" height="207" viewBox="0 0 349 207" fill="none" xmlns="http://www.w3.org/2000/svg">
<rect x="1.5" y="1.5" width="346" height="204" stroke="#232635" stroke-width="3"/>
<rect x="4.5" y="4.5" width="340" height="198" stroke="#232635" stroke-width="3"/>
<rect x="3" y="40" width="343" height="41" fill="#EAEAEA"/>
<rect x="3" y="122" width="343" height="41" fill="#EAEAEA"/>
<rect x="3" y="81" width="343" height="41" fill="white"/>
<rect x="3" y="163" width="343" height="41" fill="white"/>
<path d="M112.853 67H111.035L107.741 61.726H107.705L104.411 67H102.683L106.787 60.61L102.791 54.436H104.609L107.759 59.44H107.795L111.017 54.436H112.745L108.713 60.556L112.853 67ZM118.492 67.216C117.472 67.216 116.602 67.024 115.882 66.64C115.162 66.244 114.55 65.704 114.046 65.02L115.162 64.084C115.606 64.672 116.098 65.122 116.638 65.434C117.178 65.734 117.814 65.884 118.546 65.884C119.446 65.884 120.13 65.668 120.598 65.236C121.078 64.804 121.318 64.228 121.318 63.508C121.318 62.908 121.138 62.446 120.778 62.122C120.418 61.798 119.824 61.54 118.996 61.348L117.97 61.114C116.818 60.85 115.936 60.454 115.324 59.926C114.724 59.386 114.424 58.63 114.424 57.658C114.424 57.106 114.526 56.614 114.73 56.182C114.934 55.75 115.216 55.39 115.576 55.102C115.948 54.814 116.386 54.598 116.89 54.454C117.406 54.298 117.97 54.22 118.582 54.22C119.53 54.22 120.34 54.394 121.012 54.742C121.696 55.09 122.272 55.6 122.74 56.272L121.606 57.1C121.258 56.62 120.838 56.242 120.346 55.966C119.854 55.69 119.242 55.552 118.51 55.552C117.706 55.552 117.07 55.726 116.602 56.074C116.146 56.41 115.918 56.92 115.918 57.604C115.918 58.204 116.11 58.66 116.494 58.972C116.89 59.272 117.484 59.512 118.276 59.692L119.302 59.926C120.538 60.202 121.432 60.622 121.984 61.186C122.536 61.75 122.812 62.5 122.812 63.436C122.812 64.012 122.71 64.534 122.506 65.002C122.314 65.47 122.032 65.866 121.66 66.19C121.288 66.514 120.832 66.766 120.292 66.946C119.764 67.126 119.164 67.216 118.492 67.216Z" fill="#161616"/>
<path d="M24.6632 108L21.6032 95.436H23.2052L24.5552 101.484L25.5992 106.182H25.6352L26.8052 101.484L28.3892 95.436H30.1172L31.6472 101.484L32.8172 106.164H32.8712L33.9512 101.484L35.3732 95.436H36.9212L33.6992 108H32.0252L30.3872 101.736L29.2352 97.128H29.1992L28.0112 101.736L26.3372 108H24.6632ZM39.5244 96.534C39.2124 96.534 38.9844 96.462 38.8404 96.318C38.7084 96.162 38.6424 95.964 38.6424 95.724V95.49C38.6424 95.25 38.7084 95.058 38.8404 94.914C38.9844 94.758 39.2124 94.68 39.5244 94.68C39.8364 94.68 40.0584 94.758 40.1904 94.914C40.3344 95.058 40.4064 95.25 40.4064 95.49V95.724C40.4064 95.964 40.3344 96.162 40.1904 96.318C40.0584 96.462 39.8364 96.534 39.5244 96.534ZM38.8044 98.712H40.2444V108H38.8044V98.712ZM49.2444 106.488H49.1724C48.6084 107.64 47.7024 108.216 46.4544 108.216C45.8784 108.216 45.3564 108.102 44.8884 107.874C44.4204 107.646 44.0184 107.322 43.6824 106.902C43.3584 106.482 43.1064 105.972 42.9264 105.372C42.7584 104.772 42.6744 104.1 42.6744 103.356C42.6744 102.612 42.7584 101.94 42.9264 101.34C43.1064 100.74 43.3584 100.23 43.6824 99.81C44.0184 99.39 44.4204 99.066 44.8884 98.838C45.3564 98.61 45.8784 98.496 46.4544 98.496C47.1024 98.496 47.6544 98.64 48.1104 98.928C48.5784 99.204 48.9324 99.636 49.1724 100.224H49.2444V94.68H50.6844V108H49.2444V106.488ZM46.8504 106.92C47.1744 106.92 47.4804 106.878 47.7684 106.794C48.0684 106.71 48.3264 106.59 48.5424 106.434C48.7584 106.266 48.9264 106.068 49.0464 105.84C49.1784 105.6 49.2444 105.33 49.2444 105.03V101.574C49.2444 101.322 49.1784 101.088 49.0464 100.872C48.9264 100.644 48.7584 100.452 48.5424 100.296C48.3264 100.14 48.0684 100.02 47.7684 99.936C47.4804 99.84 47.1744 99.792 46.8504 99.792C46.0344 99.792 45.3924 100.05 44.9244 100.566C44.4564 101.07 44.2224 101.736 44.2224 102.564V104.148C44.2224 104.976 44.4564 105.648 44.9244 106.164C45.3924 106.668 46.0344 106.92 46.8504 106.92ZM55.7978 108C55.2938 108 54.9098 107.862 54.6458 107.586C54.3938 107.298 54.2678 106.926 54.2678 106.47V99.972H52.7378V98.712H53.6018C53.9138 98.712 54.1238 98.652 54.2318 98.532C54.3518 98.4 54.4118 98.178 54.4118 97.866V96.138H55.7078V98.712H57.7418V99.972H55.7078V106.74H57.5978V108H55.7978ZM60.0564 94.68H61.4964V100.224H61.5684C61.7964 99.696 62.1144 99.276 62.5224 98.964C62.9424 98.652 63.5004 98.496 64.1964 98.496C65.1564 98.496 65.9124 98.808 66.4644 99.432C67.0284 100.044 67.3104 100.914 67.3104 102.042V108H65.8704V102.294C65.8704 100.626 65.1684 99.792 63.7644 99.792C63.4764 99.792 63.1944 99.828 62.9184 99.9C62.6544 99.972 62.4144 100.08 62.1984 100.224C61.9824 100.368 61.8084 100.554 61.6764 100.782C61.5564 100.998 61.4964 101.256 61.4964 101.556V108H60.0564V94.68Z" fill="#161616"/>
<path d="M111.801 108H103.557V106.452L107.661 102.672C108.249 102.132 108.741 101.562 109.137 100.962C109.533 100.35 109.731 99.738 109.731 99.126V98.91C109.731 98.214 109.539 97.65 109.155 97.218C108.771 96.786 108.189 96.57 107.409 96.57C107.025 96.57 106.689 96.624 106.401 96.732C106.113 96.84 105.861 96.99 105.645 97.182C105.441 97.374 105.267 97.602 105.123 97.866C104.991 98.118 104.883 98.394 104.799 98.694L103.449 98.172C103.569 97.8 103.731 97.44 103.935 97.092C104.151 96.732 104.415 96.414 104.727 96.138C105.051 95.862 105.435 95.64 105.879 95.472C106.335 95.304 106.869 95.22 107.481 95.22C108.093 95.22 108.639 95.31 109.119 95.49C109.599 95.67 110.001 95.922 110.325 96.246C110.649 96.57 110.895 96.954 111.063 97.398C111.243 97.842 111.333 98.334 111.333 98.874C111.333 99.366 111.261 99.822 111.117 100.242C110.985 100.662 110.799 101.064 110.559 101.448C110.319 101.82 110.025 102.186 109.677 102.546C109.341 102.906 108.975 103.266 108.579 103.626L105.195 106.668H111.801V108ZM118.4 108.216C116.9 108.216 115.802 107.646 115.106 106.506C114.422 105.366 114.08 103.77 114.08 101.718C114.08 99.666 114.422 98.07 115.106 96.93C115.802 95.79 116.9 95.22 118.4 95.22C119.9 95.22 120.992 95.79 121.676 96.93C122.372 98.07 122.72 99.666 122.72 101.718C122.72 103.77 122.372 105.366 121.676 106.506C120.992 107.646 119.9 108.216 118.4 108.216ZM118.4 106.902C118.892 106.902 119.312 106.8 119.66 106.596C120.008 106.392 120.29 106.104 120.506 105.732C120.722 105.36 120.878 104.922 120.974 104.418C121.082 103.914 121.136 103.356 121.136 102.744V100.692C121.136 100.08 121.082 99.522 120.974 99.018C120.878 98.514 120.722 98.076 120.506 97.704C120.29 97.332 120.008 97.044 119.66 96.84C119.312 96.636 118.892 96.534 118.4 96.534C117.908 96.534 117.488 96.636 117.14 96.84C116.792 97.044 116.51 97.332 116.294 97.704C116.078 98.076 115.916 98.514 115.808 99.018C115.712 99.522 115.664 100.08 115.664 100.692V102.744C115.664 103.356 115.712 103.914 115.808 104.418C115.916 104.922 116.078 105.36 116.294 105.732C116.51 106.104 116.792 106.392 117.14 106.596C117.488 106.8 117.908 106.902 118.4 106.902Z" fill="#161616"/>
<path d="M176.801 108H168.557V106.452L172.661 102.672C173.249 102.132 173.741 101.562 174.137 100.962C174.533 100.35 174.731 99.738 174.731 99.126V98.91C174.731 98.214 174.539 97.65 174.155 97.218C173.771 96.786 173.189 96.57 172.409 96.57C172.025 96.57 171.689 96.624 171.401 96.732C171.113 96.84 170.861 96.99 170.645 97.182C170.441 97.374 170.267 97.602 170.123 97.866C169.991 98.118 169.883 98.394 169.799 98.694L168.449 98.172C168.569 97.8 168.731 97.44 168.935 97.092C169.151 96.732 169.415 96.414 169.727 96.138C170.051 95.862 170.435 95.64 170.879 95.472C171.335 95.304 171.869 95.22 172.481 95.22C173.093 95.22 173.639 95.31 174.119 95.49C174.599 95.67 175.001 95.922 175.325 96.246C175.649 96.57 175.895 96.954 176.063 97.398C176.243 97.842 176.333 98.334 176.333 98.874C176.333 99.366 176.261 99.822 176.117 100.242C175.985 100.662 175.799 101.064 175.559 101.448C175.319 101.82 175.025 102.186 174.677 102.546C174.341 102.906 173.975 103.266 173.579 103.626L170.195 106.668H176.801V108ZM186.964 96.768H181.456L181.096 101.556H181.222C181.522 101.136 181.858 100.8 182.23 100.548C182.614 100.296 183.136 100.17 183.796 100.17C184.336 100.17 184.834 100.26 185.29 100.44C185.746 100.62 186.142 100.878 186.478 101.214C186.814 101.538 187.072 101.94 187.252 102.42C187.444 102.9 187.54 103.446 187.54 104.058C187.54 104.67 187.444 105.234 187.252 105.75C187.06 106.254 186.778 106.692 186.406 107.064C186.046 107.424 185.602 107.706 185.074 107.91C184.558 108.114 183.97 108.216 183.31 108.216C182.782 108.216 182.314 108.156 181.906 108.036C181.51 107.916 181.156 107.754 180.844 107.55C180.532 107.346 180.256 107.118 180.016 106.866C179.788 106.614 179.578 106.35 179.386 106.074L180.52 105.21C180.676 105.462 180.838 105.69 181.006 105.894C181.186 106.098 181.378 106.272 181.582 106.416C181.798 106.56 182.044 106.674 182.32 106.758C182.596 106.83 182.926 106.866 183.31 106.866C184.174 106.866 184.828 106.638 185.272 106.182C185.716 105.726 185.938 105.084 185.938 104.256V104.076C185.938 103.248 185.716 102.606 185.272 102.15C184.828 101.694 184.174 101.466 183.31 101.466C182.734 101.466 182.278 101.574 181.942 101.79C181.618 101.994 181.324 102.24 181.06 102.528L179.782 102.348L180.232 95.436H186.964V96.768Z" fill="#161616"/>
<path d="M236.905 100.764C237.757 100.764 238.393 100.572 238.813 100.188C239.245 99.792 239.461 99.288 239.461 98.676V98.55C239.461 97.89 239.251 97.398 238.831 97.074C238.423 96.738 237.883 96.57 237.211 96.57C236.563 96.57 236.035 96.714 235.627 97.002C235.219 97.278 234.883 97.656 234.619 98.136L233.503 97.272C233.659 97.02 233.845 96.774 234.061 96.534C234.289 96.282 234.553 96.06 234.853 95.868C235.153 95.676 235.501 95.52 235.897 95.4C236.293 95.28 236.743 95.22 237.247 95.22C237.775 95.22 238.273 95.292 238.741 95.436C239.209 95.568 239.611 95.772 239.947 96.048C240.295 96.312 240.565 96.642 240.757 97.038C240.961 97.434 241.063 97.884 241.063 98.388C241.063 98.796 240.997 99.162 240.865 99.486C240.745 99.81 240.577 100.092 240.361 100.332C240.145 100.572 239.887 100.776 239.587 100.944C239.299 101.112 238.987 101.238 238.651 101.322V101.394C238.987 101.466 239.311 101.586 239.623 101.754C239.947 101.91 240.229 102.12 240.469 102.384C240.721 102.636 240.919 102.948 241.063 103.32C241.219 103.68 241.297 104.094 241.297 104.562C241.297 105.102 241.195 105.6 240.991 106.056C240.787 106.5 240.499 106.884 240.127 107.208C239.755 107.52 239.305 107.766 238.777 107.946C238.249 108.126 237.667 108.216 237.031 108.216C236.491 108.216 236.011 108.156 235.591 108.036C235.171 107.916 234.799 107.754 234.475 107.55C234.151 107.346 233.863 107.118 233.611 106.866C233.371 106.614 233.155 106.35 232.963 106.074L234.097 105.21C234.253 105.462 234.421 105.69 234.601 105.894C234.793 106.098 235.003 106.272 235.231 106.416C235.459 106.56 235.717 106.674 236.005 106.758C236.293 106.83 236.629 106.866 237.013 106.866C237.901 106.866 238.573 106.668 239.029 106.272C239.485 105.864 239.713 105.288 239.713 104.544V104.4C239.713 103.656 239.485 103.086 239.029 102.69C238.573 102.282 237.901 102.078 237.013 102.078H235.537V100.764H236.905ZM248.4 108.216C246.9 108.216 245.802 107.646 245.106 106.506C244.422 105.366 244.08 103.77 244.08 101.718C244.08 99.666 244.422 98.07 245.106 96.93C245.802 95.79 246.9 95.22 248.4 95.22C249.9 95.22 250.992 95.79 251.676 96.93C252.372 98.07 252.72 99.666 252.72 101.718C252.72 103.77 252.372 105.366 251.676 106.506C250.992 107.646 249.9 108.216 248.4 108.216ZM248.4 106.902C248.892 106.902 249.312 106.8 249.66 106.596C250.008 106.392 250.29 106.104 250.506 105.732C250.722 105.36 250.878 104.922 250.974 104.418C251.082 103.914 251.136 103.356 251.136 102.744V100.692C251.136 100.08 251.082 99.522 250.974 99.018C250.878 98.514 250.722 98.076 250.506 97.704C250.29 97.332 250.008 97.044 249.66 96.84C249.312 96.636 248.892 96.534 248.4 96.534C247.908 96.534 247.488 96.636 247.14 96.84C246.792 97.044 246.51 97.332 246.294 97.704C246.078 98.076 245.916 98.514 245.808 99.018C245.712 99.522 245.664 100.08 245.664 100.692V102.744C245.664 103.356 245.712 103.914 245.808 104.418C245.916 104.922 246.078 105.36 246.294 105.732C246.51 106.104 246.792 106.392 247.14 106.596C247.488 106.8 247.908 106.902 248.4 106.902Z" fill="#161616"/>
<path d="M301.905 100.764C302.757 100.764 303.393 100.572 303.813 100.188C304.245 99.792 304.461 99.288 304.461 98.676V98.55C304.461 97.89 304.251 97.398 303.831 97.074C303.423 96.738 302.883 96.57 302.211 96.57C301.563 96.57 301.035 96.714 300.627 97.002C300.219 97.278 299.883 97.656 299.619 98.136L298.503 97.272C298.659 97.02 298.845 96.774 299.061 96.534C299.289 96.282 299.553 96.06 299.853 95.868C300.153 95.676 300.501 95.52 300.897 95.4C301.293 95.28 301.743 95.22 302.247 95.22C302.775 95.22 303.273 95.292 303.741 95.436C304.209 95.568 304.611 95.772 304.947 96.048C305.295 96.312 305.565 96.642 305.757 97.038C305.961 97.434 306.063 97.884 306.063 98.388C306.063 98.796 305.997 99.162 305.865 99.486C305.745 99.81 305.577 100.092 305.361 100.332C305.145 100.572 304.887 100.776 304.587 100.944C304.299 101.112 303.987 101.238 303.651 101.322V101.394C303.987 101.466 304.311 101.586 304.623 101.754C304.947 101.91 305.229 102.12 305.469 102.384C305.721 102.636 305.919 102.948 306.063 103.32C306.219 103.68 306.297 104.094 306.297 104.562C306.297 105.102 306.195 105.6 305.991 106.056C305.787 106.5 305.499 106.884 305.127 107.208C304.755 107.52 304.305 107.766 303.777 107.946C303.249 108.126 302.667 108.216 302.031 108.216C301.491 108.216 301.011 108.156 300.591 108.036C300.171 107.916 299.799 107.754 299.475 107.55C299.151 107.346 298.863 107.118 298.611 106.866C298.371 106.614 298.155 106.35 297.963 106.074L299.097 105.21C299.253 105.462 299.421 105.69 299.601 105.894C299.793 106.098 300.003 106.272 300.231 106.416C300.459 106.56 300.717 106.674 301.005 106.758C301.293 106.83 301.629 106.866 302.013 106.866C302.901 106.866 303.573 106.668 304.029 106.272C304.485 105.864 304.713 105.288 304.713 104.544V104.4C304.713 103.656 304.485 103.086 304.029 102.69C303.573 102.282 302.901 102.078 302.013 102.078H300.537V100.764H301.905ZM316.964 96.768H311.456L311.096 101.556H311.222C311.522 101.136 311.858 100.8 312.23 100.548C312.614 100.296 313.136 100.17 313.796 100.17C314.336 100.17 314.834 100.26 315.29 100.44C315.746 100.62 316.142 100.878 316.478 101.214C316.814 101.538 317.072 101.94 317.252 102.42C317.444 102.9 317.54 103.446 317.54 104.058C317.54 104.67 317.444 105.234 317.252 105.75C317.06 106.254 316.778 106.692 316.406 107.064C316.046 107.424 315.602 107.706 315.074 107.91C314.558 108.114 313.97 108.216 313.31 108.216C312.782 108.216 312.314 108.156 311.906 108.036C311.51 107.916 311.156 107.754 310.844 107.55C310.532 107.346 310.256 107.118 310.016 106.866C309.788 106.614 309.578 106.35 309.386 106.074L310.52 105.21C310.676 105.462 310.838 105.69 311.006 105.894C311.186 106.098 311.378 106.272 311.582 106.416C311.798 106.56 312.044 106.674 312.32 106.758C312.596 106.83 312.926 106.866 313.31 106.866C314.174 106.866 314.828 106.638 315.272 106.182C315.716 105.726 315.938 105.084 315.938 104.256V104.076C315.938 103.248 315.716 102.606 315.272 102.15C314.828 101.694 314.174 101.466 313.31 101.466C312.734 101.466 312.278 101.574 311.942 101.79C311.618 101.994 311.324 102.24 311.06 102.528L309.782 102.348L310.232 95.436H316.964V96.768Z" fill="#161616"/>
<path d="M111.801 149H103.557V147.452L107.661 143.672C108.249 143.132 108.741 142.562 109.137 141.962C109.533 141.35 109.731 140.738 109.731 140.126V139.91C109.731 139.214 109.539 138.65 109.155 138.218C108.771 137.786 108.189 137.57 107.409 137.57C107.025 137.57 106.689 137.624 106.401 137.732C106.113 137.84 105.861 137.99 105.645 138.182C105.441 138.374 105.267 138.602 105.123 138.866C104.991 139.118 104.883 139.394 104.799 139.694L103.449 139.172C103.569 138.8 103.731 138.44 103.935 138.092C104.151 137.732 104.415 137.414 104.727 137.138C105.051 136.862 105.435 136.64 105.879 136.472C106.335 136.304 106.869 136.22 107.481 136.22C108.093 136.22 108.639 136.31 109.119 136.49C109.599 136.67 110.001 136.922 110.325 137.246C110.649 137.57 110.895 137.954 111.063 138.398C111.243 138.842 111.333 139.334 111.333 139.874C111.333 140.366 111.261 140.822 111.117 141.242C110.985 141.662 110.799 142.064 110.559 142.448C110.319 142.82 110.025 143.186 109.677 143.546C109.341 143.906 108.975 144.266 108.579 144.626L105.195 147.668H111.801V149ZM118.4 149.216C116.9 149.216 115.802 148.646 115.106 147.506C114.422 146.366 114.08 144.77 114.08 142.718C114.08 140.666 114.422 139.07 115.106 137.93C115.802 136.79 116.9 136.22 118.4 136.22C119.9 136.22 120.992 136.79 121.676 137.93C122.372 139.07 122.72 140.666 122.72 142.718C122.72 144.77 122.372 146.366 121.676 147.506C120.992 148.646 119.9 149.216 118.4 149.216ZM118.4 147.902C118.892 147.902 119.312 147.8 119.66 147.596C120.008 147.392 120.29 147.104 120.506 146.732C120.722 146.36 120.878 145.922 120.974 145.418C121.082 144.914 121.136 144.356 121.136 143.744V141.692C121.136 141.08 121.082 140.522 120.974 140.018C120.878 139.514 120.722 139.076 120.506 138.704C120.29 138.332 120.008 138.044 119.66 137.84C119.312 137.636 118.892 137.534 118.4 137.534C117.908 137.534 117.488 137.636 117.14 137.84C116.792 138.044 116.51 138.332 116.294 138.704C116.078 139.076 115.916 139.514 115.808 140.018C115.712 140.522 115.664 141.08 115.664 141.692V143.744C115.664 144.356 115.712 144.914 115.808 145.418C115.916 145.922 116.078 146.36 116.294 146.732C116.51 147.104 116.792 147.392 117.14 147.596C117.488 147.8 117.908 147.902 118.4 147.902Z" fill="#161616"/>
<path d="M176.801 149H168.557V147.452L172.661 143.672C173.249 143.132 173.741 142.562 174.137 141.962C174.533 141.35 174.731 140.738 174.731 140.126V139.91C174.731 139.214 174.539 138.65 174.155 138.218C173.771 137.786 173.189 137.57 172.409 137.57C172.025 137.57 171.689 137.624 171.401 137.732C171.113 137.84 170.861 137.99 170.645 138.182C170.441 138.374 170.267 138.602 170.123 138.866C169.991 139.118 169.883 139.394 169.799 139.694L168.449 139.172C168.569 138.8 168.731 138.44 168.935 138.092C169.151 137.732 169.415 137.414 169.727 137.138C170.051 136.862 170.435 136.64 170.879 136.472C171.335 136.304 171.869 136.22 172.481 136.22C173.093 136.22 173.639 136.31 174.119 136.49C174.599 136.67 175.001 136.922 175.325 137.246C175.649 137.57 175.895 137.954 176.063 138.398C176.243 138.842 176.333 139.334 176.333 139.874C176.333 140.366 176.261 140.822 176.117 141.242C175.985 141.662 175.799 142.064 175.559 142.448C175.319 142.82 175.025 143.186 174.677 143.546C174.341 143.906 173.975 144.266 173.579 144.626L170.195 147.668H176.801V149ZM186.964 137.768H181.456L181.096 142.556H181.222C181.522 142.136 181.858 141.8 182.23 141.548C182.614 141.296 183.136 141.17 183.796 141.17C184.336 141.17 184.834 141.26 185.29 141.44C185.746 141.62 186.142 141.878 186.478 142.214C186.814 142.538 187.072 142.94 187.252 143.42C187.444 143.9 187.54 144.446 187.54 145.058C187.54 145.67 187.444 146.234 187.252 146.75C187.06 147.254 186.778 147.692 186.406 148.064C186.046 148.424 185.602 148.706 185.074 148.91C184.558 149.114 183.97 149.216 183.31 149.216C182.782 149.216 182.314 149.156 181.906 149.036C181.51 148.916 181.156 148.754 180.844 148.55C180.532 148.346 180.256 148.118 180.016 147.866C179.788 147.614 179.578 147.35 179.386 147.074L180.52 146.21C180.676 146.462 180.838 146.69 181.006 146.894C181.186 147.098 181.378 147.272 181.582 147.416C181.798 147.56 182.044 147.674 182.32 147.758C182.596 147.83 182.926 147.866 183.31 147.866C184.174 147.866 184.828 147.638 185.272 147.182C185.716 146.726 185.938 146.084 185.938 145.256V145.076C185.938 144.248 185.716 143.606 185.272 143.15C184.828 142.694 184.174 142.466 183.31 142.466C182.734 142.466 182.278 142.574 181.942 142.79C181.618 142.994 181.324 143.24 181.06 143.528L179.782 143.348L180.232 136.436H186.964V137.768Z" fill="#161616"/>
<path d="M236.905 141.764C237.757 141.764 238.393 141.572 238.813 141.188C239.245 140.792 239.461 140.288 239.461 139.676V139.55C239.461 138.89 239.251 138.398 238.831 138.074C238.423 137.738 237.883 137.57 237.211 137.57C236.563 137.57 236.035 137.714 235.627 138.002C235.219 138.278 234.883 138.656 234.619 139.136L233.503 138.272C233.659 138.02 233.845 137.774 234.061 137.534C234.289 137.282 234.553 137.06 234.853 136.868C235.153 136.676 235.501 136.52 235.897 136.4C236.293 136.28 236.743 136.22 237.247 136.22C237.775 136.22 238.273 136.292 238.741 136.436C239.209 136.568 239.611 136.772 239.947 137.048C240.295 137.312 240.565 137.642 240.757 138.038C240.961 138.434 241.063 138.884 241.063 139.388C241.063 139.796 240.997 140.162 240.865 140.486C240.745 140.81 240.577 141.092 240.361 141.332C240.145 141.572 239.887 141.776 239.587 141.944C239.299 142.112 238.987 142.238 238.651 142.322V142.394C238.987 142.466 239.311 142.586 239.623 142.754C239.947 142.91 240.229 143.12 240.469 143.384C240.721 143.636 240.919 143.948 241.063 144.32C241.219 144.68 241.297 145.094 241.297 145.562C241.297 146.102 241.195 146.6 240.991 147.056C240.787 147.5 240.499 147.884 240.127 148.208C239.755 148.52 239.305 148.766 238.777 148.946C238.249 149.126 237.667 149.216 237.031 149.216C236.491 149.216 236.011 149.156 235.591 149.036C235.171 148.916 234.799 148.754 234.475 148.55C234.151 148.346 233.863 148.118 233.611 147.866C233.371 147.614 233.155 147.35 232.963 147.074L234.097 146.21C234.253 146.462 234.421 146.69 234.601 146.894C234.793 147.098 235.003 147.272 235.231 147.416C235.459 147.56 235.717 147.674 236.005 147.758C236.293 147.83 236.629 147.866 237.013 147.866C237.901 147.866 238.573 147.668 239.029 147.272C239.485 146.864 239.713 146.288 239.713 145.544V145.4C239.713 144.656 239.485 144.086 239.029 143.69C238.573 143.282 237.901 143.078 237.013 143.078H235.537V141.764H236.905ZM248.4 149.216C246.9 149.216 245.802 148.646 245.106 147.506C244.422 146.366 244.08 144.77 244.08 142.718C244.08 140.666 244.422 139.07 245.106 137.93C245.802 136.79 246.9 136.22 248.4 136.22C249.9 136.22 250.992 136.79 251.676 137.93C252.372 139.07 252.72 140.666 252.72 142.718C252.72 144.77 252.372 146.366 251.676 147.506C250.992 148.646 249.9 149.216 248.4 149.216ZM248.4 147.902C248.892 147.902 249.312 147.8 249.66 147.596C250.008 147.392 250.29 147.104 250.506 146.732C250.722 146.36 250.878 145.922 250.974 145.418C251.082 144.914 251.136 144.356 251.136 143.744V141.692C251.136 141.08 251.082 140.522 250.974 140.018C250.878 139.514 250.722 139.076 250.506 138.704C250.29 138.332 250.008 138.044 249.66 137.84C249.312 137.636 248.892 137.534 248.4 137.534C247.908 137.534 247.488 137.636 247.14 137.84C246.792 138.044 246.51 138.332 246.294 138.704C246.078 139.076 245.916 139.514 245.808 140.018C245.712 140.522 245.664 141.08 245.664 141.692V143.744C245.664 144.356 245.712 144.914 245.808 145.418C245.916 145.922 246.078 146.36 246.294 146.732C246.51 147.104 246.792 147.392 247.14 147.596C247.488 147.8 247.908 147.902 248.4 147.902Z" fill="#161616"/>
<path d="M301.905 141.764C302.757 141.764 303.393 141.572 303.813 141.188C304.245 140.792 304.461 140.288 304.461 139.676V139.55C304.461 138.89 304.251 138.398 303.831 138.074C303.423 137.738 302.883 137.57 302.211 137.57C301.563 137.57 301.035 137.714 300.627 138.002C300.219 138.278 299.883 138.656 299.619 139.136L298.503 138.272C298.659 138.02 298.845 137.774 299.061 137.534C299.289 137.282 299.553 137.06 299.853 136.868C300.153 136.676 300.501 136.52 300.897 136.4C301.293 136.28 301.743 136.22 302.247 136.22C302.775 136.22 303.273 136.292 303.741 136.436C304.209 136.568 304.611 136.772 304.947 137.048C305.295 137.312 305.565 137.642 305.757 138.038C305.961 138.434 306.063 138.884 306.063 139.388C306.063 139.796 305.997 140.162 305.865 140.486C305.745 140.81 305.577 141.092 305.361 141.332C305.145 141.572 304.887 141.776 304.587 141.944C304.299 142.112 303.987 142.238 303.651 142.322V142.394C303.987 142.466 304.311 142.586 304.623 142.754C304.947 142.91 305.229 143.12 305.469 143.384C305.721 143.636 305.919 143.948 306.063 144.32C306.219 144.68 306.297 145.094 306.297 145.562C306.297 146.102 306.195 146.6 305.991 147.056C305.787 147.5 305.499 147.884 305.127 148.208C304.755 148.52 304.305 148.766 303.777 148.946C303.249 149.126 302.667 149.216 302.031 149.216C301.491 149.216 301.011 149.156 300.591 149.036C300.171 148.916 299.799 148.754 299.475 148.55C299.151 148.346 298.863 148.118 298.611 147.866C298.371 147.614 298.155 147.35 297.963 147.074L299.097 146.21C299.253 146.462 299.421 146.69 299.601 146.894C299.793 147.098 300.003 147.272 300.231 147.416C300.459 147.56 300.717 147.674 301.005 147.758C301.293 147.83 301.629 147.866 302.013 147.866C302.901 147.866 303.573 147.668 304.029 147.272C304.485 146.864 304.713 146.288 304.713 145.544V145.4C304.713 144.656 304.485 144.086 304.029 143.69C303.573 143.282 302.901 143.078 302.013 143.078H300.537V141.764H301.905ZM316.964 137.768H311.456L311.096 142.556H311.222C311.522 142.136 311.858 141.8 312.23 141.548C312.614 141.296 313.136 141.17 313.796 141.17C314.336 141.17 314.834 141.26 315.29 141.44C315.746 141.62 316.142 141.878 316.478 142.214C316.814 142.538 317.072 142.94 317.252 143.42C317.444 143.9 317.54 144.446 317.54 145.058C317.54 145.67 317.444 146.234 317.252 146.75C317.06 147.254 316.778 147.692 316.406 148.064C316.046 148.424 315.602 148.706 315.074 148.91C314.558 149.114 313.97 149.216 313.31 149.216C312.782 149.216 312.314 149.156 311.906 149.036C311.51 148.916 311.156 148.754 310.844 148.55C310.532 148.346 310.256 148.118 310.016 147.866C309.788 147.614 309.578 147.35 309.386 147.074L310.52 146.21C310.676 146.462 310.838 146.69 311.006 146.894C311.186 147.098 311.378 147.272 311.582 147.416C311.798 147.56 312.044 147.674 312.32 147.758C312.596 147.83 312.926 147.866 313.31 147.866C314.174 147.866 314.828 147.638 315.272 147.182C315.716 146.726 315.938 146.084 315.938 145.256V145.076C315.938 144.248 315.716 143.606 315.272 143.15C314.828 142.694 314.174 142.466 313.31 142.466C312.734 142.466 312.278 142.574 311.942 142.79C311.618 142.994 311.324 143.24 311.06 143.528L309.782 143.348L310.232 136.436H316.964V137.768Z" fill="#161616"/>
<path d="M111.801 186H103.557V184.452L107.661 180.672C108.249 180.132 108.741 179.562 109.137 178.962C109.533 178.35 109.731 177.738 109.731 177.126V176.91C109.731 176.214 109.539 175.65 109.155 175.218C108.771 174.786 108.189 174.57 107.409 174.57C107.025 174.57 106.689 174.624 106.401 174.732C106.113 174.84 105.861 174.99 105.645 175.182C105.441 175.374 105.267 175.602 105.123 175.866C104.991 176.118 104.883 176.394 104.799 176.694L103.449 176.172C103.569 175.8 103.731 175.44 103.935 175.092C104.151 174.732 104.415 174.414 104.727 174.138C105.051 173.862 105.435 173.64 105.879 173.472C106.335 173.304 106.869 173.22 107.481 173.22C108.093 173.22 108.639 173.31 109.119 173.49C109.599 173.67 110.001 173.922 110.325 174.246C110.649 174.57 110.895 174.954 111.063 175.398C111.243 175.842 111.333 176.334 111.333 176.874C111.333 177.366 111.261 177.822 111.117 178.242C110.985 178.662 110.799 179.064 110.559 179.448C110.319 179.82 110.025 180.186 109.677 180.546C109.341 180.906 108.975 181.266 108.579 181.626L105.195 184.668H111.801V186ZM118.4 186.216C116.9 186.216 115.802 185.646 115.106 184.506C114.422 183.366 114.08 181.77 114.08 179.718C114.08 177.666 114.422 176.07 115.106 174.93C115.802 173.79 116.9 173.22 118.4 173.22C119.9 173.22 120.992 173.79 121.676 174.93C122.372 176.07 122.72 177.666 122.72 179.718C122.72 181.77 122.372 183.366 121.676 184.506C120.992 185.646 119.9 186.216 118.4 186.216ZM118.4 184.902C118.892 184.902 119.312 184.8 119.66 184.596C120.008 184.392 120.29 184.104 120.506 183.732C120.722 183.36 120.878 182.922 120.974 182.418C121.082 181.914 121.136 181.356 121.136 180.744V178.692C121.136 178.08 121.082 177.522 120.974 177.018C120.878 176.514 120.722 176.076 120.506 175.704C120.29 175.332 120.008 175.044 119.66 174.84C119.312 174.636 118.892 174.534 118.4 174.534C117.908 174.534 117.488 174.636 117.14 174.84C116.792 175.044 116.51 175.332 116.294 175.704C116.078 176.076 115.916 176.514 115.808 177.018C115.712 177.522 115.664 178.08 115.664 178.692V180.744C115.664 181.356 115.712 181.914 115.808 182.418C115.916 182.922 116.078 183.36 116.294 183.732C116.51 184.104 116.792 184.392 117.14 184.596C117.488 184.8 117.908 184.902 118.4 184.902Z" fill="#161616"/>
<path d="M176.801 186H168.557V184.452L172.661 180.672C173.249 180.132 173.741 179.562 174.137 178.962C174.533 178.35 174.731 177.738 174.731 177.126V176.91C174.731 176.214 174.539 175.65 174.155 175.218C173.771 174.786 173.189 174.57 172.409 174.57C172.025 174.57 171.689 174.624 171.401 174.732C171.113 174.84 170.861 174.99 170.645 175.182C170.441 175.374 170.267 175.602 170.123 175.866C169.991 176.118 169.883 176.394 169.799 176.694L168.449 176.172C168.569 175.8 168.731 175.44 168.935 175.092C169.151 174.732 169.415 174.414 169.727 174.138C170.051 173.862 170.435 173.64 170.879 173.472C171.335 173.304 171.869 173.22 172.481 173.22C173.093 173.22 173.639 173.31 174.119 173.49C174.599 173.67 175.001 173.922 175.325 174.246C175.649 174.57 175.895 174.954 176.063 175.398C176.243 175.842 176.333 176.334 176.333 176.874C176.333 177.366 176.261 177.822 176.117 178.242C175.985 178.662 175.799 179.064 175.559 179.448C175.319 179.82 175.025 180.186 174.677 180.546C174.341 180.906 173.975 181.266 173.579 181.626L170.195 184.668H176.801V186ZM186.964 174.768H181.456L181.096 179.556H181.222C181.522 179.136 181.858 178.8 182.23 178.548C182.614 178.296 183.136 178.17 183.796 178.17C184.336 178.17 184.834 178.26 185.29 178.44C185.746 178.62 186.142 178.878 186.478 179.214C186.814 179.538 187.072 179.94 187.252 180.42C187.444 180.9 187.54 181.446 187.54 182.058C187.54 182.67 187.444 183.234 187.252 183.75C187.06 184.254 186.778 184.692 186.406 185.064C186.046 185.424 185.602 185.706 185.074 185.91C184.558 186.114 183.97 186.216 183.31 186.216C182.782 186.216 182.314 186.156 181.906 186.036C181.51 185.916 181.156 185.754 180.844 185.55C180.532 185.346 180.256 185.118 180.016 184.866C179.788 184.614 179.578 184.35 179.386 184.074L180.52 183.21C180.676 183.462 180.838 183.69 181.006 183.894C181.186 184.098 181.378 184.272 181.582 184.416C181.798 184.56 182.044 184.674 182.32 184.758C182.596 184.83 182.926 184.866 183.31 184.866C184.174 184.866 184.828 184.638 185.272 184.182C185.716 183.726 185.938 183.084 185.938 182.256V182.076C185.938 181.248 185.716 180.606 185.272 180.15C184.828 179.694 184.174 179.466 183.31 179.466C182.734 179.466 182.278 179.574 181.942 179.79C181.618 179.994 181.324 180.24 181.06 180.528L179.782 180.348L180.232 173.436H186.964V174.768Z" fill="#161616"/>
<path d="M236.905 178.764C237.757 178.764 238.393 178.572 238.813 178.188C239.245 177.792 239.461 177.288 239.461 176.676V176.55C239.461 175.89 239.251 175.398 238.831 175.074C238.423 174.738 237.883 174.57 237.211 174.57C236.563 174.57 236.035 174.714 235.627 175.002C235.219 175.278 234.883 175.656 234.619 176.136L233.503 175.272C233.659 175.02 233.845 174.774 234.061 174.534C234.289 174.282 234.553 174.06 234.853 173.868C235.153 173.676 235.501 173.52 235.897 173.4C236.293 173.28 236.743 173.22 237.247 173.22C237.775 173.22 238.273 173.292 238.741 173.436C239.209 173.568 239.611 173.772 239.947 174.048C240.295 174.312 240.565 174.642 240.757 175.038C240.961 175.434 241.063 175.884 241.063 176.388C241.063 176.796 240.997 177.162 240.865 177.486C240.745 177.81 240.577 178.092 240.361 178.332C240.145 178.572 239.887 178.776 239.587 178.944C239.299 179.112 238.987 179.238 238.651 179.322V179.394C238.987 179.466 239.311 179.586 239.623 179.754C239.947 179.91 240.229 180.12 240.469 180.384C240.721 180.636 240.919 180.948 241.063 181.32C241.219 181.68 241.297 182.094 241.297 182.562C241.297 183.102 241.195 183.6 240.991 184.056C240.787 184.5 240.499 184.884 240.127 185.208C239.755 185.52 239.305 185.766 238.777 185.946C238.249 186.126 237.667 186.216 237.031 186.216C236.491 186.216 236.011 186.156 235.591 186.036C235.171 185.916 234.799 185.754 234.475 185.55C234.151 185.346 233.863 185.118 233.611 184.866C233.371 184.614 233.155 184.35 232.963 184.074L234.097 183.21C234.253 183.462 234.421 183.69 234.601 183.894C234.793 184.098 235.003 184.272 235.231 184.416C235.459 184.56 235.717 184.674 236.005 184.758C236.293 184.83 236.629 184.866 237.013 184.866C237.901 184.866 238.573 184.668 239.029 184.272C239.485 183.864 239.713 183.288 239.713 182.544V182.4C239.713 181.656 239.485 181.086 239.029 180.69C238.573 180.282 237.901 180.078 237.013 180.078H235.537V178.764H236.905ZM248.4 186.216C246.9 186.216 245.802 185.646 245.106 184.506C244.422 183.366 244.08 181.77 244.08 179.718C244.08 177.666 244.422 176.07 245.106 174.93C245.802 173.79 246.9 173.22 248.4 173.22C249.9 173.22 250.992 173.79 251.676 174.93C252.372 176.07 252.72 177.666 252.72 179.718C252.72 181.77 252.372 183.366 251.676 184.506C250.992 185.646 249.9 186.216 248.4 186.216ZM248.4 184.902C248.892 184.902 249.312 184.8 249.66 184.596C250.008 184.392 250.29 184.104 250.506 183.732C250.722 183.36 250.878 182.922 250.974 182.418C251.082 181.914 251.136 181.356 251.136 180.744V178.692C251.136 178.08 251.082 177.522 250.974 177.018C250.878 176.514 250.722 176.076 250.506 175.704C250.29 175.332 250.008 175.044 249.66 174.84C249.312 174.636 248.892 174.534 248.4 174.534C247.908 174.534 247.488 174.636 247.14 174.84C246.792 175.044 246.51 175.332 246.294 175.704C246.078 176.076 245.916 176.514 245.808 177.018C245.712 177.522 245.664 178.08 245.664 178.692V180.744C245.664 181.356 245.712 181.914 245.808 182.418C245.916 182.922 246.078 183.36 246.294 183.732C246.51 184.104 246.792 184.392 247.14 184.596C247.488 184.8 247.908 184.902 248.4 184.902Z" fill="#161616"/>
<path d="M301.905 178.764C302.757 178.764 303.393 178.572 303.813 178.188C304.245 177.792 304.461 177.288 304.461 176.676V176.55C304.461 175.89 304.251 175.398 303.831 175.074C303.423 174.738 302.883 174.57 302.211 174.57C301.563 174.57 301.035 174.714 300.627 175.002C300.219 175.278 299.883 175.656 299.619 176.136L298.503 175.272C298.659 175.02 298.845 174.774 299.061 174.534C299.289 174.282 299.553 174.06 299.853 173.868C300.153 173.676 300.501 173.52 300.897 173.4C301.293 173.28 301.743 173.22 302.247 173.22C302.775 173.22 303.273 173.292 303.741 173.436C304.209 173.568 304.611 173.772 304.947 174.048C305.295 174.312 305.565 174.642 305.757 175.038C305.961 175.434 306.063 175.884 306.063 176.388C306.063 176.796 305.997 177.162 305.865 177.486C305.745 177.81 305.577 178.092 305.361 178.332C305.145 178.572 304.887 178.776 304.587 178.944C304.299 179.112 303.987 179.238 303.651 179.322V179.394C303.987 179.466 304.311 179.586 304.623 179.754C304.947 179.91 305.229 180.12 305.469 180.384C305.721 180.636 305.919 180.948 306.063 181.32C306.219 181.68 306.297 182.094 306.297 182.562C306.297 183.102 306.195 183.6 305.991 184.056C305.787 184.5 305.499 184.884 305.127 185.208C304.755 185.52 304.305 185.766 303.777 185.946C303.249 186.126 302.667 186.216 302.031 186.216C301.491 186.216 301.011 186.156 300.591 186.036C300.171 185.916 299.799 185.754 299.475 185.55C299.151 185.346 298.863 185.118 298.611 184.866C298.371 184.614 298.155 184.35 297.963 184.074L299.097 183.21C299.253 183.462 299.421 183.69 299.601 183.894C299.793 184.098 300.003 184.272 300.231 184.416C300.459 184.56 300.717 184.674 301.005 184.758C301.293 184.83 301.629 184.866 302.013 184.866C302.901 184.866 303.573 184.668 304.029 184.272C304.485 183.864 304.713 183.288 304.713 182.544V182.4C304.713 181.656 304.485 181.086 304.029 180.69C303.573 180.282 302.901 180.078 302.013 180.078H300.537V178.764H301.905ZM316.964 174.768H311.456L311.096 179.556H311.222C311.522 179.136 311.858 178.8 312.23 178.548C312.614 178.296 313.136 178.17 313.796 178.17C314.336 178.17 314.834 178.26 315.29 178.44C315.746 178.62 316.142 178.878 316.478 179.214C316.814 179.538 317.072 179.94 317.252 180.42C317.444 180.9 317.54 181.446 317.54 182.058C317.54 182.67 317.444 183.234 317.252 183.75C317.06 184.254 316.778 184.692 316.406 185.064C316.046 185.424 315.602 185.706 315.074 185.91C314.558 186.114 313.97 186.216 313.31 186.216C312.782 186.216 312.314 186.156 311.906 186.036C311.51 185.916 311.156 185.754 310.844 185.55C310.532 185.346 310.256 185.118 310.016 184.866C309.788 184.614 309.578 184.35 309.386 184.074L310.52 183.21C310.676 183.462 310.838 183.69 311.006 183.894C311.186 184.098 311.378 184.272 311.582 184.416C311.798 184.56 312.044 184.674 312.32 184.758C312.596 184.83 312.926 184.866 313.31 184.866C314.174 184.866 314.828 184.638 315.272 184.182C315.716 183.726 315.938 183.084 315.938 182.256V182.076C315.938 181.248 315.716 180.606 315.272 180.15C314.828 179.694 314.174 179.466 313.31 179.466C312.734 179.466 312.278 179.574 311.942 179.79C311.618 179.994 311.324 180.24 311.06 180.528L309.782 180.348L310.232 173.436H316.964V174.768Z" fill="#161616"/>
<path d="M23.173 186V173.436H24.685V184.668H30.031V186H23.173ZM35.3628 186.216C34.7268 186.216 34.1508 186.102 33.6348 185.874C33.1308 185.646 32.6928 185.322 32.3208 184.902C31.9608 184.47 31.6788 183.96 31.4748 183.372C31.2828 182.772 31.1868 182.1 31.1868 181.356C31.1868 180.624 31.2828 179.958 31.4748 179.358C31.6788 178.758 31.9608 178.248 32.3208 177.828C32.6928 177.396 33.1308 177.066 33.6348 176.838C34.1508 176.61 34.7268 176.496 35.3628 176.496C35.9868 176.496 36.5448 176.61 37.0368 176.838C37.5288 177.066 37.9488 177.384 38.2968 177.792C38.6448 178.188 38.9088 178.662 39.0888 179.214C39.2808 179.766 39.3768 180.372 39.3768 181.032V181.716H32.6988V182.148C32.6988 182.544 32.7588 182.916 32.8788 183.264C33.0108 183.6 33.1908 183.894 33.4188 184.146C33.6588 184.398 33.9468 184.596 34.2828 184.74C34.6308 184.884 35.0208 184.956 35.4528 184.956C36.0408 184.956 36.5508 184.818 36.9828 184.542C37.4268 184.266 37.7688 183.87 38.0088 183.354L39.0348 184.092C38.7348 184.728 38.2668 185.244 37.6308 185.64C36.9948 186.024 36.2388 186.216 35.3628 186.216ZM35.3628 177.702C34.9668 177.702 34.6068 177.774 34.2828 177.918C33.9588 178.05 33.6768 178.242 33.4368 178.494C33.2088 178.746 33.0288 179.046 32.8968 179.394C32.7648 179.73 32.6988 180.102 32.6988 180.51V180.636H37.8288V180.438C37.8288 179.61 37.6008 178.95 37.1448 178.458C36.7008 177.954 36.1068 177.702 35.3628 177.702ZM41.7497 186V176.712H43.1897V178.224H43.2617C43.4897 177.696 43.8077 177.276 44.2157 176.964C44.6357 176.652 45.1937 176.496 45.8897 176.496C46.8497 176.496 47.6057 176.808 48.1577 177.432C48.7217 178.044 49.0037 178.914 49.0037 180.042V186H47.5637V180.294C47.5637 178.626 46.8617 177.792 45.4577 177.792C45.1697 177.792 44.8877 177.828 44.6117 177.9C44.3477 177.972 44.1077 178.08 43.8917 178.224C43.6757 178.368 43.5017 178.554 43.3697 178.782C43.2497 178.998 43.1897 179.256 43.1897 179.556V186H41.7497ZM59.8102 187.026C59.8102 187.986 59.4322 188.688 58.6762 189.132C57.9322 189.588 56.8102 189.816 55.3102 189.816C53.8582 189.816 52.8142 189.618 52.1782 189.222C51.5422 188.826 51.2242 188.262 51.2242 187.53C51.2242 187.026 51.3562 186.63 51.6202 186.342C51.8842 186.066 52.2442 185.862 52.7002 185.73V185.532C52.1482 185.268 51.8722 184.836 51.8722 184.236C51.8722 183.768 52.0222 183.414 52.3222 183.174C52.6222 182.922 53.0062 182.736 53.4742 182.616V182.544C52.9222 182.28 52.4902 181.902 52.1782 181.41C51.8782 180.918 51.7282 180.348 51.7282 179.7C51.7282 179.232 51.8122 178.8 51.9802 178.404C52.1482 178.008 52.3822 177.672 52.6822 177.396C52.9942 177.108 53.3602 176.886 53.7802 176.73C54.2122 176.574 54.6922 176.496 55.2202 176.496C55.8802 176.496 56.4682 176.616 56.9842 176.856V176.694C56.9842 176.334 57.0682 176.04 57.2362 175.812C57.4042 175.572 57.6802 175.452 58.0642 175.452H59.4502V176.712H57.6862V177.306C58.0222 177.594 58.2802 177.942 58.4602 178.35C58.6522 178.746 58.7482 179.196 58.7482 179.7C58.7482 180.168 58.6642 180.6 58.4962 180.996C58.3282 181.392 58.0882 181.734 57.7762 182.022C57.4762 182.298 57.1102 182.514 56.6782 182.67C56.2462 182.826 55.7662 182.904 55.2382 182.904C54.9382 182.904 54.6382 182.874 54.3382 182.814C54.0262 182.898 53.7442 183.024 53.4922 183.192C53.2402 183.348 53.1142 183.57 53.1142 183.858C53.1142 184.134 53.2462 184.32 53.5102 184.416C53.7742 184.512 54.1162 184.56 54.5362 184.56H56.5162C57.6682 184.56 58.5022 184.782 59.0182 185.226C59.5462 185.658 59.8102 186.258 59.8102 187.026ZM58.4602 187.134C58.4602 186.762 58.3162 186.462 58.0282 186.234C57.7522 186.018 57.2542 185.91 56.5342 185.91H53.4382C52.8622 186.174 52.5742 186.594 52.5742 187.17C52.5742 187.578 52.7242 187.926 53.0242 188.214C53.3362 188.502 53.8582 188.646 54.5902 188.646H55.9222C56.7262 188.646 57.3502 188.52 57.7942 188.268C58.2382 188.016 58.4602 187.638 58.4602 187.134ZM55.2382 181.752C55.8502 181.752 56.3362 181.608 56.6962 181.32C57.0562 181.02 57.2362 180.564 57.2362 179.952V179.448C57.2362 178.836 57.0562 178.386 56.6962 178.098C56.3362 177.798 55.8502 177.648 55.2382 177.648C54.6262 177.648 54.1402 177.798 53.7802 178.098C53.4202 178.386 53.2402 178.836 53.2402 179.448V179.952C53.2402 180.564 53.4202 181.02 53.7802 181.32C54.1402 181.608 54.6262 181.752 55.2382 181.752ZM63.542 186C63.038 186 62.654 185.862 62.39 185.586C62.138 185.298 62.012 184.926 62.012 184.47V177.972H60.482V176.712H61.346C61.658 176.712 61.868 176.652 61.976 176.532C62.096 176.4 62.156 176.178 62.156 175.866V174.138H63.452V176.712H65.486V177.972H63.452V184.74H65.342V186H63.542ZM67.8005 172.68H69.2405V178.224H69.3125C69.5405 177.696 69.8585 177.276 70.2665 176.964C70.6865 176.652 71.2445 176.496 71.9405 176.496C72.9005 176.496 73.6565 176.808 74.2085 177.432C74.7725 178.044 75.0545 178.914 75.0545 180.042V186H73.6145V180.294C73.6145 178.626 72.9125 177.792 71.5085 177.792C71.2205 177.792 70.9385 177.828 70.6625 177.9C70.3985 177.972 70.1585 178.08 69.9425 178.224C69.7265 178.368 69.5525 178.554 69.4205 178.782C69.3005 178.998 69.2405 179.256 69.2405 179.556V186H67.8005V172.68Z" fill="#161616"/>
<path d="M27.478 145.216C25.882 145.216 24.64 144.676 23.752 143.596C22.864 142.504 22.42 140.902 22.42 138.79C22.42 136.678 22.864 135.058 23.752 133.93C24.64 132.79 25.882 132.22 27.478 132.22C28.534 132.22 29.416 132.46 30.124 132.94C30.844 133.42 31.402 134.098 31.798 134.974L30.574 135.712C30.322 135.064 29.938 134.548 29.422 134.164C28.906 133.768 28.258 133.57 27.478 133.57C26.938 133.57 26.452 133.672 26.02 133.876C25.6 134.08 25.24 134.374 24.94 134.758C24.652 135.13 24.43 135.58 24.274 136.108C24.118 136.624 24.04 137.206 24.04 137.854V139.726C24.04 141.022 24.34 142.036 24.94 142.768C25.54 143.5 26.386 143.866 27.478 143.866C28.282 143.866 28.954 143.662 29.494 143.254C30.034 142.834 30.43 142.282 30.682 141.598L31.888 142.354C31.492 143.242 30.922 143.944 30.178 144.46C29.434 144.964 28.534 145.216 27.478 145.216ZM34.0857 131.68H35.5257V137.224H35.5977C35.8257 136.696 36.1437 136.276 36.5517 135.964C36.9717 135.652 37.5297 135.496 38.2257 135.496C39.1857 135.496 39.9417 135.808 40.4937 136.432C41.0577 137.044 41.3397 137.914 41.3397 139.042V145H39.8997V139.294C39.8997 137.626 39.1977 136.792 37.7937 136.792C37.5057 136.792 37.2237 136.828 36.9477 136.9C36.6837 136.972 36.4437 137.08 36.2277 137.224C36.0117 137.368 35.8377 137.554 35.7057 137.782C35.5857 137.998 35.5257 138.256 35.5257 138.556V145H34.0857V131.68ZM47.8081 145.216C47.1721 145.216 46.5961 145.102 46.0801 144.874C45.5761 144.646 45.1381 144.322 44.7661 143.902C44.4061 143.47 44.1241 142.96 43.9201 142.372C43.7281 141.772 43.6321 141.1 43.6321 140.356C43.6321 139.624 43.7281 138.958 43.9201 138.358C44.1241 137.758 44.4061 137.248 44.7661 136.828C45.1381 136.396 45.5761 136.066 46.0801 135.838C46.5961 135.61 47.1721 135.496 47.8081 135.496C48.4321 135.496 48.9901 135.61 49.4821 135.838C49.9741 136.066 50.3941 136.384 50.7421 136.792C51.0901 137.188 51.3541 137.662 51.5341 138.214C51.7261 138.766 51.8221 139.372 51.8221 140.032V140.716H45.1441V141.148C45.1441 141.544 45.2041 141.916 45.3241 142.264C45.4561 142.6 45.6361 142.894 45.8641 143.146C46.1041 143.398 46.3921 143.596 46.7281 143.74C47.0761 143.884 47.4661 143.956 47.8981 143.956C48.4861 143.956 48.9961 143.818 49.4281 143.542C49.8721 143.266 50.2141 142.87 50.4541 142.354L51.4801 143.092C51.1801 143.728 50.7121 144.244 50.0761 144.64C49.4401 145.024 48.6841 145.216 47.8081 145.216ZM47.8081 136.702C47.4121 136.702 47.0521 136.774 46.7281 136.918C46.4041 137.05 46.1221 137.242 45.8821 137.494C45.6541 137.746 45.4741 138.046 45.3421 138.394C45.2101 138.73 45.1441 139.102 45.1441 139.51V139.636H50.2741V139.438C50.2741 138.61 50.0461 137.95 49.5901 137.458C49.1461 136.954 48.5521 136.702 47.8081 136.702ZM56.985 145.216C56.121 145.216 55.395 145.054 54.807 144.73C54.231 144.394 53.733 143.95 53.313 143.398L54.339 142.57C54.699 143.026 55.101 143.38 55.545 143.632C55.989 143.872 56.505 143.992 57.093 143.992C57.705 143.992 58.179 143.86 58.515 143.596C58.863 143.332 59.037 142.96 59.037 142.48C59.037 142.12 58.917 141.814 58.677 141.562C58.449 141.298 58.029 141.118 57.417 141.022L56.679 140.914C56.247 140.854 55.851 140.764 55.491 140.644C55.131 140.512 54.813 140.344 54.537 140.14C54.273 139.924 54.063 139.66 53.907 139.348C53.763 139.036 53.691 138.664 53.691 138.232C53.691 137.776 53.775 137.38 53.943 137.044C54.111 136.696 54.339 136.408 54.627 136.18C54.927 135.952 55.281 135.784 55.689 135.676C56.097 135.556 56.535 135.496 57.003 135.496C57.759 135.496 58.389 135.628 58.893 135.892C59.409 136.156 59.859 136.522 60.243 136.99L59.289 137.854C59.085 137.566 58.785 137.308 58.389 137.08C57.993 136.84 57.495 136.72 56.895 136.72C56.295 136.72 55.839 136.852 55.527 137.116C55.227 137.368 55.077 137.716 55.077 138.16C55.077 138.616 55.227 138.946 55.527 139.15C55.839 139.354 56.283 139.504 56.859 139.6L57.579 139.708C58.611 139.864 59.343 140.164 59.775 140.608C60.207 141.04 60.423 141.61 60.423 142.318C60.423 143.218 60.117 143.926 59.505 144.442C58.893 144.958 58.053 145.216 56.985 145.216ZM64.8955 145C64.3915 145 64.0075 144.862 63.7435 144.586C63.4915 144.298 63.3655 143.926 63.3655 143.47V136.972H61.8355V135.712H62.6995C63.0115 135.712 63.2215 135.652 63.3295 135.532C63.4495 135.4 63.5095 135.178 63.5095 134.866V133.138H64.8055V135.712H66.8395V136.972H64.8055V143.74H66.6955V145H64.8955Z" fill="#161616"/>
<path d="M180.473 67.216C179.453 67.216 178.583 67.024 177.863 66.64C177.143 66.244 176.531 65.704 176.027 65.02L177.143 64.084C177.587 64.672 178.079 65.122 178.619 65.434C179.159 65.734 179.795 65.884 180.527 65.884C181.427 65.884 182.111 65.668 182.579 65.236C183.059 64.804 183.299 64.228 183.299 63.508C183.299 62.908 183.119 62.446 182.759 62.122C182.399 61.798 181.805 61.54 180.977 61.348L179.951 61.114C178.799 60.85 177.917 60.454 177.305 59.926C176.705 59.386 176.405 58.63 176.405 57.658C176.405 57.106 176.507 56.614 176.711 56.182C176.915 55.75 177.197 55.39 177.557 55.102C177.929 54.814 178.367 54.598 178.871 54.454C179.387 54.298 179.951 54.22 180.563 54.22C181.511 54.22 182.321 54.394 182.993 54.742C183.677 55.09 184.253 55.6 184.721 56.272L183.587 57.1C183.239 56.62 182.819 56.242 182.327 55.966C181.835 55.69 181.223 55.552 180.491 55.552C179.687 55.552 179.051 55.726 178.583 56.074C178.127 56.41 177.899 56.92 177.899 57.604C177.899 58.204 178.091 58.66 178.475 58.972C178.871 59.272 179.465 59.512 180.257 59.692L181.283 59.926C182.519 60.202 183.413 60.622 183.965 61.186C184.517 61.75 184.793 62.5 184.793 63.436C184.793 64.012 184.691 64.534 184.487 65.002C184.295 65.47 184.013 65.866 183.641 66.19C183.269 66.514 182.813 66.766 182.273 66.946C181.745 67.126 181.145 67.216 180.473 67.216Z" fill="#161616"/>
<path d="M248.662 56.416H248.572L247.51 58.522L244.504 63.994L241.498 58.522L240.436 56.416H240.346V67H238.87V54.436H240.886L244.486 61.204H244.576L248.194 54.436H250.138V67H248.662V56.416Z" fill="#161616"/>
<path d="M305.165 67V54.436H306.677V65.668H312.023V67H305.165Z" fill="#161616"/>
<rect x="3" y="3" width="343" height="41" fill="white"/>
<path d="M111.253 30.216C110.233 30.216 109.363 30.024 108.643 29.64C107.923 29.244 107.311 28.704 106.807 28.02L107.923 27.084C108.367 27.672 108.859 28.122 109.399 28.434C109.939 28.734 110.575 28.884 111.307 28.884C112.207 28.884 112.891 28.668 113.359 28.236C113.839 27.804 114.079 27.228 114.079 26.508C114.079 25.908 113.899 25.446 113.539 25.122C113.179 24.798 112.585 24.54 111.757 24.348L110.731 24.114C109.579 23.85 108.697 23.454 108.085 22.926C107.485 22.386 107.185 21.63 107.185 20.658C107.185 20.106 107.287 19.614 107.491 19.182C107.695 18.75 107.977 18.39 108.337 18.102C108.709 17.814 109.147 17.598 109.651 17.454C110.167 17.298 110.731 17.22 111.343 17.22C112.291 17.22 113.101 17.394 113.773 17.742C114.457 18.09 115.033 18.6 115.501 19.272L114.367 20.1C114.019 19.62 113.599 19.242 113.107 18.966C112.615 18.69 112.003 18.552 111.271 18.552C110.467 18.552 109.831 18.726 109.363 19.074C108.907 19.41 108.679 19.92 108.679 20.604C108.679 21.204 108.871 21.66 109.255 21.972C109.651 22.272 110.245 22.512 111.037 22.692L112.063 22.926C113.299 23.202 114.193 23.622 114.745 24.186C115.297 24.75 115.573 25.5 115.573 26.436C115.573 27.012 115.471 27.534 115.267 28.002C115.075 28.47 114.793 28.866 114.421 29.19C114.049 29.514 113.593 29.766 113.053 29.946C112.525 30.126 111.925 30.216 111.253 30.216ZM118.76 18.534C118.448 18.534 118.22 18.462 118.076 18.318C117.944 18.162 117.878 17.964 117.878 17.724V17.49C117.878 17.25 117.944 17.058 118.076 16.914C118.22 16.758 118.448 16.68 118.76 16.68C119.072 16.68 119.294 16.758 119.426 16.914C119.57 17.058 119.642 17.25 119.642 17.49V17.724C119.642 17.964 119.57 18.162 119.426 18.318C119.294 18.462 119.072 18.534 118.76 18.534ZM118.04 20.712H119.48V30H118.04V20.712ZM121.604 30V28.794L126.878 21.972H121.766V20.712H128.624V21.792L123.242 28.74H128.768V30H121.604ZM131.609 18.534C131.297 18.534 131.069 18.462 130.925 18.318C130.793 18.162 130.727 17.964 130.727 17.724V17.49C130.727 17.25 130.793 17.058 130.925 16.914C131.069 16.758 131.297 16.68 131.609 16.68C131.921 16.68 132.143 16.758 132.275 16.914C132.419 17.058 132.491 17.25 132.491 17.49V17.724C132.491 17.964 132.419 18.162 132.275 18.318C132.143 18.462 131.921 18.534 131.609 18.534ZM130.889 20.712H132.329V30H130.889V20.712ZM135.389 30V20.712H136.829V22.224H136.901C137.129 21.696 137.447 21.276 137.855 20.964C138.275 20.652 138.833 20.496 139.529 20.496C140.489 20.496 141.245 20.808 141.797 21.432C142.361 22.044 142.643 22.914 142.643 24.042V30H141.203V24.294C141.203 22.626 140.501 21.792 139.097 21.792C138.809 21.792 138.527 21.828 138.251 21.9C137.987 21.972 137.747 22.08 137.531 22.224C137.315 22.368 137.141 22.554 137.009 22.782C136.889 22.998 136.829 23.256 136.829 23.556V30H135.389ZM153.45 31.026C153.45 31.986 153.072 32.688 152.316 33.132C151.572 33.588 150.45 33.816 148.95 33.816C147.498 33.816 146.454 33.618 145.818 33.222C145.182 32.826 144.864 32.262 144.864 31.53C144.864 31.026 144.996 30.63 145.26 30.342C145.524 30.066 145.884 29.862 146.34 29.73V29.532C145.788 29.268 145.512 28.836 145.512 28.236C145.512 27.768 145.662 27.414 145.962 27.174C146.262 26.922 146.646 26.736 147.114 26.616V26.544C146.562 26.28 146.13 25.902 145.818 25.41C145.518 24.918 145.368 24.348 145.368 23.7C145.368 23.232 145.452 22.8 145.62 22.404C145.788 22.008 146.022 21.672 146.322 21.396C146.634 21.108 147 20.886 147.42 20.73C147.852 20.574 148.332 20.496 148.86 20.496C149.52 20.496 150.108 20.616 150.624 20.856V20.694C150.624 20.334 150.708 20.04 150.876 19.812C151.044 19.572 151.32 19.452 151.704 19.452H153.09V20.712H151.326V21.306C151.662 21.594 151.92 21.942 152.1 22.35C152.292 22.746 152.388 23.196 152.388 23.7C152.388 24.168 152.304 24.6 152.136 24.996C151.968 25.392 151.728 25.734 151.416 26.022C151.116 26.298 150.75 26.514 150.318 26.67C149.886 26.826 149.406 26.904 148.878 26.904C148.578 26.904 148.278 26.874 147.978 26.814C147.666 26.898 147.384 27.024 147.132 27.192C146.88 27.348 146.754 27.57 146.754 27.858C146.754 28.134 146.886 28.32 147.15 28.416C147.414 28.512 147.756 28.56 148.176 28.56H150.156C151.308 28.56 152.142 28.782 152.658 29.226C153.186 29.658 153.45 30.258 153.45 31.026ZM152.1 31.134C152.1 30.762 151.956 30.462 151.668 30.234C151.392 30.018 150.894 29.91 150.174 29.91H147.078C146.502 30.174 146.214 30.594 146.214 31.17C146.214 31.578 146.364 31.926 146.664 32.214C146.976 32.502 147.498 32.646 148.23 32.646H149.562C150.366 32.646 150.99 32.52 151.434 32.268C151.878 32.016 152.1 31.638 152.1 31.134ZM148.878 25.752C149.49 25.752 149.976 25.608 150.336 25.32C150.696 25.02 150.876 24.564 150.876 23.952V23.448C150.876 22.836 150.696 22.386 150.336 22.098C149.976 21.798 149.49 21.648 148.878 21.648C148.266 21.648 147.78 21.798 147.42 22.098C147.06 22.386 146.88 22.836 146.88 23.448V23.952C146.88 24.564 147.06 25.02 147.42 25.32C147.78 25.608 148.266 25.752 148.878 25.752ZM163.956 30.216C162.36 30.216 161.118 29.676 160.23 28.596C159.342 27.504 158.898 25.902 158.898 23.79C158.898 21.678 159.342 20.058 160.23 18.93C161.118 17.79 162.36 17.22 163.956 17.22C165.012 17.22 165.894 17.46 166.602 17.94C167.322 18.42 167.88 19.098 168.276 19.974L167.052 20.712C166.8 20.064 166.416 19.548 165.9 19.164C165.384 18.768 164.736 18.57 163.956 18.57C163.416 18.57 162.93 18.672 162.498 18.876C162.078 19.08 161.718 19.374 161.418 19.758C161.13 20.13 160.908 20.58 160.752 21.108C160.596 21.624 160.518 22.206 160.518 22.854V24.726C160.518 26.022 160.818 27.036 161.418 27.768C162.018 28.5 162.864 28.866 163.956 28.866C164.76 28.866 165.432 28.662 165.972 28.254C166.512 27.834 166.908 27.282 167.16 26.598L168.366 27.354C167.97 28.242 167.4 28.944 166.656 29.46C165.912 29.964 165.012 30.216 163.956 30.216ZM170.563 16.68H172.003V22.224H172.075C172.303 21.696 172.621 21.276 173.029 20.964C173.449 20.652 174.007 20.496 174.703 20.496C175.663 20.496 176.419 20.808 176.971 21.432C177.535 22.044 177.817 22.914 177.817 24.042V30H176.377V24.294C176.377 22.626 175.675 21.792 174.271 21.792C173.983 21.792 173.701 21.828 173.425 21.9C173.161 21.972 172.921 22.08 172.705 22.224C172.489 22.368 172.315 22.554 172.183 22.782C172.063 22.998 172.003 23.256 172.003 23.556V30H170.563V16.68ZM187.544 30C187.004 30 186.614 29.856 186.374 29.568C186.146 29.28 186.002 28.92 185.942 28.488H185.852C185.648 29.064 185.312 29.496 184.844 29.784C184.376 30.072 183.818 30.216 183.17 30.216C182.186 30.216 181.418 29.964 180.866 29.46C180.326 28.956 180.056 28.272 180.056 27.408C180.056 26.532 180.374 25.86 181.01 25.392C181.658 24.924 182.66 24.69 184.016 24.69H185.852V23.772C185.852 23.112 185.672 22.608 185.312 22.26C184.952 21.912 184.4 21.738 183.656 21.738C183.092 21.738 182.618 21.864 182.234 22.116C181.862 22.368 181.55 22.704 181.298 23.124L180.434 22.314C180.686 21.81 181.088 21.384 181.64 21.036C182.192 20.676 182.888 20.496 183.728 20.496C184.856 20.496 185.732 20.772 186.356 21.324C186.98 21.876 187.292 22.644 187.292 23.628V28.74H188.354V30H187.544ZM183.404 28.992C183.764 28.992 184.094 28.95 184.394 28.866C184.694 28.782 184.952 28.662 185.168 28.506C185.384 28.35 185.552 28.17 185.672 27.966C185.792 27.762 185.852 27.54 185.852 27.3V25.77H183.944C183.116 25.77 182.51 25.89 182.126 26.13C181.754 26.37 181.568 26.718 181.568 27.174V27.552C181.568 28.008 181.73 28.362 182.054 28.614C182.39 28.866 182.84 28.992 183.404 28.992ZM190.409 30V20.712H191.849V22.422H191.939C192.107 21.978 192.407 21.582 192.839 21.234C193.271 20.886 193.865 20.712 194.621 20.712H195.179V22.152H194.333C193.553 22.152 192.941 22.302 192.497 22.602C192.065 22.89 191.849 23.256 191.849 23.7V30H190.409ZM199.141 30C198.637 30 198.253 29.862 197.989 29.586C197.737 29.298 197.611 28.926 197.611 28.47V21.972H196.081V20.712H196.945C197.257 20.712 197.467 20.652 197.575 20.532C197.695 20.4 197.755 20.178 197.755 19.866V18.138H199.051V20.712H201.085V21.972H199.051V28.74H200.941V30H199.141ZM207.617 24.384C207.617 23.52 207.701 22.686 207.869 21.882C208.037 21.078 208.265 20.334 208.553 19.65C208.853 18.954 209.201 18.324 209.597 17.76C209.993 17.196 210.419 16.716 210.875 16.32H212.243C211.739 16.776 211.283 17.292 210.875 17.868C210.479 18.444 210.137 19.056 209.849 19.704C209.573 20.352 209.357 21.012 209.201 21.684C209.045 22.356 208.967 23.004 208.967 23.628V25.176C208.967 25.812 209.045 26.466 209.201 27.138C209.357 27.81 209.579 28.47 209.867 29.118C210.155 29.766 210.497 30.378 210.893 30.954C211.301 31.53 211.751 32.034 212.243 32.466H210.875C210.431 32.094 210.011 31.626 209.615 31.062C209.219 30.498 208.871 29.868 208.571 29.172C208.283 28.476 208.049 27.726 207.869 26.922C207.701 26.106 207.617 25.26 207.617 24.384ZM217.138 30.216C216.49 30.216 215.908 30.102 215.392 29.874C214.876 29.646 214.438 29.322 214.078 28.902C213.73 28.482 213.46 27.972 213.268 27.372C213.088 26.772 212.998 26.1 212.998 25.356C212.998 24.612 213.088 23.94 213.268 23.34C213.46 22.74 213.73 22.23 214.078 21.81C214.438 21.39 214.876 21.066 215.392 20.838C215.908 20.61 216.49 20.496 217.138 20.496C218.062 20.496 218.8 20.7 219.352 21.108C219.916 21.504 220.336 22.026 220.612 22.674L219.406 23.286C219.238 22.806 218.962 22.434 218.578 22.17C218.194 21.906 217.714 21.774 217.138 21.774C216.706 21.774 216.328 21.846 216.004 21.99C215.68 22.122 215.41 22.314 215.194 22.566C214.978 22.806 214.816 23.1 214.708 23.448C214.6 23.784 214.546 24.156 214.546 24.564V26.148C214.546 26.964 214.762 27.636 215.194 28.164C215.638 28.68 216.286 28.938 217.138 28.938C218.302 28.938 219.142 28.398 219.658 27.318L220.702 28.02C220.402 28.692 219.952 29.226 219.352 29.622C218.764 30.018 218.026 30.216 217.138 30.216ZM222.735 30V20.712H224.175V22.224H224.247C224.355 21.984 224.475 21.762 224.607 21.558C224.751 21.342 224.919 21.156 225.111 21C225.315 20.844 225.549 20.724 225.813 20.64C226.077 20.544 226.389 20.496 226.749 20.496C227.361 20.496 227.925 20.646 228.441 20.946C228.957 21.234 229.341 21.714 229.593 22.386H229.629C229.797 21.882 230.109 21.444 230.565 21.072C231.033 20.688 231.663 20.496 232.455 20.496C233.403 20.496 234.141 20.808 234.669 21.432C235.209 22.044 235.479 22.914 235.479 24.042V30H234.039V24.294C234.039 23.466 233.877 22.842 233.553 22.422C233.229 22.002 232.713 21.792 232.005 21.792C231.717 21.792 231.441 21.828 231.177 21.9C230.925 21.972 230.697 22.08 230.493 22.224C230.289 22.368 230.127 22.554 230.007 22.782C229.887 22.998 229.827 23.256 229.827 23.556V30H228.387V24.294C228.387 23.466 228.225 22.842 227.901 22.422C227.577 22.002 227.073 21.792 226.389 21.792C226.101 21.792 225.825 21.828 225.561 21.9C225.297 21.972 225.063 22.08 224.859 22.224C224.655 22.368 224.487 22.554 224.355 22.782C224.235 22.998 224.175 23.256 224.175 23.556V30H222.735ZM241.456 24.384C241.456 25.26 241.366 26.106 241.186 26.922C241.018 27.726 240.784 28.476 240.484 29.172C240.196 29.868 239.854 30.498 239.458 31.062C239.062 31.626 238.642 32.094 238.198 32.466H236.83C237.322 32.034 237.766 31.53 238.162 30.954C238.57 30.378 238.918 29.766 239.206 29.118C239.494 28.47 239.716 27.81 239.872 27.138C240.028 26.466 240.106 25.812 240.106 25.176V23.628C240.106 23.004 240.028 22.356 239.872 21.684C239.716 21.012 239.494 20.352 239.206 19.704C238.93 19.056 238.588 18.444 238.18 17.868C237.784 17.292 237.334 16.776 236.83 16.32H238.198C238.654 16.716 239.08 17.196 239.476 17.76C239.872 18.324 240.214 18.954 240.502 19.65C240.802 20.334 241.036 21.078 241.204 21.882C241.372 22.686 241.456 23.52 241.456 24.384Z" fill="#232535"/>
</svg>
