<svg width="311" height="525" viewBox="0 0 311 525" fill="none" xmlns="http://www.w3.org/2000/svg">
<g clip-path="url(#clip0_734_1023)">
<path d="M243.353 200.18H277.667L279.301 199.55H241.719L243.353 200.18Z" fill="#404040"/>
<path d="M276.033 177.14H266.011V169.712H268.735V163.417H266.011V100.971C267.754 100.971 269.17 99.5863 269.17 97.8237H251.959C251.959 99.5863 253.375 100.971 255.118 100.971V163.417H252.395V169.712H255.118V177.14H245.096L245.205 183.939H276.033V177.14V177.14ZM256.97 208.615H252.613C252.613 441.151 241.502 525 241.502 525H256.97V208.615ZM264.05 477.536V525H279.519C279.519 525 268.408 441.151 268.408 208.615H264.05V477.536Z" fill="#A8A29C"/>
<path d="M239.65 196.403H281.371V197.662H239.65V196.403ZM239.65 193.507H281.371V194.514H239.65V193.507ZM239.65 188.471H281.371V189.73H239.65V188.471ZM256.97 477.536H264.05V525H256.97V477.536ZM256.97 208.615H264.05V477.536H256.97V208.615Z" fill="#AFC6D2"/>
<path opacity="0.5" d="M256.97 208.615V525H264.05V208.615H256.97Z" fill="#B5B6B6"/>
<path d="M239.65 194.64V196.403H281.371V194.514H239.65V194.64ZM239.65 191.241V193.507H281.371V189.604H239.65V191.241Z" fill="#646464"/>
<path d="M239.65 198.669L241.719 199.55H279.301L281.371 198.669V197.662H239.65V198.669Z" fill="black"/>
<path d="M275.924 183.939H245.096C243.244 187.716 239.65 188.471 239.65 188.471H281.371C281.371 188.471 277.885 187.59 275.924 183.939Z" fill="#84B6DB"/>
<path d="M266.011 94.6762H265.14V55.2698H263.288V38.6511H262.416V25.054H258.713V38.6511H257.841V55.2698H255.989V94.6762H255.118C253.375 94.6762 251.959 96.0611 251.959 97.8237H269.17C269.17 96.0611 267.754 94.6762 266.011 94.6762V94.6762Z" fill="white"/>
<path d="M245.096 182.554H276.033V183.813H245.096V182.554Z" fill="#D02027"/>
<path d="M255.99 55.2698H265.14V56.9065H255.99V55.2698ZM257.732 38.6511H263.288V40.2878H257.732V38.6511Z" fill="#C32327"/>
<path d="M258 37H263V39H258V37Z" fill="#D02027"/>
<path d="M258.604 23.4172H262.307V25.0539H258.604V23.4172Z" fill="#C32327"/>
<path d="M259.366 21.7805H261.654V23.4172H259.366V21.7805Z" fill="#C32327"/>
<path d="M259 7H262V22H259V7Z" fill="#D02027"/>
<path d="M257 53.3713H264V55H257V53.3713ZM259.882 0H261.118V7.39179H259.882V0Z" fill="#D02027"/>
<path d="M239.65 204.461C239.65 206.853 241.393 208.741 243.353 208.741H277.449C279.519 208.741 281.153 206.853 281.153 204.461C281.153 202.068 279.519 200.18 277.449 200.18H243.027C241.284 200.18 239.65 202.068 239.65 204.461V204.461Z" fill="white"/>
<path d="M75.2718 499.82V332.626H71.677V274.586H65.6858V267.662H59.3677V252.554H54.5748V234.802H50.98V225.863H40.6315V190.36H38.235V225.863H27.8865V234.802H24.2917V252.554H19.4987V267.662H13.0718V274.586H7.08053V332.626H3.48578V499.82H75.2718Z" fill="#68BDC6"/>
<path d="M15.7951 267.662H18.1916V499.82H15.7951V267.662ZM33.7688 225.863H36.1653V499.82H33.7688V225.863ZM42.7012 225.863H45.0977V499.82H42.7012V225.863ZM60.675 267.662H63.0715V499.82H60.675V267.662Z" fill="#838383"/>
<path d="M54.0301 499.82H51.6336V237.572H27.124V499.82H24.7275V234.425H54.0301V499.82Z" fill="#838383"/>
<path d="M25.9258 243.993H52.8319V247.014H25.9258V243.993ZM19.4988 263.507H59.3678V266.529H19.4988V263.507ZM19.4988 253.939H59.3678V256.96H19.4988V253.939ZM72.0039 499.82H69.6074V276.349H9.15028V499.82H6.75378V273.327H72.0039V499.82Z" fill="#838383"/>
<path d="M7.95204 283.021H70.8056V286.043H7.95204V283.021ZM7.95204 292.842H70.8056V295.863H7.95204V292.842ZM7.95204 302.662H70.8056V305.683H7.95204V302.662ZM7.95204 312.356H70.8056V315.378H7.95204V312.356ZM7.95204 322.176H70.8056V325.198H7.95204V322.176ZM76.4701 499.82H74.0736V335.018H4.68409V499.82H2.2876V331.996H76.4701V499.82Z" fill="#838383"/>
<path d="M3.48578 341.816H75.2718V344.838H3.48578V341.816ZM3.48578 351.511H75.2718V354.532H3.48578V351.511ZM3.48578 361.331H75.2718V364.352H3.48578V361.331ZM3.48578 371.151H75.2718V374.172H3.48578V371.151ZM3.48578 380.845H75.2718V383.867H3.48578V380.845ZM3.48578 390.665H75.2718V393.687H3.48578V390.665ZM3.48578 400.485H75.2718V403.507H3.48578V400.485ZM3.48578 410.18H75.2718V413.201H3.48578V410.18ZM3.48578 420H75.2718V423.021H3.48578V420ZM3.48578 429.82H75.2718V432.842H3.48578V429.82ZM3.48578 439.64H75.2718V442.662H3.48578V439.64ZM3.48578 449.334H75.2718V452.356H3.48578V449.334ZM3.48578 459.155H75.2718V462.176H3.48578V459.155ZM3.48578 468.975H75.2718V471.996H3.48578V468.975ZM3.48578 478.669H75.2718V481.691H3.48578V478.669ZM3.48578 488.489H75.2718V491.511H3.48578V488.489ZM3.48578 498.309H75.2718V501.331H3.48578V498.309ZM75.2718 508.003V511.151V508.003ZM3.48578 511.151V508.003V511.151ZM75.2718 517.824V520.845V517.824ZM3.48578 520.845V517.824V520.845ZM3.48578 481.816H75.2718V484.838H3.48578V481.816Z" fill="#838383"/>
<path d="M3.48578 462.176H75.2718V491.511H3.48578V462.176Z" fill="black"/>
<path d="M3.48578 468.975H75.2718V471.996H3.48578V468.975ZM3.48578 478.669H75.2718V481.691H3.48578V478.669ZM3.48578 488.489H75.2718V491.511H3.48578V488.489ZM3.48578 498.309H75.2718V501.331H3.48578V498.309Z" fill="black"/>
<path d="M38.235 152.464H40.6315V207.104H38.235V152.464Z" fill="black"/>
<path d="M27.2329 225.863H50.98V235.558H27.2329V225.863ZM63.0714 267.662H65.7947V273.327H63.0714V267.662ZM13.0718 267.662H15.7951V273.327H13.0718V267.662Z" fill="#838383"/>
<path d="M76.4701 501.331H2.2876V330.989H5.88233V272.95H11.8736V266.151H18.3006V251.043H23.0935V233.291H26.6883V224.352H37.0368V176.133H41.8298V224.352H52.1783V233.291H55.7731V251.043H60.5661V266.151H66.993V273.076H72.9843V331.115H76.579V501.331H76.4701ZM4.68409 498.309H74.0736V334.137H70.4788V276.097H64.4876V269.173H58.0606V254.065H53.3766V236.313H49.7818V227.374H29.0848V236.313H25.49V254.065H20.697V269.173H14.2701V276.097H8.27884V334.137H4.68409V498.309Z" fill="#838383"/>
<path d="M31.4813 190.36H47.2764V208.615H31.4813V190.36Z" fill="#3B9F47"/>
<path d="M215.031 230.521H211.872V240.342H208.604V250.288H206.317V260.737H203.376V270.557H200.87V278.111H190.739V270.557H188.125V260.737H185.184V250.288H182.896V240.342H179.628V230.521H176.469V461.295H215.031V230.521Z" fill="black"/>
<path d="M209.585 239.209H215.14V245.504H209.585V239.209ZM176.469 239.209H182.896V245.504H176.469V239.209ZM206.317 251.169H215.031V257.464H206.317V251.169ZM203.376 263.004H215.031V269.299H203.376V263.004ZM193.027 274.838H215.031V281.133H193.027V274.838ZM176.469 286.799H215.031V293.094H176.469V286.799ZM176.469 298.633H215.031V304.928H176.469V298.633ZM176.469 310.594H215.031V316.889H176.469V310.594ZM176.469 322.428H215.031V328.723H176.469V322.428ZM176.469 334.263H215.031V340.558H176.469V334.263ZM176.469 346.223H215.031V352.518H176.469V346.223ZM176.469 358.058H215.031V364.353H176.469V358.058ZM176.469 370.018H215.031V376.313H176.469V370.018ZM176.469 381.853H215.031V388.148H176.469V381.853ZM176.469 393.687H215.031V399.982H176.469V393.687ZM176.469 405.648H215.031V411.943H176.469V405.648ZM176.469 417.482H215.031V423.777H176.469V417.482ZM176.469 429.443H215.031V435.738H176.469V429.443ZM176.469 441.277H215.031V447.572H176.469V441.277ZM176.469 453.112H215.031V459.407H176.469V453.112ZM176.469 465.072H215.031V471.367H176.469V465.072Z" fill="#9B6355"/>
<path d="M176.469 440.647H215.031V466.709H176.469V440.647Z" fill="black"/>
<path d="M176.469 446.187H215.031V452.482H176.469V446.187ZM176.469 456.133H215.031V462.428H176.469V456.133ZM176.469 263.004H188.125V269.299H176.469V263.004ZM176.469 274.838H193.027V281.133H176.469V274.838ZM176.469 251.169H185.184V257.464H176.469V251.169Z" fill="#9B6355"/>
<path d="M175.489 230.521H178.212V461.295H175.489V230.521ZM180.609 240.342H183.332V461.169H180.609V240.342ZM186.164 260.737H188.888V461.295H186.164V260.737ZM191.611 279.622H194.334V461.295H191.611V279.622ZM197.166 279.622H199.89V461.295H197.166V279.622ZM202.613 260.737H205.336V461.295H202.613V260.737ZM208.169 240.342H210.892V461.169H208.169V240.342ZM213.397 230.521H216.121V461.295H213.397V230.521Z" fill="#9B6355"/>
<path d="M204.683 260.737H208.931V263.003H204.683V260.737ZM177.232 230.521H179.628V240.342H177.232V230.521ZM182.57 255.827H185.511V265.647H182.57V255.827Z" fill="#9B6355"/>
<path d="M185.184 260.737H186.818V264.892H185.184V260.737ZM188.125 270.557H190.63V276.726H188.125V270.557ZM200.87 270.557H204.029V275.845H200.87V270.557ZM206.317 256.834H208.495V262.374H206.317V256.834ZM211.981 230.521H214.704V241.349H211.981V230.521Z" fill="#9B6355"/>
<path d="M176.469 226.619V230.522H179.628V240.342H182.896V251.169H185.184V260.737H188.125V270.558H190.739V278.112H200.87V270.558H203.376V260.737H206.317V250.917H208.604V240.342H211.872V230.522H215.031V226.619H176.469Z" fill="#7A4A3D"/>
<path d="M184.421 232.788H207.079V235.935H184.421V232.788ZM187.254 242.734H204.247V245.881H187.254V242.734ZM190.086 252.68H201.415V255.827H190.086V252.68ZM192.918 262.626H198.582V265.773H192.918V262.626Z" fill="black"/>
<path opacity="0.1" d="M224.073 283.525L215.031 272.698V461.295H224.073V283.525Z" fill="#010101"/>
<path d="M144.77 226.619H152.722V461.169H144.77V226.619ZM160.565 226.619H168.517V461.169H160.565V226.619ZM168.517 226.619H176.469V461.169H168.517V226.619Z" fill="#9B6355"/>
<path d="M152.722 226.619H160.674V461.169H152.722V226.619Z" fill="#9B6355"/>
<path opacity="0.4" d="M144.77 226.619H152.722V461.169H144.77V226.619Z" fill="white"/>
<path opacity="0.3" d="M152 227H159.952V461.55H152V227Z" fill="black"/>
<path opacity="0.2" d="M160 227H167.952V461.55H160V227Z" fill="black"/>
<path opacity="0.1" d="M168 227H175.952V461.55H168V227Z" fill="black"/>
<path d="M168.517 243.237H172.439V248.777H168.517V243.237ZM168.517 256.709H172.439V262.248H168.517V256.709ZM168.517 270.054H172.439V275.593H168.517V270.054ZM168.517 283.525H172.439V289.065H168.517V283.525ZM168.517 296.87H172.439V302.41H168.517V296.87ZM168.517 310.342H172.439V315.881H168.517V310.342ZM168.517 323.687H172.439V329.227H168.517V323.687ZM168.517 337.158H172.439V342.698H168.517V337.158ZM168.517 350.503H172.439V356.043H168.517V350.503ZM168.517 363.975H172.439V369.514H168.517V363.975ZM168.517 377.32H172.439V382.86H168.517V377.32ZM168.517 390.791H172.439V396.331H168.517V390.791ZM168.517 404.137H172.439V409.676H168.517V404.137ZM168.517 417.608H172.439V423.147H168.517V417.608ZM168.517 430.953H172.439V436.493H168.517V430.953ZM168.517 444.424H172.439V449.964H168.517V444.424ZM168.517 457.77H172.439V463.309H168.517V457.77ZM168.517 471.241H172.439V476.78H168.517V471.241Z" fill="black"/>
<path d="M168.517 438.759H172.439V465.576H168.517V438.759Z" fill="black"/>
<path d="M168.517 446.565H172.439V452.104H168.517V446.565ZM160.565 243.237H164.487V248.777H160.565V243.237ZM160.565 256.709H164.487V262.248H160.565V256.709ZM160.565 270.054H164.487V275.593H160.565V270.054ZM160.565 283.525H164.487V289.065H160.565V283.525ZM160.565 296.87H164.487V302.41H160.565V296.87ZM160.565 310.342H164.487V315.881H160.565V310.342ZM160.565 323.687H164.487V329.227H160.565V323.687ZM160.565 337.158H164.487V342.698H160.565V337.158ZM160.565 350.503H164.487V356.043H160.565V350.503ZM160.565 363.975H164.487V369.514H160.565V363.975ZM160.565 377.32H164.487V382.86H160.565V377.32ZM160.565 390.791H164.487V396.331H160.565V390.791ZM160.565 404.137H164.487V409.676H160.565V404.137ZM160.565 417.608H164.487V423.147H160.565V417.608ZM160.565 430.953H164.487V436.493H160.565V430.953ZM160.565 444.424H164.487V449.964H160.565V444.424ZM160.565 457.77H164.487V463.309H160.565V457.77ZM160.565 471.241H164.487V476.78H160.565V471.241Z" fill="black"/>
<path d="M160.565 438.759H164.487V465.576H160.565V438.759Z" fill="black"/>
<path d="M160.565 446.565H164.487V452.104H160.565V446.565ZM152.722 243.237H156.644V248.777H152.722V243.237ZM152.722 256.709H156.644V262.248H152.722V256.709ZM152.722 270.054H156.644V275.593H152.722V270.054ZM152.722 283.525H156.644V289.065H152.722V283.525ZM152.722 296.87H156.644V302.41H152.722V296.87ZM152.722 310.342H156.644V315.881H152.722V310.342ZM152.722 323.687H156.644V329.227H152.722V323.687ZM152.722 337.158H156.644V342.698H152.722V337.158ZM152.722 350.503H156.644V356.043H152.722V350.503ZM152.722 363.975H156.644V369.514H152.722V363.975ZM152.722 377.32H156.644V382.86H152.722V377.32ZM152.722 390.791H156.644V396.331H152.722V390.791ZM152.722 404.137H156.644V409.676H152.722V404.137ZM152.722 417.608H156.644V423.147H152.722V417.608ZM152.722 430.953H156.644V436.493H152.722V430.953ZM152.722 444.424H156.644V449.964H152.722V444.424ZM152.722 457.77H156.644V463.309H152.722V457.77ZM152.722 471.241H156.644V476.78H152.722V471.241Z" fill="black"/>
<path d="M152.722 438.759H156.644V465.576H152.722V438.759Z" fill="black"/>
<path d="M152.722 446.565H156.644V452.104H152.722V446.565ZM144.77 243.237H148.692V248.777H144.77V243.237ZM144.77 256.709H148.692V262.248H144.77V256.709ZM144.77 270.054H148.692V275.593H144.77V270.054ZM144.77 283.525H148.692V289.065H144.77V283.525ZM144.77 296.87H148.692V302.41H144.77V296.87ZM144.77 310.342H148.692V315.881H144.77V310.342ZM144.77 323.687H148.692V329.227H144.77V323.687ZM144.77 337.158H148.692V342.698H144.77V337.158ZM144.77 350.503H148.692V356.043H144.77V350.503ZM144.77 363.975H148.692V369.514H144.77V363.975ZM144.77 377.32H148.692V382.86H144.77V377.32ZM144.77 390.791H148.692V396.331H144.77V390.791ZM144.77 404.137H148.692V409.676H144.77V404.137ZM144.77 417.608H148.692V423.147H144.77V417.608ZM144.77 430.953H148.692V436.493H144.77V430.953ZM144.77 444.424H148.692V449.964H144.77V444.424ZM144.77 457.77H148.692V463.309H144.77V457.77ZM144.77 471.241H148.692V476.78H144.77V471.241Z" fill="black"/>
<path d="M144.77 438.759H148.692V465.576H144.77V438.759Z" fill="black"/>
<path d="M144.77 446.565H148.692V452.104H144.77V446.565Z" fill="black"/>
<path d="M215 227H224.041V461.55H215V227Z" fill="#9B6355"/>
<path d="M220.151 243.237H224.073V248.777H220.151V243.237ZM220.151 256.709H224.073V262.248H220.151V256.709ZM220.151 270.054H224.073V275.593H220.151V270.054ZM220.151 283.525H224.073V289.065H220.151V283.525ZM220.151 296.87H224.073V302.41H220.151V296.87ZM220.151 310.342H224.073V315.881H220.151V310.342ZM220.151 323.687H224.073V329.227H220.151V323.687ZM220.151 337.158H224.073V342.698H220.151V337.158ZM220.151 350.503H224.073V356.043H220.151V350.503ZM220.151 363.975H224.073V369.514H220.151V363.975ZM220.151 377.32H224.073V382.86H220.151V377.32ZM220.151 390.791H224.073V396.331H220.151V390.791ZM220.151 404.137H224.073V409.676H220.151V404.137ZM220.151 417.608H224.073V423.147H220.151V417.608ZM220.151 430.953H224.073V436.493H220.151V430.953ZM220.151 444.424H224.073V449.964H220.151V444.424ZM220.151 457.77H224.073V463.309H220.151V457.77ZM220.151 471.241H224.073V476.78H220.151V471.241Z" fill="black"/>
<path d="M220.151 438.759H224.073V465.576H220.151V438.759Z" fill="black"/>
<path d="M220.151 446.565H224.073V452.104H220.151V446.565Z" fill="black"/>
<path opacity="0.1" d="M176.469 226.619L206.317 260.737H203.376V270.558H200.87V278.112H190.739V270.558H188.125V260.737H185.184V251.169H182.896V240.342H179.628V230.522H176.469V226.619Z" fill="#010101"/>
<path d="M72.0038 169.083H151.742V505.234H72.0038V169.083Z" fill="#FDFDFE"/>
<path d="M151.851 169.083V505.234M72.0038 169.083V505.234V169.083ZM77.0147 169.083V505.234V169.083ZM82.0256 169.083V505.234V169.083ZM86.9275 169.083V505.234V169.083ZM91.9383 169.083V505.234V169.083ZM96.9492 169.083V505.234V169.083ZM101.96 169.083V505.234V169.083ZM106.971 169.083V505.234V169.083ZM111.873 169.083V505.234V169.083ZM116.884 169.083V505.234V169.083ZM121.895 169.083V505.234V169.083ZM126.905 169.083V505.234V169.083ZM131.807 169.083V505.234V169.083ZM136.818 169.083V505.234V169.083ZM141.829 169.083V505.234V169.083ZM146.84 169.083V505.234V169.083Z" stroke="#EDEDEE" stroke-miterlimit="10"/>
<path d="M75.2718 180.917H148.474V185.827H75.2718V180.917ZM75.2718 191.241H148.474V196.151H75.2718V191.241ZM75.2718 201.565H148.474V206.475H75.2718V201.565ZM75.2718 211.888H148.474V216.799H75.2718V211.888ZM75.2718 222.212H148.474V227.122H75.2718V222.212ZM75.2718 232.662H148.474V237.572H75.2718V232.662ZM75.2718 242.986H148.474V247.896H75.2718V242.986ZM75.2718 253.309H148.474V258.219H75.2718V253.309ZM75.2718 263.633H148.474V268.543H75.2718V263.633ZM75.2718 273.957H148.474V278.867H75.2718V273.957ZM75.2718 284.281H148.474V289.191H75.2718V284.281ZM75.2718 294.604H148.474V299.514H75.2718V294.604ZM75.2718 305.054H148.474V309.964H75.2718V305.054ZM75.2718 315.378H148.474V320.288H75.2718V315.378ZM75.2718 325.701H148.474V330.611H75.2718V325.701ZM75.2718 336.025H148.474V340.935H75.2718V336.025ZM75.2718 346.349H148.474V351.259H75.2718V346.349ZM75.2718 356.673H148.474V361.583H75.2718V356.673ZM75.2718 366.996H148.474V371.906H75.2718V366.996ZM75.2718 377.446H148.474V382.356H75.2718V377.446ZM75.2718 387.77H148.474V392.68H75.2718V387.77ZM75.2718 398.093H148.474V403.004H75.2718V398.093ZM75.2718 408.417H148.474V413.327H75.2718V408.417ZM75.2718 418.741H148.474V423.651H75.2718V418.741ZM75.2718 429.065H148.474V433.975H75.2718V429.065ZM75.2718 439.388H148.474V444.299H75.2718V439.388ZM75.2718 449.838H148.474V454.748H75.2718V449.838ZM75.2718 460.162H148.474V465.072H75.2718V460.162ZM75.2718 470.486H148.474V475.396H75.2718V470.486ZM75.2718 480.809H148.474V485.719H75.2718V480.809ZM75.2718 491.133H148.474V496.043H75.2718V491.133ZM75.2718 501.457H148.474V506.367H75.2718V501.457ZM75.2718 511.78H148.474V516.691H75.2718V511.78Z" fill="black"/>
<path d="M75.2718 507.374H148.474V512.284H75.2718V507.374ZM75.2718 485.342H148.474V490.252H75.2718V485.342ZM75.2718 495.666H148.474V500.576H75.2718V495.666Z" fill="black"/>
<path d="M75.2718 505.989H148.474V510.899H75.2718V505.989Z" fill="black"/>
<path d="M75.2718 507.5H148.474V512.41H75.2718V507.5ZM75.2718 485.468H148.474V490.378H75.2718V485.468ZM75.2718 495.792H148.474V500.702H75.2718V495.792Z" fill="black"/>
<path d="M75.2718 488.489H148.474V493.399H75.2718V488.489Z" fill="black"/>
<path d="M80.9363 163.543H87.4722V169.083H80.9363V163.543ZM89.6508 163.543H96.1867V169.083H89.6508V163.543Z" fill="black"/>
<path d="M82.4613 161.025H86.0561V163.543H82.4613V161.025ZM91.1758 161.025H94.7706V163.543H91.1758V161.025Z" fill="#FEF8FB"/>
<path d="M115.032 110.162H118.844V168.957H115.032V110.162ZM130.827 124.892H133.768V169.083H130.827V124.892Z" fill="#7D7D7D"/>
<path d="M130.827 116.96H133.768V124.766H130.827V116.96Z" fill="black"/>
<path d="M116.012 89.7661H117.755V110.162H116.012V89.7661Z" fill="#BBBBBB"/>
<path d="M306.97 512.032V511.781H295.314V393.813H287.035V404.514C287.035 404.514 277.558 408.04 268.081 408.795V500.072L262.852 499.317V499.442C262.852 499.442 255.663 499.82 251.632 500.45V500.198C248.146 500.701 246.73 500.701 246.73 500.701V432.464C240.957 431.96 232.025 430.576 230.064 427.932V420.504H223.855V511.655H213.942V511.907H210.238V524.874H311V511.907H306.97V512.032Z" fill="#787878"/>
<path d="M306.97 512.032V402.626C306.97 402.626 302.503 394.694 295.314 393.687V511.906H306.97V512.032ZM223.746 420.629C223.746 420.629 218.299 421.385 213.833 426.924V512.032H223.746V420.629ZM251.523 500.198V432.968C251.523 432.968 249.454 432.842 246.621 432.59V500.827C246.621 500.701 248.037 500.576 251.523 500.198V500.198ZM267.972 408.921C266.229 409.047 264.377 409.173 262.743 409.047V499.442L267.972 500.198V408.921Z" fill="#C9C9C9"/>
<path d="M210.129 512.032H310.891V516.816H210.129V512.032Z" fill="#AFC6D1"/>
<path d="M246.621 432.464L246.512 511.781M267.972 408.921V512.032V408.921ZM269.279 408.795V512.032V408.795ZM270.586 408.669V512.032V408.669ZM271.894 408.417V512.032V408.417ZM273.201 408.165V512.032V408.165ZM274.508 408.04V512.032V408.04ZM275.815 407.788V512.032V407.788ZM277.122 407.41V512.032V407.41ZM278.429 407.158V512.032V407.158ZM279.737 406.781V512.032V406.781ZM281.044 406.529V512.032V406.529ZM282.351 406.151V512.032V406.151ZM283.658 405.773V512.032V405.773ZM284.856 405.27V512.032V405.27ZM286.164 404.892V512.032V404.892ZM287.471 393.813V512.032V393.813ZM288.778 393.813V512.032V393.813ZM290.085 393.813V512.032V393.813ZM291.392 393.813V512.032V393.813ZM292.7 393.813V512.032V393.813ZM294.007 393.813V512.032V393.813ZM225.162 420.63V511.781V420.63ZM226.578 420.63V511.781V420.63ZM227.994 420.63V511.781V420.63ZM229.41 420.63V511.781V420.63ZM230.935 428.939L230.826 511.781L230.935 428.939ZM232.351 429.694L232.242 511.781L232.351 429.694ZM233.767 430.198L233.659 511.781L233.767 430.198ZM235.184 430.576L235.075 511.781L235.184 430.576ZM236.6 430.953L236.491 511.781L236.6 430.953ZM238.016 431.331L237.907 511.781L238.016 431.331ZM239.432 431.583V511.781V431.583ZM240.848 431.835V511.781V431.835ZM242.264 431.96V511.781V431.96ZM243.789 432.212L243.68 511.781L243.789 432.212ZM245.205 432.338L245.096 511.781L245.205 432.338Z" stroke="#6E8FA9" stroke-width="0.5" stroke-miterlimit="10"/>
<path d="M285.401 505.611C277.34 499.568 260.565 499.568 260.565 499.568C240.739 500.198 236.055 505.611 236.055 505.611H285.401Z" fill="#FFFBFD"/>
<path d="M265.358 511.781C276.578 511.025 284.747 505.989 285.401 505.612H236.055C242.482 510.144 256.098 511.781 256.098 511.781H265.358V511.781Z" fill="#536B75"/>
<path opacity="0.59" d="M287.035 393.813H295.314V512.032H287.035V393.813Z" fill="#C9C9C9"/>
<path opacity="0.5" d="M223.746 420.629H229.955V512.158H223.746V420.629Z" fill="#C9C9C9"/>
<path d="M310.891 516.816V525M210.129 516.816V525V516.816ZM216.447 516.816V525V516.816ZM222.656 516.816V525V516.816ZM228.974 516.816V525V516.816ZM235.292 516.816V525V516.816ZM241.611 516.816V525V516.816ZM247.929 516.816V525V516.816ZM254.247 516.816V525V516.816ZM260.456 516.816V525V516.816ZM266.774 516.816V525V516.816ZM273.092 516.816V525V516.816ZM279.41 516.816V525V516.816ZM285.728 516.816V525V516.816ZM292.046 516.816V525V516.816ZM298.255 516.816V525V516.816ZM304.573 516.816V525V516.816Z" stroke="#6E8FA9" stroke-width="0.5" stroke-miterlimit="10"/>
<path d="M230.717 471.996C230.717 471.996 206.535 412.572 120.152 412.572C36.0564 412.572 11.0021 471.996 11.0021 471.996H230.717Z" fill="white"/>
<path d="M234.094 464.442L228.212 471.996H12.5271L6.64484 464.442H0V525H240.739V464.442H234.094Z" fill="#ADA198"/>
<path d="M2.94116 487.986H6.97163V490.504H2.94116V487.986ZM2.94116 496.924H6.97163V499.442H2.94116V496.924Z" fill="black"/>
<path d="M21.5685 491.511H35.6207V525H21.5685V491.511ZM38.0172 491.511H54.0301V525H38.0172V491.511ZM56.3177 491.511H70.3699V525H56.3177V491.511ZM96.7313 491.511H110.784V525H96.7313V491.511ZM113.18 491.511H129.193V525H113.18V491.511ZM131.481 491.511H145.533V525H131.481V491.511ZM170.369 491.511H184.421V525H170.369V491.511ZM186.818 491.511H202.831V525H186.818V491.511ZM205.227 491.511H219.279V525H205.227V491.511Z" fill="black"/>
<path d="M218.626 471.996C218.626 471.996 192.918 426.421 121.241 426.421C49.5639 426.421 23.856 471.996 23.856 471.996H218.626V471.996Z" fill="#F4F4F4"/>
<path d="M72.9843 500.575H84.8578V502.338H72.9843V500.575ZM72.9843 507.374H84.8578V509.137H72.9843V507.374ZM72.9843 514.047H84.8578V515.809H72.9843V514.047ZM155.663 500.575H167.537V502.338H155.663V500.575ZM155.663 507.374H167.537V509.137H155.663V507.374ZM155.663 514.047H167.537V515.809H155.663V514.047Z" fill="#1B3947" stroke="#C4C4C4" stroke-width="0.15" stroke-miterlimit="10"/>
<path d="M96.7313 481.565H110.784V485.593H96.7313V481.565ZM131.481 481.565H145.533V485.593H131.481V481.565ZM113.18 481.565H129.193V485.593H113.18V481.565ZM170.369 481.565H184.421V485.593H170.369V481.565ZM205.227 481.565H219.279V485.593H205.227V481.565ZM186.818 481.565H202.831V485.593H186.818V481.565ZM147.929 481.565H168.082V485.593H147.929V481.565ZM73.5289 481.565H93.6813V485.593H73.5289V481.565ZM21.5685 481.565H35.6207V485.593H21.5685V481.565ZM56.3177 481.565H70.3699V485.593H56.3177V481.565ZM38.0172 481.565H54.0301V485.593H38.0172V481.565ZM0 471.996H240.739V478.795H0V471.996Z" fill="#A09790"/>
<path d="M113.18 491.511H129.193V493.651H113.18V491.511Z" fill="#465064" stroke="#C4C4C4" stroke-miterlimit="10"/>
<path d="M113.18 493.651H129.193V495.791H113.18V493.651Z" fill="black"/>
<path d="M113.18 495.792H129.193V497.932H113.18V495.792Z" fill="#465064" stroke="#C4C4C4" stroke-miterlimit="10"/>
<path d="M113.18 498.058H129.193V500.198H113.18V498.058Z" fill="black"/>
<path d="M113.18 500.198H129.193V502.338H113.18V500.198Z" fill="#465064" stroke="#C4C4C4" stroke-miterlimit="10"/>
<path d="M113.18 502.338H129.193V504.478H113.18V502.338Z" fill="black"/>
<path d="M113.18 504.479H129.193V506.619H113.18V504.479Z" fill="#465064" stroke="#C4C4C4" stroke-miterlimit="10"/>
<path d="M113.18 506.745H129.193V508.885H113.18V506.745Z" fill="black"/>
<path d="M113.18 508.885H129.193V511.025H113.18V508.885Z" fill="#465064" stroke="#C4C4C4" stroke-miterlimit="10"/>
<path d="M113.18 511.025H129.193V513.165H113.18V511.025Z" fill="black"/>
<path d="M113.18 513.291H129.193V515.432H113.18V513.291Z" fill="#465064" stroke="#C4C4C4" stroke-miterlimit="10"/>
<path d="M113.18 515.432H129.193V517.572H113.18V515.432Z" fill="black"/>
<path d="M113.18 517.572H129.193V519.712H113.18V517.572Z" fill="#465064" stroke="#C4C4C4" stroke-miterlimit="10"/>
<path d="M113.18 519.712H129.193V521.853H113.18V519.712Z" fill="black"/>
<path d="M131.481 491.511H145.533V493.651H131.481V491.511Z" fill="#465064" stroke="#C4C4C4" stroke-miterlimit="10"/>
<path d="M131.481 493.651H145.533V495.791H131.481V493.651Z" fill="black"/>
<path d="M131.481 495.792H145.533V497.932H131.481V495.792Z" fill="#465064" stroke="#C4C4C4" stroke-miterlimit="10"/>
<path d="M131.481 498.058H145.533V500.198H131.481V498.058Z" fill="black"/>
<path d="M131.481 500.198H145.533V502.338H131.481V500.198Z" fill="#465064" stroke="#C4C4C4" stroke-miterlimit="10"/>
<path d="M131.481 502.338H145.533V504.478H131.481V502.338Z" fill="black"/>
<path d="M131.481 504.479H145.533V506.619H131.481V504.479Z" fill="#465064" stroke="#C4C4C4" stroke-miterlimit="10"/>
<path d="M131.481 506.745H145.533V508.885H131.481V506.745Z" fill="black"/>
<path d="M131.481 508.885H145.533V511.025H131.481V508.885Z" fill="#465064" stroke="#C4C4C4" stroke-miterlimit="10"/>
<path d="M131.481 511.025H145.533V513.165H131.481V511.025Z" fill="black"/>
<path d="M131.481 513.291H145.533V515.432H131.481V513.291Z" fill="#465064" stroke="#C4C4C4" stroke-miterlimit="10"/>
<path d="M131.481 515.432H145.533V517.572H131.481V515.432Z" fill="black"/>
<path d="M131.481 517.572H145.533V519.712H131.481V517.572Z" fill="#465064" stroke="#C4C4C4" stroke-miterlimit="10"/>
<path d="M131.481 519.712H145.533V521.853H131.481V519.712Z" fill="black"/>
<path d="M96.7313 491.511H110.784V493.651H96.7313V491.511Z" fill="#465064" stroke="#C4C4C4" stroke-miterlimit="10"/>
<path d="M96.7313 493.651H110.784V495.791H96.7313V493.651Z" fill="black"/>
<path d="M96.7313 495.792H110.784V497.932H96.7313V495.792Z" fill="#465064" stroke="#C4C4C4" stroke-miterlimit="10"/>
<path d="M96.7313 498.058H110.784V500.198H96.7313V498.058Z" fill="black"/>
<path d="M96.7313 500.198H110.784V502.338H96.7313V500.198Z" fill="#465064" stroke="#C4C4C4" stroke-miterlimit="10"/>
<path d="M96.7313 502.338H110.784V504.478H96.7313V502.338Z" fill="black"/>
<path d="M96.7313 504.479H110.784V506.619H96.7313V504.479Z" fill="#465064" stroke="#C4C4C4" stroke-miterlimit="10"/>
<path d="M96.7313 506.745H110.784V508.885H96.7313V506.745Z" fill="black"/>
<path d="M96.7313 508.885H110.784V511.025H96.7313V508.885Z" fill="#465064" stroke="#C4C4C4" stroke-miterlimit="10"/>
<path d="M96.7313 511.025H110.784V513.165H96.7313V511.025Z" fill="black"/>
<path d="M96.7313 513.291H110.784V515.432H96.7313V513.291Z" fill="#465064" stroke="#C4C4C4" stroke-miterlimit="10"/>
<path d="M96.7313 515.432H110.784V517.572H96.7313V515.432Z" fill="black"/>
<path d="M96.7313 517.572H110.784V519.712H96.7313V517.572Z" fill="#465064" stroke="#C4C4C4" stroke-miterlimit="10"/>
<path d="M96.7313 519.712H110.784V521.853H96.7313V519.712Z" fill="black"/>
<path d="M96.7313 491.511V521.978V491.511ZM99.1278 491.511V521.978V491.511ZM101.415 491.511V521.978V491.511ZM103.812 491.511V521.978V491.511ZM106.099 491.511V521.978V491.511ZM108.496 491.511V521.978V491.511ZM110.892 491.511V521.978V491.511ZM131.481 491.511V521.978V491.511ZM133.877 491.511V521.978V491.511ZM136.165 491.511V521.978V491.511ZM138.561 491.511V521.978V491.511ZM140.958 491.511V521.978V491.511ZM143.245 491.511V521.978V491.511ZM145.642 491.511V521.978V491.511ZM113.18 491.511V521.978V491.511ZM115.468 491.511V521.978V491.511ZM117.755 491.511V521.978V491.511ZM120.043 491.511V521.978V491.511ZM122.33 491.511V521.978V491.511ZM124.509 491.511V521.978V491.511ZM126.796 491.511V521.978V491.511ZM129.084 491.511V521.978Z" fill="black"/>
<path d="M129.084 491.511V521.978M96.7313 491.511V521.978V491.511ZM99.1278 491.511V521.978V491.511ZM101.415 491.511V521.978V491.511ZM103.812 491.511V521.978V491.511ZM106.099 491.511V521.978V491.511ZM108.496 491.511V521.978V491.511ZM110.892 491.511V521.978V491.511ZM131.481 491.511V521.978V491.511ZM133.877 491.511V521.978V491.511ZM136.165 491.511V521.978V491.511ZM138.561 491.511V521.978V491.511ZM140.958 491.511V521.978V491.511ZM143.245 491.511V521.978V491.511ZM145.642 491.511V521.978V491.511ZM113.18 491.511V521.978V491.511ZM115.468 491.511V521.978V491.511ZM117.755 491.511V521.978V491.511ZM120.043 491.511V521.978V491.511ZM122.33 491.511V521.978V491.511ZM124.509 491.511V521.978V491.511ZM126.796 491.511V521.978V491.511Z" stroke="#C4C4C4" stroke-width="0.05" stroke-miterlimit="10"/>
<path d="M21.5685 491.511H35.6207V525H21.5685V491.511ZM38.0172 491.511H54.0301V525H38.0172V491.511ZM56.3177 491.511H70.3699V525H56.3177V491.511Z" fill="black"/>
<path d="M38.0172 491.511H54.0301V493.651H38.0172V491.511Z" fill="#465064" stroke="#C4C4C4" stroke-miterlimit="10"/>
<path d="M38.0172 493.651H54.0301V495.791H38.0172V493.651Z" fill="black"/>
<path d="M38.0172 495.792H54.0301V497.932H38.0172V495.792Z" fill="#465064" stroke="#C4C4C4" stroke-miterlimit="10"/>
<path d="M38.0172 498.058H54.0301V500.198H38.0172V498.058Z" fill="black"/>
<path d="M38.0172 500.198H54.0301V502.338H38.0172V500.198Z" fill="#465064" stroke="#C4C4C4" stroke-miterlimit="10"/>
<path d="M38.0172 502.338H54.0301V504.478H38.0172V502.338Z" fill="black"/>
<path d="M38.0172 504.479H54.0301V506.619H38.0172V504.479Z" fill="#465064" stroke="#C4C4C4" stroke-miterlimit="10"/>
<path d="M38.0172 506.745H54.0301V508.885H38.0172V506.745Z" fill="black"/>
<path d="M38.0172 508.885H54.0301V511.025H38.0172V508.885Z" fill="#465064" stroke="#C4C4C4" stroke-miterlimit="10"/>
<path d="M38.0172 511.025H54.0301V513.165H38.0172V511.025Z" fill="black"/>
<path d="M38.0172 513.291H54.0301V515.432H38.0172V513.291Z" fill="#465064" stroke="#C4C4C4" stroke-miterlimit="10"/>
<path d="M38.0172 515.432H54.0301V517.572H38.0172V515.432Z" fill="black"/>
<path d="M38.0172 517.572H54.0301V519.712H38.0172V517.572Z" fill="#465064" stroke="#C4C4C4" stroke-miterlimit="10"/>
<path d="M38.0172 519.712H54.0301V521.853H38.0172V519.712Z" fill="black"/>
<path d="M56.3177 491.511H70.3699V493.651H56.3177V491.511Z" fill="#465064" stroke="#C4C4C4" stroke-miterlimit="10"/>
<path d="M56.3177 493.651H70.3699V495.791H56.3177V493.651Z" fill="black"/>
<path d="M56.3177 495.792H70.3699V497.932H56.3177V495.792Z" fill="#465064" stroke="#C4C4C4" stroke-miterlimit="10"/>
<path d="M56.3177 498.058H70.3699V500.198H56.3177V498.058Z" fill="black"/>
<path d="M56.3177 500.198H70.3699V502.338H56.3177V500.198Z" fill="#465064" stroke="#C4C4C4" stroke-miterlimit="10"/>
<path d="M56.3177 502.338H70.3699V504.478H56.3177V502.338Z" fill="black"/>
<path d="M56.3177 504.479H70.3699V506.619H56.3177V504.479Z" fill="#465064" stroke="#C4C4C4" stroke-miterlimit="10"/>
<path d="M56.3177 506.745H70.3699V508.885H56.3177V506.745Z" fill="black"/>
<path d="M56.3177 508.885H70.3699V511.025H56.3177V508.885Z" fill="#465064" stroke="#C4C4C4" stroke-miterlimit="10"/>
<path d="M56.3177 511.025H70.3699V513.165H56.3177V511.025Z" fill="black"/>
<path d="M56.3177 513.291H70.3699V515.432H56.3177V513.291Z" fill="#465064" stroke="#C4C4C4" stroke-miterlimit="10"/>
<path d="M56.3177 515.432H70.3699V517.572H56.3177V515.432Z" fill="black"/>
<path d="M56.3177 517.572H70.3699V519.712H56.3177V517.572Z" fill="#465064" stroke="#C4C4C4" stroke-miterlimit="10"/>
<path d="M56.3177 519.712H70.3699V521.853H56.3177V519.712Z" fill="black"/>
<path d="M21.5685 491.511H35.6207V493.651H21.5685V491.511Z" fill="#465064" stroke="#C4C4C4" stroke-miterlimit="10"/>
<path d="M21.5685 493.651H35.6207V495.791H21.5685V493.651Z" fill="black"/>
<path d="M21.5685 495.792H35.6207V497.932H21.5685V495.792Z" fill="#465064" stroke="#C4C4C4" stroke-miterlimit="10"/>
<path d="M21.5685 498.058H35.6207V500.198H21.5685V498.058Z" fill="black"/>
<path d="M21.5685 500.198H35.6207V502.338H21.5685V500.198Z" fill="#465064" stroke="#C4C4C4" stroke-miterlimit="10"/>
<path d="M21.5685 502.338H35.6207V504.478H21.5685V502.338Z" fill="black"/>
<path d="M21.5685 504.479H35.6207V506.619H21.5685V504.479Z" fill="#465064" stroke="#C4C4C4" stroke-miterlimit="10"/>
<path d="M21.5685 506.745H35.6207V508.885H21.5685V506.745Z" fill="black"/>
<path d="M21.5685 508.885H35.6207V511.025H21.5685V508.885Z" fill="#465064" stroke="#C4C4C4" stroke-miterlimit="10"/>
<path d="M21.5685 511.025H35.6207V513.165H21.5685V511.025Z" fill="black"/>
<path d="M21.5685 513.291H35.6207V515.432H21.5685V513.291Z" fill="#465064" stroke="#C4C4C4" stroke-miterlimit="10"/>
<path d="M21.5685 515.432H35.6207V517.572H21.5685V515.432Z" fill="black"/>
<path d="M21.5685 517.572H35.6207V519.712H21.5685V517.572Z" fill="#465064" stroke="#C4C4C4" stroke-miterlimit="10"/>
<path d="M21.5685 519.712H35.6207V521.853H21.5685V519.712Z" fill="black"/>
<path d="M170.369 491.511H184.421V525H170.369V491.511ZM186.818 491.511H202.831V525H186.818V491.511ZM205.227 491.511H219.28V525H205.227V491.511Z" fill="black"/>
<path d="M186.818 491.511H202.831V493.651H186.818V491.511Z" fill="#465064" stroke="#C4C4C4" stroke-miterlimit="10"/>
<path d="M186.818 493.651H202.831V495.791H186.818V493.651Z" fill="black"/>
<path d="M186.818 495.792H202.831V497.932H186.818V495.792Z" fill="#465064" stroke="#C4C4C4" stroke-miterlimit="10"/>
<path d="M186.818 498.058H202.831V500.198H186.818V498.058Z" fill="black"/>
<path d="M186.818 500.198H202.831V502.338H186.818V500.198Z" fill="#465064" stroke="#C4C4C4" stroke-miterlimit="10"/>
<path d="M186.818 502.338H202.831V504.478H186.818V502.338Z" fill="black"/>
<path d="M186.818 504.479H202.831V506.619H186.818V504.479Z" fill="#465064" stroke="#C4C4C4" stroke-miterlimit="10"/>
<path d="M186.818 506.745H202.831V508.885H186.818V506.745Z" fill="black"/>
<path d="M186.818 508.885H202.831V511.025H186.818V508.885Z" fill="#465064" stroke="#C4C4C4" stroke-miterlimit="10"/>
<path d="M186.818 511.025H202.831V513.165H186.818V511.025Z" fill="black"/>
<path d="M186.818 513.291H202.831V515.432H186.818V513.291Z" fill="#465064" stroke="#C4C4C4" stroke-miterlimit="10"/>
<path d="M186.818 515.432H202.831V517.572H186.818V515.432Z" fill="black"/>
<path d="M186.818 517.572H202.831V519.712H186.818V517.572ZM205.227 491.511H219.279V493.651H205.227V491.511Z" fill="#465064" stroke="#C4C4C4" stroke-miterlimit="10"/>
<path d="M205.227 493.651H219.279V495.791H205.227V493.651Z" fill="black"/>
<path d="M205.227 495.792H219.279V497.932H205.227V495.792Z" fill="#465064" stroke="#C4C4C4" stroke-miterlimit="10"/>
<path d="M205.227 498.058H219.279V500.198H205.227V498.058Z" fill="black"/>
<path d="M205.227 500.198H219.279V502.338H205.227V500.198Z" fill="#465064" stroke="#C4C4C4" stroke-miterlimit="10"/>
<path d="M205.227 502.338H219.279V504.478H205.227V502.338Z" fill="black"/>
<path d="M205.227 504.479H219.279V506.619H205.227V504.479Z" fill="#465064" stroke="#C4C4C4" stroke-miterlimit="10"/>
<path d="M205.227 506.745H219.279V508.885H205.227V506.745Z" fill="black"/>
<path d="M205.227 508.885H219.279V511.025H205.227V508.885Z" fill="#465064" stroke="#C4C4C4" stroke-miterlimit="10"/>
<path d="M205.227 511.025H219.279V513.165H205.227V511.025Z" fill="black"/>
<path d="M205.227 513.291H219.279V515.432H205.227V513.291Z" fill="#465064" stroke="#C4C4C4" stroke-miterlimit="10"/>
<path d="M205.227 515.432H219.279V517.572H205.227V515.432Z" fill="black"/>
<path d="M205.227 517.572H219.28V519.712H205.227V517.572ZM170.369 491.511H184.421V493.651H170.369V491.511Z" fill="#465064" stroke="#C4C4C4" stroke-miterlimit="10"/>
<path d="M170.369 493.651H184.421V495.791H170.369V493.651Z" fill="black"/>
<path d="M170.369 495.792H184.421V497.932H170.369V495.792Z" fill="#465064" stroke="#C4C4C4" stroke-miterlimit="10"/>
<path d="M170.369 498.058H184.421V500.198H170.369V498.058Z" fill="black"/>
<path d="M170.369 500.198H184.421V502.338H170.369V500.198Z" fill="#465064" stroke="#C4C4C4" stroke-miterlimit="10"/>
<path d="M170.369 502.338H184.421V504.478H170.369V502.338Z" fill="black"/>
<path d="M170.369 504.479H184.421V506.619H170.369V504.479Z" fill="#465064" stroke="#C4C4C4" stroke-miterlimit="10"/>
<path d="M170.369 506.745H184.421V508.885H170.369V506.745Z" fill="black"/>
<path d="M170.369 508.885H184.421V511.025H170.369V508.885Z" fill="#465064" stroke="#C4C4C4" stroke-miterlimit="10"/>
<path d="M170.369 511.025H184.421V513.165H170.369V511.025Z" fill="black"/>
<path d="M170.369 513.291H184.421V515.432H170.369V513.291Z" fill="#465064" stroke="#C4C4C4" stroke-miterlimit="10"/>
<path d="M170.369 515.432H184.421V517.572H170.369V515.432Z" fill="black"/>
<path d="M170.369 517.572H184.421V519.712H170.369V517.572Z" fill="#465064" stroke="#C4C4C4" stroke-miterlimit="10"/>
<path d="M170.369 491.511V521.978V491.511ZM172.766 491.511V521.978V491.511ZM175.162 491.511V521.978V491.511ZM177.45 491.511V521.978V491.511ZM179.846 491.511V521.978V491.511ZM182.134 491.511V521.978V491.511ZM184.53 491.511V521.978V491.511ZM205.227 491.511V521.978V491.511ZM207.515 491.511V521.978V491.511ZM209.911 491.511V521.978V491.511ZM212.199 491.511V521.978V491.511ZM214.595 491.511V521.978V491.511ZM216.883 491.511V521.978V491.511ZM219.28 491.511V521.978V491.511ZM186.818 491.511V521.978V491.511ZM189.105 491.511V521.978V491.511ZM191.393 491.511V521.978V491.511ZM193.681 491.511V521.978V491.511ZM195.968 491.511V521.978V491.511ZM198.256 491.511V521.978V491.511ZM200.434 491.511V521.978V491.511ZM202.722 491.511V521.978Z" fill="black"/>
<path d="M202.722 491.511V521.978M170.369 491.511V521.978V491.511ZM172.766 491.511V521.978V491.511ZM175.162 491.511V521.978V491.511ZM177.45 491.511V521.978V491.511ZM179.846 491.511V521.978V491.511ZM182.134 491.511V521.978V491.511ZM184.53 491.511V521.978V491.511ZM205.227 491.511V521.978V491.511ZM207.515 491.511V521.978V491.511ZM209.911 491.511V521.978V491.511ZM212.199 491.511V521.978V491.511ZM214.595 491.511V521.978V491.511ZM216.883 491.511V521.978V491.511ZM219.28 491.511V521.978V491.511ZM186.818 491.511V521.978V491.511ZM189.105 491.511V521.978V491.511ZM191.393 491.511V521.978V491.511ZM193.681 491.511V521.978V491.511ZM195.968 491.511V521.978V491.511ZM198.256 491.511V521.978V491.511ZM200.434 491.511V521.978V491.511Z" stroke="#C4C4C4" stroke-width="0.05" stroke-miterlimit="10"/>
<path d="M0 521.979H240.739V525H0V521.979Z" fill="#837C78"/>
<path d="M10.8932 491.511H21.5685V521.978H10.8932V491.511ZM219.28 491.511H229.955V521.978H219.28V491.511Z" fill="black"/>
<path opacity="0.15" d="M21.5685 491.511L28.5401 521.978H21.5685V491.511Z" fill="#010101"/>
<path opacity="0.1" d="M229.955 491.511L236.926 521.978H229.955V491.511Z" fill="#010101"/>
<path d="M2.94116 485.468H6.97163V487.986H2.94116V485.468ZM2.94116 494.407H6.97163V496.925H2.94116V494.407Z" fill="black" stroke="#C4C4C4" stroke-width="0.1" stroke-miterlimit="10"/>
<path d="M233.223 487.986H237.253V490.504H233.223V487.986ZM233.223 496.924H237.253V499.442H233.223V496.924Z" fill="black"/>
<path d="M16.8844 494.406H21.5685V496.673H16.8844V494.406ZM16.8844 499.946H21.5685V502.212H16.8844V499.946ZM16.8844 505.612H21.5685V507.878H16.8844V505.612ZM16.8844 511.151H21.5685V513.417H16.8844V511.151ZM16.8844 516.817H21.5685V519.083H16.8844V516.817Z" fill="black"/>
<path opacity="0.35" d="M21.5685 491.511H35.6207V495.665H21.5685V491.511ZM56.3177 491.511H70.3699V495.917H56.3177V491.511ZM38.0172 491.511H54.0301V495.917H38.0172V491.511ZM96.7314 491.511H110.784V495.665H96.7314V491.511ZM131.481 491.511H145.533V495.917H131.481V491.511Z" fill="#010101"/>
<path d="M10.8932 502.212H16.8844M10.8932 496.547H16.8844H10.8932ZM10.8932 499.946H16.8844H10.8932ZM10.8932 494.406H16.8844H10.8932ZM10.8932 505.612H16.8844H10.8932ZM10.8932 507.878H16.8844H10.8932ZM10.8932 511.151H16.8844H10.8932ZM10.8932 513.417H16.8844H10.8932ZM10.8932 516.817H16.8844H10.8932ZM10.8932 519.083H16.8844H10.8932Z" stroke="#A09790" stroke-width="0.1" stroke-miterlimit="10"/>
<path opacity="0.35" d="M113.289 491.511H129.193V495.917H113.289V491.511ZM170.369 491.511H184.421V495.665H170.369V491.511ZM186.818 491.511H202.831V495.665H186.818V491.511ZM205.227 491.511H219.28V495.917H205.227V491.511Z" fill="#010101"/>
<path d="M19.172 494.406V496.547Z" fill="black"/>
<path d="M19.172 494.406V496.547" stroke="#C4C4C4" stroke-width="0.05" stroke-miterlimit="10"/>
<path d="M21.5685 496.547H16.8844V494.406H21.5685" stroke="#A09790" stroke-width="0.15" stroke-miterlimit="10"/>
<path d="M19.172 516.817V519.083V516.817ZM21.5685 519.083H16.8844H21.5685ZM19.172 511.151V513.417Z" fill="black"/>
<path d="M19.172 511.151V513.417M19.172 516.817V519.083V516.817ZM21.5685 519.083H16.8844H21.5685Z" stroke="#C4C4C4" stroke-width="0.05" stroke-miterlimit="10"/>
<path d="M21.5685 519.083H16.8844V516.817H21.5685M21.5685 513.417H16.8844V511.151H21.5685V513.417Z" stroke="#A09790" stroke-width="0.15" stroke-miterlimit="10"/>
<path d="M19.172 505.612V507.878Z" fill="black"/>
<path d="M19.172 505.612V507.878" stroke="#C4C4C4" stroke-width="0.05" stroke-miterlimit="10"/>
<path d="M21.5685 502.212H16.8844V499.946H21.5685M21.5685 507.878H16.8844V505.611H21.5685V507.878Z" stroke="#A09790" stroke-width="0.15" stroke-miterlimit="10"/>
<path d="M223.964 496.547H229.955" stroke="#A09790" stroke-width="0.1" stroke-miterlimit="10"/>
<path d="M19.172 499.946V502.212Z" fill="black"/>
<path d="M19.172 499.946V502.212" stroke="#C4C4C4" stroke-width="0.05" stroke-miterlimit="10"/>
<path d="M223.964 502.212H229.955M223.964 499.946H229.955H223.964ZM223.964 494.406H229.955H223.964ZM223.964 505.612H229.955H223.964ZM223.964 507.878H229.955H223.964ZM223.964 511.151H229.955H223.964ZM223.964 513.417H229.955H223.964ZM223.964 516.817H229.955H223.964ZM223.964 519.083H229.955H223.964Z" stroke="#A09790" stroke-width="0.1" stroke-miterlimit="10"/>
<path d="M233.223 485.468H237.253V487.986H233.223V485.468ZM233.223 494.407H237.253V496.925H233.223V494.407Z" fill="black" stroke="#C4C4C4" stroke-width="0.1" stroke-miterlimit="10"/>
<path d="M223.948 496.529H219.264V494.263H223.948V496.529ZM223.948 502.23H219.264V499.964H223.948V502.23ZM223.948 507.802H219.264V505.536H223.948V507.802ZM223.948 513.5H219.264V511.234H223.948V513.5ZM223.948 519.073H219.264V516.806H223.948V519.073Z" fill="black"/>
<path d="M221.567 494.406V496.547Z" fill="black"/>
<path d="M221.567 494.406V496.547" stroke="#C4C4C4" stroke-width="0.05" stroke-miterlimit="10"/>
<path d="M219.279 496.547H223.964V494.406H219.279" stroke="#A09790" stroke-width="0.15" stroke-miterlimit="10"/>
<path d="M221.567 516.817V519.083V516.817ZM219.279 519.083H223.964H219.279ZM221.567 511.151V513.417Z" fill="black"/>
<path d="M221.567 511.151V513.417M221.567 516.817V519.083V516.817ZM219.279 519.083H223.964H219.279Z" stroke="#C4C4C4" stroke-width="0.05" stroke-miterlimit="10"/>
<path d="M219.279 519.083H223.964V516.817H219.279M219.279 513.417H223.964V511.151H219.279V513.417Z" stroke="#A09790" stroke-width="0.15" stroke-miterlimit="10"/>
<path d="M221.567 505.612V507.878Z" fill="black"/>
<path d="M221.567 505.612V507.878" stroke="#C4C4C4" stroke-width="0.05" stroke-miterlimit="10"/>
<path d="M219.279 507.878H223.964V505.612H219.279" stroke="#A09790" stroke-width="0.15" stroke-miterlimit="10"/>
<path d="M221.567 499.946V502.212Z" fill="black"/>
<path d="M221.567 499.946V502.212" stroke="#C4C4C4" stroke-width="0.05" stroke-miterlimit="10"/>
<path d="M219.279 502.212H223.964V499.946H219.279" stroke="#A09790" stroke-width="0.15" stroke-miterlimit="10"/>
<path d="M245.096 177.14H276.033V182.554H245.096V177.14ZM252.286 163.543H255.009V169.838H252.286V163.543ZM266.011 163.543H268.735V169.838H266.011V163.543Z" fill="#C9C9C9"/>
</g>
<defs>
<clipPath id="clip0_734_1023">
<rect width="311" height="525" fill="white"/>
</clipPath>
</defs>
</svg>
