<svg width="343" height="491" viewBox="0 0 343 491" fill="none" xmlns="http://www.w3.org/2000/svg">
<g clip-path="url(#clip0_734_962)">
<path d="M75.0441 169.226H151.675V469.208H75.0441V169.226Z" fill="#68798A"/>
<path d="M78.3951 169.226H79.0123V469.208H78.3951V169.226ZM82.0106 169.226H82.6279V469.208H82.0106V169.226ZM85.7143 169.226H86.3316V469.208H85.7143V169.226ZM89.3298 169.226H89.9471V469.208H89.3298V169.226ZM92.9453 169.226H93.5626V469.208H92.9453V169.226ZM96.649 169.226H97.2663V469.208H96.649V169.226ZM100.265 169.226H100.882V469.208H100.265V169.226ZM103.88 169.226H104.497V469.208H103.88V169.226ZM107.584 169.226H108.201V469.208H107.584V169.226ZM111.199 169.226H111.817V469.208H111.199V169.226ZM114.903 169.226H115.52V469.208H114.903V169.226ZM118.519 169.226H119.136V469.208H118.519V169.226ZM122.134 169.226H122.751V469.208H122.134V169.226ZM125.838 169.226H126.455V469.208H125.838V169.226ZM129.453 169.226H130.071V469.208H129.453V169.226ZM133.069 169.226H133.686V469.208H133.069V169.226ZM136.773 169.226H137.39V469.208H136.773V169.226ZM140.388 169.226H141.005V469.208H140.388V169.226ZM144.092 169.226H144.709V469.208H144.092V169.226ZM147.707 169.226H148.325V469.208H147.707V169.226Z" fill="black"/>
<path d="M75.0441 173.731H151.675V174.461H75.0441V173.731ZM75.0441 178.722H151.675V179.453H75.0441V178.722ZM75.0441 183.592H151.675V184.323H75.0441V183.592ZM75.0441 188.462H151.675V189.193H75.0441V188.462ZM75.0441 193.454H151.675V194.184H75.0441V193.454ZM75.0441 198.324H151.675V199.054H75.0441V198.324ZM75.0441 203.315H151.675V204.046H75.0441V203.315ZM75.0441 208.185H151.675V208.915H75.0441V208.185ZM75.0441 213.055H151.675V213.785H75.0441V213.055ZM75.0441 218.046H151.675V218.777H75.0441V218.046ZM75.0441 222.916H151.675V223.647H75.0441V222.916ZM75.0441 227.786H151.675V228.516H75.0441V227.786ZM75.0441 232.778H151.675V233.508H75.0441V232.778ZM75.0441 237.647H151.675V238.378H75.0441V237.647ZM75.0441 242.639H151.675V243.369H75.0441V242.639ZM75.0441 247.509H151.675V248.239H75.0441V247.509ZM75.0441 252.379H151.675V253.109H75.0441V252.379ZM75.0441 257.37H151.675V258.101H75.0441V257.37ZM75.0441 262.24H151.675V262.97H75.0441V262.24ZM75.0441 267.232H151.675V267.962H75.0441V267.232ZM75.0441 272.101H151.675V272.832H75.0441V272.101ZM75.0441 276.971H151.675V277.702H75.0441V276.971ZM75.0441 281.963H151.675V282.693H75.0441V281.963ZM75.0441 286.833H151.675V287.563H75.0441V286.833ZM75.0441 291.824H151.675V292.555H75.0441V291.824ZM75.0441 296.694H151.675V297.424H75.0441V296.694ZM75.0441 301.564H151.675V302.294H75.0441V301.564ZM75.0441 306.555H151.675V307.286H75.0441V306.555ZM75.0441 311.425H151.675V312.156H75.0441V311.425ZM75.0441 316.295H151.675V317.025H75.0441V316.295ZM75.0441 321.287H151.675V322.017H75.0441V321.287ZM75.0441 326.156H151.675V326.887H75.0441V326.156ZM75.0441 331.148H151.675V331.878H75.0441V331.148ZM75.0441 336.018H151.675V336.748H75.0441V336.018ZM75.0441 340.888H151.675V341.618H75.0441V340.888ZM75.0441 345.879H151.675V346.61H75.0441V345.879ZM75.0441 350.749H151.675V351.48H75.0441V350.749ZM75.0441 355.741H151.675V356.471H75.0441V355.741ZM75.0441 360.61H151.675V361.341H75.0441V360.61ZM75.0441 365.48H151.675V366.211H75.0441V365.48ZM75.0441 370.472H151.675V371.202H75.0441V370.472ZM75.0441 375.342H151.675V376.072H75.0441V375.342ZM75.0441 380.211H151.675V380.942H75.0441V380.211ZM75.0441 385.203H151.675V385.933H75.0441V385.203ZM75.0441 390.073H151.675V390.803H75.0441V390.073ZM75.0441 395.064H151.675V395.795H75.0441V395.064ZM75.0441 399.934H151.675V400.665H75.0441V399.934ZM75.0441 404.804H151.675V405.535H75.0441V404.804ZM75.0441 409.796H151.675V410.526H75.0441V409.796ZM75.0441 414.665H151.675V415.396H75.0441V414.665ZM75.0441 419.657H151.675V420.387H75.0441V419.657ZM75.0441 424.527H151.675V425.257H75.0441V424.527ZM75.0441 429.397H151.675V430.127H75.0441V429.397ZM75.0441 434.388H151.675V435.119H75.0441V434.388ZM75.0441 439.258H151.675V439.989H75.0441V439.258ZM75.0441 444.25H151.675V444.98H75.0441V444.25ZM75.0441 449.119H151.675V449.85H75.0441V449.119ZM75.0441 453.989H151.675V454.72H75.0441V453.989ZM75.0441 458.981H151.675V459.711H75.0441V458.981ZM75.0441 463.851H151.675V464.581H75.0441V463.851Z" fill="black"/>
<path d="M74.6913 169.226H75.3086V469.208H74.6913V169.226ZM151.323 169.226H151.94V469.208H151.323V169.226Z" fill="#3C4B50"/>
<path d="M151.94 169.592L74.6913 169.835V169.226L151.94 168.861V169.592Z" fill="#85D3F6"/>
<path opacity="0.1" d="M151.94 253.596L82.3633 183.592V169.226L151.94 168.861V253.596Z" fill="#010101"/>
<path d="M144.356 166.305C144.356 166.305 143.915 165.939 143.651 166.305V151.573C143.651 150.843 143.651 150.112 143.474 149.382C143.298 148.408 142.769 147.434 142.328 146.582L133.598 130.755L129.277 150.356H97.3545L93.0335 130.755L84.3034 146.582C83.8625 147.434 83.3333 148.408 83.157 149.382C82.9806 150.112 82.9806 150.843 82.9806 151.573V166.67C82.7161 166.305 82.2751 166.183 82.2751 166.183V182.375C82.2751 183.836 82.7161 183.836 82.7161 183.836C83.7743 183.836 83.4215 179.818 83.4215 179.088V176.409C83.5097 176.044 83.5097 175.436 83.8625 175.436C84.3034 175.436 84.4797 175.922 84.5679 176.409C84.7443 177.14 84.7443 177.992 84.7443 178.844C84.7443 179.575 84.6561 180.305 85.0088 180.914L85.2734 181.158C85.4498 181.158 85.5379 180.792 85.5379 180.549C85.5379 179.088 85.097 176.044 85.8907 174.827L86.1552 174.583C86.508 174.462 86.7725 174.827 86.8607 175.314C86.9489 175.679 86.6843 177.018 87.3898 176.653L87.7425 176.288H138.713L139.065 176.653C139.771 177.14 139.506 175.679 139.594 175.314C139.683 174.949 139.947 174.462 140.3 174.583L140.564 174.827C141.358 175.922 140.917 179.088 140.917 180.549C140.917 180.792 141.005 181.158 141.182 181.158L141.446 180.914C141.799 180.305 141.711 179.575 141.711 178.844C141.711 177.992 141.711 177.262 141.887 176.409C141.975 175.922 142.24 175.314 142.593 175.436C142.945 175.436 142.945 176.044 143.034 176.409V179.088C143.034 179.818 142.681 183.836 143.739 183.836C143.739 183.836 144.18 183.836 144.18 182.375V177.87" fill="#73BBD8"/>
<path d="M82.3633 165.452H144.356V169.226H82.3633V165.452Z" fill="#528793"/>
<path d="M82.9806 161.8H143.563V165.574H82.9806V161.8Z" fill="#62A1B5"/>
<path d="M213.845 75.2388L194.356 14.6095H179.365L159.877 75.2388H152.028V465.19H221.693V75.2388H213.845Z" fill="#8AE0E0"/>
<path d="M180.335 14.1224H182.54V136.355H180.335V14.1224ZM191.182 14.1224H193.386V136.355H191.182V14.1224Z" fill="#C4C4C4"/>
<path d="M194.356 14.6094L213.845 75.3605H221.693V465.19H152.028V75.2387H159.877L179.365 14.4877H194.356V14.6094ZM195.767 11.5658H177.954L177.337 13.392L158.466 72.3168H149.824V468.234H223.898V72.1951H215.256L196.384 13.392L195.767 11.5658Z" fill="black"/>
<path d="M175.485 136.112V97.8835H168.43V75.2388H152.028V465.312H154.586V454.963H159.171V465.312H161.728V454.963H166.138V465.312H168.695V454.963H173.104V465.312H175.661V454.963H180.511V465.312H182.716V136.112H175.485V136.112ZM154.497 149.138H159.083V155.226H154.497V149.138ZM164.198 120.528H166.049V126.615H161.64V120.528H164.198ZM165.961 130.024V136.112H161.552V130.024H165.961ZM165.961 139.642V145.73H161.552V139.642H165.961ZM165.961 149.138V155.226H161.552V149.138H165.961ZM154.497 407.117H159.083V413.205H154.497V407.117ZM165.961 177.87V183.958H161.552V177.87H165.961ZM161.64 174.34V168.253H166.049V174.34H161.64ZM165.961 187.367V193.454H161.552V187.367H165.961ZM165.961 196.984V203.072H161.552V196.984H165.961ZM165.961 206.481V212.568H161.552V206.481H165.961ZM165.961 215.977V222.064H161.552V215.977H165.961ZM165.961 225.595V231.682H161.552V225.595H165.961ZM154.497 235.091H159.083V241.178H154.497V235.091ZM154.497 244.709H159.083V250.796H154.497V244.709ZM154.497 254.205H159.083V260.292H154.497V254.205ZM154.497 263.823H159.083V269.91H154.497V263.823ZM154.497 273.319H159.083V279.406H154.497V273.319ZM154.497 282.937H159.083V289.024H154.497V282.937ZM161.64 282.937H166.049V289.024H161.64V282.937ZM161.64 279.406V273.319H166.049V279.406H161.64ZM161.64 269.788V263.701H166.049V269.788H161.64ZM161.64 260.292V254.205H166.049V260.292H161.64ZM161.64 250.796V244.709H166.049V250.796H161.64ZM161.64 241.178V235.091H166.049V241.178H161.64ZM159.083 231.682H154.497V225.595H159.083V231.682ZM154.497 292.433H159.083V298.52H154.497V292.433ZM161.64 292.433H166.049V298.52H161.64V292.433ZM165.961 302.051V308.138H161.552V302.051H165.961ZM165.961 311.547V317.634H161.552V311.547H165.961ZM154.497 321.165H159.083V327.252H154.497V321.165ZM154.497 330.661H159.083V336.748H154.497V330.661ZM154.497 340.279H159.083V346.366H154.497V340.279ZM154.497 349.775H159.083V355.862H154.497V349.775ZM154.497 359.271H159.083V365.359H154.497V359.271ZM154.497 368.889H159.083V374.977H154.497V368.889ZM161.64 368.889H166.049V374.977H161.64V368.889ZM161.64 365.359V359.271H166.049V365.359H161.64ZM161.64 355.862V349.775H166.049V355.862H161.64ZM161.64 346.245V340.157H166.049V346.245H161.64ZM161.64 336.748V330.661H166.049V336.748H161.64ZM161.64 327.131V321.043H166.049V327.131H161.64ZM159.083 317.634H154.497V311.547H159.083V317.634ZM154.497 378.385H159.083V384.473H154.497V378.385ZM161.64 378.385H166.049V384.473H161.64V378.385ZM165.961 388.003V394.091H161.552V388.003H165.961ZM165.961 397.5V403.587H161.552V397.5H165.961ZM165.961 407.117V413.205H161.552V407.117H165.961ZM165.961 416.614V422.701H161.552V416.614H165.961ZM154.497 416.614H159.083V422.701H154.497V416.614ZM154.497 426.231H159.083V432.319H154.497V426.231ZM161.64 426.231H166.049V432.319H161.64V426.231ZM168.519 426.231H172.928V432.319H168.519V426.231ZM168.519 422.701V416.614H172.928V422.701H168.519ZM168.519 413.083V406.996H172.928V413.083H168.519ZM168.519 403.587V397.5H172.928V403.587H168.519ZM168.519 394.091V388.003H172.928V394.091H168.519ZM168.519 384.473V378.385H172.928V384.473H168.519ZM168.519 374.977V368.889H172.928V374.977H168.519ZM168.519 365.359V359.271H172.928V365.359H168.519ZM168.519 355.862V349.775H172.928V355.862H168.519ZM168.519 346.245V340.157H172.928V346.245H168.519ZM168.519 336.748V330.661H172.928V336.748H168.519ZM168.519 327.131V321.043H172.928V327.131H168.519ZM168.519 317.634V311.547H172.928V317.634H168.519ZM168.519 308.016V301.929H172.928V308.016H168.519ZM168.519 298.52V292.433H172.928V298.52H168.519ZM168.519 288.902V282.815H172.928V288.902H168.519ZM168.519 279.406V273.319H172.928V279.406H168.519ZM168.519 269.788V263.701H172.928V269.788H168.519ZM168.519 260.292V254.205H172.928V260.292H168.519ZM168.519 250.796V244.709H172.928V250.796H168.519ZM168.519 241.178V235.091H172.928V241.178H168.519ZM168.519 231.682V225.595H172.928V231.682H168.519ZM168.519 222.064V215.977H172.928V222.064H168.519ZM168.519 212.568V206.481H172.928V212.568H168.519ZM168.519 202.95V196.863H172.928V202.95H168.519ZM168.519 193.454V187.367H172.928V193.454H168.519ZM168.519 183.836V177.749H172.928V183.836H168.519ZM168.519 174.34V168.253H172.928V174.34H168.519ZM168.519 164.722V158.635H172.928V164.722H168.519ZM165.961 164.722H161.552V158.635H165.961V164.722ZM154.497 158.756H159.083V164.844H154.497V158.756ZM154.497 168.253H159.083V174.34H154.497V168.253ZM154.497 177.87H159.083V183.958H154.497V177.87ZM154.497 187.367H159.083V193.454H154.497V187.367ZM154.497 196.984H159.083V203.072H154.497V196.984ZM154.497 206.481H159.083V212.568H154.497V206.481ZM154.497 215.977H159.083V222.064H154.497V215.977ZM154.497 302.051H159.083V308.138H154.497V302.051ZM154.497 388.003H159.083V394.091H154.497V388.003ZM159.083 397.5V403.587H154.497V397.5H159.083ZM154.497 435.728H159.083V441.815H154.497V435.728ZM161.64 435.728H166.049V441.815H161.64V435.728ZM168.519 435.728H172.928V441.815H168.519V435.728ZM175.485 435.728H180.335V441.815H175.485V435.728ZM175.485 432.197V426.11H180.335V432.197H175.485ZM175.485 422.701V416.614H180.335V422.701H175.485ZM175.485 413.083V406.996H180.335V413.083H175.485ZM175.485 403.587V397.5H180.335V403.587H175.485ZM175.485 394.091V388.003H180.335V394.091H175.485ZM175.485 384.473V378.385H180.335V384.473H175.485ZM175.485 374.977V368.889H180.335V374.977H175.485ZM175.485 365.359V359.271H180.335V365.359H175.485ZM175.485 355.862V349.775H180.335V355.862H175.485ZM175.485 346.245V340.157H180.335V346.245H175.485ZM175.485 336.748V330.661H180.335V336.748H175.485ZM175.485 327.131V321.043H180.335V327.131H175.485ZM175.485 317.634V311.547H180.335V317.634H175.485ZM175.485 308.016V301.929H180.335V308.016H175.485ZM175.485 298.52V292.433H180.335V298.52H175.485ZM175.485 288.902V282.815H180.335V288.902H175.485ZM175.485 279.406V273.319H180.335V279.406H175.485ZM175.485 269.788V263.701H180.335V269.788H175.485ZM175.485 260.292V254.205H180.335V260.292H175.485ZM175.485 250.796V244.709H180.335V250.796H175.485ZM175.485 241.178V235.091H180.335V241.178H175.485ZM175.485 231.682V225.595H180.335V231.682H175.485ZM175.485 222.064V215.977H180.335V222.064H175.485ZM175.485 212.568V206.481H180.335V212.568H175.485ZM175.485 202.95V196.863H180.335V202.95H175.485ZM175.485 193.454V187.367H180.335V193.454H175.485ZM175.485 183.836V177.749H180.335V183.836H175.485ZM175.485 174.34V168.253H180.335V174.34H175.485ZM175.485 164.722V158.635H180.335V164.722H175.485ZM175.485 155.226V149.138H180.335V155.226H175.485ZM172.928 155.226H168.519V149.138H172.928V155.226ZM168.519 145.608V139.521H172.928V145.608H168.519ZM168.519 136.112V130.024H172.928V136.112H168.519ZM172.928 126.494H168.519V120.406H172.928V126.494ZM154.497 97.8835H159.083V116.876H154.497V97.8835V97.8835ZM154.497 120.528H159.083V126.615H154.497V120.528ZM154.497 130.024H159.083V136.112H154.497V130.024ZM159.083 139.642V145.73H154.497V139.642H159.083ZM154.497 451.311V445.224H159.083V451.311H154.497ZM161.64 451.311V445.224H166.049V451.311H161.64ZM168.519 451.311V445.224H172.928V451.311H168.519ZM175.485 451.311V445.224H180.335V451.311H175.485ZM180.335 145.608H175.485V139.521H180.335V145.608ZM221.693 149.138V74.9954H205.291V97.6401H198.236V136.233H191.27V465.312H193.474V454.963H198.325V465.312H200.882V454.963H205.291V465.312H207.848V454.963H212.257V465.19H214.727V454.963H219.312V465.312H221.869V154.982L221.693 149.138V149.138ZM219.136 145.608H214.55V139.521H219.136V145.608ZM205.115 149.138V155.226H200.705V149.138H205.115ZM200.794 145.608V139.521H205.203V145.608H200.794ZM193.386 407.117H198.236V413.205H193.386V407.117ZM193.386 416.614H198.236V422.701H193.386V416.614ZM193.386 426.231H198.236V432.319H193.386V426.231ZM200.794 426.231H205.203V432.319H200.794V426.231ZM200.794 422.701V416.614H205.203V422.701H200.794ZM200.794 413.083V406.996H205.203V413.083H200.794ZM200.794 403.587V397.5H205.203V403.587H200.794ZM200.794 394.091V388.003H205.203V394.091H200.794ZM200.794 384.473V378.385H205.203V384.473H200.794ZM193.386 321.165H198.236V327.252H193.386V321.165ZM193.386 330.661H198.236V336.748H193.386V330.661ZM193.386 340.279H198.236V346.366H193.386V340.279ZM193.386 349.775H198.236V355.862H193.386V349.775ZM193.386 359.271H198.236V365.359H193.386V359.271ZM193.386 368.889H198.236V374.977H193.386V368.889ZM193.386 378.385H198.236V384.473H193.386V378.385ZM200.794 374.977V368.889H205.203V374.977H200.794ZM200.794 365.359V359.271H205.203V365.359H200.794ZM200.794 355.862V349.775H205.203V355.862H200.794ZM200.794 346.245V340.157H205.203V346.245H200.794ZM200.794 336.748V330.661H205.203V336.748H200.794ZM200.794 327.131V321.043H205.203V327.131H200.794ZM200.794 317.634V311.547H205.203V317.634H200.794ZM200.794 308.016V301.929H205.203V308.016H200.794ZM200.794 298.52V292.433H205.203V298.52H200.794ZM193.386 235.091H198.236V241.178H193.386V235.091ZM193.386 244.709H198.236V250.796H193.386V244.709ZM193.386 254.205H198.236V260.292H193.386V254.205ZM193.386 263.823H198.236V269.91H193.386V263.823ZM193.386 273.319H198.236V279.406H193.386V273.319ZM193.386 282.937H198.236V289.024H193.386V282.937ZM193.386 292.433H198.236V298.52H193.386V292.433ZM200.794 288.902V282.815H205.203V288.902H200.794ZM200.794 279.406V273.319H205.203V279.406H200.794ZM200.794 269.788V263.701H205.203V269.788H200.794ZM200.794 260.292V254.205H205.203V260.292H200.794ZM200.794 250.796V244.709H205.203V250.796H200.794ZM200.794 241.178V235.091H205.203V241.178H200.794ZM200.794 231.682V225.595H205.203V231.682H200.794ZM200.794 222.064V215.977H205.203V222.064H200.794ZM200.794 212.568V206.481H205.203V212.568H200.794ZM200.794 202.95V196.863H205.203V202.95H200.794ZM200.794 193.454V187.367H205.203V193.454H200.794ZM200.794 183.836V177.749H205.203V183.836H200.794ZM200.794 174.34V168.253H205.203V174.34H200.794ZM200.794 164.722V158.635H205.203V164.722H200.794ZM198.236 155.226H193.386V149.138H198.236V155.226ZM198.236 158.756V164.844H193.386V158.756H198.236ZM198.236 168.253V174.34H193.386V168.253H198.236ZM198.236 177.87V183.958H193.386V177.87H198.236ZM198.236 187.367V193.454H193.386V187.367H198.236ZM198.236 196.984V203.072H193.386V196.984H198.236ZM198.236 206.481V212.568H193.386V206.481H198.236ZM198.236 215.977V222.064H193.386V215.977H198.236ZM198.236 225.595V231.682H193.386V225.595H198.236ZM193.386 302.051H198.236V308.138H193.386V302.051ZM198.236 311.547V317.634H193.386V311.547H198.236ZM193.386 388.003H198.236V394.091H193.386V388.003ZM198.236 397.5V403.587H193.386V397.5H198.236ZM193.386 435.728H198.236V441.815H193.386V435.728ZM200.794 435.728H205.203V441.815H200.794V435.728ZM207.672 435.728H212.081V441.815H207.672V435.728ZM207.672 432.197V426.11H212.081V432.197H207.672ZM207.672 422.701V416.614H212.081V422.701H207.672ZM207.672 413.083V406.996H212.081V413.083H207.672ZM207.672 403.587V397.5H212.081V403.587H207.672ZM207.672 394.091V388.003H212.081V394.091H207.672ZM207.672 384.473V378.385H212.081V384.473H207.672ZM207.672 374.977V368.889H212.081V374.977H207.672ZM207.672 365.359V359.271H212.081V365.359H207.672ZM207.672 355.862V349.775H212.081V355.862H207.672ZM207.672 346.245V340.157H212.081V346.245H207.672ZM207.672 336.748V330.661H212.081V336.748H207.672ZM207.672 327.131V321.043H212.081V327.131H207.672ZM207.672 317.634V311.547H212.081V317.634H207.672ZM207.672 308.016V301.929H212.081V308.016H207.672ZM207.672 298.52V292.433H212.081V298.52H207.672ZM207.672 288.902V282.815H212.081V288.902H207.672ZM207.672 279.406V273.319H212.081V279.406H207.672ZM207.672 269.788V263.701H212.081V269.788H207.672ZM207.672 260.292V254.205H212.081V260.292H207.672ZM207.672 250.796V244.709H212.081V250.796H207.672ZM207.672 241.178V235.091H212.081V241.178H207.672ZM207.672 231.682V225.595H212.081V231.682H207.672ZM207.672 222.064V215.977H212.081V222.064H207.672ZM207.672 212.568V206.481H212.081V212.568H207.672ZM207.672 202.95V196.863H212.081V202.95H207.672ZM207.672 193.454V187.367H212.081V193.454H207.672ZM207.672 183.836V177.749H212.081V183.836H207.672ZM207.672 174.34V168.253H212.081V174.34H207.672ZM207.672 164.722V158.635H212.081V164.722H207.672ZM207.672 155.226V149.138H212.081V155.226H207.672ZM207.672 145.608V139.521H212.081V145.608H207.672ZM209.524 120.528H212.081V126.615H207.672V120.528H209.524ZM212.081 130.024V136.112H207.672V130.024H212.081ZM219.136 136.112H214.55V130.024H219.136V136.112ZM219.136 126.494H214.55V120.406H219.136V126.494ZM219.136 116.998H214.55V110.91H219.136V116.998ZM219.136 97.8835V107.38H214.55V97.8835H219.136ZM200.794 120.528H205.203V126.615H200.794V120.528ZM200.794 130.024H205.203V136.112H200.794V130.024ZM198.236 139.642V145.73H193.386V139.642H198.236ZM193.386 451.311V445.224H198.236V451.311H193.386ZM200.794 451.311V445.224H205.203V451.311H200.794ZM207.672 451.311V445.224H212.081V451.311H207.672ZM219.136 451.311H214.55V445.224H219.136V451.311ZM219.136 441.815H214.55V435.728H219.136V441.815ZM219.136 432.197H214.55V426.11H219.136V432.197ZM219.136 422.701H214.55V416.614H219.136V422.701ZM219.136 413.083H214.55V406.996H219.136V413.083ZM219.136 403.587H214.55V397.5H219.136V403.587ZM219.136 394.091H214.55V388.003H219.136V394.091ZM219.136 384.473H214.55V378.385H219.136V384.473ZM219.136 374.977H214.55V368.889H219.136V374.977ZM219.136 365.359H214.55V359.271H219.136V365.359ZM219.136 355.862H214.55V349.775H219.136V355.862ZM219.136 346.245H214.55V340.157H219.136V346.245ZM219.136 336.748H214.55V330.661H219.136V336.748ZM219.136 327.131H214.55V321.043H219.136V327.131ZM219.136 317.634H214.55V311.547H219.136V317.634ZM219.136 308.016H214.55V301.929H219.136V308.016ZM219.136 298.52H214.55V292.433H219.136V298.52ZM219.136 288.902H214.55V282.815H219.136V288.902ZM219.136 279.406H214.55V273.319H219.136V279.406ZM219.136 269.788H214.55V263.701H219.136V269.788ZM219.136 260.292H214.55V254.205H219.136V260.292ZM219.136 250.796H214.55V244.709H219.136V250.796ZM219.136 241.178H214.55V235.091H219.136V241.178ZM219.136 231.682H214.55V225.595H219.136V231.682ZM219.136 222.064H214.55V215.977H219.136V222.064ZM219.136 212.568H214.55V206.481H219.136V212.568ZM219.136 202.95H214.55V196.863H219.136V202.95ZM219.136 193.454H214.55V187.367H219.136V193.454ZM219.136 183.836H214.55V177.749H219.136V183.836ZM219.136 174.34H214.55V168.253H219.136V174.34ZM219.136 164.722H214.55V158.635H219.136V164.722ZM219.136 155.226H214.55V149.138H219.136V155.226Z" fill="#BCB7B0"/>
<path d="M154.497 78.7695H165.785V94.353H154.497V78.7695ZM161.64 101.414H172.928V116.998H161.64V101.414ZM207.848 78.7695H219.136V94.353H207.848V78.7695ZM200.794 101.414H212.081V116.998H200.794V101.414Z" fill="#6FA6B7"/>
<path d="M189.154 0H194.356V9.13092H189.154V0ZM179.365 0H184.568V9.13092H179.365V0Z" fill="black"/>
<path opacity="0.1" d="M168.342 75.2388L198.236 120.528V136.112H191.182V488.565H182.54V136.355L175.485 136.112V97.8835H168.342V75.2388Z" fill="#010101"/>
<path d="M221.693 167.765H244.18V158.147H270.988V167.765H293.033V434.51H221.693V167.765Z" fill="black"/>
<path d="M294.092 435.971H220.635V166.305H243.474V155.104H271.252V166.305H294.092V435.971V435.971ZM222.751 433.049H291.975V169.227H269.929V159.609H245.238V169.227H222.751V433.049Z" fill="black"/>
<path d="M244.18 158.147H270.988V163.87H244.18V158.147Z" fill="black"/>
<path d="M222.928 177.018H243.474V180.792H222.928V177.018ZM222.928 182.01H243.474V185.784H222.928V182.01ZM222.928 186.879H243.474V190.654H222.928V186.879ZM222.928 191.871H243.474V195.645H222.928V191.871ZM222.928 196.741H243.474V200.515H222.928V196.741ZM222.928 201.611H243.474V205.385H222.928V201.611ZM222.928 206.602H243.474V210.376H222.928V206.602ZM222.928 211.472H243.474V215.246H222.928V211.472ZM222.928 216.342H243.474V220.116H222.928V216.342ZM222.928 221.333H243.474V225.108H222.928V221.333ZM222.928 226.203H243.474V229.977H222.928V226.203ZM222.928 231.195H243.474V234.969H222.928V231.195ZM222.928 236.065H243.474V239.839H222.928V236.065ZM222.928 240.935H243.474V244.709H222.928V240.935ZM222.928 245.926H243.474V249.7H222.928V245.926ZM222.928 250.796H243.474V254.57H222.928V250.796ZM222.928 255.666H243.474V259.44H222.928V255.666ZM222.928 260.657H243.474V264.431H222.928V260.657ZM222.928 265.527H243.474V269.301H222.928V265.527ZM222.928 270.519H243.474V274.293H222.928V270.519ZM222.928 275.389H243.474V279.163H222.928V275.389ZM222.928 280.258H243.474V284.032H222.928V280.258ZM222.928 285.25H243.474V289.024H222.928V285.25ZM222.928 290.12H243.474V293.894H222.928V290.12ZM222.928 294.99H243.474V298.764H222.928V294.99ZM222.928 299.981H243.474V303.755H222.928V299.981ZM222.928 304.851H243.474V308.625H222.928V304.851ZM222.928 309.721H243.474V313.495H222.928V309.721ZM222.928 314.712H243.474V318.486H222.928V314.712ZM222.928 319.582H243.474V323.356H222.928V319.582ZM222.928 324.574H243.474V328.348H222.928V324.574ZM222.928 329.444H243.474V333.218H222.928V329.444ZM222.928 334.313H243.474V338.088H222.928V334.313ZM222.928 339.305H243.474V343.079H222.928V339.305ZM222.928 344.175H243.474V347.949H222.928V344.175ZM222.928 349.045H243.474V352.819H222.928V349.045ZM222.928 354.036H243.474V357.81H222.928V354.036ZM222.928 358.906H243.474V362.68H222.928V358.906ZM222.928 363.898H243.474V367.672H222.928V363.898ZM222.928 368.767H243.474V372.542H222.928V368.767ZM222.928 373.637H243.474V377.411H222.928V373.637ZM222.928 378.629H243.474V382.403H222.928V378.629ZM222.928 383.499H243.474V387.273H222.928V383.499ZM222.928 388.368H243.474V392.143H222.928V388.368ZM222.928 393.36H243.474V397.134H222.928V393.36ZM222.928 398.23H243.474V402.004H222.928V398.23ZM222.928 403.221H243.474V406.995H222.928V403.221ZM222.928 408.091H243.474V411.865H222.928V408.091ZM222.928 412.961H243.474V416.735H222.928V412.961ZM222.928 417.953H243.474V421.727H222.928V417.953ZM222.928 422.822H243.474V426.597H222.928V422.822ZM222.928 427.692H243.474V431.466H222.928V427.692ZM271.252 177.018H291.799V180.792H271.252V177.018ZM271.252 182.01H291.799V185.784H271.252V182.01ZM271.252 186.879H291.799V190.654H271.252V186.879ZM271.252 191.871H291.799V195.645H271.252V191.871ZM271.252 196.741H291.799V200.515H271.252V196.741ZM271.252 201.611H291.799V205.385H271.252V201.611ZM271.252 206.602H291.799V210.376H271.252V206.602ZM271.252 211.472H291.799V215.246H271.252V211.472ZM271.252 216.342H291.799V220.116H271.252V216.342ZM271.252 221.333H291.799V225.108H271.252V221.333ZM271.252 226.203H291.799V229.977H271.252V226.203ZM271.252 231.195H291.799V234.969H271.252V231.195ZM271.252 236.065H291.799V239.839H271.252V236.065ZM271.252 240.935H291.799V244.709H271.252V240.935ZM271.252 245.926H291.799V249.7H271.252V245.926ZM271.252 250.796H291.799V254.57H271.252V250.796ZM271.252 255.666H291.799V259.44H271.252V255.666ZM271.252 260.657H291.799V264.431H271.252V260.657ZM271.252 265.527H291.799V269.301H271.252V265.527ZM271.252 270.519H291.799V274.293H271.252V270.519ZM271.252 275.389H291.799V279.163H271.252V275.389ZM271.252 280.258H291.799V284.032H271.252V280.258ZM271.252 285.25H291.799V289.024H271.252V285.25ZM271.252 290.12H291.799V293.894H271.252V290.12ZM271.252 294.99H291.799V298.764H271.252V294.99ZM271.252 299.981H291.799V303.755H271.252V299.981ZM271.252 304.851H291.799V308.625H271.252V304.851ZM271.252 309.721H291.799V313.495H271.252V309.721ZM271.252 314.712H291.799V318.486H271.252V314.712ZM271.252 319.582H291.799V323.356H271.252V319.582ZM271.252 324.574H291.799V328.348H271.252V324.574ZM271.252 329.444H291.799V333.218H271.252V329.444ZM271.252 334.313H291.799V338.088H271.252V334.313ZM271.252 339.305H291.799V343.079H271.252V339.305ZM271.252 344.175H291.799V347.949H271.252V344.175ZM271.252 349.045H291.799V352.819H271.252V349.045ZM271.252 354.036H291.799V357.81H271.252V354.036ZM271.252 358.906H291.799V362.68H271.252V358.906ZM271.252 363.898H291.799V367.672H271.252V363.898ZM271.252 368.767H291.799V372.542H271.252V368.767ZM271.252 373.637H291.799V377.411H271.252V373.637ZM271.252 378.629H291.799V382.403H271.252V378.629ZM271.252 383.499H291.799V387.273H271.252V383.499ZM271.252 388.368H291.799V392.143H271.252V388.368ZM271.252 393.36H291.799V397.134H271.252V393.36ZM271.252 398.23H291.799V402.004H271.252V398.23ZM271.252 403.221H291.799V406.995H271.252V403.221ZM271.252 408.091H291.799V411.865H271.252V408.091ZM271.252 412.961H291.799V416.735H271.252V412.961ZM271.252 417.953H291.799V421.727H271.252V417.953ZM271.252 422.822H291.799V426.597H271.252V422.822ZM271.252 427.692H291.799V431.466H271.252V427.692ZM245.15 177.018H269.577V180.792H245.15V177.018ZM245.15 182.01H269.577V185.784H245.15V182.01ZM245.15 186.879H269.577V190.654H245.15V186.879ZM245.15 191.871H269.577V195.645H245.15V191.871ZM245.15 196.741H269.577V200.515H245.15V196.741ZM245.15 201.611H269.577V205.385H245.15V201.611ZM245.15 206.602H269.577V210.376H245.15V206.602ZM245.15 211.472H269.577V215.246H245.15V211.472ZM245.15 216.342H269.577V220.116H245.15V216.342ZM245.15 221.333H269.577V225.108H245.15V221.333ZM245.15 226.203H269.577V229.977H245.15V226.203ZM245.15 231.195H269.577V234.969H245.15V231.195ZM245.15 236.065H269.577V239.839H245.15V236.065ZM245.15 240.935H269.577V244.709H245.15V240.935ZM245.15 245.926H269.577V249.7H245.15V245.926ZM245.15 250.796H269.577V254.57H245.15V250.796ZM245.15 255.666H269.577V259.44H245.15V255.666ZM245.15 260.657H269.577V264.431H245.15V260.657ZM245.15 265.527H269.577V269.301H245.15V265.527ZM245.15 270.519H269.577V274.293H245.15V270.519ZM245.15 275.389H269.577V279.163H245.15V275.389ZM245.15 280.258H269.577V284.032H245.15V280.258ZM245.15 285.25H269.577V289.024H245.15V285.25ZM245.15 290.12H269.577V293.894H245.15V290.12ZM245.15 294.99H269.577V298.764H245.15V294.99ZM245.15 299.981H269.577V303.755H245.15V299.981ZM245.15 304.851H269.577V308.625H245.15V304.851ZM245.15 309.721H269.577V313.495H245.15V309.721ZM245.15 314.712H269.577V318.486H245.15V314.712ZM245.15 319.582H269.577V323.356H245.15V319.582ZM245.15 324.574H269.577V328.348H245.15V324.574ZM245.15 329.444H269.577V333.218H245.15V329.444ZM245.15 334.313H269.577V338.088H245.15V334.313ZM245.15 339.305H269.577V343.079H245.15V339.305ZM245.15 344.175H269.577V347.949H245.15V344.175ZM245.15 349.045H269.577V352.819H245.15V349.045ZM245.15 354.036H269.577V357.81H245.15V354.036ZM245.15 358.906H269.577V362.68H245.15V358.906ZM245.15 363.898H269.577V367.672H245.15V363.898ZM245.15 368.767H269.577V372.542H245.15V368.767ZM245.15 373.637H269.577V377.411H245.15V373.637ZM245.15 378.629H269.577V382.403H245.15V378.629ZM245.15 383.499H269.577V387.273H245.15V383.499ZM245.15 388.368H269.577V392.143H245.15V388.368ZM245.15 393.36H269.577V397.134H245.15V393.36ZM245.15 398.23H269.577V402.004H245.15V398.23ZM245.15 403.221H269.577V406.995H245.15V403.221ZM245.15 408.091H269.577V411.865H245.15V408.091ZM245.15 412.961H269.577V416.735H245.15V412.961ZM245.15 417.953H269.577V421.727H245.15V417.953ZM245.15 422.822H269.577V426.597H245.15V422.822ZM245.15 427.692H269.577V431.466H245.15V427.692Z" fill="black"/>
<path opacity="0.5" d="M223.104 169.592H223.457V434.51H223.104V169.592ZM224.25 169.592H224.603V434.51H224.25V169.592ZM225.309 169.592H225.661V434.51H225.309V169.592ZM226.455 169.592H226.808V434.51H226.455V169.592ZM227.601 169.592H227.954V434.51H227.601V169.592ZM228.66 169.592H229.012V434.51H228.66V169.592ZM229.806 169.592H230.159V434.51H229.806V169.592ZM230.952 169.592H231.305V434.51H230.952V169.592ZM232.011 169.592H232.363V434.51H232.011V169.592ZM233.157 169.592H233.51V434.51H233.157V169.592ZM234.303 169.592H234.656V434.632H234.303V169.592ZM235.362 169.592H235.714V434.632H235.362V169.592ZM236.508 169.592H236.861V434.632H236.508V169.592ZM237.654 169.592H238.007V434.632H237.654V169.592ZM238.713 169.592H239.065V434.632H238.713V169.592ZM239.859 169.592H240.212V434.632H239.859V169.592ZM241.005 169.592H241.358V434.632H241.005V169.592ZM242.063 169.592H242.416V434.632H242.063V169.592ZM243.21 169.592H243.563V434.632H243.21V169.592ZM244.356 158.147H244.709V434.632H244.356V158.147ZM245.414 158.147H245.767V434.632H245.414V158.147ZM246.561 158.147H246.914V434.632H246.561V158.147ZM247.707 158.147H248.06V434.632H247.707V158.147ZM248.765 158.147H249.118V434.632H248.765V158.147ZM249.912 158.147H250.265V434.632H249.912V158.147ZM251.058 158.147H251.411V434.632H251.058V158.147ZM252.116 158.147H252.469V434.632H252.116V158.147ZM253.263 158.147H253.616V434.632H253.263V158.147ZM254.409 158.147H254.762V434.632H254.409V158.147ZM255.467 158.147H255.82V434.632H255.467V158.147ZM256.614 158.147H256.966V434.632H256.614V158.147ZM257.76 158.147H258.113V434.632H257.76V158.147ZM258.818 158.147H259.171V434.632H258.818V158.147ZM259.965 158.147H260.317V434.632H259.965V158.147ZM261.111 158.147H261.464V434.632H261.111V158.147ZM262.169 158.147H262.522V434.632H262.169V158.147ZM263.316 158.147H263.668V434.632H263.316V158.147ZM264.462 158.147H264.815V434.632H264.462V158.147ZM265.52 158.147H265.873V434.632H265.52V158.147ZM266.667 158.147H267.019V434.632H266.667V158.147ZM267.813 158.147H268.166V434.632H267.813V158.147ZM268.871 158.147H269.224V434.632H268.871V158.147ZM270.018 158.147H270.37V434.632H270.018V158.147ZM271.164 169.592H271.517V434.632H271.164V169.592ZM272.222 169.592H272.575V434.632H272.222V169.592ZM273.369 169.592H273.721V434.632H273.369V169.592ZM274.515 169.592H274.868V434.632H274.515V169.592ZM275.573 169.592H275.926V434.632H275.573V169.592ZM276.72 169.592H277.072V434.632H276.72V169.592ZM277.866 169.592H278.219V434.632H277.866V169.592ZM278.924 169.592H279.277V434.753H278.924V169.592ZM280.071 169.592H280.423V434.753H280.071V169.592ZM281.217 169.592H281.57V434.753H281.217V169.592ZM282.275 169.592H282.628V434.753H282.275V169.592ZM283.421 169.592H283.774V434.753H283.421V169.592ZM284.568 169.592H284.921V434.753H284.568V169.592ZM285.626 169.592H285.979V434.753H285.626V169.592ZM286.772 169.592H287.125V434.753H286.772V169.592ZM287.919 169.592H288.272V434.753H287.919V169.592ZM288.977 169.592H289.33V434.753H288.977V169.592ZM290.123 169.592H290.476V434.753H290.123V169.592ZM291.27 169.592H291.623V434.753H291.27V169.592Z" fill="#8FD1DC"/>
<path d="M243.298 434.632L243.651 167.765H245.326L244.885 434.632H243.298ZM269.489 167.765H271.164V434.753H269.489V167.765Z" fill="black"/>
<path opacity="0.15" d="M271.164 166.304L294.092 240.934V435.971H271.164V166.304Z" fill="#010101"/>
<path opacity="0.1" d="M220.635 166.304H243.474V435.971H220.635V166.304Z" fill="white"/>
<path opacity="0.15" d="M271.164 166.304L294.092 240.934V166.304H271.164Z" fill="black"/>
<path d="M275.221 166.305H271.252V155.104H243.474V166.305H220.635V169.592H294.092V166.305H275.221V166.305ZM269.224 163.87H245.414V158.148H269.224V163.87Z" fill="#A5A5A5"/>
<path d="M328.042 229.734V228.151H322.751V119.554H320.723V228.151H317.108V229.734H307.143V233.386H331.129V229.734H328.042Z" fill="#3A7999"/>
<path d="M283.069 233.386H340.829V468.964H283.069V233.386Z" fill="#3A7999" stroke="#3A7999" stroke-width="4" stroke-miterlimit="10"/>
<path d="M283.069 233.386H340.829V238.865H283.069V233.386ZM283.069 244.465H340.829V249.944H283.069V244.465ZM283.069 255.544H340.829V261.022H283.069V255.544ZM283.069 266.623H340.829V272.101H283.069V266.623ZM283.069 277.702H340.829V283.18H283.069V277.702ZM283.069 288.78H340.829V294.259H283.069V288.78ZM283.069 299.859H340.829V305.338H283.069V299.859ZM283.069 310.938H340.829V316.417H283.069V310.938ZM283.069 322.017H340.829V327.496H283.069V322.017ZM283.069 333.096H340.829V338.574H283.069V333.096ZM283.069 344.175H340.829V349.653H283.069V344.175ZM283.069 355.254H340.829V360.732H283.069V355.254ZM283.069 366.332H340.829V371.811H283.069V366.332ZM283.069 377.411H340.829V382.89H283.069V377.411ZM283.069 388.49H340.829V393.969H283.069V388.49ZM283.069 399.569H340.829V405.048H283.069V399.569ZM283.069 410.648H340.829V416.126H283.069V410.648ZM283.069 421.727H340.829V427.205H283.069V421.727ZM283.069 432.806H340.829V438.284H283.069V432.806ZM283.069 443.884H340.829V449.363H283.069V443.884ZM283.069 454.963H340.829V460.442H283.069V454.963Z" fill="#36617A"/>
<path d="M283.069 238.865H340.829V244.344H283.069V238.865ZM283.069 249.944H340.829V255.422H283.069V249.944ZM283.069 261.023H340.829V266.501H283.069V261.023ZM283.069 272.102H340.829V277.58H283.069V272.102ZM283.069 283.18H340.829V288.659H283.069V283.18ZM283.069 294.259H340.829V299.738H283.069V294.259ZM283.069 305.338H340.829V310.817H283.069V305.338ZM283.069 316.417H340.829V321.895H283.069V316.417ZM283.069 327.496H340.829V332.974H283.069V327.496ZM283.069 338.575H340.829V344.053H283.069V338.575ZM283.069 349.654H340.829V355.132H283.069V349.654ZM283.069 360.732H340.829V366.211H283.069V360.732ZM283.069 371.811H340.829V377.29H283.069V371.811ZM283.069 382.89H340.829V388.369H283.069V382.89ZM283.069 393.969H340.829V399.447H283.069V393.969ZM283.069 405.048H340.829V410.526H283.069V405.048ZM283.069 416.127H340.829V421.605H283.069V416.127ZM283.069 427.206H340.829V432.684H283.069V427.206ZM283.069 438.284H340.829V443.763H283.069V438.284ZM283.069 449.363H340.829V454.842H283.069V449.363ZM283.069 460.442H340.829V465.921H283.069V460.442Z" fill="black"/>
<path opacity="0.5" d="M282.981 233.386H283.333V466.042H282.981V233.386ZM284.568 233.386H284.921V466.042H284.568V233.386ZM286.155 233.386H286.508V466.042H286.155V233.386ZM287.742 233.386H288.095V466.042H287.742V233.386ZM289.33 233.386H289.683V466.042H289.33V233.386ZM291.005 233.386H291.358V466.042H291.005V233.386ZM292.593 233.386H292.945V466.042H292.593V233.386ZM294.18 233.386H294.533V466.042H294.18V233.386ZM295.767 233.386H296.12V466.042H295.767V233.386ZM297.354 233.386H297.707V466.042H297.354V233.386ZM299.03 233.386H299.383V466.042H299.03V233.386ZM300.617 233.386H300.97V466.042H300.617V233.386ZM302.205 233.386H302.557V466.042H302.205V233.386ZM303.792 233.386H304.145V466.042H303.792V233.386ZM305.379 233.386H305.732V466.042H305.379V233.386ZM307.055 233.386H307.407V466.042H307.055V233.386ZM308.642 233.386H308.995V466.042H308.642V233.386ZM310.229 233.386H310.582V466.042H310.229V233.386ZM311.817 233.386H312.169V466.042H311.817V233.386ZM313.404 233.386H313.757V466.042H313.404V233.386ZM314.991 233.386H315.344V466.042H314.991V233.386ZM316.667 233.386H317.019V466.042H316.667V233.386ZM318.254 233.386H318.607V466.042H318.254V233.386ZM319.841 233.386H320.194V466.042H319.841V233.386ZM321.429 233.386H321.781V466.042H321.429V233.386ZM323.016 233.386H323.369V466.042H323.016V233.386ZM324.691 233.386H325.044V466.042H324.691V233.386ZM326.279 233.386H326.631V466.042H326.279V233.386ZM327.866 233.386H328.219V466.042H327.866V233.386ZM329.453 233.386H329.806V466.042H329.453V233.386ZM331.041 233.386H331.393V466.042H331.041V233.386ZM332.716 233.386H333.069V466.042H332.716V233.386ZM334.303 233.386H334.656V466.042H334.303V233.386ZM335.891 233.386H336.243V466.042H335.891V233.386ZM337.478 233.386H337.831V466.042H337.478V233.386ZM339.065 233.386H339.418V466.042H339.065V233.386ZM340.741 233.386H341.094V466.042H340.741V233.386Z" fill="white"/>
<path opacity="0.8" d="M283.069 233.386H340.829V238.865H283.069V233.386ZM283.069 238.865H340.829V244.343H283.069V238.865ZM283.069 244.465H340.829V249.944H283.069V244.465ZM283.069 249.944H340.829V255.422H283.069V249.944ZM283.069 255.544H340.829V261.022H283.069V255.544ZM283.069 261.022H340.829V266.501H283.069V261.022ZM283.069 266.623H340.829V272.101H283.069V266.623ZM283.069 272.101H340.829V277.58H283.069V272.101ZM283.069 277.702H340.829V283.18H283.069V277.702ZM283.069 283.18H340.829V288.659H283.069V283.18ZM283.069 288.78H340.829V294.259H283.069V288.78ZM283.069 294.259H340.829V299.738H283.069V294.259ZM283.069 299.859H340.829V305.338H283.069V299.859ZM283.069 305.338H340.829V310.816H283.069V305.338ZM283.069 310.938H340.829V316.417H283.069V310.938ZM283.069 316.417H340.829V321.895H283.069V316.417ZM283.069 322.017H340.829V327.496H283.069V322.017ZM283.069 327.496H340.829V332.974H283.069V327.496ZM283.069 333.096H340.829V338.574H283.069V333.096ZM283.069 338.574H340.829V344.053H283.069V338.574ZM283.069 344.175H340.829V349.653H283.069V344.175ZM283.069 349.653H340.829V355.132H283.069V349.653ZM283.069 355.254H340.829V360.732H283.069V355.254ZM283.069 360.732H340.829V366.211H283.069V360.732ZM283.069 366.332H340.829V371.811H283.069V366.332ZM283.069 371.811H340.829V377.29H283.069V371.811ZM283.069 377.411H340.829V382.89H283.069V377.411ZM283.069 382.89H340.829V388.368H283.069V382.89ZM283.069 388.49H340.829V393.969H283.069V388.49ZM283.069 393.969H340.829V399.447H283.069V393.969ZM283.069 399.569H340.829V405.048H283.069V399.569ZM283.069 405.048H340.829V410.526H283.069V405.048ZM283.069 410.648H340.829V416.126H283.069V410.648ZM283.069 416.126H340.829V421.605H283.069V416.126ZM283.069 421.727H340.829V427.205H283.069V421.727ZM283.069 427.205H340.829V432.684H283.069V427.205ZM283.069 432.806H340.829V438.284H283.069V432.806ZM283.069 438.284H340.829V443.763H283.069V438.284ZM283.069 443.884H340.829V449.363H283.069V443.884ZM283.069 449.363H340.829V454.841H283.069V449.363ZM283.069 454.963H340.829V460.442H283.069V454.963ZM283.069 460.442H340.829V465.92H283.069V460.442Z" stroke="white" stroke-miterlimit="10"/>
<path opacity="0.15" d="M294.092 232.291H319.136L342.945 309.843L342.769 472.86H294.092V232.291Z" fill="#010101"/>
<path opacity="0.15" d="M319.136 232.291H342.857L342.945 309.842L319.136 232.291Z" fill="black"/>
<path d="M320.723 116.754H322.751V119.554H320.723V116.754Z" fill="#C32327"/>
<path d="M147.002 245.926V490.878H176.455C145.238 388.125 189.683 254.205 189.683 254.205H192.064V245.926H147.002V245.926Z" fill="white"/>
<path d="M117.548 245.926V254.205H119.929C127.337 273.319 126.896 296.207 123.721 316.904C116.226 364.993 89.6825 398.717 63.4039 428.666C45.0797 449.473 25.5889 468.24 5.11464 484.791C3.96826 485.643 1.32275 490.878 0 490.878H147.09V245.926H117.548V245.926Z" fill="white"/>
<path d="M151.764 334.679H167.372C167.372 334.679 170.37 303.999 175.132 290.729H154.762L151.764 334.679Z" fill="#354143"/>
<path d="M190.564 438.893L161.552 289.511M166.138 294.868L283.245 437.31L166.138 294.868ZM268.342 430.979L165.432 289.511L268.342 430.979ZM231.129 427.692L168.166 289.511L231.129 427.692ZM251.852 429.031L170.018 289.146L251.852 429.031ZM227.601 429.031L159.171 290.728L227.601 429.031ZM239.683 423.431L162.61 289.511L239.683 423.431ZM159.965 289.511L214.198 429.031L159.965 289.511ZM197.178 431.345L159.171 289.511L197.178 431.345ZM155.379 289.511L210.406 433.171L155.379 289.511Z" stroke="#B5D9D6" stroke-miterlimit="10"/>
<path d="M72.134 443.154H134.392V426.597H85.5379C81.0406 432.319 76.5432 437.919 72.134 443.154ZM91.7989 418.318H134.303V401.76H103.527C99.9118 407.361 95.9436 412.961 91.7989 418.318ZM50.2646 468.112H134.303V451.554H64.9912C59.7884 457.642 54.7619 463.12 50.2646 468.112V468.112ZM108.995 393.482H134.303V376.924H118.607C115.785 382.403 112.522 387.881 108.995 393.482ZM30.5115 490.878H134.392V476.269H42.5926C35.1852 484.182 30.5115 490.878 30.5115 490.878ZM126.543 359.515C125.397 362.558 124.162 365.602 122.751 368.646H134.392V359.515H126.543V359.515Z" fill="#675125"/>
<path d="M42.5926 476.391H134.392V468.112H50.3527L42.5926 476.391V476.391ZM65.0794 451.555H134.392V443.154H72.134L65.0794 451.555ZM85.5379 426.597H134.392V418.318H91.8871L85.5379 426.597V426.597ZM103.616 401.761H134.392V393.482H109.083L103.616 401.761V401.761ZM118.695 376.924H134.392V368.646H122.751L118.695 376.924V376.924Z" fill="#A09790"/>
<path d="M159.877 277.824H151.411L152.734 267.962H161.111L159.877 277.824ZM169.577 277.824H161.199L162.434 267.962H170.899L169.577 277.824ZM179.365 277.824H170.988L172.222 267.962H180.6L179.365 277.824Z" fill="#7F827F"/>
<path d="M135.009 276.606H147.002V279.041H135.009V276.606ZM132.011 271.614H147.002V274.049H132.011V271.614ZM128.924 266.745H146.914V269.18H128.924V266.745Z" fill="#BDC0BA"/>
<path opacity="0.1" d="M170.723 468.234C162.698 427.449 164.55 383.742 169.4 346.61L146.914 385.325L85.4497 491H170.988L170.723 468.234Z" fill="#A09790"/>
<path d="M154.762 287.32H176.102V290.728H154.762V287.32Z" fill="black"/>
<path opacity="0.1" d="M191.975 254.205V245.926H146.914L176.896 303.268C183.157 273.684 189.594 254.205 189.594 254.205H191.975V254.205Z" fill="#010101"/>
<path d="M341.975 461.781C272.31 438.649 273.28 433.049 234.568 432.684C193.651 432.319 192.945 437.797 125.485 461.781H117.46C117.46 481.625 131.658 490.878 131.658 490.878H337.478C337.478 490.878 350 481.625 350 461.781H341.975V461.781Z" fill="black"/>
<path d="M131.041 487.469C131.041 487.469 120.988 471.886 132.011 461.781H335.009C335.009 461.781 347.355 470.668 336.949 487.469H131.041Z" fill="#AEC8CE"/>
<path d="M169.312 443.032C169.312 443.032 147.707 448.754 138.536 456.181H329.101C329.101 456.181 305.379 442.302 293.651 442.18L169.312 443.032V443.032Z" fill="#7E92A5"/>
<path d="M132.011 461.781C132.011 461.781 130.511 459.955 139.594 455.329L329.012 456.181C329.012 456.181 332.716 457.155 334.921 461.781H132.011V461.781Z" fill="#E7E8E6"/>
<path d="M129.894 486.252V487.956C132.011 489.539 131.57 490.878 131.57 490.878H336.861C336.861 490.878 335.45 489.782 338.095 486.252H129.894ZM338.889 464.216H131.217L134.303 459.346H333.686L338.889 464.216Z" fill="#E7E8E6"/>
<path d="M233.598 442.058H234.392V487.469H233.598V442.058ZM244.533 487.469H243.739C243.739 449.85 237.566 442.91 237.566 442.789L237.919 441.328C238.183 441.571 244.533 448.632 244.533 487.469V487.469ZM255.115 487.469H254.321C254.321 448.389 242.681 443.154 242.152 442.91L242.328 441.328C242.504 441.328 255.115 446.928 255.115 487.469ZM276.102 487.469H275.309C275.309 452.285 253.88 443.032 253.616 442.91L253.792 441.328C254.056 441.449 276.102 450.946 276.102 487.469ZM294.092 488.078L293.563 486.861C295.855 481.869 296.649 476.999 296.032 472.495C293.033 452.893 263.933 443.154 263.58 443.032L263.668 441.449C264.903 441.815 293.563 451.433 296.649 472.008C297.531 477.243 296.649 482.599 294.092 488.078V488.078Z" fill="#E7E8E6"/>
<path d="M319.224 488.078L318.695 486.861C320.988 481.991 321.693 477.364 320.988 473.103C317.108 450.58 273.986 443.154 273.545 443.032L273.633 441.449C275.397 441.693 317.725 448.998 321.693 472.495C322.575 477.486 321.693 482.6 319.224 488.078Z" fill="#E7E8E6"/>
<path d="M337.39 488.809L336.508 486.13C339.683 481.139 341.005 476.512 340.3 472.495C337.213 452.894 296.296 444.006 293.739 444.006H293.651V442.789L293.386 440.841C294.797 440.841 336.772 448.511 341.446 470.425C342.857 476.269 341.446 482.478 337.39 488.809V488.809ZM224.25 487.469H223.457C223.457 448.633 229.806 441.571 230.071 441.328L230.423 442.789C230.335 442.911 224.25 449.85 224.25 487.469V487.469ZM213.668 487.469H212.875C212.875 446.928 225.485 441.328 225.661 441.328L225.838 442.911C225.309 443.032 213.668 448.389 213.668 487.469ZM192.593 487.469H191.799C191.799 450.946 213.845 441.45 214.109 441.328L214.286 442.911C214.109 443.032 192.593 452.285 192.593 487.469ZM173.898 488.078C172.697 485.783 171.844 483.176 171.389 480.415C170.935 477.654 170.888 474.794 171.252 472.008C174.339 451.433 203.086 441.937 204.233 441.45L204.321 443.032C204.056 443.154 174.868 452.894 171.87 472.495C171.164 476.999 172.046 481.869 174.339 486.861L173.898 488.078V488.078Z" fill="#E7E8E6"/>
<path d="M148.765 488.078C146.296 482.721 145.414 477.486 146.296 472.616C150.265 449.12 192.593 441.815 194.356 441.571L194.444 443.154C194.004 443.276 150.882 450.702 147.002 473.225C146.296 477.486 147.09 482.113 149.295 486.982L148.765 488.078V488.078Z" fill="#E7E8E6"/>
<path d="M130.6 488.808C126.543 482.478 125.132 476.147 126.367 470.181C131.041 448.267 172.399 440.354 173.721 440.354L173.633 441.936L173.545 443.519C171.076 443.519 130.688 452.65 127.69 472.251C127.072 476.39 128.307 481.138 131.57 486.13L130.6 488.808V488.808Z" fill="#E7E8E6"/>
<path d="M127.072 475.051H340.829V476.634H127.072V475.051Z" fill="#E7E8E6"/>
<path d="M298.677 444.128C298.677 444.128 287.213 422.579 234.039 422.579C180.864 422.579 169.4 444.128 169.4 444.128H298.677V444.128Z" fill="#E7E8E6"/>
</g>
<defs>
<clipPath id="clip0_734_962">
<rect width="350" height="491" fill="white"/>
</clipPath>
</defs>
</svg>
