<svg width="580" height="84" viewBox="0 0 580 84" fill="none" xmlns="http://www.w3.org/2000/svg">
<g clip-path="url(#clip0)">
<path d="M18.0109 0.21884C12.7141 0.437681 8.74154 1.0942 6.53454 1.96956C4.98964 2.62608 2.78264 4.59565 1.89984 6.12753C0.354941 8.75362 -0.307159 12.2551 0.134241 15.1C0.559435 17.1333 1.49875 19.0262 2.86399 20.6009C4.22924 22.1756 5.97564 23.3805 7.93926 24.1025C9.90289 24.8244 12.0193 25.0398 14.0899 24.7283C16.1604 24.4168 18.1172 23.5887 19.7765 22.3217C22.4249 20.1333 26.1768 12.9116 29.4873 3.93913C30.3701 1.53188 30.3701 0.656521 29.9287 0.437681C29.4873 0.21884 19.9972 0 18.0109 0.21884ZM72.9652 0.21884C67.4477 0.875362 62.3716 4.15797 59.0611 8.75362L14.259 81.4086C14.0383 82.0651 14.0383 82.0651 14.4797 82.5028C14.9211 82.9405 15.1418 82.9405 21.3214 82.9405C26.8389 82.7217 27.501 82.7217 29.4873 82.284C34.5634 80.9709 38.536 77.9072 41.4051 73.5304C44.7156 68.7159 85.9865 1.53188 86.2072 1.0942L85.7658 0.437681C85.5451 0 84.883 0 80.0276 0L72.9652 0.21884ZM126.595 0.21884C121.74 0.875362 117.326 3.06377 114.015 6.56521L90.1798 44.6434L67.4477 81.6275C67.227 82.9405 67.6684 82.9405 72.9652 82.9405L80.0276 82.7217C86.2072 82.0651 91.504 78.7825 94.8145 73.7492C99.0078 67.184 139.396 1.75072 139.396 1.31304C139.617 0 139.175 0 133.216 0L126.375 0.21884H126.595ZM431.161 19.9145C414.609 21.884 402.25 34.7956 400.043 51.6463C399.601 55.8043 399.822 60.8376 400.925 64.7767C401.588 67.184 403.574 70.9043 405.119 73.0927C408.871 78.126 415.05 81.6275 421.892 83.1593C438.224 86.6608 454.335 79.0014 461.618 64.3391C462.721 62.1507 462.942 61.9318 463.163 62.5883C463.384 63.2449 462.942 66.3086 462.721 67.8405L461.177 71.342C460.073 73.968 460.073 74.1869 462.059 75.9376C466.253 79.8767 471.549 82.5028 477.729 83.3782C479.936 83.8159 484.129 84.0347 486.778 83.8159C491.854 83.3782 495.385 82.5028 500.02 80.3144C512.379 74.1869 519.883 61.4941 519.883 47.2695C519.883 33.2637 511.496 23.1971 496.93 20.1333C494.061 19.6956 485.454 19.6956 482.584 20.3522C477.329 21.3655 472.383 23.5724 468.132 26.7998C463.882 30.0272 460.443 34.1872 458.087 38.9536L456.763 41.5797C456.321 41.5797 456.763 36.984 457.204 35.671C457.204 34.7956 457.866 33.2637 458.528 32.1695L459.411 29.5435C459.19 28.8869 456.321 26.2608 454.335 24.9478C449.044 21.4777 442.799 19.7192 436.458 19.9145H431.161ZM440.651 30.2C444.635 31.169 448.146 33.4994 450.568 36.7815C452.99 40.0635 454.167 44.0871 453.893 48.1449C453.893 63.4637 442.196 75.2811 428.292 73.968C425.973 73.8559 423.698 73.2912 421.599 72.3061C419.5 71.321 417.617 69.935 416.059 68.2274C414.501 66.5198 413.298 64.5242 412.519 62.3549C411.74 60.1856 411.4 57.8852 411.519 55.5855C411.519 42.8927 419.464 32.3884 430.72 29.9811C433.368 29.3246 438.003 29.5435 440.651 30.2ZM494.723 30.2C501.123 31.7319 505.537 36.1087 507.523 42.0174C507.965 43.9869 507.965 44.4246 507.965 48.3637C507.965 52.084 507.965 52.5217 507.303 54.9289C506.199 59.7434 503.992 63.6825 500.902 66.7463C497.371 70.4666 492.737 72.8738 488.102 73.7492C485.453 74.1869 481.04 73.968 478.391 73.3115C473.536 71.7796 469.784 68.7159 467.577 64.5579C466.032 61.0565 465.37 57.555 465.811 53.1782C466.915 41.142 474.419 32.1695 485.233 29.9811C487.44 29.3246 492.516 29.5435 494.723 30.2ZM372.676 20.7898C368.703 21.4464 365.393 23.8536 363.627 27.355C359.174 45.6784 354.98 64.0628 351.047 82.5028C351.047 82.9405 351.709 82.9405 366.496 82.9405L382.166 82.7217L383.711 82.284L386.359 80.9709C388.787 79.4391 391.215 76.1564 391.656 73.968V73.0927H364.289L364.51 72.4362L370.248 46.613L375.766 21.0087C375.766 20.571 375.545 20.571 374.883 20.571L372.676 20.7898ZM543.939 21.0087C539.966 22.1029 536.877 24.5101 535.111 28.0116C531.023 45.9637 526.904 63.9086 522.752 81.8463L522.531 82.7217H523.414C528.49 82.7217 533.787 78.7825 535.552 73.968C536.83 69.5782 537.861 65.1216 538.642 60.6188L538.863 59.7434H549.015L560.933 59.3057C570.644 57.3362 577.044 51.8652 579.472 42.8927C580.134 40.7043 580.134 35.0145 579.692 32.8261C578.81 29.9811 577.706 27.7927 575.499 25.8232C573.634 23.8556 571.272 22.4197 568.657 21.6652C565.788 20.7898 564.023 20.571 554.533 20.571C546.587 20.571 545.484 20.571 543.939 21.0087ZM563.581 31.2942C565.568 32.1695 566.671 33.2637 567.554 34.7956C568.216 35.8898 568.216 36.5463 568.437 37.8594C568.657 43.3304 565.347 47.7072 559.829 49.4579L549.677 49.8956L541.07 49.6768L544.822 32.3884L545.263 30.4188H553.65L562.257 30.6377L563.581 31.2942ZM161.245 21.2275C159.7 21.6652 157.714 22.9782 156.831 24.0724L120.416 82.7217L124.83 82.9405C129.906 82.9405 131.23 82.7217 133.437 81.1898C134.761 80.0956 135.423 79.2202 138.292 74.4057L140.279 71.1231H169.853L170.735 77.0318L171.839 82.9405H172.942C176.474 82.5028 179.563 80.0956 180.888 76.813C181.991 74.1869 181.991 74.6246 177.136 46.613L172.501 21.0087L167.646 20.7898C163.011 20.7898 162.349 20.7898 161.245 21.2275ZM166.321 46.1753L168.749 61.2753H145.796L154.845 46.1753L163.894 31.0753L166.321 46.1753ZM200.53 21.0087C198.401 21.6186 196.468 22.7661 194.921 24.3389C193.373 25.9117 192.264 27.8558 191.702 29.9811L191.481 30.6377H200.751L210.241 30.8565L198.764 82.5028C198.764 82.9405 198.764 82.9405 200.088 82.9405C205.385 82.9405 210.461 79.2202 211.786 74.1869C212.227 73.3115 220.834 34.5768 221.496 31.2942V30.6377H227.014C232.311 30.4188 232.752 30.4188 234.297 29.9811C237.607 28.6681 240.035 26.6985 241.58 23.6348L242.684 21.4464V20.7898H222.158L200.53 21.0087ZM258.353 21.2275C256.367 21.6652 254.601 22.7594 253.056 24.2913C250.187 27.1362 250.629 25.3855 244.008 55.5855L238.049 82.7217L255.926 82.9405L273.802 82.7217L275.126 82.284C276.99 81.5475 278.657 80.3941 279.997 78.9136C281.337 77.4331 282.313 75.6657 282.851 73.7492L283.072 73.0927H267.181C252.174 73.0927 251.291 73.0927 251.291 72.655L253.277 64.7767L255.043 56.6797C255.043 56.242 255.926 56.242 266.74 56.242C279.761 56.0231 279.32 56.242 282.41 54.7101C284.837 53.3971 287.706 49.6768 288.368 47.0507V46.3942H272.919C258.133 46.3942 257.25 46.3942 257.25 45.9565C258.479 41.3179 259.582 36.6476 260.56 31.9507L260.781 30.4188H272.699C285.941 30.4188 285.941 30.4188 288.589 29.1058C291.238 27.7927 294.107 24.2913 294.548 21.4464L294.769 20.7898H277.113C262.547 20.7898 259.457 20.7898 258.353 21.2275ZM309.776 21.0087C307.79 21.6652 306.024 23.4159 305.142 25.3855C304.7 26.2608 302.493 36.1087 298.3 54.4913L292.12 82.7217L295.431 82.9405C298.521 82.7217 298.741 82.7217 300.066 82.0651C301.831 81.1898 303.597 79.4391 304.259 77.9072L306.466 68.2782L308.231 59.7434H319.708L323.901 71.342L328.315 82.9405L329.419 82.7217C333.612 82.284 336.702 78.7825 336.702 74.6246C336.702 73.0927 336.26 71.7796 333.391 64.7767L330.964 59.0869L332.95 58.6492C337.591 57.6713 341.766 55.1771 344.807 51.5663C347.849 47.9555 349.58 43.437 349.723 38.7347C349.723 34.7956 349.502 33.0449 347.957 30.2C347.295 28.4492 346.633 27.7927 345.088 26.2608C343.102 24.2913 341.557 23.1971 339.129 22.3217C335.819 20.7898 336.26 21.0087 323.018 20.7898L309.776 21.0087ZM330.743 30.6377C335.819 31.513 338.909 35.8898 337.805 40.9231C336.922 45.3 333.833 48.3637 329.198 49.4579C327.653 49.8956 326.77 49.8956 319.046 49.8956L310.659 49.6768L314.852 30.8565V30.4188H322.136L330.743 30.6377Z" fill="#FED138"/>
</g>
<defs>
<clipPath id="clip0">
<rect width="580" height="84" fill="white"/>
</clipPath>
</defs>
</svg>
