<svg width="18" height="12" viewBox="0 0 18 12" fill="none" xmlns="http://www.w3.org/2000/svg">
<path d="M18 0L16.29 2.052C16.1037 2.27369 15.8523 2.39867 15.59 2.4H2.41C2.14766 2.39867 1.89626 2.27369 1.71 2.052L0 0H18Z" fill="#49494E"/>
<path d="M15 4.79993L13.29 6.85193C13.1037 7.07362 12.8523 7.1986 12.59 7.19992H5.41C5.14766 7.1986 4.89626 7.07362 4.71 6.85193L3 4.79993H15Z" fill="#49494E"/>
<path d="M12 9.59998L10.29 11.652C10.1037 11.8737 9.85234 11.9986 9.59 12H8.41C8.14766 11.9986 7.89626 11.8737 7.71 11.652L6 9.59998H12Z" fill="#49494E"/>
</svg>
