<svg width="55" height="55" viewBox="0 0 55 55" fill="none" xmlns="http://www.w3.org/2000/svg">
<path d="M27.4732 0.0914307C12.5232 0.0914307 0.416992 12.2248 0.416992 27.1748C0.416992 42.1248 12.5232 54.2581 27.4732 54.2581C42.4503 54.2581 54.5837 42.1248 54.5837 27.1748C54.5837 12.2248 42.4503 0.0914307 27.4732 0.0914307ZM27.5003 48.8414C15.5295 48.8414 5.83366 39.1456 5.83366 27.1748C5.83366 15.2039 15.5295 5.5081 27.5003 5.5081C39.4712 5.5081 49.167 15.2039 49.167 27.1748C49.167 39.1456 39.4712 48.8414 27.5003 48.8414ZM28.8545 13.6331H24.792V29.8831L39.0107 38.4143L41.042 35.0831L28.8545 27.8518V13.6331Z" fill="white"/>
</svg>
