<svg width="74" height="74" viewBox="0 0 74 74" fill="none" xmlns="http://www.w3.org/2000/svg">
<path d="M37 0C16.5982 0 0 16.5982 0 37C0 57.4018 16.5982 74 37 74C57.4018 74 74 57.4018 74 37C74 16.5982 57.4018 0 37 0ZM7.4 37C7.4 33.6737 7.9772 30.4806 8.9947 27.4947L14.8 33.3L22.2 40.7V48.1L29.6 55.5L33.3 59.2V66.3447C18.7257 64.5132 7.4 52.0664 7.4 37ZM60.421 55.0301C58.0049 53.0839 54.3419 51.8 51.8 51.8V48.1C51.8 46.1374 51.0204 44.2552 49.6326 42.8674C48.2448 41.4796 46.3626 40.7 44.4 40.7H29.6V29.6C31.5626 29.6 33.4448 28.8204 34.8326 27.4326C36.2204 26.0448 37 24.1626 37 22.2V18.5H40.7C42.6626 18.5 44.5448 17.7204 45.9326 16.3326C47.3204 14.9448 48.1 13.0626 48.1 11.1V9.5793C58.9336 13.9786 66.6 24.605 66.6 37C66.5993 43.5294 64.4254 49.8728 60.421 55.0301Z" fill="white"/>
</svg>
