<svg width="45" height="55" viewBox="0 0 45 55" fill="none" xmlns="http://www.w3.org/2000/svg">
<path d="M22.4997 27.5C19.5205 27.5 17.083 25.0625 17.083 22.0833C17.083 19.1041 19.5205 16.6666 22.4997 16.6666C25.4788 16.6666 27.9163 19.1041 27.9163 22.0833C27.9163 25.0625 25.4788 27.5 22.4997 27.5ZM38.7497 22.625C38.7497 12.7937 31.5726 5.83329 22.4997 5.83329C13.4268 5.83329 6.24967 12.7937 6.24967 22.625C6.24967 28.9625 11.5309 37.3583 22.4997 47.3791C33.4684 37.3583 38.7497 28.9625 38.7497 22.625ZM22.4997 0.416626C33.8747 0.416626 44.1663 9.13746 44.1663 22.625C44.1663 31.6166 36.9351 42.2604 22.4997 54.5833C8.06426 42.2604 0.833008 31.6166 0.833008 22.625C0.833008 9.13746 11.1247 0.416626 22.4997 0.416626Z" fill="white"/>
</svg>
