<svg width="79" height="79" viewBox="0 0 79 79" fill="none" xmlns="http://www.w3.org/2000/svg">
<path d="M39.5 51.6667V27.3333M19.2222 51.6667H59.7778V67.8889C59.7778 70.0401 58.9232 72.1032 57.4021 73.6243C55.881 75.1454 53.8179 76 51.6667 76H27.3333C25.1821 76 23.119 75.1454 21.5979 73.6243C20.0768 72.1032 19.2222 70.0401 19.2222 67.8889V51.6667ZM39.5 27.3333C39.5 20.8797 36.9363 14.6905 32.3729 10.1271C27.8095 5.56368 21.6203 3 15.1667 3H3V11.1111C3 17.5647 5.56368 23.754 10.1271 28.3174C14.6905 32.8808 20.8797 35.4444 27.3333 35.4444H39.5V27.3333ZM39.5 35.4444C39.5 28.9908 42.0637 22.8016 46.6271 18.2382C51.1905 13.6748 57.3797 11.1111 63.8333 11.1111H76V15.1667C76 21.6203 73.4363 27.8095 68.8729 32.3729C64.3095 36.9363 58.1203 39.5 51.6667 39.5H39.5V35.4444Z" stroke="white" stroke-width="6" stroke-linecap="round" stroke-linejoin="round"/>
</svg>
