<svg width="1440" height="102" viewBox="0 0 1440 102" fill="none" xmlns="http://www.w3.org/2000/svg">
<path fill-rule="evenodd" clip-rule="evenodd" d="M0 102L26.4 96.3333C52.8 90.6667 106.8 79.3333 159.6 69.8889C213.6 60.4444 266.4 52.8889 320.4 54.7778C373.2 56.6667 427.2 68 480 62.3333C532.8 56.6667 586.8 34 639.6 39.6667C693.6 45.3333 746.4 79.3333 800.4 83.1111C853.2 86.8889 907.2 60.4444 960 43.4444C1012.8 26.4444 1066.8 18.8889 1119.6 24.5556C1173.6 30.2222 1226.4 49.1111 1280.4 60.4444C1333.2 71.7778 1387.2 75.5556 1413.6 77.4444L1440 79.3333V0H1413.6C1387.2 0 1333.2 0 1280.4 0C1226.4 0 1173.6 0 1119.6 0C1066.8 0 1012.8 0 960 0C907.2 0 853.2 0 800.4 0C746.4 0 693.6 0 639.6 0C586.8 0 532.8 0 480 0C427.2 0 373.2 0 320.4 0C266.4 0 213.6 0 159.6 0C106.8 0 52.8 0 26.4 0H0V102Z" fill="#6E9DBE"/>
</svg>
