<svg width="45" height="55" fill="none" xmlns="http://www.w3.org/2000/svg"><path d="M22.5 27.5c-2.98 0-5.417-2.438-5.417-5.417 0-2.979 2.438-5.416 5.417-5.416 2.979 0 5.416 2.437 5.416 5.416 0 2.98-2.437 5.417-5.416 5.417Zm16.25-4.875c0-9.831-7.177-16.792-16.25-16.792S6.25 12.793 6.25 22.625c0 6.337 5.28 14.733 16.25 24.754 10.968-10.02 16.25-18.416 16.25-24.754ZM22.5.417c11.375 0 21.666 8.72 21.666 22.208 0 8.992-7.23 19.635-21.666 31.958C8.064 42.26.833 31.617.833 22.625.833 9.137 11.125.417 22.5.417Z" fill="#fff"/></svg>