<svg width="15" height="13" fill="none" xmlns="http://www.w3.org/2000/svg">
  <path d="M14.54 2.001c-.536.27-1.072.36-1.697.45.625-.36 1.072-.9 1.25-1.619-.536.36-1.16.54-1.875.72-.536-.54-1.34-.9-2.143-.9-1.518 0-2.857 1.35-2.857 2.969 0 .27 0 .45.09.63a8.195 8.195 0 0 1-6.072-3.06c-.268.45-.357.9-.357 1.53 0 .99.536 1.89 1.34 2.429-.447 0-.894-.18-1.34-.36C.879 6.23 1.86 7.4 3.2 7.67c-.268.09-.535.09-.803.09-.179 0-.357 0-.536-.09.357 1.17 1.429 2.069 2.768 2.069-.982.81-2.232 1.26-3.66 1.26H.253c1.34.809 2.857 1.348 4.464 1.348 5.357 0 8.304-4.497 8.304-8.366v-.36c.625-.45 1.16-.989 1.518-1.619Z" fill="#0A142F"/>
</svg>
