<svg width="258" height="150" fill="none" xmlns="http://www.w3.org/2000/svg">
  <g clip-path="url(#a)">
    <path d="M201.134 8.116c-28.901-7.795-60.214 5.491-74.276 31.179-2.438 4.42-4.902 7.5-5.358 6.562-1.232-1.982 1.366-14.518 3.965-18.803 1.687-2.76 1.232-3.67-4.125-8.25-8.411-7.179-20.786-11.625-34.527-12.536C48 3.83 16.66 34.232 16.66 74.143c0 23.384 11.625 40.045 33.616 48.134 11.76 4.419 36.375 2.759 49.206-3.054 11.919-5.357 22.473-14.973 29.33-26.893 5.491-9.026 5.491-9.026 5.491-3.509 0 3.215-1.232 8.572-2.598 12.081-2.598 6.428-2.598 6.428 3.964 12.214 9.616 8.572 23.679 12.536 41.277 11.759 11.759-.616 14.973-1.366 24.911-6.268 13.767-6.884 24-17.116 30.267-30.723 16.983-36.054 3.536-70.607-30.991-79.768ZM112.956 80.09c-4.581 10.554-15.75 21.402-25.688 25.206-8.41 3.053-19.42 3.83-25.205 1.687-17.277-6.562-24.75-16.955-24.616-34.527.16-20.009 9.777-36.67 25.982-44.464 21.241-10.393 47.062-.777 52.58 19.42 2.438 8.839 1.072 23.518-3.053 32.678Zm100.553 1.527c-4.419 9.027-12.83 17.893-21.08 22.018-8.089 4.125-24.295 5.357-31.339 2.598-8.572-3.375-12.831-6.723-17.277-13.607-3.83-5.813-4.125-7.5-4.125-20.946 0-16.956 3.053-25.367 13.286-35.599 20.625-20.625 56.839-14.517 63.884 10.554 2.758 9.616 1.071 25.982-3.349 34.982Z" fill="url(#b)"/>
    <path d="M140.598 22.259s-6.938 4.795-9.616 16.848c-5.866 26.41-30.268 60.804-40.982 62.947-22.5 4.5-21.429-15.804-21.429-15.804s.134-14.33 13.259-6.83c0 0 1.071 1.875 3.482 2.946 2.41 1.072 5.09 4.018 5.09 4.018s.267 1.34 1.606 0c1.34-1.34-2.946-6.964-2.946-6.964s2.41-2.411-.536-5.893c-2.946-3.482-9.107-1.072-9.107-1.072s-8.571-.803-11.785 3.483c-3.215 4.285-4.554 15.267-3.75 18.75 0 0-7.768-9.643-7.768-1.876 0 7.768-7.768-2.946-7.768-2.946s-6.965-11.518-6.965-21.428c0-9.911 4.822-21.617 3.884-24.59-.937-3-3.884 1.822-3.884 1.822s-2.678-3.75-4.82-.268c-2.144 3.482-1.876 7.232-1.876 7.232s.268-5.625-1.875-3.75c-1.071.938-1.071 5.09-.803 9 .08.991.16 1.955.24 2.84.161 1.687.43 3.026.43 4.633-.269-1.607-2.412-10.446-4.287-8.84-3.214 3.483 1.34 10.18 1.875 15-.803-1.874-2.946-6.695-5.625-6.16-2.678.268.268 12.857 2.679 16.072-1.34-.268-5.357-4.554-5.357.267 0 3.215 5.09 9.911 9.67 12.697.75.428 1.526.777 2.383 1.044.83.242 1.741.402 2.679.456-.536 1.875.536 2.946 1.875 4.018 2.679 2.143 6.429 2.678 8.036 5.893-1.875-.268-4.018-1.072-5.625.267-1.072 1.072.268 2.947 1.714 3.509.83.241 1.634.108 1.634.108s-1.34-.268-1.607 1.875c-.268 2.142 3.75 3.214 3.75 3.214s-3.08 2.357-.536 5.089c3.482 3.75 16.473 9.107 44.063 2.545 11.25-2.679 21.16-12.59 28.66-25.715 17.491-30.589 28.822-72.348 64.634-72.857 47.732-.67 9.456-17.49 9.456-17.49s-28.768-4.286-52.152 15.91Z" fill="#203D7A"/>
    <path d="M55.982 86.786s-.509-.16-1.071-.563c-2.947-2.384-6.429-5.062-6.965-9.348-.268-2.143 2.143-5.625 4.018-4.018 2.947 2.679 2.41 7.5 3.456 11.304.267 1.607.562 2.625.562 2.625ZM29.732 53.571c-1.152-6.428-1.821-13.446 2.223-19.071 1.018-1.473 2.384-3.455 4.474-2.893.482.348.642 1.179.803 1.741.188.83-5.893 6.563-7.232 16.795-.455 2.009-.268 3.428-.268 3.428ZM39.83 112.42c-4.848-4.393-5.759-4.982-8.92-10.715-.562-.991-2.276-.455-2.276 1.983 1.955 4.125 3.75 4.526 6.803 6.401 2.465 1.527 4.393 2.331 4.393 2.331Z" fill="#8698CF"/>
  </g>
  <defs>
    <linearGradient id="b" x1="65.646" y1="139.851" x2="189.961" y2="-8.302" gradientUnits="userSpaceOnUse">
      <stop offset=".65" stop-color="#D1E6F5"/>
      <stop offset=".911" stop-color="#203D7A"/>
    </linearGradient>
    <clipPath id="a">
      <path fill="#fff" d="M0 0h257.143v150H0z"/>
    </clipPath>
  </defs>
</svg>
