<svg width="155" height="92" viewBox="0 0 155 92" fill="none" xmlns="http://www.w3.org/2000/svg">
<path d="M19.9329 0.607582C14.0709 0.847976 9.67435 1.56916 7.23184 2.53073C5.52208 3.25192 3.07957 5.41546 2.10257 7.09822C0.392816 9.98295 -0.339936 13.8293 0.148566 16.9544C0.619132 19.188 1.65868 21.2673 3.16961 22.9971C4.68054 24.7269 6.6133 26.0505 8.78646 26.8435C10.9596 27.6366 13.3019 27.8731 15.5934 27.531C17.8849 27.1888 20.0505 26.2791 21.8869 24.8874C24.8179 22.4834 28.9702 14.5504 32.6339 4.69428C33.6109 2.04995 33.6109 1.08837 33.1224 0.847976C32.6339 0.607582 22.1311 0.367188 19.9329 0.607582ZM80.7513 0.607582C74.645 1.32876 69.0273 4.93468 65.3635 9.98295L15.7806 89.7938C15.5364 90.515 15.5364 90.515 16.0249 90.9958C16.5134 91.4766 16.7576 91.4766 23.5966 91.4766C29.7029 91.2362 30.4357 91.2362 32.6339 90.7554C38.2517 89.313 42.6482 85.9475 45.8235 81.1396C49.4872 75.8509 95.1621 2.04995 95.4064 1.56916L94.9179 0.847976C94.6736 0.367188 93.9409 0.367188 88.5673 0.367188L80.7513 0.607582ZM140.104 0.607582C134.731 1.32876 129.846 3.73271 126.182 7.57901L99.8029 49.4076L74.645 90.0342C74.4008 91.4766 74.8893 91.4766 80.7513 91.4766L88.5673 91.2362C95.4064 90.515 101.268 86.9091 104.932 81.38C109.573 74.1682 154.271 2.29034 154.271 1.80955C154.515 0.367188 154.027 0.367188 147.432 0.367188L139.86 0.607582H140.104Z" fill="#FED138"/>
</svg>
