<svg width="96" height="50" fill="none" xmlns="http://www.w3.org/2000/svg">
  <path d="M27.644 49.693c-.093-.173-.17-1.332-.17-2.577 0-1.243-.078-2.402-.171-2.573-.108-.197-.11-.349-.01-.41.34-.203.564.705.7 2.802.077 1.194.19 2.33.248 2.524.145.473-.358.67-.597.234Zm-2.523-.258c-.187-.231-.382-.355-.43-.278-.195.307-1.129-.005-1.41-.468-.311-.513-.796-.66-2.177-.66-.487 0-1.472-.047-2.186-.108-1.014-.082-1.262-.152-1.124-.314.113-.13.417-.178.827-.124l.648.087-.019-1.372c-.011-.934.047-1.395.185-1.442.143-.047.22.253.258.98.049.984.065 1.022.26.589.114-.256.245-.656.287-.892.045-.24.132-.478.195-.536.117-.108-.007 1.315-.2 2.26-.081.417-.048.54.148.54.155 0 .297-.219.36-.55.06-.305.225-.698.368-.874.241-.297.253-.274.166.346-.117.808.05 1.087.684 1.154.962.103.98.045.665-1.943-.05-.306.002-.456.154-.456s.262.328.333.995c.117 1.098.503 2.158.786 2.158.124 0 .148-.491.07-1.552-.126-1.762.003-2.907.377-3.364.237-.287.248-.248.155.469-.101.742.168 3.35.379 3.682.213.337.571-1.405.67-3.261.058-1.072.16-1.95.233-1.95.183 0 .389 2.985.265 3.846-.056.396-.15 1.3-.21 2.008-.06.71-.17 1.328-.244 1.372-.073.045-.286-.11-.473-.342Zm8.33-.402c-.205-.272-.371-.578-.371-.681 0-.106.372-1.023.826-2.042 1.063-2.383 1.332-3.391 1.374-5.168.014-.69.05-.777.206-.515.255.43.077 3.635-.253 4.52-.142.38-.505 1.19-.807 1.803-.377.763-.548 1.345-.539 1.844.005.4-.007.728-.028.728-.019 0-.203-.22-.407-.49Zm15.694-.05c-.23-.753-.267-.788-.86-.788-.772 0-.84-.188-.601-1.693.272-1.71.588-1.91.438-.274-.129 1.393.065 1.798.44.927.278-.643.276-2.734-.005-3.246-.164-.297-.152-.36.056-.36.468 0 .834 1.694.705 3.253l-.115 1.37.438-.197c.527-.234.648-.63.571-1.847-.03-.506.002-.92.075-.92.187 0 .253.262.38 1.533l.11 1.119.772.332c.423.185.915.335 1.09.335.176 0 .319.075.319.166 0 .248-1.065.2-1.753-.082-.424-.173-.642-.191-.721-.067-.064.1-.298.147-.52.105-.31-.059-.405-.002-.405.234 0 .344-.316.421-.414.1Zm-20.714-.252c-.045-.068.028-.534.16-1.03.266-1.007.299-2.21.086-3.287-.078-.388-.082-.744-.01-.786.31-.187.555 1.123.583 3.115.028 2.096.026 2.116-.356 2.116-.21 0-.419-.058-.463-.128Zm8.445-.302c-.22-.326-.397-.415-.749-.363-.456.066-.458.056-.547-1.105-.047-.646-.061-1.198-.03-1.231.172-.18.416.239.416.723 0 1.056.323.754.616-.578.161-.733.337-1.332.393-1.332.054 0 .075.616.047 1.37l-.052 1.369.532-.555c.664-.697.8-.587.346.283-.194.37-.351.939-.351 1.262 0 .695-.223.751-.62.157Zm7.926-.068c-.224-.53-.489-.609-1.044-.318-.257.133-.505.114-1.004-.082-.702-.274-.704-.272-1.27.482-.242.323-.258.323-.492.028-.365-.461-.47-1.42-.258-2.35.103-.457.281-1.39.393-2.074.279-1.695.508-1.224.358.733-.065.85-.067 1.77-.007 2.045.106.461.18.506.998.588 1.098.108 1.257-.035 1.364-1.21.103-1.152.096-1.126.27-.829.08.136.199.648.266 1.138.115.828.64 1.687.838 1.371.047-.075.07-.873.052-1.779-.03-1.544.208-2.722.55-2.722.07 0 .138.712.154 1.585.014.87.132 1.875.256 2.23l.229.649-.475-.094c-.438-.084-.485-.042-.59.508-.14.73-.309.759-.588.101Zm-5.514-.208c-.876-2.737-1.318-3.739-2.09-4.729-.233-.297-.35-.54-.263-.54.239 0 .971.805 1.639 1.802l.594.89.105-.806c.23-1.755 1.36-4.873 1.765-4.873.307 0 .312.21.024.796-.166.339-.513 1.287-.773 2.109-.458 1.465-.463 1.526-.264 3.295.152 1.365.154 1.857.005 2.032-.244.288-.654.302-.742.024Zm-7.07-.663a28.548 28.548 0 0 0-.234-2.572c-.098-.742-.084-1.037.054-1.037.105 0 .192.166.197.372.002.206.154.672.34 1.037l.336.665-.086-1.66c-.047-.913-.122-2.257-.167-2.987l-.08-1.33.237 1.164c.131.639.363 1.498.515 1.908.155.412.326 1.254.38 1.877.086.983.048 1.222-.296 1.826-.217.381-.477.749-.578.817-.285.19-.606.147-.618-.08Zm-9.16-6.957c-.486-.77-.395-1.205.265-1.268.735-.07 1.03.304.754.957-.365.86-.623.939-1.018.311Zm-2.696-.39c-.459-.574-.606-1.625-.463-3.334.063-.78.049-1.395-.036-1.395-.173 0-.711 1.133-1.242 2.622-.27.751-.45 1.032-.642.995-.498-.094-.72-.81-.65-2.081.037-.66.009-1.204-.064-1.204-.072 0-.587.497-1.15 1.103-.704.765-1.1 1.072-1.286 1.002-.391-.148-.33-.642.163-1.353.478-.686.46-.883-.054-.571-.184.112-.468.154-.63.093-.292-.11-.29-.3.003-.997.108-.26.073-.293-.225-.201-.477.15-.781-.417-.669-1.236.075-.546.047-.611-.236-.539-.525.136-.852-.255-.733-.875.084-.435.042-.562-.208-.64-.452-.14-.764-.706-.82-1.492-.04-.593-.14-.745-.754-1.154-.388-.26-1.006-.871-1.376-1.358-1.184-1.566-1.594-1.674-3.785-.99-1.456.454-1.65.484-1.65.26 0-.085.381-.277.847-.429.468-.15.899-.353.96-.452.124-.194-.112-.154-1.636.27-1.199.334-3.385.35-3.832.028-.415-.298-.234-.368 1.229-.48.819-.061 1.27-.21 2.039-.672.543-.325 1.371-.69 1.837-.808a7.684 7.684 0 0 0 1.615-.66c1.349-.782 2.657-1.299 4.326-1.701.897-.218 1.952-.576 2.345-.801 1.817-1.028 3.065-1.615 4.14-1.948 1.148-.355 3.892-.688 5.956-.725l1.051-.017 1.765 1.66c.972.913 2.222 2.044 2.779 2.512.56.468 1.271 1.18 1.585 1.577.311.398.9.97 1.308 1.27.407.299.74.652.74.786 0 .135-.033.245-.07.245-.33 0-2.414-1.086-2.929-1.526-.36-.306-.807-.67-.995-.803-.323-.231-.327-.227-.093.087.136.183.454.557.71.83.771.832 2.525 3.294 2.637 3.706.304 1.138-.943.46-3.225-1.753l-1.503-1.453.943 1.853c.65 1.274 1.002 2.2 1.128 2.966.099.614.15 1.145.11 1.182-.194.192-1.14-.896-1.896-2.179-.725-1.234-.856-1.379-.903-1.009-.085.667.295 2.783.57 3.195.464.69.186.752-.575.127-.76-.625-1.191-1.66-1.557-3.74-.182-1.03-.395-1.937-.475-2.016-.208-.202-.597-.021-.87.407-.377.59-.452 3.263-.12 4.256.349 1.041.349 1.285-.005 1.416-.386.145-1.1-.553-1.605-1.566-.258-.518-.518-.817-.712-.822-.407-.007-1.138-.74-1.138-1.14 0-.215-.154-.349-.477-.412-.283-.054-.555-.257-.665-.494-.12-.253-.386-.44-.718-.505a1.198 1.198 0 0 1-.822-.604c-.21-.36-.42-.499-.747-.501-.496 0-.99-.382-.99-.766 0-.18-.077-.2-.297-.089-.162.085-.946.16-1.742.167-1.1.007-1.716-.085-2.591-.384-1.065-.363-1.213-.375-2.013-.169-1.239.319-1.231.43.026.386.793-.028 1.369.061 2.08.323.541.202 1.358.366 1.817.366 1.177 0 2.458.297 2.905.674.208.178.508.32.665.32.159 0 .419.143.58.319.162.173.522.407.8.52.277.112.616.414.75.667.136.255.393.51.576.566.18.056.484.36.676.679.192.318.51.637.71.707.196.072.599.569.894 1.105.66 1.2 1.544 1.75 2.284 1.42.398-.175.49-.156.752.162.163.199.377.672.47 1.051.096.38.281 1.044.412 1.477.131.433.173.829.091.878-.08.05-.454-.185-.833-.517l-.686-.607.085 2.056-.738.248c-.407.135-.765.222-.798.192-.03-.033-.11-.431-.171-.885-.063-.454-.21-1.007-.328-1.23-.206-.383-.222-.385-.388-.081-.267.492-.759 3.034-.784 4.04-.024 1.035-.256 1.215-.759.592Zm1.194-1.42c.044-.123.349-.282.676-.348.328-.068 1.283-.344 2.126-.618 1.093-.356 1.692-.466 2.109-.39.318.058 1.344.107 2.28.11 1.444.004 1.952-.073 3.396-.52 2.262-.698 4.764-1.377 5.078-1.377.138 0 1.268-.477 2.514-1.065 1.245-.585 2.684-1.191 3.197-1.346 2.07-.622 3.907-1.327 5.464-2.092.9-.445 1.732-.808 1.844-.808.131 0 .16-.105.077-.29-.07-.16-.2-.714-.295-1.232-.15-.847-.128-1.004.206-1.533.347-.545.354-.618.108-.962-.342-.477-.34-1.032.01-1.55.18-.271.238-.585.17-.922-.058-.278-.016-.67.094-.868.11-.197.183-.63.164-.958-.021-.346.063-.678.201-.788.14-.115.201-.368.152-.625-.112-.567.192-.733 1.147-.62l.768.088-.72-.44c-.809-.49-.876-.655-.392-.953.307-.187.312-.224.063-.496-.231-.248-.236-.335-.042-.562.171-.203.429-.25 1.032-.194l.803.075-.669-.473c-.367-.262-.67-.534-.67-.606 0-.29.438-.53.97-.53.711 0 .72-.217.018-.423s-.772-.47-.24-.92c.332-.283.39-.43.264-.662-.265-.485-.185-1.227.17-1.601.288-.302.3-.375.085-.548-.183-.15-.248-.152-.248-.01 0 .108-.169.417-.375.691-.33.436-.35.557-.17 1.02.177.466.16.572-.157.9-.26.271-.328.489-.246.805.077.306.01.56-.237.866-.325.402-.33.452-.068.735.302.325.326.302-.594.576-.16.049-.202.222-.131.56.054.273.019.535-.08.596-.108.063-.136.34-.072.67.093.493.063.561-.246.561-.461 0-.614.42-.333.93.171.311.176.451.022.601-.11.108-.2.433-.2.724 0 .29-.121.625-.269.746-.203.164-.243.387-.163.909.077.512.037.741-.157.898-.31.253-.34.986-.061 1.58.161.35.145.539-.094 1.023-.302.623-.253 1.777.108 2.454.13.245.098.37-.14.538-.413.295-.574.278-.7-.07-.059-.16-.429-.712-.82-1.227-.679-.894-.716-1.009-.83-2.47-.101-1.303-.076-1.575.165-1.835.267-.29.258-.318-.159-.503-.564-.25-.73-.747-.379-1.126.37-.398.346-.468-.239-.763-.557-.28-.665-.749-.252-1.084.229-.185.22-.236-.085-.442-.243-.169-.344-.421-.344-.873 0-.426-.086-.67-.267-.738-.159-.058-.243-.248-.21-.473.049-.341.166-.381 1.327-.458l1.276-.082-1.105-.375c-1.367-.463-2.222-1.081-1.915-1.386.169-.168.62-.088 2.294.403 1.147.337 2.18.611 2.296.611.391 0 .218-.29-.297-.498-.499-.202-1.529-1.199-1.529-1.48 0-.077.115-.232.256-.346.21-.171.484-.13 1.488.23.677.24 1.297.434 1.379.434.272 0-.063-1.046-.594-1.856-.288-.44-.586-1.044-.658-1.339a7.058 7.058 0 0 0-.255-.83c-.101-.235-.033-.291.348-.291.26 0 .609.12.773.267.28.246.306.227.41-.31.102-.535.046-.633-.839-1.45-.522-.483-.948-.95-.948-1.042 0-.272 1.126-.007 2.386.56 1.224.55 1.306.627.997.929-.244.236-.134.917.166 1.013.143.047.19.003.115-.112-.066-.103-.07-.337-.012-.52.133-.407.777-.435 1.854-.077.639.21 2.706.555 3.455.571.604.014.035-.363-1.493-.992-2.093-.864-3.47-1.723-4.197-2.617-.579-.712-.66-.948-.39-1.112.172-.103 1.862.679 2.883 1.334.688.44 2.729 1.301 3.494 1.472.468.103.433.047-.423-.676-2.128-1.8-3.228-3.376-3.228-4.619 0-.99.498-.753 1.833.867.657.8 1.743 1.975 2.415 2.614l1.22 1.161-.677-1.327c-1.05-2.065-1.435-3.52-1.339-5.06.045-.71.176-1.464.293-1.674L58.95 0l.403.454c.22.253.4.597.4.77 0 .171.077.358.171.415.094.056.169.362.169.678 0 .785.547 2.31 1.444 4.031.702 1.349 1.807 2.872 1.519 2.095-.932-2.516-1.297-3.766-1.521-5.227-.359-2.329-.295-3.368.18-2.982.22.178.398.686.997 2.816.14.503.566 1.772.946 2.82.381 1.052.88 2.442 1.11 3.093.228.65.802 1.936 1.272 2.853 1.452 2.833 1.534 3.214 1.262 5.932-.381 3.839-.248 7.682.286 8.31.091.11.56.253 1.04.316 1.198.161 5.025 1.51 7.693 2.71 1.218.546 2.954 1.178 3.858 1.403 1.835.454 2.09.437 4.55-.305 2.847-.859 4.96-.716 6.737.454.41.272 1.374.756 2.145 1.08.767.322 1.493.662 1.61.753.295.23.264.466-.044.349-.185-.068-.228-.019-.153.17.131.336.2.338-1.493-.081-2.11-.522-2.2-.527-5.318-.234-5.265.494-6.784.566-10.735.508-2.154-.03-4.797-.005-5.873.06-1.714.104-2.09.181-3.039.64-.594.285-1.608.943-2.25 1.46-1.186.96-2.26 1.44-3.906 1.747-1.397.262-5.473.65-6.795.65-1.618-.002-4.862-.55-6.344-1.072-1.304-.458-1.98-.52-2.718-.24-.262.1-1.357.2-2.432.226-1.362.03-2.39.157-3.396.417-1.126.292-1.868.37-3.357.356-1.802-.019-5.021.374-6.753.824-1.618.419-2.224.484-5.588.592-2.982.096-3.537.077-3.471-.115v-.002Zm72.61-6.228c-.368-.131-.752-.21-.85-.176-.096.036.09.143.416.237.89.26 1.203.215.433-.061Zm-43.427-1.489c-.232-.239-.436-.344-.473-.239-.035.104.08.293.253.422.52.384.655.271.22-.183Zm-14.347-7.89c-.375-.069-1.884-.176-3.357-.244l-2.675-.12-1.36-.997c-.747-.547-1.358-1.065-1.358-1.147 0-.082.082-.1.183-.04.503.305 2.462.598 3.95.59 1.813-.009 2.267-.065 4.177-.536 1.355-.334 3.298-.41 3.986-.152.237.087.73.426 1.1.752.368.325 1.019.707 1.442.85.986.327 1.325.683.764.795-1.218.246-5.916.415-6.852.248Zm33.726-5.78-.426-.12.595-.36c.348-.21.877-.363 1.275-.363.97-.004 3.189-.718 2.952-.948-.1-.1-.33-.73-.51-1.4-.27-1.01-.44-1.322-1.002-1.823-.372-.332-.676-.688-.676-.791 0-.276 1.037-.845 1.54-.845.461 0 1.425.608 1.88 1.191.17.22.379.314.552.25.342-.128.349-.451.026-1.207-.246-.574-.24-.592.33-1.199.744-.786.967-.67 1.87 1 .67 1.24.672 1.252.452 2.095-.253.964-.124 1.835.29 1.96.155.044.536.191.845.322.501.213.754.208 2.16-.037 1.637-.286 2.608-.204 2.756.232.107.316-.74.554-2.507.709a27.17 27.17 0 0 0-3.144.498c-.91.211-2.558.415-4.078.501-1.4.08-2.93.218-3.396.307-.988.187-1.208.192-1.784.028Z" fill="#213E7B"/>
  <path d="M27.644 49.693c-.093-.173-.17-1.332-.17-2.577 0-1.243-.078-2.402-.171-2.573-.108-.197-.11-.349-.01-.41.34-.203.564.705.7 2.802.077 1.194.19 2.33.248 2.524.145.473-.358.67-.597.234Zm-2.523-.258c-.187-.231-.382-.355-.43-.278-.195.307-1.129-.005-1.41-.468-.311-.513-.796-.66-2.177-.66-.487 0-1.472-.047-2.186-.108-1.014-.082-1.262-.152-1.124-.314.113-.13.417-.178.827-.124l.648.087-.019-1.372c-.011-.934.047-1.395.185-1.442.143-.047.22.253.258.98.049.984.065 1.022.26.589.114-.256.245-.656.287-.892.045-.24.132-.478.195-.536.117-.108-.007 1.315-.2 2.26-.081.417-.048.54.148.54.155 0 .297-.219.36-.55.06-.305.225-.698.368-.874.241-.297.253-.274.166.346-.117.808.05 1.087.684 1.154.962.103.98.045.665-1.943-.05-.306.002-.456.154-.456s.262.328.333.995c.117 1.098.503 2.158.786 2.158.124 0 .148-.491.07-1.552-.126-1.762.003-2.907.377-3.364.237-.287.248-.248.155.469-.101.742.168 3.35.379 3.682.213.337.571-1.405.67-3.261.058-1.072.16-1.95.233-1.95.183 0 .389 2.985.265 3.846-.056.396-.15 1.3-.21 2.008-.06.71-.17 1.328-.244 1.372-.073.045-.286-.11-.473-.342Zm8.33-.402c-.205-.272-.371-.578-.371-.681 0-.106.372-1.023.826-2.042 1.063-2.383 1.332-3.391 1.374-5.168.014-.69.05-.777.206-.515.255.43.077 3.635-.253 4.52-.142.38-.505 1.19-.807 1.803-.377.763-.548 1.345-.539 1.844.005.4-.007.728-.028.728-.019 0-.203-.22-.407-.49Zm15.694-.05c-.23-.753-.267-.788-.86-.788-.772 0-.84-.188-.601-1.693.272-1.71.588-1.91.438-.274-.129 1.393.065 1.798.44.927.278-.643.276-2.734-.005-3.246-.164-.297-.152-.36.056-.36.468 0 .834 1.694.705 3.253l-.115 1.37.438-.197c.527-.234.648-.63.571-1.847-.03-.506.002-.92.075-.92.187 0 .253.262.38 1.533l.11 1.119.772.332c.423.185.915.335 1.09.335.176 0 .319.075.319.166 0 .248-1.065.2-1.753-.082-.424-.173-.642-.191-.721-.067-.064.1-.298.147-.52.105-.31-.059-.405-.002-.405.234 0 .344-.316.421-.414.1Zm-20.714-.252c-.045-.068.028-.534.16-1.03.266-1.007.299-2.21.086-3.287-.078-.388-.082-.744-.01-.786.31-.187.555 1.123.583 3.115.028 2.096.026 2.116-.356 2.116-.21 0-.419-.058-.463-.128Zm8.445-.302c-.22-.326-.397-.415-.749-.363-.456.066-.458.056-.547-1.105-.047-.646-.061-1.198-.03-1.231.172-.18.416.239.416.723 0 1.056.323.754.616-.578.161-.733.337-1.332.393-1.332.054 0 .075.616.047 1.37l-.052 1.369.532-.555c.664-.697.8-.587.346.283-.194.37-.351.939-.351 1.262 0 .695-.223.751-.62.157Zm7.926-.068c-.224-.53-.489-.609-1.044-.318-.257.133-.505.114-1.004-.082-.702-.274-.704-.272-1.27.482-.242.323-.258.323-.492.028-.365-.461-.47-1.42-.258-2.35.103-.457.281-1.39.393-2.074.279-1.695.508-1.224.358.733-.065.85-.067 1.77-.007 2.045.106.461.18.506.998.588 1.098.108 1.257-.035 1.364-1.21.103-1.152.096-1.126.27-.829.08.136.199.648.266 1.138.115.828.64 1.687.838 1.371.047-.075.07-.873.052-1.779-.03-1.544.208-2.722.55-2.722.07 0 .138.712.154 1.585.014.87.132 1.875.256 2.23l.229.649-.475-.094c-.438-.084-.485-.042-.59.508-.14.73-.309.759-.588.101Zm-5.514-.208c-.876-2.737-1.318-3.739-2.09-4.729-.233-.297-.35-.54-.263-.54.239 0 .971.805 1.639 1.802l.594.89.105-.806c.23-1.755 1.36-4.873 1.765-4.873.307 0 .312.21.024.796-.166.339-.513 1.287-.773 2.109-.458 1.465-.463 1.526-.264 3.295.152 1.365.154 1.857.005 2.032-.244.288-.654.302-.742.024Zm-7.07-.663a28.548 28.548 0 0 0-.234-2.572c-.098-.742-.084-1.037.054-1.037.105 0 .192.166.197.372.002.206.154.672.34 1.037l.336.665-.086-1.66c-.047-.913-.122-2.257-.167-2.987l-.08-1.33.237 1.164c.131.639.363 1.498.515 1.908.155.412.326 1.254.38 1.877.086.983.048 1.222-.296 1.826-.217.381-.477.749-.578.817-.285.19-.606.147-.618-.08Zm-9.16-6.957c-.486-.77-.395-1.205.265-1.268.735-.07 1.03.304.754.957-.365.86-.623.939-1.018.311Zm-2.696-.39c-.459-.574-.606-1.625-.463-3.334.063-.78.049-1.395-.036-1.395-.173 0-.711 1.133-1.242 2.622-.27.751-.45 1.032-.642.995-.498-.094-.72-.81-.65-2.081.037-.66.009-1.204-.064-1.204-.072 0-.587.497-1.15 1.103-.704.765-1.1 1.072-1.286 1.002-.391-.148-.33-.642.163-1.353.478-.686.46-.883-.054-.571-.184.112-.468.154-.63.093-.292-.11-.29-.3.003-.997.108-.26.073-.293-.225-.201-.477.15-.781-.417-.669-1.236.075-.546.047-.611-.236-.539-.525.136-.852-.255-.733-.875.084-.435.042-.562-.208-.64-.452-.14-.764-.706-.82-1.492-.04-.593-.14-.745-.754-1.154-.388-.26-1.006-.871-1.376-1.358-1.184-1.566-1.594-1.674-3.785-.99-1.456.454-1.65.484-1.65.26 0-.085.381-.277.847-.429.468-.15.899-.353.96-.452.124-.194-.112-.154-1.636.27-1.199.334-3.385.35-3.832.028-.415-.298-.234-.368 1.229-.48.819-.061 1.27-.21 2.039-.672.543-.325 1.371-.69 1.837-.808a7.684 7.684 0 0 0 1.615-.66c1.349-.782 2.657-1.299 4.326-1.701.897-.218 1.952-.576 2.345-.801 1.817-1.028 3.065-1.615 4.14-1.948 1.148-.355 3.892-.688 5.956-.725l1.051-.017 1.765 1.66c.972.913 2.222 2.044 2.779 2.512.56.468 1.271 1.18 1.585 1.577.311.398.9.97 1.308 1.27.407.299.74.652.74.786 0 .135-.033.245-.07.245-.33 0-2.414-1.086-2.929-1.526-.36-.306-.807-.67-.995-.803-.323-.231-.327-.227-.093.087.136.183.454.557.71.83.771.832 2.525 3.294 2.637 3.706.304 1.138-.943.46-3.225-1.753l-1.503-1.453.943 1.853c.65 1.274 1.002 2.2 1.128 2.966.099.614.15 1.145.11 1.182-.194.192-1.14-.896-1.896-2.179-.725-1.234-.856-1.379-.903-1.009-.085.667.295 2.783.57 3.195.464.69.186.752-.575.127-.76-.625-1.191-1.66-1.557-3.74-.182-1.03-.395-1.937-.475-2.016-.208-.202-.597-.021-.87.407-.377.59-.452 3.263-.12 4.256.349 1.041.349 1.285-.005 1.416-.386.145-1.1-.553-1.605-1.566-.258-.518-.518-.817-.712-.822-.407-.007-1.138-.74-1.138-1.14 0-.215-.154-.349-.477-.412-.283-.054-.555-.257-.665-.494-.12-.253-.386-.44-.718-.505a1.198 1.198 0 0 1-.822-.604c-.21-.36-.42-.499-.747-.501-.496 0-.99-.382-.99-.766 0-.18-.077-.2-.297-.089-.162.085-.946.16-1.742.167-1.1.007-1.716-.085-2.591-.384-1.065-.363-1.213-.375-2.013-.169-1.239.319-1.231.43.026.386.793-.028 1.369.061 2.08.323.541.202 1.358.366 1.817.366 1.177 0 2.458.297 2.905.674.208.178.508.32.665.32.159 0 .419.143.58.319.162.173.522.407.8.52.277.112.616.414.75.667.136.255.393.51.576.566.18.056.484.36.676.679.192.318.51.637.71.707.196.072.599.569.894 1.105.66 1.2 1.544 1.75 2.284 1.42.398-.175.49-.156.752.162.163.199.377.672.47 1.051.096.38.281 1.044.412 1.477.131.433.173.829.091.878-.08.05-.454-.185-.833-.517l-.686-.607.085 2.056-.738.248c-.407.135-.765.222-.798.192-.03-.033-.11-.431-.171-.885-.063-.454-.21-1.007-.328-1.23-.206-.383-.222-.385-.388-.081-.267.492-.759 3.034-.784 4.04-.024 1.035-.256 1.215-.759.592Zm1.194-1.42c.044-.123.349-.282.676-.348.328-.068 1.283-.344 2.126-.618 1.093-.356 1.692-.466 2.109-.39.318.058 1.344.107 2.28.11 1.444.004 1.952-.073 3.396-.52 2.262-.698 4.764-1.377 5.078-1.377.138 0 1.268-.477 2.514-1.065 1.245-.585 2.684-1.191 3.197-1.346 2.07-.622 3.907-1.327 5.464-2.092.9-.445 1.732-.808 1.844-.808.131 0 .16-.105.077-.29-.07-.16-.2-.714-.295-1.232-.15-.847-.128-1.004.206-1.533.347-.545.354-.618.108-.962-.342-.477-.34-1.032.01-1.55.18-.271.238-.585.17-.922-.058-.278-.016-.67.094-.868.11-.197.183-.63.164-.958-.021-.346.063-.678.201-.788.14-.115.201-.368.152-.625-.112-.567.192-.733 1.147-.62l.768.088-.72-.44c-.809-.49-.876-.655-.392-.953.307-.187.312-.224.063-.496-.231-.248-.236-.335-.042-.562.171-.203.429-.25 1.032-.194l.803.075-.669-.473c-.367-.262-.67-.534-.67-.606 0-.29.438-.53.97-.53.711 0 .72-.217.018-.423s-.772-.47-.24-.92c.332-.283.39-.43.264-.662-.265-.485-.185-1.227.17-1.601.288-.302.3-.375.085-.548-.183-.15-.248-.152-.248-.01 0 .108-.169.417-.375.691-.33.436-.35.557-.17 1.02.177.466.16.572-.157.9-.26.271-.328.489-.246.805.077.306.01.56-.237.866-.325.402-.33.452-.068.735.302.325.326.302-.594.576-.16.049-.202.222-.131.56.054.273.019.535-.08.596-.108.063-.136.34-.072.67.093.493.063.561-.246.561-.461 0-.614.42-.333.93.171.311.176.451.022.601-.11.108-.2.433-.2.724 0 .29-.121.625-.269.746-.203.164-.243.387-.163.909.077.512.037.741-.157.898-.31.253-.34.986-.061 1.58.161.35.145.539-.094 1.023-.302.623-.253 1.777.108 2.454.13.245.098.37-.14.538-.413.295-.574.278-.7-.07-.059-.16-.429-.712-.82-1.227-.679-.894-.716-1.009-.83-2.47-.101-1.303-.076-1.575.165-1.835.267-.29.258-.318-.159-.503-.564-.25-.73-.747-.379-1.126.37-.398.346-.468-.239-.763-.557-.28-.665-.749-.252-1.084.229-.185.22-.236-.085-.442-.243-.169-.344-.421-.344-.873 0-.426-.086-.67-.267-.738-.159-.058-.243-.248-.21-.473.049-.341.166-.381 1.327-.458l1.276-.082-1.105-.375c-1.367-.463-2.222-1.081-1.915-1.386.169-.168.62-.088 2.294.403 1.147.337 2.18.611 2.296.611.391 0 .218-.29-.297-.498-.499-.202-1.529-1.199-1.529-1.48 0-.077.115-.232.256-.346.21-.171.484-.13 1.488.23.677.24 1.297.434 1.379.434.272 0-.063-1.046-.594-1.856-.288-.44-.586-1.044-.658-1.339a7.058 7.058 0 0 0-.255-.83c-.101-.235-.033-.291.348-.291.26 0 .609.12.773.267.28.246.306.227.41-.31.102-.535.046-.633-.839-1.45-.522-.483-.948-.95-.948-1.042 0-.272 1.126-.007 2.386.56 1.224.55 1.306.627.997.929-.244.236-.134.917.166 1.013.143.047.19.003.115-.112-.066-.103-.07-.337-.012-.52.133-.407.777-.435 1.854-.077.639.21 2.706.555 3.455.571.604.014.035-.363-1.493-.992-2.093-.864-3.47-1.723-4.197-2.617-.579-.712-.66-.948-.39-1.112.172-.103 1.862.679 2.883 1.334.688.44 2.729 1.301 3.494 1.472.468.103.433.047-.423-.676-2.128-1.8-3.228-3.376-3.228-4.619 0-.99.498-.753 1.833.867.657.8 1.743 1.975 2.415 2.614l1.22 1.161-.677-1.327c-1.05-2.065-1.435-3.52-1.339-5.06.045-.71.176-1.464.293-1.674L58.95 0l.403.454c.22.253.4.597.4.77 0 .171.077.358.171.415.094.056.169.362.169.678 0 .785.547 2.31 1.444 4.031.702 1.349 1.807 2.872 1.519 2.095-.932-2.516-1.297-3.766-1.521-5.227-.359-2.329-.295-3.368.18-2.982.22.178.398.686.997 2.816.14.503.566 1.772.946 2.82.381 1.052.88 2.442 1.11 3.093.228.65.802 1.936 1.272 2.853 1.452 2.833 1.534 3.214 1.262 5.932-.381 3.839-.248 7.682.286 8.31.091.11.56.253 1.04.316 1.198.161 5.025 1.51 7.693 2.71 1.218.546 2.954 1.178 3.858 1.403 1.835.454 2.09.437 4.55-.305 2.847-.859 4.96-.716 6.737.454.41.272 1.374.756 2.145 1.08.767.322 1.493.662 1.61.753.295.23.264.466-.044.349-.185-.068-.228-.019-.153.17.131.336.2.338-1.493-.081-2.11-.522-2.2-.527-5.318-.234-5.265.494-6.784.566-10.735.508-2.154-.03-4.797-.005-5.873.06-1.714.104-2.09.181-3.039.64-.594.285-1.608.943-2.25 1.46-1.186.96-2.26 1.44-3.906 1.747-1.397.262-5.473.65-6.795.65-1.618-.002-4.862-.55-6.344-1.072-1.304-.458-1.98-.52-2.718-.24-.262.1-1.357.2-2.432.226-1.362.03-2.39.157-3.396.417-1.126.292-1.868.37-3.357.356-1.802-.019-5.021.374-6.753.824-1.618.419-2.224.484-5.588.592-2.982.096-3.537.077-3.471-.115v-.002Zm72.61-6.228c-.368-.131-.752-.21-.85-.176-.096.036.09.143.416.237.89.26 1.203.215.433-.061Zm-43.427-1.489c-.232-.239-.436-.344-.473-.239-.035.104.08.293.253.422.52.384.655.271.22-.183Zm-14.347-7.89c-.375-.069-1.884-.176-3.357-.244l-2.675-.12-1.36-.997c-.747-.547-1.358-1.065-1.358-1.147 0-.082.082-.1.183-.04.503.305 2.462.598 3.95.59 1.813-.009 2.267-.065 4.177-.536 1.355-.334 3.298-.41 3.986-.152.237.087.73.426 1.1.752.368.325 1.019.707 1.442.85.986.327 1.325.683.764.795-1.218.246-5.916.415-6.852.248Zm33.726-5.78-.426-.12.595-.36c.348-.21.877-.363 1.275-.363.97-.004 3.189-.718 2.952-.948-.1-.1-.33-.73-.51-1.4-.27-1.01-.44-1.322-1.002-1.823-.372-.332-.676-.688-.676-.791 0-.276 1.037-.845 1.54-.845.461 0 1.425.608 1.88 1.191.17.22.379.314.552.25.342-.128.349-.451.026-1.207-.246-.574-.24-.592.33-1.199.744-.786.967-.67 1.87 1 .67 1.24.672 1.252.452 2.095-.253.964-.124 1.835.29 1.96.155.044.536.191.845.322.501.213.754.208 2.16-.037 1.637-.286 2.608-.204 2.756.232.107.316-.74.554-2.507.709a27.17 27.17 0 0 0-3.144.498c-.91.211-2.558.415-4.078.501-1.4.08-2.93.218-3.396.307-.988.187-1.208.192-1.784.028Z" fill="#213E7B"/>
</svg>
