<svg width="102" height="54" viewBox="0 0 102 54" fill="none" xmlns="http://www.w3.org/2000/svg">
<path d="M72.4512 53.1162C72.5513 52.9311 72.6339 51.6926 72.6339 50.3615C72.6339 49.0329 72.7164 47.7943 72.8165 47.6117C72.9316 47.4015 72.9341 47.2389 72.8265 47.1738C72.4637 46.9562 72.2235 47.927 72.0784 50.1688C71.9958 51.4449 71.8757 52.6584 71.8132 52.866C71.658 53.3714 72.196 53.5816 72.4512 53.1162ZM75.1484 52.841C75.3486 52.5933 75.5563 52.4607 75.6088 52.5433C75.8165 52.871 76.8148 52.5382 77.115 52.0428C77.4478 51.4949 77.9657 51.3373 79.442 51.3373C79.9624 51.3373 81.0158 51.2872 81.7789 51.2222C82.8623 51.1346 83.1275 51.0595 82.9799 50.8869C82.8598 50.7468 82.5345 50.6967 82.0966 50.7543L81.4036 50.8469L81.4236 49.3807C81.4361 48.3823 81.3735 47.8894 81.2259 47.8394C81.0733 47.7893 80.9907 48.1096 80.9507 48.8877C80.8982 49.9386 80.8806 49.9786 80.673 49.5158C80.5504 49.243 80.4103 48.8152 80.3652 48.5625C80.3177 48.3073 80.2251 48.0521 80.1575 47.9895C80.0324 47.8744 80.165 49.3957 80.3702 50.4065C80.4578 50.8519 80.4228 50.982 80.2126 50.982C80.0475 50.982 79.8948 50.7493 79.8273 50.394C79.7647 50.0687 79.5871 49.6484 79.4344 49.4607C79.1767 49.143 79.1642 49.168 79.2568 49.831C79.3819 50.6942 79.2043 50.992 78.5262 51.0645C77.4979 51.1746 77.4778 51.1121 77.8156 48.9878C77.8682 48.6601 77.8131 48.4999 77.6505 48.4999C77.4878 48.4999 77.3702 48.8502 77.2952 49.5633C77.1701 50.7368 76.7572 51.8702 76.4545 51.8702C76.3219 51.8702 76.2969 51.3448 76.3794 50.2113C76.5145 48.3273 76.3769 47.1038 75.9766 46.6159C75.7239 46.3081 75.7114 46.3507 75.8115 47.1163C75.9191 47.9094 75.6313 50.6967 75.4061 51.052C75.1784 51.4123 74.7956 49.5508 74.6905 47.5667C74.628 46.4207 74.5179 45.4824 74.4403 45.4824C74.2452 45.4824 74.025 48.6726 74.1576 49.5933C74.2177 50.0162 74.3177 50.982 74.3828 51.7401C74.4453 52.4982 74.5629 53.1588 74.643 53.2063C74.7206 53.2538 74.9483 53.0887 75.1484 52.841ZM66.2436 52.4106C66.4638 52.1204 66.6414 51.7926 66.6414 51.6825C66.6414 51.57 66.2436 50.5891 65.7582 49.5008C64.6223 46.9537 64.3345 45.8753 64.2895 43.9762C64.2745 43.2381 64.2369 43.1455 64.0693 43.4258C63.7966 43.8861 63.9867 47.3114 64.3395 48.2572C64.4921 48.6626 64.88 49.5283 65.2027 50.1838C65.6056 50.9995 65.7882 51.6225 65.7782 52.1554C65.7732 52.5833 65.7857 52.9336 65.8082 52.9336C65.8282 52.9336 66.0259 52.6984 66.2436 52.4106ZM49.4698 52.3581C49.715 51.5524 49.755 51.5149 50.388 51.5149C51.2137 51.5149 51.2863 51.3147 51.0311 49.7059C50.7408 47.8769 50.403 47.6642 50.5632 49.4132C50.7008 50.9019 50.4931 51.3348 50.0928 50.404C49.7951 49.7159 49.7976 47.4816 50.0978 46.9336C50.2729 46.6159 50.2604 46.5483 50.0378 46.5483C49.5373 46.5483 49.147 48.3598 49.2846 50.0262L49.4072 51.4899L48.9393 51.2797C48.3764 51.0295 48.2463 50.6067 48.3288 49.3056C48.3614 48.7651 48.3263 48.3223 48.2488 48.3223C48.0486 48.3223 47.9786 48.6025 47.8434 49.9611L47.7258 51.1571L46.9002 51.5124C46.4473 51.7101 45.9219 51.8702 45.7342 51.8702C45.5466 51.8702 45.3939 51.9503 45.3939 52.0478C45.3939 52.3131 46.5324 52.2605 47.268 51.9603C47.7208 51.7751 47.9535 51.7551 48.0386 51.8877C48.1062 51.9953 48.3564 52.0453 48.5941 52.0003C48.9243 51.9378 49.0269 51.9978 49.0269 52.2505C49.0269 52.6183 49.3647 52.7009 49.4698 52.3581ZM71.6105 52.0879C71.658 52.0153 71.5805 51.5174 71.4404 50.987C71.1551 49.9111 71.1201 48.625 71.3478 47.4741C71.4304 47.0587 71.4354 46.6784 71.3578 46.6334C71.0275 46.4332 70.7648 47.8344 70.7348 49.9636C70.7048 52.203 70.7073 52.2255 71.1151 52.2255C71.3403 52.2255 71.563 52.1629 71.6105 52.0879ZM62.5831 51.7651C62.8183 51.4173 63.0084 51.3223 63.3837 51.3773C63.8716 51.4474 63.8741 51.4373 63.9692 50.1963C64.0193 49.5058 64.0343 48.9153 64.0017 48.8802C63.8166 48.6876 63.5564 49.1354 63.5564 49.6534C63.5564 50.7818 63.2111 50.459 62.8983 49.0354C62.7257 48.2522 62.538 47.6117 62.478 47.6117C62.4204 47.6117 62.3979 48.2697 62.4279 49.0754L62.483 50.5391L61.915 49.9461C61.2044 49.2005 61.0593 49.3181 61.5447 50.2489C61.7524 50.6442 61.92 51.2522 61.92 51.5975C61.92 52.3406 62.1577 52.4006 62.5831 51.7651ZM54.1111 51.6926C54.3513 51.1271 54.634 51.042 55.227 51.3523C55.5023 51.4949 55.7675 51.4749 56.3004 51.2647C57.051 50.972 57.0535 50.9745 57.659 51.7801C57.9167 52.1254 57.9342 52.1254 58.1845 51.8102C58.5748 51.3172 58.6874 50.2914 58.4597 49.2981C58.3496 48.8102 58.1594 47.8119 58.0393 47.0813C57.7416 45.2698 57.4964 45.7727 57.6565 47.8644C57.7266 48.7727 57.7291 49.756 57.664 50.0512C57.5514 50.5441 57.4714 50.5916 56.5982 50.6792C55.4247 50.7943 55.2545 50.6417 55.1395 49.3857C55.0294 48.1546 55.0369 48.1822 54.8517 48.4999C54.7666 48.645 54.639 49.193 54.5665 49.7159C54.4439 50.6017 53.8834 51.5199 53.6707 51.1821C53.6207 51.1021 53.5957 50.2489 53.6157 49.2806C53.6482 47.6292 53.393 46.3707 53.0277 46.3707C52.9526 46.3707 52.8801 47.1313 52.8626 48.0646C52.8476 48.9953 52.7225 50.0687 52.5899 50.449L52.3447 51.1421L52.8526 51.042C53.3205 50.9519 53.3705 50.997 53.4831 51.585C53.6332 52.3656 53.8134 52.3956 54.1111 51.6926ZM60.006 51.4699C60.9417 48.545 61.4146 47.4741 62.2403 46.4157C62.488 46.0979 62.6131 45.8377 62.5205 45.8377C62.2653 45.8377 61.4822 46.6984 60.7691 47.7643L60.1336 48.7151L60.021 47.8544C59.7758 45.9779 58.5673 42.6451 58.1344 42.6451C57.8066 42.6451 57.8016 42.8703 58.1094 43.4958C58.287 43.8586 58.6573 44.8719 58.9351 45.7502C59.4255 47.3165 59.4305 47.3815 59.2178 49.2731C59.0552 50.7318 59.0527 51.2572 59.2128 51.4449C59.473 51.7526 59.9109 51.7676 60.006 51.4699ZM67.5622 50.7618C67.6297 49.5583 67.6848 48.9603 67.8124 48.012C67.9175 47.2189 67.9025 46.9036 67.7548 46.9036C67.6422 46.9036 67.5497 47.0813 67.5447 47.3014C67.5422 47.5216 67.3795 48.0195 67.1819 48.4099L66.8216 49.1204L66.9141 47.3465C66.9642 46.3707 67.0442 44.9345 67.0918 44.1539L67.1769 42.7327L66.9241 43.9762C66.784 44.6593 66.5363 45.5775 66.3737 46.0154C66.2086 46.4557 66.0259 47.3565 65.9684 48.022C65.8758 49.0729 65.9158 49.3281 66.2836 49.9736C66.5163 50.3815 66.794 50.7743 66.9016 50.8469C67.2069 51.0495 67.5497 51.0045 67.5622 50.7618ZM77.3527 43.3257C77.8732 42.5025 77.7756 42.0371 77.07 41.9696C76.2844 41.8945 75.9691 42.2948 76.2643 42.9929C76.6547 43.9111 76.9299 43.9962 77.3527 43.3257ZM80.2351 42.9078C80.7255 42.2948 80.8831 41.1714 80.7305 39.3449C80.663 38.5117 80.678 37.8537 80.768 37.8537C80.9532 37.8537 81.5287 39.0647 82.0966 40.656C82.3844 41.4591 82.577 41.7594 82.7822 41.7193C83.3151 41.6193 83.5528 40.8536 83.4778 39.495C83.4377 38.7894 83.4678 38.209 83.5453 38.209C83.6229 38.209 84.1734 38.7394 84.7738 39.3874C85.527 40.2056 85.9498 40.5334 86.15 40.4583C86.5678 40.3007 86.5028 39.7727 85.9748 39.0121C85.4644 38.279 85.4844 38.0688 86.0324 38.4016C86.23 38.5217 86.5328 38.5667 86.7054 38.5017C87.0182 38.3841 87.0157 38.1814 86.7029 37.4358C86.5878 37.1581 86.6254 37.1231 86.9431 37.2206C87.4536 37.3808 87.7788 36.7753 87.6587 35.8996C87.5787 35.3166 87.6087 35.2465 87.9114 35.3241C88.4719 35.4692 88.8222 35.0514 88.6946 34.3883C88.6045 33.9229 88.6495 33.7878 88.9173 33.7052C89.4002 33.5551 89.7329 32.9496 89.793 32.1089C89.8355 31.4759 89.9431 31.3133 90.5986 30.8754C91.014 30.5977 91.6745 29.9447 92.0699 29.4242C93.3359 27.7503 93.7738 27.6353 96.1157 28.3659C97.672 28.8513 97.8796 28.8838 97.8796 28.6436C97.8796 28.5535 97.4718 28.3483 96.9739 28.1857C96.4735 28.0256 96.0131 27.8079 95.948 27.7028C95.8154 27.4951 96.0681 27.5377 97.697 27.9905C98.978 28.3483 101.315 28.3659 101.793 28.0206C102.236 27.7028 102.043 27.6277 100.479 27.5076C99.6036 27.4426 99.1207 27.2825 98.3 26.7896C97.7195 26.4418 96.8338 26.0514 96.3359 25.9263C95.8355 25.7987 95.0598 25.481 94.6094 25.2208C93.1683 24.3851 91.7696 23.8321 89.9856 23.4018C89.0273 23.1691 87.8989 22.7863 87.4786 22.5461C85.537 21.4477 84.2034 20.8196 83.0549 20.4643C81.8264 20.084 78.894 19.7287 76.6872 19.6887L75.5638 19.6712L73.6772 21.4452C72.6389 22.421 71.3028 23.6295 70.7073 24.1299C70.1093 24.6303 69.3486 25.3909 69.0134 25.8163C68.6806 26.2416 68.0501 26.8521 67.6147 27.1724C67.1794 27.4926 66.8241 27.8704 66.8241 28.0131C66.8241 28.1582 66.8591 28.2758 66.8991 28.2758C67.2519 28.2758 69.4788 27.1148 70.0292 26.6444C70.4145 26.3167 70.8924 25.9288 71.0926 25.7862C71.4379 25.5385 71.4429 25.5435 71.1927 25.8788C71.0475 26.074 70.7073 26.4743 70.4345 26.767C69.6089 27.6553 67.7348 30.2874 67.6147 30.7278C67.2894 31.9438 68.623 31.2182 71.0626 28.8538L72.6689 27.3L71.6605 29.2816C70.965 30.6427 70.5897 31.6335 70.4546 32.4517C70.3495 33.1073 70.2944 33.6752 70.337 33.7153C70.5446 33.9204 71.5555 32.757 72.3636 31.3858C73.1393 30.0673 73.2794 29.9121 73.3294 30.3075C73.4195 31.0205 73.0142 33.2824 72.7189 33.7228C72.2235 34.4609 72.5213 34.5259 73.3344 33.8579C74.1476 33.1898 74.608 32.0839 74.9983 29.8596C75.1935 28.7587 75.4211 27.7904 75.5062 27.7053C75.7289 27.4901 76.1442 27.6828 76.437 28.1407C76.8398 28.7712 76.9199 31.6285 76.5646 32.6894C76.1918 33.8028 76.1918 34.063 76.5696 34.2032C76.9824 34.3583 77.7456 33.6127 78.286 32.5293C78.5612 31.9763 78.839 31.6561 79.0466 31.6511C79.482 31.6436 80.2626 30.8604 80.2626 30.4326C80.2626 30.2024 80.4278 30.0597 80.7731 29.9922C81.0758 29.9346 81.366 29.717 81.4836 29.4643C81.6112 29.194 81.8965 28.9939 82.2518 28.9238C82.6246 28.8513 82.9273 28.6286 83.13 28.2783C83.3552 27.893 83.5779 27.7453 83.9281 27.7428C84.4586 27.7428 84.9865 27.335 84.9865 26.9247C84.9865 26.732 85.0691 26.7095 85.3043 26.8296C85.4769 26.9197 86.3151 26.9997 87.1658 27.0072C88.3418 27.0147 88.9998 26.9172 89.9356 26.5969C91.074 26.2091 91.2317 26.1966 92.0874 26.4167C93.411 26.757 93.4034 26.8771 92.0598 26.8296C91.2116 26.7996 90.5961 26.8946 89.8355 27.1749C89.2575 27.39 88.3843 27.5652 87.8939 27.5652C86.6354 27.5652 85.2668 27.883 84.7889 28.2858C84.5662 28.4759 84.2459 28.6286 84.0783 28.6286C83.9081 28.6286 83.6304 28.7812 83.4578 28.9688C83.2851 29.154 82.8998 29.4042 82.6021 29.5243C82.3068 29.6444 81.944 29.9672 81.8014 30.2374C81.6563 30.5101 81.3811 30.7828 81.1859 30.8429C80.9932 30.9029 80.668 31.2282 80.4628 31.5685C80.2576 31.9088 79.9173 32.2491 79.7047 32.3241C79.4945 32.4017 79.0641 32.9321 78.7489 33.5051C78.0433 34.7886 77.0975 35.3766 76.3069 35.0238C75.8815 34.8362 75.7839 34.8562 75.5037 35.1965C75.3286 35.4091 75.1009 35.9146 75.0008 36.3199C74.8982 36.7252 74.7006 37.4358 74.5604 37.8987C74.4203 38.3616 74.3753 38.7844 74.4629 38.837C74.5479 38.8895 74.9483 38.6393 75.3536 38.284L76.0867 37.636L75.9966 39.8328L76.7848 40.098C77.2201 40.2431 77.6029 40.3357 77.638 40.3032C77.6705 40.2682 77.7556 39.8428 77.8206 39.3574C77.8882 38.872 78.0458 38.2815 78.1709 38.0438C78.3911 37.6335 78.4086 37.631 78.5863 37.9562C78.8715 38.4817 79.3969 41.1989 79.4244 42.2748C79.4495 43.3807 79.6972 43.5734 80.2351 42.9078ZM78.9591 41.3916C78.9115 41.259 78.5863 41.0888 78.236 41.0188C77.8857 40.9462 76.8648 40.651 75.9641 40.3582C74.7956 39.9779 74.1551 39.8603 73.7097 39.9404C73.3695 40.0029 72.2736 40.0555 71.2727 40.058C69.729 40.063 69.186 39.9804 67.6422 39.5025C65.2253 38.7569 62.5505 38.0313 62.2153 38.0313C62.0676 38.0313 60.8592 37.5209 59.5281 36.8929C58.197 36.2674 56.6582 35.6193 56.1102 35.4542C53.8984 34.7886 51.9343 34.0355 50.2704 33.2173C49.3071 32.742 48.4189 32.3541 48.2988 32.3541C48.1587 32.3541 48.1287 32.2415 48.2163 32.0439C48.2913 31.8737 48.4314 31.2808 48.5315 30.7278C48.6916 29.8221 48.6691 29.6544 48.3113 29.0889C47.941 28.506 47.9335 28.4284 48.1962 28.0606C48.5615 27.5502 48.559 26.9572 48.1862 26.4042C47.9936 26.114 47.931 25.7787 48.0036 25.4184C48.0661 25.1207 48.0211 24.7028 47.9035 24.4902C47.7859 24.28 47.7083 23.8171 47.7283 23.4668C47.7509 23.0965 47.6608 22.7412 47.5132 22.6236C47.363 22.501 47.298 22.2308 47.3505 21.9556C47.4706 21.3501 47.1454 21.1724 46.1245 21.2925L45.3039 21.3876L46.0745 20.9172C46.9377 20.3943 47.0103 20.2166 46.4923 19.8989C46.1646 19.6987 46.1596 19.6587 46.4248 19.3684C46.6725 19.1032 46.6775 19.0107 46.4698 18.768C46.2872 18.5503 46.0119 18.5002 45.3664 18.5603L44.5082 18.6403L45.2238 18.1349C45.6166 17.8547 45.9394 17.5645 45.9394 17.4869C45.9394 17.1766 45.4715 16.9214 44.9035 16.9214C44.1429 16.9214 44.1329 16.6887 44.8835 16.4686C45.6341 16.2484 45.7092 15.9656 45.1412 15.4852C44.7859 15.1825 44.7234 15.0249 44.8585 14.7772C45.1412 14.2592 45.0561 13.4661 44.6758 13.0658C44.3681 12.743 44.3556 12.6654 44.5858 12.4803C44.7809 12.3201 44.851 12.3176 44.851 12.4703C44.851 12.5854 45.0311 12.9156 45.2513 13.2084C45.6041 13.6738 45.6266 13.8039 45.434 14.2993C45.2438 14.7972 45.2613 14.9098 45.6016 15.2601C45.8793 15.5503 45.9519 15.783 45.8643 16.1208C45.7817 16.4485 45.8543 16.7188 46.117 17.0465C46.4648 17.4769 46.4698 17.5294 46.1896 17.8322C45.8668 18.18 45.8418 18.1549 46.8251 18.4477C46.9952 18.5002 47.0403 18.6854 46.9652 19.0457C46.9077 19.3384 46.9452 19.6187 47.0503 19.6837C47.1654 19.7513 47.1954 20.0465 47.1279 20.3993C47.0278 20.9272 47.0603 20.9998 47.3906 20.9998C47.8835 20.9998 48.0461 21.4477 47.7459 21.9931C47.5632 22.3259 47.5582 22.476 47.7233 22.6361C47.8409 22.7512 47.936 23.099 47.936 23.4093C47.936 23.7195 48.0661 24.0773 48.2238 24.2074C48.4414 24.3826 48.484 24.6203 48.3989 25.1782C48.3163 25.7262 48.3589 25.9714 48.5665 26.139C48.8968 26.4092 48.9293 27.1924 48.6316 27.8279C48.459 28.2007 48.4765 28.4034 48.7317 28.9213C49.0544 29.5869 49.0019 30.8204 48.6166 31.5435C48.4765 31.8062 48.5115 31.9388 48.7667 32.1189C49.2071 32.4342 49.3797 32.4167 49.5148 32.0439C49.5774 31.8737 49.9727 31.2833 50.3905 30.7328C51.1161 29.777 51.1562 29.6544 51.2788 28.0931C51.3864 26.6995 51.3588 26.4092 51.1011 26.1315C50.8159 25.8213 50.8259 25.7912 51.2713 25.5936C51.8743 25.3258 52.0519 24.7954 51.6766 24.3901C51.2813 23.9647 51.3063 23.8897 51.9318 23.5744C52.5273 23.2742 52.6424 22.7737 52.202 22.416C51.9568 22.2183 51.9668 22.1632 52.2921 21.9431C52.5523 21.7629 52.6599 21.4927 52.6599 21.0098C52.6599 20.5544 52.7525 20.2942 52.9451 20.2216C53.1153 20.1591 53.2054 19.9564 53.1703 19.7162C53.1178 19.3509 52.9927 19.3084 51.7517 19.2258L50.388 19.1383L51.569 18.7379C53.0302 18.2425 53.9435 17.582 53.6157 17.2567C53.4355 17.0766 52.9526 17.1616 51.1637 17.6871C49.9377 18.0474 48.8343 18.3401 48.7092 18.3401C48.2913 18.3401 48.4765 18.0298 49.0269 17.8072C49.5599 17.592 50.6608 16.5261 50.6608 16.2259C50.6608 16.1433 50.5382 15.9782 50.388 15.8556C50.1629 15.6729 49.8701 15.7179 48.7967 16.1008C48.0736 16.3585 47.4106 16.5661 47.323 16.5661C47.0328 16.5661 47.3906 15.4477 47.9585 14.582C48.2663 14.1116 48.5841 13.4661 48.6616 13.1508C48.7392 12.8331 48.8618 12.4352 48.9343 12.2626C49.0419 12.0124 48.9694 11.9523 48.5615 11.9523C48.2838 11.9523 47.911 12.0799 47.7359 12.2376C47.4356 12.5003 47.4081 12.4803 47.298 11.9073C47.1879 11.3343 47.248 11.2292 48.1937 10.356C48.7517 9.8406 49.2071 9.34019 49.2071 9.24261C49.2071 8.95237 48.0036 9.2351 46.6575 9.8406C45.3489 10.4286 45.2613 10.5112 45.5916 10.8339C45.8518 11.0866 45.7342 11.8147 45.4139 11.9173C45.2613 11.9674 45.2113 11.9198 45.2913 11.7972C45.3614 11.6871 45.3664 11.4369 45.3039 11.2418C45.1612 10.8064 44.4732 10.7764 43.3222 11.1592C42.6392 11.3844 40.4298 11.7522 39.6292 11.7697C38.9837 11.7847 39.5917 11.3819 41.2255 10.7088C43.4623 9.78556 44.9335 8.8673 45.7117 7.91151C46.3297 7.15089 46.4173 6.89818 46.127 6.72303C45.9444 6.61294 44.1379 7.44863 43.047 8.14921C42.3114 8.6196 40.1296 9.54035 39.3114 9.723C38.811 9.83309 38.8485 9.77305 39.7643 8.99991C42.0387 7.07583 43.2146 5.39194 43.2146 4.06334C43.2146 3.00497 42.6817 3.25768 41.2555 4.98911C40.5524 5.84481 39.3915 7.10085 38.6734 7.78391L37.3698 9.02493L38.0929 7.60626C39.2163 5.39944 39.6267 3.84316 39.5241 2.19681C39.4766 1.43868 39.3364 0.633021 39.2113 0.407836L38.9887 0L38.5583 0.4854C38.3231 0.755622 38.1304 1.12342 38.1304 1.30858C38.1304 1.49123 38.0479 1.69139 37.9478 1.75144C37.8477 1.81149 37.7676 2.13926 37.7676 2.47704C37.7676 3.31523 37.1822 4.94657 36.2239 6.78559C35.4733 8.22677 34.2923 9.85561 34.6 9.02493C35.5959 6.33522 35.9862 4.99911 36.2264 3.43783C36.6092 0.948281 36.5416 -0.162634 36.0337 0.250206C35.7985 0.440363 35.6084 0.98331 34.9678 3.26018C34.8177 3.79813 34.3623 5.15424 33.957 6.27517C33.5492 7.39859 33.0162 8.88481 32.771 9.58039C32.5258 10.276 31.9128 11.6496 31.4099 12.6304C29.8586 15.6579 29.7711 16.0657 30.0613 18.9706C30.4691 23.074 30.3265 27.1824 29.7561 27.8529C29.6585 27.9705 29.1581 28.1232 28.6451 28.1907C27.3641 28.3633 23.2732 29.8045 20.4209 31.0881C19.1198 31.6711 17.2633 32.3466 16.2975 32.5868C14.3359 33.0722 14.0631 33.0547 11.4335 32.2616C8.39097 31.3433 6.13161 31.4959 4.23254 32.747C3.79468 33.0372 2.76383 33.5551 1.94065 33.9004C1.11998 34.2457 0.344337 34.6085 0.219238 34.7061C-0.0960236 34.9513 -0.0634918 35.204 0.266777 35.0789C0.464439 35.0063 0.509476 35.0589 0.429413 35.2615C0.289291 35.6193 0.216736 35.6218 2.02573 35.174C4.28008 34.616 4.37766 34.611 7.7104 34.9238C13.3375 35.4517 14.9614 35.5292 19.1849 35.4667C21.4867 35.4342 24.3116 35.4617 25.4625 35.5317C27.294 35.6418 27.6969 35.7244 28.7102 36.2148C29.3457 36.5201 30.4291 37.2231 31.1147 37.7761C32.3832 38.8019 33.5317 39.3149 35.2906 39.6426C36.7843 39.9229 41.1404 40.3382 42.5541 40.3382C44.283 40.3357 47.7509 39.7502 49.3347 39.1923C50.7283 38.7019 51.4514 38.6368 52.2396 38.9346C52.5198 39.0421 53.6908 39.1497 54.8392 39.1773C56.2954 39.2098 57.3938 39.3449 58.4697 39.6226C59.6732 39.9354 60.4663 40.0179 62.0576 40.0029C63.9842 39.9829 67.4246 40.4033 69.2761 40.8837C71.005 41.3315 71.653 41.4016 75.2485 41.5167C78.4361 41.6193 79.0291 41.5992 78.9591 41.3941V41.3916ZM1.34766 34.7336C1.74049 34.5935 2.15083 34.5084 2.25591 34.5459C2.3585 34.5835 2.15833 34.6986 1.81055 34.7986C0.859764 35.0764 0.52449 35.0288 1.34766 34.7336ZM47.7659 33.1423C48.0136 32.8871 48.2313 32.7745 48.2713 32.8871C48.3088 32.9972 48.1862 33.1998 48.0011 33.3374C47.4456 33.7478 47.3005 33.6277 47.7659 33.1423ZM63.101 24.7078C63.5013 24.6353 65.1152 24.5202 66.689 24.4476L69.5488 24.32L71.0025 23.2541C71.8007 22.6687 72.4537 22.1157 72.4537 22.0281C72.4537 21.9406 72.3661 21.9205 72.2585 21.9856C71.7206 22.3109 69.6264 22.6236 68.0351 22.6161C66.0985 22.6061 65.6131 22.5461 63.5714 22.0431C62.1227 21.6854 60.046 21.6053 59.3104 21.8805C59.0577 21.9731 58.5297 22.3359 58.1344 22.6837C57.7416 23.0315 57.046 23.4393 56.5931 23.5919C55.5398 23.9422 55.177 24.3225 55.7775 24.4426C57.0785 24.7053 62.1002 24.8855 63.101 24.7078ZM27.0513 18.5303L27.5067 18.4026L26.8712 18.0173C26.4984 17.7921 25.9329 17.6295 25.5076 17.6295C24.4717 17.6245 22.0997 16.8614 22.3525 16.6162C22.46 16.5086 22.7052 15.8355 22.8979 15.1199C23.1856 14.0391 23.3683 13.7063 23.9688 13.1708C24.3666 12.8156 24.6919 12.4352 24.6919 12.3251C24.6919 12.0299 23.5835 11.4219 23.0455 11.4219C22.5526 11.4219 21.5218 12.0724 21.0364 12.6955C20.8537 12.9306 20.631 13.0307 20.4459 12.9632C20.0806 12.8256 20.0731 12.4803 20.4184 11.6721C20.6811 11.0591 20.6736 11.0391 20.0656 10.3911C19.2699 9.55036 19.0322 9.67547 18.0664 11.4594C17.3508 12.7855 17.3483 12.798 17.5835 13.6988C17.8538 14.7296 17.7161 15.6604 17.2733 15.793C17.1081 15.8405 16.7003 15.9982 16.37 16.1383C15.8346 16.366 15.5644 16.361 14.0606 16.0983C12.3117 15.793 11.2733 15.8806 11.1157 16.346C11.0006 16.6837 11.9064 16.9389 13.7954 17.1041C14.7437 17.1866 16.2549 17.4268 17.1557 17.637C18.129 17.8622 19.8904 18.0799 21.5143 18.1725C23.0105 18.2575 24.6469 18.4052 25.1448 18.5002C26.2006 18.7004 26.4358 18.7054 27.0513 18.5303Z" fill="#213E7B"/>
<path d="M72.4512 53.1162C72.5513 52.9311 72.6338 51.6926 72.6338 50.3615C72.6338 49.0329 72.7164 47.7943 72.8165 47.6117C72.9316 47.4015 72.9341 47.2389 72.8265 47.1738C72.4637 46.9562 72.2235 47.927 72.0784 50.1688C71.9958 51.4449 71.8757 52.6584 71.8132 52.866C71.658 53.3714 72.196 53.5816 72.4512 53.1162ZM75.1484 52.841C75.3486 52.5933 75.5563 52.4607 75.6088 52.5433C75.8165 52.871 76.8148 52.5383 77.115 52.0428C77.4478 51.4949 77.9657 51.3373 79.442 51.3373C79.9624 51.3373 81.0158 51.2872 81.7789 51.2222C82.8623 51.1346 83.1275 51.0595 82.9799 50.8869C82.8598 50.7468 82.5345 50.6967 82.0966 50.7543L81.4036 50.8469L81.4236 49.3807C81.4361 48.3823 81.3735 47.8894 81.2259 47.8394C81.0733 47.7893 80.9907 48.1096 80.9507 48.8877C80.8982 49.9386 80.8806 49.9786 80.673 49.5158C80.5504 49.243 80.4103 48.8152 80.3652 48.5625C80.3177 48.3073 80.2251 48.0521 80.1575 47.9895C80.0324 47.8744 80.165 49.3957 80.3702 50.4065C80.4578 50.8519 80.4228 50.982 80.2126 50.982C80.0475 50.982 79.8948 50.7493 79.8273 50.394C79.7647 50.0687 79.5871 49.6484 79.4344 49.4607C79.1767 49.143 79.1642 49.168 79.2568 49.831C79.3819 50.6942 79.2043 50.992 78.5262 51.0645C77.4979 51.1746 77.4778 51.1121 77.8156 48.9878C77.8682 48.6601 77.8131 48.4999 77.6505 48.4999C77.4878 48.4999 77.3702 48.8502 77.2952 49.5633C77.1701 50.7368 76.7572 51.8702 76.4545 51.8702C76.3219 51.8702 76.2969 51.3448 76.3794 50.2113C76.5145 48.3273 76.3769 47.1038 75.9766 46.6159C75.7239 46.3081 75.7114 46.3507 75.8115 47.1163C75.9191 47.9094 75.6313 50.6967 75.4061 51.052C75.1784 51.4123 74.7956 49.5508 74.6905 47.5667C74.628 46.4207 74.5179 45.4824 74.4403 45.4824C74.2452 45.4824 74.025 48.6726 74.1576 49.5933C74.2177 50.0162 74.3177 50.982 74.3828 51.7401C74.4453 52.4982 74.5629 53.1588 74.643 53.2063C74.7206 53.2538 74.9483 53.0887 75.1484 52.841ZM66.2436 52.4106C66.4638 52.1204 66.6414 51.7926 66.6414 51.6825C66.6414 51.57 66.2436 50.5891 65.7582 49.5008C64.6223 46.9537 64.3345 45.8753 64.2895 43.9762C64.2745 43.2381 64.2369 43.1455 64.0693 43.4257C63.7966 43.8861 63.9867 47.3114 64.3395 48.2572C64.4921 48.6626 64.88 49.5283 65.2027 50.1838C65.6056 50.9995 65.7882 51.6225 65.7782 52.1554C65.7732 52.5833 65.7857 52.9336 65.8082 52.9336C65.8282 52.9336 66.0259 52.6984 66.2436 52.4106ZM49.4698 52.3581C49.715 51.5524 49.755 51.5149 50.388 51.5149C51.2137 51.5149 51.2863 51.3147 51.0311 49.7059C50.7408 47.8769 50.4031 47.6642 50.5632 49.4132C50.7008 50.9019 50.4931 51.3348 50.0928 50.404C49.795 49.7159 49.7976 47.4816 50.0978 46.9336C50.2729 46.6159 50.2604 46.5483 50.0377 46.5483C49.5373 46.5483 49.147 48.3598 49.2846 50.0262L49.4072 51.4899L48.9393 51.2797C48.3764 51.0295 48.2463 50.6067 48.3288 49.3056C48.3614 48.7651 48.3263 48.3223 48.2488 48.3223C48.0486 48.3223 47.9786 48.6025 47.8434 49.9611L47.7258 51.1571L46.9002 51.5124C46.4473 51.7101 45.9219 51.8702 45.7342 51.8702C45.5466 51.8702 45.3939 51.9503 45.3939 52.0478C45.3939 52.3131 46.5324 52.2605 47.268 51.9603C47.7208 51.7751 47.9535 51.7551 48.0386 51.8877C48.1062 51.9953 48.3564 52.0453 48.5941 52.0003C48.9243 51.9378 49.0269 51.9978 49.0269 52.2505C49.0269 52.6183 49.3647 52.7009 49.4698 52.3581ZM71.6105 52.0879C71.658 52.0153 71.5805 51.5174 71.4404 50.987C71.1551 49.9111 71.1201 48.625 71.3478 47.4741C71.4304 47.0587 71.4354 46.6784 71.3578 46.6334C71.0275 46.4332 70.7648 47.8344 70.7348 49.9636C70.7048 52.203 70.7073 52.2255 71.1151 52.2255C71.3403 52.2255 71.563 52.1629 71.6105 52.0879ZM62.5831 51.7651C62.8183 51.4173 63.0084 51.3223 63.3837 51.3773C63.8716 51.4474 63.8741 51.4373 63.9692 50.1963C64.0193 49.5058 64.0343 48.9153 64.0017 48.8802C63.8166 48.6876 63.5564 49.1355 63.5564 49.6534C63.5564 50.7818 63.2111 50.459 62.8983 49.0354C62.7257 48.2522 62.538 47.6117 62.478 47.6117C62.4204 47.6117 62.3979 48.2697 62.4279 49.0754L62.483 50.5391L61.915 49.9461C61.2044 49.2005 61.0593 49.3181 61.5447 50.2489C61.7524 50.6442 61.92 51.2522 61.92 51.5975C61.92 52.3406 62.1577 52.4006 62.5831 51.7651ZM54.1111 51.6926C54.3513 51.1271 54.634 51.042 55.227 51.3523C55.5022 51.4949 55.7675 51.4749 56.3004 51.2647C57.051 50.972 57.0535 50.9745 57.659 51.7801C57.9167 52.1254 57.9343 52.1254 58.1845 51.8102C58.5748 51.3172 58.6874 50.2914 58.4597 49.2981C58.3496 48.8102 58.1594 47.8119 58.0393 47.0813C57.7416 45.2698 57.4964 45.7727 57.6565 47.8644C57.7266 48.7727 57.7291 49.756 57.664 50.0512C57.5514 50.5441 57.4714 50.5916 56.5982 50.6792C55.4247 50.7943 55.2545 50.6417 55.1394 49.3857C55.0294 48.1546 55.0369 48.1822 54.8517 48.4999C54.7666 48.645 54.639 49.193 54.5665 49.7159C54.4439 50.6017 53.8834 51.5199 53.6707 51.1821C53.6207 51.1021 53.5957 50.2489 53.6157 49.2806C53.6482 47.6292 53.393 46.3707 53.0277 46.3707C52.9526 46.3707 52.8801 47.1313 52.8626 48.0646C52.8476 48.9953 52.7225 50.0687 52.5899 50.449L52.3446 51.1421L52.8526 51.042C53.3205 50.9519 53.3705 50.997 53.4831 51.585C53.6332 52.3656 53.8134 52.3956 54.1111 51.6926ZM60.006 51.4699C60.9417 48.545 61.4146 47.4741 62.2403 46.4157C62.488 46.0979 62.6131 45.8377 62.5205 45.8377C62.2653 45.8377 61.4822 46.6984 60.7691 47.7643L60.1336 48.7151L60.021 47.8544C59.7758 45.9779 58.5673 42.6451 58.1344 42.6451C57.8066 42.6451 57.8016 42.8703 58.1094 43.4958C58.287 43.8586 58.6573 44.8719 58.9351 45.7502C59.4255 47.3165 59.4305 47.3815 59.2178 49.2731C59.0552 50.7318 59.0527 51.2572 59.2128 51.4449C59.473 51.7526 59.9109 51.7676 60.006 51.4699ZM67.5622 50.7618C67.6297 49.5583 67.6848 48.9603 67.8124 48.012C67.9175 47.2189 67.9025 46.9036 67.7548 46.9036C67.6422 46.9036 67.5497 47.0813 67.5447 47.3014C67.5422 47.5216 67.3795 48.0195 67.1819 48.4099L66.8216 49.1204L66.9141 47.3465C66.9642 46.3707 67.0442 44.9345 67.0918 44.1538L67.1769 42.7327L66.9241 43.9762C66.784 44.6593 66.5363 45.5775 66.3737 46.0154C66.2086 46.4557 66.0259 47.3565 65.9684 48.022C65.8758 49.0729 65.9158 49.3281 66.2836 49.9736C66.5163 50.3815 66.794 50.7743 66.9016 50.8469C67.2069 51.0495 67.5497 51.0045 67.5622 50.7618ZM77.3527 43.3257C77.8732 42.5025 77.7756 42.0371 77.07 41.9696C76.2844 41.8945 75.9691 42.2948 76.2643 42.9929C76.6547 43.9111 76.9299 43.9962 77.3527 43.3257ZM80.2351 42.9078C80.7255 42.2948 80.8831 41.1714 80.7305 39.3449C80.663 38.5117 80.678 37.8537 80.768 37.8537C80.9532 37.8537 81.5287 39.0647 82.0966 40.656C82.3844 41.4591 82.577 41.7594 82.7822 41.7193C83.3151 41.6193 83.5528 40.8536 83.4778 39.495C83.4377 38.7894 83.4678 38.209 83.5453 38.209C83.6229 38.209 84.1734 38.7394 84.7738 39.3874C85.527 40.2056 85.9498 40.5334 86.15 40.4583C86.5678 40.3007 86.5028 39.7727 85.9748 39.0121C85.4644 38.279 85.4844 38.0688 86.0324 38.4016C86.23 38.5217 86.5328 38.5667 86.7054 38.5017C87.0182 38.3841 87.0157 38.1814 86.7029 37.4358C86.5878 37.1581 86.6254 37.1231 86.9431 37.2206C87.4536 37.3808 87.7788 36.7753 87.6587 35.8996C87.5787 35.3166 87.6087 35.2465 87.9114 35.3241C88.4719 35.4692 88.8222 35.0514 88.6946 34.3883C88.6045 33.9229 88.6495 33.7878 88.9173 33.7052C89.4002 33.5551 89.7329 32.9496 89.793 32.1089C89.8355 31.4759 89.9431 31.3133 90.5986 30.8754C91.014 30.5977 91.6745 29.9447 92.0699 29.4242C93.3359 27.7503 93.7738 27.6353 96.1157 28.3659C97.672 28.8513 97.8796 28.8838 97.8796 28.6436C97.8796 28.5535 97.4718 28.3483 96.9739 28.1857C96.4735 28.0256 96.0131 27.8079 95.948 27.7028C95.8154 27.4951 96.0681 27.5377 97.697 27.9905C98.978 28.3483 101.315 28.3659 101.793 28.0206C102.236 27.7028 102.043 27.6277 100.479 27.5076C99.6036 27.4426 99.1207 27.2825 98.3 26.7896C97.7195 26.4418 96.8338 26.0514 96.3359 25.9263C95.8355 25.7987 95.0598 25.481 94.6094 25.2208C93.1683 24.3851 91.7696 23.8321 89.9856 23.4018C89.0273 23.1691 87.8989 22.7863 87.4786 22.5461C85.537 21.4477 84.2034 20.8196 83.0549 20.4643C81.8264 20.084 78.894 19.7287 76.6872 19.6887L75.5638 19.6712L73.6772 21.4452C72.6389 22.421 71.3028 23.6295 70.7073 24.1299C70.1093 24.6303 69.3486 25.3909 69.0134 25.8163C68.6806 26.2416 68.0501 26.8521 67.6147 27.1724C67.1794 27.4926 66.8241 27.8704 66.8241 28.0131C66.8241 28.1582 66.8591 28.2758 66.8991 28.2758C67.2519 28.2758 69.4788 27.1148 70.0292 26.6444C70.4145 26.3167 70.8924 25.9288 71.0926 25.7862C71.4379 25.5385 71.4429 25.5435 71.1927 25.8788C71.0475 26.074 70.7073 26.4743 70.4345 26.767C69.6089 27.6553 67.7348 30.2874 67.6147 30.7278C67.2894 31.9438 68.623 31.2182 71.0626 28.8538L72.6689 27.3L71.6605 29.2816C70.965 30.6427 70.5897 31.6335 70.4546 32.4517C70.3495 33.1073 70.2944 33.6752 70.337 33.7153C70.5446 33.9204 71.5555 32.757 72.3636 31.3858C73.1393 30.0673 73.2794 29.9121 73.3294 30.3075C73.4195 31.0205 73.0142 33.2824 72.7189 33.7228C72.2235 34.4609 72.5213 34.5259 73.3344 33.8579C74.1476 33.1898 74.608 32.0839 74.9983 29.8596C75.1935 28.7587 75.4211 27.7904 75.5062 27.7053C75.7289 27.4901 76.1442 27.6828 76.437 28.1407C76.8398 28.7712 76.9199 31.6285 76.5646 32.6894C76.1918 33.8028 76.1918 34.063 76.5696 34.2032C76.9824 34.3583 77.7456 33.6127 78.286 32.5293C78.5612 31.9763 78.839 31.6561 79.0466 31.6511C79.482 31.6436 80.2626 30.8604 80.2626 30.4326C80.2626 30.2024 80.4278 30.0597 80.7731 29.9922C81.0758 29.9346 81.366 29.717 81.4836 29.4643C81.6112 29.194 81.8965 28.9939 82.2518 28.9238C82.6246 28.8513 82.9273 28.6286 83.13 28.2783C83.3552 27.893 83.5779 27.7453 83.9281 27.7428C84.4586 27.7428 84.9865 27.335 84.9865 26.9247C84.9865 26.732 85.0691 26.7095 85.3043 26.8296C85.4769 26.9197 86.3151 26.9997 87.1658 27.0072C88.3418 27.0147 88.9998 26.9172 89.9356 26.5969C91.074 26.2091 91.2317 26.1966 92.0874 26.4167C93.411 26.757 93.4034 26.8771 92.0598 26.8296C91.2116 26.7996 90.5961 26.8946 89.8355 27.1749C89.2575 27.39 88.3843 27.5652 87.8939 27.5652C86.6354 27.5652 85.2668 27.883 84.7889 28.2858C84.5662 28.4759 84.2459 28.6286 84.0783 28.6286C83.9081 28.6286 83.6304 28.7812 83.4578 28.9688C83.2851 29.154 82.8998 29.4042 82.6021 29.5243C82.3068 29.6444 81.944 29.9672 81.8014 30.2374C81.6563 30.5101 81.3811 30.7828 81.1859 30.8429C80.9932 30.9029 80.668 31.2282 80.4628 31.5685C80.2576 31.9088 79.9173 32.249 79.7047 32.3241C79.4945 32.4017 79.0641 32.9321 78.7489 33.5051C78.0433 34.7886 77.0975 35.3766 76.3069 35.0238C75.8815 34.8362 75.7839 34.8562 75.5037 35.1965C75.3286 35.4092 75.1009 35.9146 75.0008 36.3199C74.8982 36.7252 74.7006 37.4358 74.5604 37.8987C74.4203 38.3616 74.3753 38.7844 74.4629 38.837C74.5479 38.8895 74.9483 38.6393 75.3536 38.284L76.0867 37.636L75.9966 39.8328L76.7848 40.098C77.2201 40.2431 77.6029 40.3357 77.638 40.3032C77.6705 40.2682 77.7556 39.8428 77.8206 39.3574C77.8882 38.872 78.0458 38.2815 78.1709 38.0438C78.3911 37.6335 78.4086 37.631 78.5862 37.9562C78.8715 38.4817 79.3969 41.1989 79.4244 42.2748C79.4495 43.3807 79.6972 43.5734 80.2351 42.9078ZM78.9591 41.3916C78.9115 41.259 78.5862 41.0888 78.236 41.0188C77.8857 40.9462 76.8648 40.651 75.9641 40.3582C74.7956 39.9779 74.1551 39.8603 73.7097 39.9404C73.3695 40.0029 72.2736 40.0555 71.2727 40.058C69.729 40.063 69.186 39.9804 67.6422 39.5025C65.2253 38.7569 62.5505 38.0313 62.2153 38.0313C62.0677 38.0313 60.8592 37.5209 59.5281 36.8929C58.197 36.2674 56.6582 35.6193 56.1102 35.4542C53.8984 34.7886 51.9343 34.0355 50.2704 33.2173C49.3071 32.742 48.4189 32.3541 48.2988 32.3541C48.1587 32.3541 48.1287 32.2415 48.2163 32.0439C48.2913 31.8737 48.4314 31.2808 48.5315 30.7278C48.6916 29.8221 48.6691 29.6544 48.3113 29.0889C47.941 28.506 47.9335 28.4284 48.1962 28.0606C48.5615 27.5502 48.559 26.9572 48.1862 26.4042C47.9936 26.114 47.931 25.7787 48.0036 25.4184C48.0661 25.1207 48.0211 24.7028 47.9035 24.4902C47.7859 24.28 47.7083 23.8171 47.7283 23.4668C47.7509 23.0965 47.6608 22.7412 47.5132 22.6236C47.363 22.501 47.298 22.2308 47.3505 21.9556C47.4706 21.3501 47.1454 21.1724 46.1245 21.2925L45.3039 21.3876L46.0745 20.9172C46.9377 20.3943 47.0103 20.2166 46.4923 19.8989C46.1646 19.6987 46.1596 19.6587 46.4248 19.3684C46.6725 19.1032 46.6775 19.0107 46.4698 18.768C46.2872 18.5503 46.0119 18.5002 45.3664 18.5603L44.5082 18.6403L45.2238 18.1349C45.6166 17.8547 45.9394 17.5645 45.9394 17.4869C45.9394 17.1766 45.4715 16.9214 44.9035 16.9214C44.1429 16.9214 44.1329 16.6887 44.8835 16.4686C45.6341 16.2484 45.7092 15.9656 45.1412 15.4852C44.7859 15.1825 44.7234 15.0249 44.8585 14.7772C45.1412 14.2592 45.0561 13.4661 44.6758 13.0658C44.3681 12.743 44.3556 12.6654 44.5858 12.4803C44.7809 12.3201 44.851 12.3176 44.851 12.4703C44.851 12.5854 45.0311 12.9156 45.2513 13.2084C45.6041 13.6738 45.6266 13.8039 45.434 14.2993C45.2438 14.7972 45.2613 14.9098 45.6016 15.2601C45.8793 15.5503 45.9519 15.783 45.8643 16.1208C45.7817 16.4485 45.8543 16.7188 46.117 17.0465C46.4648 17.4769 46.4698 17.5294 46.1896 17.8322C45.8668 18.18 45.8418 18.1549 46.8251 18.4477C46.9952 18.5002 47.0403 18.6854 46.9652 19.0457C46.9077 19.3384 46.9452 19.6187 47.0503 19.6837C47.1654 19.7513 47.1954 20.0465 47.1279 20.3993C47.0278 20.9272 47.0603 20.9998 47.3906 20.9998C47.8835 20.9998 48.0461 21.4477 47.7459 21.9931C47.5632 22.3259 47.5582 22.476 47.7233 22.6361C47.8409 22.7512 47.936 23.099 47.936 23.4093C47.936 23.7195 48.0661 24.0773 48.2238 24.2074C48.4414 24.3826 48.484 24.6203 48.3989 25.1782C48.3163 25.7262 48.3589 25.9714 48.5665 26.139C48.8968 26.4092 48.9293 27.1924 48.6316 27.8279C48.459 28.2007 48.4765 28.4034 48.7317 28.9213C49.0544 29.5869 49.0019 30.8204 48.6166 31.5435C48.4765 31.8062 48.5115 31.9388 48.7667 32.1189C49.2071 32.4342 49.3797 32.4167 49.5148 32.0439C49.5774 31.8737 49.9727 31.2833 50.3905 30.7328C51.1161 29.777 51.1562 29.6544 51.2788 28.0931C51.3864 26.6995 51.3588 26.4092 51.1011 26.1315C50.8159 25.8213 50.8259 25.7912 51.2713 25.5936C51.8743 25.3258 52.0519 24.7954 51.6766 24.3901C51.2813 23.9647 51.3063 23.8897 51.9318 23.5744C52.5273 23.2742 52.6424 22.7737 52.202 22.416C51.9568 22.2183 51.9668 22.1632 52.2921 21.9431C52.5523 21.7629 52.6599 21.4927 52.6599 21.0098C52.6599 20.5544 52.7525 20.2942 52.9451 20.2216C53.1153 20.1591 53.2054 19.9564 53.1703 19.7162C53.1178 19.3509 52.9927 19.3084 51.7517 19.2258L50.388 19.1383L51.569 18.7379C53.0302 18.2425 53.9435 17.582 53.6157 17.2567C53.4355 17.0766 52.9526 17.1616 51.1637 17.6871C49.9377 18.0474 48.8343 18.3401 48.7092 18.3401C48.2913 18.3401 48.4765 18.0298 49.0269 17.8072C49.5599 17.592 50.6608 16.5261 50.6608 16.2259C50.6608 16.1433 50.5382 15.9782 50.388 15.8556C50.1629 15.6729 49.8701 15.7179 48.7967 16.1008C48.0736 16.3585 47.4106 16.5661 47.323 16.5661C47.0328 16.5661 47.3906 15.4477 47.9585 14.582C48.2663 14.1116 48.5841 13.4661 48.6616 13.1508C48.7392 12.8331 48.8618 12.4352 48.9343 12.2626C49.0419 12.0124 48.9694 11.9523 48.5615 11.9523C48.2838 11.9523 47.911 12.0799 47.7359 12.2376C47.4356 12.5003 47.4081 12.4803 47.298 11.9073C47.1879 11.3343 47.248 11.2292 48.1937 10.356C48.7517 9.8406 49.2071 9.34019 49.2071 9.24261C49.2071 8.95237 48.0036 9.2351 46.6575 9.8406C45.3489 10.4286 45.2613 10.5112 45.5916 10.8339C45.8518 11.0866 45.7342 11.8147 45.4139 11.9173C45.2613 11.9674 45.2113 11.9198 45.2913 11.7972C45.3614 11.6871 45.3664 11.4369 45.3039 11.2418C45.1612 10.8064 44.4732 10.7764 43.3222 11.1592C42.6392 11.3844 40.4298 11.7522 39.6292 11.7697C38.9836 11.7847 39.5917 11.3819 41.2255 10.7088C43.4623 9.78556 44.9335 8.8673 45.7117 7.91151C46.3297 7.15089 46.4173 6.89818 46.127 6.72303C45.9444 6.61294 44.1379 7.44863 43.047 8.14921C42.3114 8.6196 40.1296 9.54035 39.3114 9.723C38.811 9.8331 38.8485 9.77305 39.7643 8.99991C42.0387 7.07583 43.2146 5.39194 43.2146 4.06335C43.2146 3.00497 42.6817 3.25768 41.2555 4.98911C40.5524 5.84481 39.3915 7.10085 38.6734 7.78391L37.3698 9.02493L38.0929 7.60626C39.2163 5.39944 39.6267 3.84316 39.5241 2.19681C39.4766 1.43868 39.3364 0.633021 39.2113 0.407836L38.9887 0L38.5583 0.4854C38.3231 0.755622 38.1304 1.12342 38.1304 1.30858C38.1304 1.49123 38.0479 1.69139 37.9478 1.75144C37.8477 1.81149 37.7676 2.13926 37.7676 2.47704C37.7676 3.31523 37.1822 4.94657 36.2239 6.78559C35.4733 8.22677 34.2923 9.85561 34.6 9.02493C35.5959 6.33522 35.9862 4.99912 36.2264 3.43783C36.6092 0.948281 36.5416 -0.162634 36.0337 0.250206C35.7985 0.440363 35.6084 0.98331 34.9678 3.26018C34.8177 3.79813 34.3623 5.15424 33.957 6.27517C33.5492 7.39859 33.0162 8.88481 32.771 9.58039C32.5258 10.276 31.9128 11.6496 31.4099 12.6304C29.8586 15.6579 29.7711 16.0657 30.0613 18.9706C30.4691 23.074 30.3265 27.1824 29.7561 27.8529C29.6585 27.9705 29.1581 28.1232 28.6451 28.1907C27.3641 28.3633 23.2732 29.8045 20.4209 31.0881C19.1198 31.6711 17.2633 32.3466 16.2975 32.5868C14.3359 33.0722 14.0631 33.0547 11.4335 32.2616C8.39096 31.3433 6.1316 31.4959 4.23254 32.747C3.79468 33.0372 2.76383 33.5551 1.94065 33.9004C1.11998 34.2457 0.344341 34.6085 0.219237 34.7061C-0.0960219 34.9513 -0.0634955 35.204 0.266776 35.0789C0.464439 35.0063 0.509476 35.0589 0.42941 35.2615C0.289295 35.6193 0.216735 35.6218 2.02572 35.174C4.28008 34.616 4.37766 34.611 7.7104 34.9238C13.3375 35.4517 14.9614 35.5292 19.1849 35.4667C21.4867 35.4342 24.3116 35.4617 25.4625 35.5318C27.294 35.6418 27.6969 35.7244 28.7102 36.2148C29.3457 36.5201 30.4291 37.2231 31.1147 37.7761C32.3832 38.8019 33.5317 39.3149 35.2906 39.6426C36.7843 39.9229 41.1404 40.3382 42.5541 40.3382C44.283 40.3357 47.7509 39.7502 49.3347 39.1923C50.7283 38.7019 51.4514 38.6368 52.2396 38.9346C52.5198 39.0421 53.6908 39.1497 54.8392 39.1773C56.2954 39.2098 57.3938 39.3449 58.4697 39.6226C59.6732 39.9354 60.4663 40.0179 62.0576 40.0029C63.9842 39.9829 67.4246 40.4033 69.2761 40.8837C71.005 41.3315 71.653 41.4016 75.2485 41.5167C78.4361 41.6193 79.0291 41.5992 78.9591 41.3941V41.3916ZM1.34767 34.7336C1.74049 34.5935 2.15083 34.5084 2.25591 34.5459C2.3585 34.5835 2.15833 34.6986 1.81055 34.7986C0.859765 35.0764 0.524489 35.0288 1.34767 34.7336ZM47.7659 33.1423C48.0136 32.8871 48.2313 32.7745 48.2713 32.8871C48.3088 32.9972 48.1862 33.1998 48.0011 33.3374C47.4456 33.7478 47.3005 33.6277 47.7659 33.1423ZM63.101 24.7078C63.5013 24.6353 65.1152 24.5202 66.689 24.4476L69.5488 24.32L71.0025 23.2541C71.8007 22.6687 72.4537 22.1157 72.4537 22.0281C72.4537 21.9406 72.3661 21.9205 72.2585 21.9856C71.7206 22.3109 69.6264 22.6236 68.0351 22.6161C66.0985 22.6061 65.6131 22.5461 63.5714 22.0431C62.1227 21.6854 60.046 21.6053 59.3104 21.8805C59.0577 21.9731 58.5297 22.3359 58.1344 22.6837C57.7416 23.0315 57.046 23.4393 56.5931 23.5919C55.5398 23.9422 55.177 24.3225 55.7775 24.4426C57.0785 24.7053 62.1002 24.8855 63.101 24.7078ZM27.0513 18.5303L27.5067 18.4026L26.8712 18.0173C26.4984 17.7921 25.9329 17.6295 25.5076 17.6295C24.4717 17.6245 22.0998 16.8614 22.3525 16.6162C22.46 16.5086 22.7052 15.8355 22.8979 15.1199C23.1856 14.0391 23.3683 13.7063 23.9688 13.1708C24.3666 12.8156 24.6919 12.4352 24.6919 12.3251C24.6919 12.0299 23.5835 11.4219 23.0455 11.4219C22.5526 11.4219 21.5218 12.0724 21.0364 12.6955C20.8537 12.9306 20.631 13.0307 20.4459 12.9632C20.0806 12.8256 20.0731 12.4803 20.4184 11.6721C20.6811 11.0591 20.6736 11.0391 20.0656 10.3911C19.2699 9.55036 19.0322 9.67547 18.0664 11.4594C17.3508 12.7855 17.3483 12.798 17.5835 13.6988C17.8538 14.7296 17.7161 15.6604 17.2733 15.793C17.1081 15.8405 16.7003 15.9982 16.37 16.1383C15.8346 16.366 15.5644 16.361 14.0606 16.0983C12.3117 15.793 11.2733 15.8806 11.1157 16.346C11.0006 16.6837 11.9064 16.9389 13.7954 17.1041C14.7437 17.1866 16.2549 17.4268 17.1557 17.637C18.129 17.8622 19.8904 18.0799 21.5143 18.1725C23.0105 18.2575 24.6468 18.4052 25.1448 18.5002C26.2006 18.7004 26.4358 18.7054 27.0513 18.5303Z" fill="#213E7B"/>
</svg>
