<svg width="159" height="83" viewBox="0 0 159 83" fill="none" xmlns="http://www.w3.org/2000/svg">
<path d="M45.9494 82.5975C45.7938 82.3096 45.6654 80.3837 45.6654 78.3138C45.6654 76.2478 45.537 74.3218 45.3813 74.0378C45.2024 73.711 45.1985 73.4581 45.3658 73.3569C45.9299 73.0184 46.3034 74.528 46.5291 78.0142C46.6575 79.9985 46.8443 81.8855 46.9415 82.2084C47.1828 82.9944 46.3462 83.3212 45.9494 82.5975ZM41.7551 82.1695C41.4439 81.7843 41.1209 81.5781 41.0392 81.7065C40.7163 82.2162 39.1638 81.6988 38.697 80.9284C38.1795 80.0763 37.3741 79.8312 35.0785 79.8312C34.2692 79.8312 32.6312 79.7534 31.4445 79.6522C29.7598 79.516 29.3474 79.3993 29.5769 79.1308C29.7637 78.9129 30.2695 78.8351 30.9504 78.9246L32.0281 79.0686L31.997 76.7886C31.9776 75.2362 32.0748 74.4697 32.3044 74.3919C32.5417 74.314 32.6701 74.8121 32.7324 76.0221C32.8141 77.6562 32.8413 77.7185 33.1643 76.9987C33.3549 76.5746 33.5728 75.9093 33.6428 75.5163C33.7167 75.1194 33.8607 74.7226 33.9658 74.6253C34.1603 74.4463 33.9541 76.8119 33.635 78.3838C33.4989 79.0764 33.5533 79.2787 33.8802 79.2787C34.137 79.2787 34.3743 78.9168 34.4793 78.3643C34.5766 77.8585 34.8529 77.2049 35.0902 76.9131C35.4909 76.419 35.5104 76.4579 35.3664 77.4889C35.1719 78.8312 35.4481 79.2942 36.5026 79.4071C38.1017 79.5783 38.1328 79.481 37.6075 76.1777C37.5258 75.668 37.6114 75.419 37.8643 75.419C38.1172 75.419 38.3001 75.9637 38.4168 77.0726C38.6114 78.8974 39.2533 80.6599 39.7241 80.6599C39.9303 80.6599 39.9692 79.8428 39.8408 78.0803C39.6307 75.1506 39.8447 73.248 40.4673 72.4893C40.8602 72.0107 40.8797 72.0768 40.7241 73.2674C40.5568 74.5008 41.0042 78.8351 41.3544 79.3876C41.7084 79.9479 42.3037 77.0532 42.4671 73.9678C42.5644 72.1858 42.7356 70.7267 42.8562 70.7267C43.1597 70.7267 43.5021 75.6875 43.2959 77.1193C43.2025 77.7768 43.0469 79.2787 42.9457 80.4576C42.8484 81.6365 42.6656 82.6637 42.5411 82.7376C42.4204 82.8115 42.0664 82.5547 41.7551 82.1695ZM55.6024 81.5003C55.26 81.049 54.9838 80.5393 54.9838 80.3681C54.9838 80.193 55.6024 78.6678 56.3572 76.9753C58.1237 73.0145 58.5711 71.3376 58.6411 68.3845C58.6645 67.2367 58.7228 67.0927 58.9835 67.5285C59.4076 68.2444 59.1119 73.5709 58.5633 75.0416C58.326 75.6719 57.7229 77.0181 57.221 78.0375C56.5946 79.3059 56.3106 80.2747 56.3261 81.1035C56.3339 81.7688 56.3144 82.3135 56.2794 82.3135C56.2483 82.3135 55.9409 81.9478 55.6024 81.5003ZM81.6863 81.4186C81.305 80.1658 81.2427 80.1074 80.2583 80.1074C78.9744 80.1074 78.8616 79.7962 79.2584 77.2944C79.7097 74.4502 80.235 74.1195 79.986 76.8392C79.772 79.1542 80.0949 79.8273 80.7175 78.3799C81.1805 77.3099 81.1766 73.8355 80.7097 72.9834C80.4373 72.4893 80.4568 72.3842 80.8031 72.3842C81.5812 72.3842 82.1882 75.2011 81.9742 77.7924L81.7835 80.0685L82.5111 79.7417C83.3865 79.3526 83.5889 78.6951 83.4605 76.6719C83.4099 75.8314 83.4644 75.1428 83.585 75.1428C83.8962 75.1428 84.0052 75.5785 84.2153 77.6912L84.3981 79.551L85.6821 80.1035C86.3863 80.4109 87.2034 80.6599 87.4952 80.6599C87.787 80.6599 88.0244 80.7844 88.0244 80.9362C88.0244 81.3486 86.254 81.2669 85.1102 80.8C84.4059 80.5121 84.0441 80.4809 83.9118 80.6871C83.8067 80.8544 83.4177 80.9323 83.048 80.8622C82.5345 80.765 82.3749 80.8583 82.3749 81.2513C82.3749 81.8233 81.8497 81.9517 81.6863 81.4186ZM47.2567 80.9984C47.1828 80.8856 47.3034 80.1113 47.5213 79.2865C47.9648 77.6134 48.0193 75.6136 47.6652 73.8238C47.5368 73.1779 47.529 72.5865 47.6497 72.5165C48.1632 72.2052 48.5718 74.3841 48.6185 77.6951C48.6652 81.1774 48.6613 81.2124 48.0271 81.2124C47.6769 81.2124 47.3306 81.1151 47.2567 80.9984ZM61.2946 80.4965C60.9289 79.9557 60.6332 79.8078 60.0496 79.8934C59.2909 80.0024 59.287 79.9868 59.1392 78.057C59.0613 76.9831 59.038 76.0649 59.0886 76.0104C59.3765 75.7108 59.7811 76.4073 59.7811 77.2127C59.7811 78.9674 60.3181 78.4655 60.8044 76.2516C61.0729 75.0338 61.3647 74.0378 61.4581 74.0378C61.5476 74.0378 61.5826 75.0611 61.5359 76.3139L61.4503 78.59L62.3335 77.6679C63.4385 76.5084 63.6641 76.6913 62.9093 78.1387C62.5864 78.7534 62.3257 79.6989 62.3257 80.2358C62.3257 81.3914 61.9561 81.4848 61.2946 80.4965ZM74.4689 80.3837C74.0953 79.5043 73.6557 79.3721 72.7336 79.8545C72.3056 80.0763 71.8932 80.0452 71.0644 79.7183C69.8972 79.2631 69.8933 79.267 68.9517 80.5198C68.551 81.0568 68.5237 81.0568 68.1346 80.5665C67.5277 79.8 67.3526 78.2048 67.7067 76.6602C67.8779 75.9015 68.1736 74.3491 68.3603 73.2129C68.8233 70.396 69.2046 71.1781 68.9556 74.4308C68.8467 75.8431 68.8428 77.3722 68.9439 77.8313C69.119 78.5978 69.2435 78.6717 70.6014 78.8079C72.4262 78.9869 72.6908 78.7495 72.8697 76.7964C73.0409 74.8821 73.0293 74.9249 73.3172 75.419C73.4495 75.6447 73.6479 76.4968 73.7607 77.3099C73.9514 78.6873 74.8229 80.1152 75.1536 79.5899C75.2314 79.4654 75.2704 78.1387 75.2392 76.6329C75.1886 74.065 75.5855 72.108 76.1536 72.108C76.2703 72.108 76.3831 73.2908 76.4104 74.742C76.4337 76.1894 76.6282 77.8585 76.8345 78.4499L77.2157 79.5277L76.4259 79.3721C75.6983 79.232 75.6205 79.302 75.4454 80.2164C75.212 81.4303 74.9319 81.477 74.4689 80.3837ZM65.3022 80.0374C63.847 75.4891 63.1116 73.8238 61.8277 72.178C61.4425 71.6839 61.248 71.2792 61.3919 71.2792C61.7888 71.2792 63.0066 72.6177 64.1155 74.2751L65.1037 75.7536L65.2788 74.4152C65.6601 71.4971 67.5394 66.3146 68.2125 66.3146C68.7222 66.3146 68.7299 66.6647 68.2514 67.6374C67.9751 68.2016 67.3993 69.7774 66.9674 71.143C66.2048 73.5787 66.197 73.6798 66.5278 76.6213C66.7807 78.8896 66.7845 79.7067 66.5355 79.9985C66.1309 80.477 65.45 80.5004 65.3022 80.0374ZM53.552 78.9363C53.4469 77.0648 53.3613 76.1349 53.1629 74.6603C52.9995 73.4269 53.0228 72.9367 53.2524 72.9367C53.4275 72.9367 53.5714 73.2129 53.5792 73.5553C53.5831 73.8977 53.836 74.672 54.1434 75.279L54.7037 76.3839L54.5597 73.6254C54.4819 72.108 54.3574 69.8746 54.2835 68.6607L54.1512 66.4508L54.5441 68.3845C54.762 69.4467 55.1472 70.8746 55.4001 71.5555C55.6569 72.2402 55.9409 73.6409 56.0304 74.6759C56.1744 76.31 56.1121 76.7069 55.5402 77.7107C55.1783 78.3449 54.7465 78.9557 54.5791 79.0686C54.1045 79.3837 53.5714 79.3137 53.552 78.9363ZM38.3273 67.3729C37.518 66.0928 37.6698 65.3691 38.767 65.2641C39.9887 65.1473 40.4789 65.7699 40.0198 66.8554C39.4129 68.2833 38.9849 68.4156 38.3273 67.3729ZM33.8451 66.7231C33.0825 65.7699 32.8374 64.0229 33.0748 61.1826C33.1798 59.887 33.1565 58.8637 33.0164 58.8637C32.7285 58.8637 31.8336 60.7469 30.9504 63.2214C30.503 64.4703 30.2034 64.9372 29.8843 64.875C29.0556 64.7194 28.686 63.5288 28.8027 61.4161C28.8649 60.3189 28.8182 59.4162 28.6976 59.4162C28.577 59.4162 27.721 60.2411 26.7873 61.2488C25.6161 62.5211 24.9586 63.0308 24.6473 62.914C23.9976 62.6689 24.0987 61.848 24.9197 60.6652C25.7134 59.5252 25.6823 59.1983 24.8302 59.7158C24.5228 59.9026 24.052 59.9726 23.7836 59.8714C23.2972 59.6886 23.3011 59.3734 23.7875 58.214C23.9664 57.7821 23.9081 57.7276 23.4139 57.8794C22.6202 58.1284 22.1144 57.1868 22.3012 55.825C22.4257 54.9185 22.379 54.8095 21.9082 54.9301C21.0367 55.1558 20.492 54.506 20.6904 53.475C20.8305 52.7513 20.7604 52.5412 20.3441 52.4128C19.5932 52.1793 19.0757 51.2378 18.9823 49.9305C18.9162 48.9461 18.7489 48.6932 17.7295 48.0123C17.0836 47.5804 16.0565 46.5649 15.4417 45.7557C13.473 43.1527 12.7921 42.9737 9.15031 44.1099C6.73024 44.8647 6.40731 44.9152 6.40731 44.5417C6.40731 44.4017 7.04151 44.0826 7.81577 43.8297C8.59393 43.5807 9.30984 43.2422 9.411 43.0788C9.61721 42.7559 9.22424 42.822 6.69134 43.5262C4.69925 44.0826 1.06526 44.1099 0.322117 43.5729C-0.366553 43.0788 -0.0669622 42.9621 2.36478 42.7753C3.72656 42.6742 4.47748 42.4251 5.75366 41.6587C6.65632 41.1178 8.03366 40.5109 8.80792 40.3163C9.58608 40.1179 10.7922 39.6238 11.4926 39.2191C13.7337 37.9196 15.9086 37.0597 18.6827 36.3905C20.1729 36.0287 21.9277 35.4334 22.5813 35.0599C25.6006 33.3518 27.6744 32.3752 29.4602 31.8227C31.3706 31.2313 35.9306 30.6789 39.3623 30.6166L41.1092 30.5894L44.0429 33.3479C45.6576 34.8653 47.7353 36.7446 48.6613 37.5228C49.5912 38.3009 50.774 39.4837 51.2953 40.1451C51.8128 40.8066 52.7933 41.7559 53.4703 42.2539C54.1473 42.752 54.6998 43.3395 54.6998 43.5613C54.6998 43.7869 54.6453 43.9698 54.583 43.9698C54.0344 43.9698 50.5716 42.1645 49.7157 41.433C49.1165 40.9233 48.3733 40.3202 48.0621 40.0985C47.5252 39.7133 47.5174 39.721 47.9064 40.2424C48.1321 40.5459 48.6613 41.1684 49.0854 41.6236C50.3693 43.0049 53.2835 47.098 53.4703 47.7828C53.9761 49.6737 51.9023 48.5454 48.1088 44.8686L45.6109 42.4524L47.1789 45.5339C48.2605 47.6505 48.8441 49.1912 49.0542 50.4635C49.2176 51.4829 49.3032 52.3661 49.2371 52.4284C48.9142 52.7474 47.3423 50.9382 46.0856 48.806C44.8794 46.7556 44.6615 46.5144 44.5837 47.1291C44.4436 48.238 45.074 51.7553 45.5331 52.44C46.3034 53.5878 45.8404 53.689 44.5759 52.6501C43.3114 51.6113 42.5955 49.8916 41.9886 46.4327C41.6851 44.7207 41.331 43.215 41.1987 43.0827C40.8525 42.7481 40.2066 43.0477 39.7514 43.7597C39.1249 44.7402 39.0004 49.1834 39.5529 50.8331C40.1327 52.5645 40.1327 52.9692 39.5451 53.1871C38.9032 53.4283 37.7165 52.2688 36.8761 50.5841C36.4481 49.7243 36.0162 49.2262 35.6933 49.2185C35.0163 49.2068 33.8023 47.989 33.8023 47.3236C33.8023 46.9657 33.5456 46.7439 33.0086 46.6389C32.5378 46.5494 32.0865 46.2109 31.9036 45.8179C31.7052 45.3977 31.2617 45.0864 30.7092 44.9775C30.1294 44.8647 29.6587 44.5184 29.3435 43.9737C28.9933 43.3745 28.647 43.1449 28.1023 43.141C27.2775 43.141 26.4565 42.5069 26.4565 41.8688C26.4565 41.5692 26.3281 41.5342 25.9624 41.7209C25.6939 41.861 24.3905 41.9855 23.0677 41.9972C21.239 42.0088 20.2157 41.8571 18.7606 41.3591C16.9902 40.756 16.7451 40.7365 15.4145 41.0789C13.3563 41.6081 13.3679 41.7948 15.4573 41.7209C16.7763 41.6742 17.7334 41.8221 18.9162 42.2578C19.815 42.5924 21.1728 42.8648 21.9354 42.8648C23.8925 42.8648 26.0208 43.3589 26.7639 43.9853C27.1102 44.281 27.6082 44.5184 27.8689 44.5184C28.1335 44.5184 28.5653 44.7557 28.8338 45.0475C29.1023 45.3355 29.7015 45.7245 30.1645 45.9113C30.6236 46.098 31.1877 46.6 31.4095 47.0202C31.6352 47.4443 32.0632 47.8684 32.3666 47.9617C32.6662 48.0551 33.172 48.5609 33.4911 49.0901C33.8101 49.6192 34.3393 50.1484 34.67 50.2651C34.9968 50.3857 35.666 51.2105 36.1563 52.1015C37.2535 54.0975 38.7242 55.0118 39.9537 54.4632C40.6151 54.1714 40.7669 54.2026 41.2026 54.7317C41.475 55.0624 41.829 55.8484 41.9847 56.4787C42.1442 57.109 42.4516 58.214 42.6694 58.9338C42.8873 59.6535 42.9574 60.3111 42.8212 60.3928C42.6889 60.4745 42.0664 60.0854 41.4361 59.5329L40.2961 58.5252L40.4361 61.9413L39.2105 62.3538C38.5335 62.5794 37.9383 62.7234 37.8838 62.6728C37.8332 62.6183 37.7009 61.9569 37.5998 61.2021C37.4947 60.4473 37.2496 59.529 37.055 59.1594C36.7127 58.5213 36.6854 58.5174 36.4092 59.0232C35.9656 59.8403 35.1486 64.0657 35.1058 65.7387C35.0669 67.4585 34.6817 67.7581 33.8451 66.7231ZM35.8294 64.3653C35.9034 64.1591 36.4092 63.8945 36.9539 63.7856C37.4986 63.6727 39.086 63.2136 40.4867 62.7584C42.3037 62.167 43.2998 61.9841 43.9923 62.1086C44.5215 62.2059 46.2256 62.2876 47.7819 62.2915C50.1826 62.2993 51.0269 62.1709 53.4275 61.4277C57.186 60.2683 61.3452 59.14 61.8666 59.14C62.0962 59.14 63.9754 58.3462 66.0453 57.3697C68.1152 56.397 70.508 55.3892 71.3601 55.1325C74.7996 54.0975 77.8538 52.9264 80.4412 51.6541C81.9392 50.9148 83.3204 50.3118 83.5072 50.3118C83.725 50.3118 83.7717 50.1367 83.6355 49.8293C83.5188 49.5647 83.3009 48.6426 83.1453 47.7828C82.8963 46.3743 82.9313 46.1136 83.4877 45.2343C84.0635 44.3277 84.0752 44.2071 83.6667 43.6352C83.0986 42.8415 83.1025 41.9193 83.6822 41.0595C83.9818 40.6081 84.0791 40.0868 83.9663 39.5265C83.869 39.0635 83.939 38.4137 84.1219 38.083C84.3048 37.7562 84.4254 37.0364 84.3943 36.4917C84.3592 35.9159 84.4993 35.3634 84.7289 35.1805C84.9623 34.9898 85.0635 34.5696 84.9818 34.1417C84.795 33.2001 85.3008 32.9238 86.8882 33.1106L88.1644 33.2584L86.9661 32.527C85.6237 31.7138 85.5109 31.4376 86.3163 30.9434C86.826 30.6322 86.8338 30.5699 86.4214 30.1186C86.0362 29.7062 86.0284 29.5622 86.3513 29.1848C86.6353 28.8463 87.0633 28.7685 88.0672 28.8619L89.4017 28.9864L88.2889 28.2004C87.6781 27.7647 87.1762 27.3133 87.1762 27.1927C87.1762 26.7103 87.9037 26.3134 88.7869 26.3134C89.9697 26.3134 89.9853 25.9516 88.8181 25.6092C87.6508 25.2668 87.5341 24.8271 88.4173 24.0801C88.9698 23.6093 89.0671 23.3642 88.857 22.979C88.4173 22.1736 88.5496 20.9402 89.141 20.3177C89.6196 19.8158 89.639 19.6952 89.2811 19.4072C88.9776 19.1582 88.8687 19.1543 88.8687 19.3917C88.8687 19.5707 88.5885 20.0842 88.2461 20.5395C87.6975 21.2632 87.6625 21.4655 87.9621 22.2358C88.2578 23.0101 88.2306 23.1852 87.7014 23.7299C87.2695 24.1812 87.1567 24.5431 87.2929 25.0683C87.4213 25.578 87.3085 25.9982 86.8999 26.5079C86.3591 27.1771 86.3513 27.2589 86.7871 27.7296C87.289 28.2705 87.3279 28.2316 85.7988 28.6868C85.5343 28.7685 85.4642 29.0564 85.5809 29.6167C85.6704 30.0719 85.6121 30.5077 85.4487 30.6088C85.2697 30.7139 85.223 31.173 85.328 31.7216C85.4837 32.5425 85.4331 32.6554 84.9195 32.6554C84.153 32.6554 83.9001 33.3518 84.367 34.2C84.651 34.7175 84.6588 34.9509 84.402 35.2C84.2192 35.3789 84.0713 35.9197 84.0713 36.4022C84.0713 36.8847 83.869 37.441 83.6239 37.6434C83.2854 37.9157 83.2192 38.2853 83.3515 39.153C83.4799 40.0051 83.4138 40.3864 83.0908 40.6471C82.5773 41.0673 82.5267 42.2851 82.9897 43.2733C83.2581 43.8531 83.2309 44.1682 82.834 44.9736C82.3321 46.0086 82.4138 47.9267 83.013 49.0512C83.2309 49.4597 83.1764 49.6659 82.7796 49.946C82.0948 50.4363 81.8263 50.409 81.6162 49.8293C81.519 49.5647 80.9042 48.6465 80.2545 47.7905C79.1261 46.3043 79.0639 46.1136 78.8732 43.6858C78.7059 41.5186 78.7487 41.0673 79.1495 40.6354C79.593 40.1529 79.5775 40.1062 78.8849 39.7989C77.9472 39.3825 77.671 38.5577 78.2546 37.9274C78.8693 37.266 78.8304 37.1492 77.8577 36.659C76.9317 36.1921 76.7527 35.4139 77.4375 34.8576C77.8188 34.5502 77.8033 34.4646 77.2975 34.1222C76.8928 33.8421 76.7255 33.4219 76.7255 32.6709C76.7255 31.9628 76.5815 31.5582 76.282 31.4453C76.0174 31.3481 75.8773 31.0329 75.9318 30.6594C76.0135 30.0913 76.208 30.0252 78.1379 29.8968L80.2583 29.7606L78.4219 29.1381C76.1497 28.3677 74.7295 27.3406 75.2392 26.8348C75.5194 26.5546 76.2703 26.6869 79.0522 27.504C80.9587 28.0642 82.6745 28.5195 82.8691 28.5195C83.5188 28.5195 83.2309 28.037 82.3749 27.6907C81.5462 27.3561 79.8342 25.6986 79.8342 25.2318C79.8342 25.1034 80.0249 24.8466 80.2583 24.6559C80.6085 24.3719 81.0637 24.4419 82.7329 25.0372C83.8573 25.438 84.8884 25.7609 85.0246 25.7609C85.4759 25.7609 84.9195 24.0217 84.0363 22.6755C83.5577 21.944 83.0636 20.9402 82.943 20.45C82.8224 19.9558 82.6317 19.3372 82.5189 19.0687C82.3516 18.6797 82.4644 18.5863 83.0986 18.5863C83.5305 18.5863 84.1102 18.7847 84.3826 19.0298C84.8495 19.4384 84.8923 19.4072 85.0635 18.5163C85.2347 17.6253 85.1413 17.4619 83.6706 16.104C82.8029 15.3025 82.0948 14.5243 82.0948 14.3726C82.0948 13.9212 83.9663 14.3609 86.0595 15.3025C88.0944 16.2168 88.2306 16.3452 87.717 16.8471C87.3123 17.2401 87.4952 18.3723 87.9932 18.5318C88.2306 18.6096 88.3084 18.5357 88.1839 18.3451C88.0749 18.1739 88.0672 17.7848 88.1644 17.4813C88.3862 16.8043 89.4562 16.7576 91.2459 17.3529C92.3081 17.7031 95.7437 18.275 96.9887 18.3023C97.9926 18.3256 97.0471 17.6992 94.5064 16.6526C91.028 15.2169 88.7403 13.789 87.5302 12.3027C86.5692 11.1199 86.433 10.7269 86.8844 10.4545C87.1684 10.2834 89.9775 11.5829 91.6739 12.6723C92.8178 13.4038 96.2106 14.8356 97.4829 15.1196C98.261 15.2908 98.2027 15.1974 96.7786 13.9952C93.2419 11.0031 91.4132 8.38465 91.4132 6.31864C91.4132 4.67284 92.242 5.06581 94.4597 7.75823C95.553 9.08888 97.3584 11.0421 98.475 12.1042L100.502 14.0341L99.3777 11.828C97.6307 8.39632 96.9926 5.97625 97.1521 3.41611C97.2261 2.2372 97.444 0.984369 97.6385 0.634199L97.9848 0L98.654 0.754813C99.0197 1.17502 99.3193 1.74696 99.3193 2.03488C99.3193 2.31891 99.4477 2.63017 99.6033 2.72355C99.759 2.81693 99.8835 3.32662 99.8835 3.85188C99.8835 5.15529 100.794 7.69209 102.284 10.5518C103.451 12.7929 105.288 15.3258 104.809 14.0341C103.261 9.85147 102.654 7.77379 102.28 5.34594C101.685 1.47461 101.79 -0.252901 102.58 0.389079C102.946 0.684779 103.241 1.52908 104.237 5.0697C104.471 5.90621 105.179 8.01502 105.809 9.75809C106.443 11.5051 107.272 13.8162 107.653 14.8978C108.035 15.9795 108.988 18.1155 109.77 19.6407C112.182 24.3485 112.318 24.9827 111.867 29.4999C111.233 35.8808 111.455 42.2695 112.342 43.3122C112.494 43.4951 113.272 43.7324 114.069 43.8375C116.061 44.106 122.423 46.3471 126.858 48.343C128.882 49.2496 131.768 50.3001 133.27 50.6736C136.321 51.4284 136.745 51.4012 140.834 50.1678C145.565 48.7399 149.079 48.9772 152.032 50.9226C152.713 51.374 154.316 52.1793 155.596 52.7163C156.872 53.2532 158.078 53.8174 158.273 53.9691C158.763 54.3504 158.712 54.7434 158.199 54.5488C157.891 54.436 157.821 54.5177 157.946 54.8329C158.164 55.3892 158.276 55.3931 155.463 54.6967C151.958 53.829 151.806 53.8213 146.624 54.3076C137.873 55.1286 135.348 55.2492 128.78 55.1519C125.201 55.1013 120.808 55.1441 119.018 55.2531C116.17 55.4243 115.544 55.5527 113.968 56.3153C112.98 56.7899 111.295 57.8832 110.229 58.7431C108.256 60.3383 106.471 61.1359 103.735 61.6456C101.413 62.0814 94.6387 62.7273 92.4404 62.7273C89.7519 62.7234 84.3592 61.8129 81.8964 60.9453C79.7292 60.1827 78.6048 60.0815 77.3792 60.5445C76.9434 60.7118 75.1225 60.8791 73.3366 60.9219C71.0722 60.9725 69.3641 61.1826 67.6911 61.6145C65.8196 62.1009 64.5863 62.2293 62.1117 62.2059C59.1158 62.1748 53.766 62.8284 50.8868 63.5755C48.1983 64.2719 47.1905 64.3809 41.5995 64.5598C36.6426 64.7194 35.7205 64.6882 35.8294 64.3692V64.3653ZM156.518 54.0119C155.907 53.794 155.269 53.6617 155.105 53.7201C154.946 53.7785 155.257 53.9574 155.798 54.1131C157.276 54.5449 157.798 54.471 156.518 54.0119ZM84.3359 51.5374C83.9507 51.1405 83.6122 50.9654 83.5499 51.1405C83.4916 51.3117 83.6822 51.6269 83.9702 51.8408C84.8339 52.4789 85.0596 52.2922 84.3359 51.5374ZM60.4893 38.4215C59.8667 38.3087 57.3572 38.1297 54.9099 38.0169L50.4627 37.8185L48.2021 36.161C46.961 35.2505 45.9455 34.3907 45.9455 34.2545C45.9455 34.1183 46.0817 34.0872 46.249 34.1883C47.0855 34.6941 50.3421 35.1805 52.8166 35.1688C55.8281 35.1533 56.5829 35.0599 59.7578 34.2778C62.0106 33.7215 65.2399 33.5969 66.3838 34.0249C66.7768 34.1689 67.5977 34.7331 68.2125 35.2739C68.8233 35.8147 69.905 36.4489 70.6092 36.6862C72.2472 37.2309 72.8114 37.8223 71.8776 38.0091C69.8544 38.4176 62.0456 38.6978 60.4893 38.4215ZM116.548 28.8152L115.84 28.6167L116.828 28.0176C117.408 27.6674 118.287 27.4145 118.948 27.4145C120.559 27.4067 124.248 26.22 123.855 25.8387C123.687 25.6714 123.306 24.6248 123.006 23.512C122.559 21.8312 122.275 21.3137 121.341 20.4811C120.723 19.9286 120.217 19.3372 120.217 19.166C120.217 18.7069 121.94 17.7614 122.777 17.7614C123.543 17.7614 125.146 18.773 125.901 19.7419C126.185 20.1076 126.531 20.2632 126.819 20.1582C127.387 19.9442 127.399 19.4072 126.862 18.1505C126.454 17.1973 126.465 17.1662 127.411 16.1584C128.648 14.8511 129.018 15.0457 130.52 17.8198C131.632 19.8819 131.636 19.9014 131.27 21.3021C130.85 22.9051 131.064 24.3524 131.753 24.5586C132.01 24.6326 132.644 24.8777 133.157 25.0956C133.99 25.4496 134.41 25.4419 136.749 25.0333C139.468 24.5586 141.083 24.6948 141.328 25.4185C141.507 25.9438 140.099 26.3406 137.161 26.5974C135.687 26.7258 133.336 27.0993 131.936 27.4262C130.422 27.7763 127.683 28.1148 125.158 28.2588C122.831 28.3911 120.287 28.6206 119.512 28.7685C117.871 29.0797 117.505 29.0875 116.548 28.8152Z" fill="#213E7B"/>
</svg>
