<svg width="960" height="560" fill="none" xmlns="http://www.w3.org/2000/svg"><g clip-path="url(#a)"><path d="M750.9 30.3C643 1.2 526.1 50.8 473.6 146.7c-9.1 16.5-18.3 28-20 24.5-4.6-7.4 5.1-54.2 14.8-70.2 6.3-10.3 4.6-13.7-15.4-30.8-31.4-26.8-77.6-43.4-128.9-46.8C179.2 14.3 62.2 127.8 62.2 276.8c0 87.3 43.4 149.5 125.5 179.7 43.9 16.5 135.8 10.3 183.7-11.4 44.5-20 83.9-55.9 109.5-100.4 20.5-33.7 20.5-33.7 20.5-13.1 0 12-4.6 32-9.7 45.1-9.7 24-9.7 24 14.8 45.6 35.9 32 88.4 46.8 154.1 43.9 43.9-2.3 55.9-5.1 93-23.4 51.4-25.7 89.6-63.9 113-114.7C930 193.5 879.8 64.5 750.9 30.3ZM421.7 299c-17.1 39.4-58.8 79.9-95.9 94.1-31.4 11.4-72.5 14.3-94.1 6.3-64.5-24.5-92.4-63.3-91.9-128.9.6-74.7 36.5-136.9 97-166 79.3-38.8 175.7-2.9 196.3 72.5 9.1 33 4 87.8-11.4 122Zm375.4 5.7c-16.5 33.7-47.9 66.8-78.7 82.2-30.2 15.4-90.7 20-117 9.7-32-12.6-47.9-25.1-64.5-50.8-14.3-21.7-15.4-28-15.4-78.2 0-63.3 11.4-94.7 49.6-132.9 77-77 212.2-54.2 238.5 39.4 10.3 35.9 4 97-12.5 130.6Z" fill="url(#b)"/><path d="M334.598 533.007c0 1.904-.392 3.808-1.176 5.712-.728 1.904-2.072 3.612-4.032 5.124-1.904 1.512-4.508 2.744-7.812 3.696-3.248.952-7.42 1.428-12.516 1.428-3.696 0-6.748-.252-9.156-.756-2.408-.504-4.34-1.204-5.796-2.1-1.4-.896-2.38-1.932-2.94-3.108a8.68 8.68 0 0 1-.84-3.78c0-1.344.252-2.52.756-3.528a8.352 8.352 0 0 1 2.016-2.604c.896-.728 1.932-1.344 3.108-1.848a33.314 33.314 0 0 1 3.78-1.176v-.588c-1.624-.336-2.856-1.064-3.696-2.184-.84-1.176-1.26-2.576-1.26-4.2 0-1.232.252-2.324.756-3.276a8.885 8.885 0 0 1 2.184-2.604 10.17 10.17 0 0 1 3.108-1.848 20.925 20.925 0 0 1 3.612-1.176l.084-.588c-2.072-1.064-3.668-2.52-4.788-4.368-1.064-1.848-1.596-4.06-1.596-6.636 0-2.016.392-4.004 1.176-5.964.784-2.016 2.016-3.808 3.696-5.376 1.68-1.568 3.808-2.828 6.384-3.78 2.576-.952 5.684-1.428 9.324-1.428 1.456 0 2.8.112 4.032.336 1.232.168 2.408.42 3.528.756l.42-1.932c.448-2.296 1.288-3.948 2.52-4.956 1.232-1.064 2.856-1.596 4.872-1.596h6.636l-1.848 9.072h-8.988l-.252 1.092c1.736 1.12 3.052 2.548 3.948 4.284.952 1.68 1.428 3.696 1.428 6.048 0 2.016-.392 4.032-1.176 6.048-.784 1.96-2.016 3.724-3.696 5.292-1.68 1.568-3.836 2.828-6.468 3.78-2.576.952-5.656 1.428-9.24 1.428-2.632 0-4.9-.28-6.804-.84-.952.392-1.736.952-2.352 1.68-.56.728-.84 1.54-.84 2.436 0 1.848 1.484 2.772 4.452 2.772h10.836c9.744 0 14.616 3.752 14.616 11.256Zm-11.76 2.52c0-1.176-.42-2.072-1.26-2.688-.84-.616-2.408-.924-4.704-.924h-14.532c-.84.616-1.428 1.344-1.764 2.184-.336.896-.504 1.708-.504 2.436 0 1.344.56 2.408 1.68 3.192 1.12.784 3.08 1.176 5.88 1.176h5.46c3.696 0 6.244-.532 7.644-1.596 1.4-1.064 2.1-2.324 2.1-3.78Zm-7.14-27.888c2.352 0 4.172-.504 5.46-1.512 1.288-1.064 2.128-2.576 2.52-4.536.168-.84.252-1.456.252-1.848.056-.392.084-.7.084-.924 0-3.136-2.044-4.704-6.132-4.704-2.352 0-4.172.532-5.46 1.596-1.288 1.008-2.128 2.492-2.52 4.452-.168.84-.28 1.456-.336 1.848v.924c0 3.136 2.044 4.704 6.132 4.704Zm23.281 23.52 8.82-44.1h11.76l-2.184 11.004h.588c.448-1.176 1.064-2.408 1.848-3.696a20.292 20.292 0 0 1 2.856-3.612 14.671 14.671 0 0 1 3.78-2.604 10.373 10.373 0 0 1 4.704-1.092h2.1l-2.352 11.424h-2.94c-3.752 0-6.608.7-8.568 2.1-1.96 1.344-3.304 3.808-4.032 7.392l-4.62 23.184h-11.76Zm52.724 1.008c-6.272 0-10.948-1.68-14.028-5.04-3.08-3.416-4.62-8.064-4.62-13.944 0-3.528.56-6.916 1.68-10.164 1.12-3.304 2.716-6.188 4.788-8.652 2.072-2.52 4.592-4.536 7.56-6.048 2.968-1.512 6.272-2.268 9.912-2.268 1.68 0 3.444.196 5.292.588 1.848.392 3.528 1.064 5.04 2.016 1.568.896 2.856 2.128 3.864 3.696 1.064 1.568 1.596 3.556 1.596 5.964 0 2.296-.532 4.368-1.596 6.216-1.064 1.792-2.716 3.36-4.956 4.704-2.24 1.288-5.124 2.324-8.652 3.108-3.528.728-7.756 1.176-12.684 1.344-.112.504-.168.896-.168 1.176v.756c0 2.128.56 3.836 1.68 5.124 1.176 1.288 3.22 1.932 6.132 1.932 1.904 0 3.668-.392 5.292-1.176 1.68-.84 3.5-2.492 5.46-4.956l7.224 5.712c-2.744 3.64-5.628 6.216-8.652 7.728-2.968 1.456-6.356 2.184-10.164 2.184Zm4.62-37.128c-2.52 0-4.676.84-6.468 2.52-1.736 1.624-2.856 3.864-3.36 6.72l-.336 1.932c3.136-.168 5.684-.448 7.644-.84 2.016-.392 3.584-.868 4.704-1.428 1.12-.616 1.876-1.288 2.268-2.016.392-.728.588-1.54.588-2.436 0-.952-.168-1.708-.504-2.268-.336-.616-.756-1.064-1.26-1.344a4.42 4.42 0 0 0-1.68-.672 8.147 8.147 0 0 0-1.596-.168Zm38.611 37.128c-6.272 0-10.948-1.68-14.028-5.04-3.08-3.416-4.62-8.064-4.62-13.944 0-3.528.56-6.916 1.68-10.164 1.12-3.304 2.716-6.188 4.788-8.652 2.072-2.52 4.592-4.536 7.56-6.048 2.968-1.512 6.272-2.268 9.912-2.268 1.68 0 3.444.196 5.292.588 1.848.392 3.528 1.064 5.04 2.016 1.568.896 2.856 2.128 3.864 3.696 1.064 1.568 1.596 3.556 1.596 5.964 0 2.296-.532 4.368-1.596 6.216-1.064 1.792-2.716 3.36-4.956 4.704-2.24 1.288-5.124 2.324-8.652 3.108-3.528.728-7.756 1.176-12.684 1.344-.112.504-.168.896-.168 1.176v.756c0 2.128.56 3.836 1.68 5.124 1.176 1.288 3.22 1.932 6.132 1.932 1.904 0 3.668-.392 5.292-1.176 1.68-.84 3.5-2.492 5.46-4.956l7.224 5.712c-2.744 3.64-5.628 6.216-8.652 7.728-2.968 1.456-6.356 2.184-10.164 2.184Zm4.62-37.128c-2.52 0-4.676.84-6.468 2.52-1.736 1.624-2.856 3.864-3.36 6.72l-.336 1.932c3.136-.168 5.684-.448 7.644-.84 2.016-.392 3.584-.868 4.704-1.428 1.12-.616 1.876-1.288 2.268-2.016.392-.728.588-1.54.588-2.436 0-.952-.168-1.708-.504-2.268-.336-.616-.756-1.064-1.26-1.344a4.42 4.42 0 0 0-1.68-.672 8.147 8.147 0 0 0-1.596-.168Zm18.534 36.12 8.82-44.1h11.76l-2.016 10.248h.504c1.68-3.528 3.668-6.272 5.964-8.232 2.296-2.016 5.18-3.024 8.652-3.024 3.416 0 6.02 1.008 7.812 3.024 1.848 1.96 2.772 4.76 2.772 8.4 0 1.064-.084 2.1-.252 3.108-.112.952-.28 1.988-.504 3.108l-3.612 18.06h4.452l-1.848 9.408h-7.644c-2.24 0-3.976-.56-5.208-1.68-1.232-1.176-1.848-2.744-1.848-4.704 0-.504.028-.952.084-1.344.056-.448.112-.784.168-1.008l3.444-17.472c.168-.784.308-1.54.42-2.268.112-.784.168-1.596.168-2.436 0-1.288-.336-2.324-1.008-3.108-.672-.84-1.82-1.26-3.444-1.26-1.456 0-2.772.392-3.948 1.176a15.37 15.37 0 0 0-3.192 2.856 19.29 19.29 0 0 0-2.604 3.948c-.728 1.4-1.26 2.94-1.596 4.62l-4.536 22.68h-11.76Z" fill="#80C169"/><path d="M521.583 531.159c-6.888 0-10.332-2.772-10.332-8.316 0-.448.028-1.008.084-1.68.056-.672.14-1.316.252-1.932l4.536-22.764h-6.216l1.848-9.408h3.024c1.792 0 2.996-.364 3.612-1.092.616-.728 1.064-1.848 1.344-3.36l1.512-7.476h10.92l-2.352 11.928h8.82l-1.932 9.408h-8.82l-5.04 25.284h7.98l-1.848 9.408h-7.392Zm35.085 1.008c-6.272 0-10.948-1.68-14.028-5.04-3.08-3.416-4.62-8.064-4.62-13.944 0-3.528.56-6.916 1.68-10.164 1.12-3.304 2.716-6.188 4.788-8.652 2.072-2.52 4.592-4.536 7.56-6.048 2.968-1.512 6.272-2.268 9.912-2.268 1.68 0 3.444.196 5.292.588 1.848.392 3.528 1.064 5.04 2.016 1.568.896 2.856 2.128 3.864 3.696 1.064 1.568 1.596 3.556 1.596 5.964 0 2.296-.532 4.368-1.596 6.216-1.064 1.792-2.716 3.36-4.956 4.704-2.24 1.288-5.124 2.324-8.652 3.108-3.528.728-7.756 1.176-12.684 1.344-.112.504-.168.896-.168 1.176v.756c0 2.128.56 3.836 1.68 5.124 1.176 1.288 3.22 1.932 6.132 1.932 1.904 0 3.668-.392 5.292-1.176 1.68-.84 3.5-2.492 5.46-4.956l7.224 5.712c-2.744 3.64-5.628 6.216-8.652 7.728-2.968 1.456-6.356 2.184-10.164 2.184Zm4.62-37.128c-2.52 0-4.676.84-6.468 2.52-1.736 1.624-2.856 3.864-3.36 6.72l-.336 1.932c3.136-.168 5.684-.448 7.644-.84 2.016-.392 3.584-.868 4.704-1.428 1.12-.616 1.876-1.288 2.268-2.016.392-.728.588-1.54.588-2.436 0-.952-.168-1.708-.504-2.268-.336-.616-.756-1.064-1.26-1.344a4.42 4.42 0 0 0-1.68-.672 8.147 8.147 0 0 0-1.596-.168Zm37.266 37.128c-2.408 0-4.676-.336-6.804-1.008a14.877 14.877 0 0 1-5.46-3.36c-1.568-1.568-2.8-3.556-3.696-5.964-.896-2.408-1.344-5.32-1.344-8.736 0-3.92.588-7.532 1.764-10.836 1.176-3.304 2.8-6.16 4.872-8.568 2.128-2.408 4.62-4.284 7.476-5.628 2.856-1.344 5.964-2.016 9.324-2.016 2.072 0 4.004.28 5.796.84 1.848.504 3.444 1.26 4.788 2.268a13.187 13.187 0 0 1 3.444 3.612c.896 1.4 1.484 2.968 1.764 4.704l-9.912 3.78c-.504-1.736-1.204-3.108-2.1-4.116-.84-1.064-2.324-1.596-4.452-1.596-4.872 0-7.924 3.08-9.156 9.24l-1.512 7.476c-.28 1.288-.42 2.464-.42 3.528 0 2.072.504 3.752 1.512 5.04 1.064 1.232 2.772 1.848 5.124 1.848 1.12 0 2.1-.168 2.94-.504a6.425 6.425 0 0 0 2.184-1.428 11.888 11.888 0 0 0 1.848-2.184c.56-.84 1.148-1.792 1.764-2.856l8.988 4.2c-1.96 4.088-4.536 7.168-7.728 9.24-3.136 2.016-6.804 3.024-11.004 3.024Zm35.208-63.168h11.76l-5.628 28.308h.504c1.68-3.528 3.668-6.272 5.964-8.232 2.296-2.016 5.18-3.024 8.652-3.024 3.416 0 6.02 1.008 7.812 3.024 1.848 1.96 2.772 4.76 2.772 8.4 0 1.064-.084 2.1-.252 3.108-.112.952-.28 1.988-.504 3.108l-3.612 18.06h4.452l-1.848 9.408h-7.644c-2.24 0-3.976-.56-5.208-1.68-1.232-1.176-1.848-2.744-1.848-4.704 0-.504.028-.952.084-1.344.056-.448.112-.784.168-1.008l3.444-17.472c.168-.784.308-1.54.42-2.268.112-.784.168-1.596.168-2.436 0-1.288-.336-2.324-1.008-3.108-.672-.84-1.82-1.26-3.444-1.26-1.456 0-2.772.392-3.948 1.176a15.37 15.37 0 0 0-3.192 2.856 19.29 19.29 0 0 0-2.604 3.948c-.728 1.4-1.26 2.94-1.596 4.62l-4.536 22.68h-11.76l12.432-62.16ZM524.9 83.1S499 101 489 146c-21.9 98.6-113 227-153 235-84 16.8-80-59-80-59s.5-53.5 49.5-25.5c0 0 4 7 13 11s19 15 19 15 1 5 6 0-11-26-11-26 9-9-2-22-34-4-34-4-32-3-44 13-17 57-14 70c0 0-29-36-29-7s-29-11-29-11-26-43-26-80 18-80.7 14.5-91.8c-3.5-11.2-14.5 6.8-14.5 6.8s-10-14-18-1-7 27-7 27 1-21-7-14c-4 3.5-4 19-3 33.6.3 3.7.6 7.3.9 10.6.6 6.3 1.6 11.3 1.6 17.3-1-6-9-39-16-33-12 13 5 38 7 56-3-7-11-25-21-23-10 1 1 48 10 60-5-1-20-17-20 1 0 12 19 37 36.1 47.4 2.8 1.6 5.7 2.9 8.9 3.9 3.1.9 6.5 1.5 10 1.7-2 7 2 11 7 15 10 8 24 10 30 22-7-1-15-4-21 1-4 4 1 11 6.4 13.1 3.1.9 6.1.4 6.1.4s-5-1-6 7 14 12 14 12-11.5 8.8-2 19c13 14 61.5 34 164.5 9.5 42-10 79-47 107-96C508.3 246.8 550.6 90.9 684.3 89c178.2-2.5 35.3-65.3 35.3-65.3s-107.4-16-194.7 59.4Z" fill="#203D7A"/><path d="M209 324s-1.9-.6-4-2.1c-11-8.9-24-18.9-26-34.9-1-8 8-21 15-15 11 10 9 28 12.9 42.2 1 6 2.1 9.8 2.1 9.8ZM111 200c-4.3-24-6.8-50.2 8.3-71.2 3.8-5.5 8.9-12.9 16.7-10.8 1.8 1.3 2.4 4.4 3 6.5.7 3.1-22 24.5-27 62.7-1.7 7.5-1 12.8-1 12.8ZM148.7 419.7c-18.1-16.4-21.5-18.6-33.3-40-2.1-3.7-8.5-1.7-8.5 7.4 7.3 15.4 14 16.9 25.4 23.9 9.2 5.7 16.4 8.7 16.4 8.7Z" fill="#8698CF"/></g><defs><linearGradient id="b" x1="245.076" y1="522.11" x2="709.186" y2="-30.995" gradientUnits="userSpaceOnUse"><stop offset=".65" stop-color="#D7D1CD"/><stop offset=".911" stop-color="#203D7A"/></linearGradient><clipPath id="a"><path fill="#fff" d="M0 0h960v560H0z"/></clipPath></defs></svg>