<svg width="155" height="92" fill="none" xmlns="http://www.w3.org/2000/svg">
<path d="M19.933.608C14.07.848 9.674 1.569 7.232 2.53c-1.71.72-4.152 2.884-5.13 4.567C.393 9.983-.34 13.83.15 16.954a13.38 13.38 0 0 0 3.02 6.043 13.682 13.682 0 0 0 5.617 3.846 13.884 13.884 0 0 0 6.807.688 13.793 13.793 0 0 0 6.294-2.644c2.93-2.404 7.083-10.337 10.747-20.193.977-2.644.977-3.606.488-3.846-.488-.24-10.99-.48-13.19-.24Zm60.818 0c-6.106.72-11.724 4.327-15.388 9.375l-49.582 79.81c-.245.722-.245.722.244 1.203.488.48.733.48 7.572.48 6.106-.24 6.839-.24 9.037-.72 5.618-1.443 10.014-4.808 13.19-9.616 3.663-5.29 49.338-79.09 49.582-79.57l-.488-.722c-.244-.48-.977-.48-6.35-.48l-7.817.24Zm59.353 0c-5.373.72-10.258 3.125-13.922 6.971l-26.38 41.829-25.157 40.626c-.244 1.443.244 1.443 6.106 1.443l7.816-.24c6.84-.722 12.701-4.328 16.365-9.857 4.641-7.212 49.339-79.09 49.339-79.57.244-1.443-.244-1.443-6.839-1.443l-7.572.24h.244Z" fill="#000"/>
</svg>