<svg width="15" height="14" fill="none" xmlns="http://www.w3.org/2000/svg">
  <path fill-rule="evenodd" clip-rule="evenodd" d="M1.902 3.585h-.02C.894 3.585.254 2.94.254 2.12c0-.835.66-1.468 1.667-1.468 1.006 0 1.625.631 1.645 1.466 0 .819-.639 1.467-1.664 1.467Zm12.352 9.511H11.16V8.722c0-1.145-.484-1.927-1.548-1.927-.815 0-1.267.527-1.478 1.036-.07.16-.068.377-.067.6v4.665H5.002s.04-7.749 0-8.453h3.065v1.326c.181-.58 1.161-1.408 2.724-1.408 1.94 0 3.463 1.216 3.463 3.835v4.7ZM3.336 4.643H.607v8.454h2.73V4.643Z" fill="#203D7A"/>
</svg>
