<svg width="96" height="50" viewBox="0 0 96 50" fill="none" xmlns="http://www.w3.org/2000/svg">
<path d="M27.6444 49.6929C27.5507 49.5197 27.4735 48.361 27.4735 47.1156C27.4735 45.8727 27.3962 44.714 27.3026 44.5431C27.1949 44.3465 27.1926 44.1943 27.2933 44.1335C27.6327 43.9298 27.8574 44.838 27.9932 46.9354C28.0704 48.1292 28.1828 49.2645 28.2413 49.4588C28.3864 49.9316 27.8831 50.1283 27.6444 49.6929ZM25.121 49.4354C24.9337 49.2036 24.7394 49.0796 24.6903 49.1568C24.496 49.4635 23.562 49.1521 23.2811 48.6887C22.9698 48.176 22.4852 48.0286 21.1042 48.0286C20.6173 48.0286 19.6318 47.9817 18.9179 47.9209C17.9043 47.839 17.6562 47.7687 17.7943 47.6072C17.9066 47.4761 18.2109 47.4293 18.6206 47.4832L19.269 47.5698L19.2503 46.1981C19.2386 45.2641 19.2971 44.8029 19.4352 44.7561C19.578 44.7093 19.6552 45.0089 19.6927 45.7369C19.7418 46.7201 19.7582 46.7575 19.9525 46.3245C20.0672 46.0693 20.1983 45.669 20.2404 45.4326C20.2849 45.1939 20.3715 44.9551 20.4347 44.8966C20.5517 44.7889 20.4277 46.2121 20.2357 47.1578C20.1538 47.5744 20.1866 47.6962 20.3832 47.6962C20.5377 47.6962 20.6805 47.4785 20.7437 47.1461C20.8022 46.8418 20.9684 46.4485 21.1112 46.273C21.3523 45.9757 21.364 45.9991 21.2774 46.6194C21.1604 47.427 21.3265 47.7055 21.9609 47.7734C22.923 47.8764 22.9417 47.8179 22.6257 45.8305C22.5765 45.5239 22.628 45.3741 22.7802 45.3741C22.9323 45.3741 23.0424 45.7018 23.1126 46.3689C23.2296 47.4668 23.6159 48.5272 23.8991 48.5272C24.0232 48.5272 24.0466 48.0356 23.9693 46.9752C23.8429 45.2126 23.9717 44.0679 24.3462 43.6115C24.5826 43.3236 24.5943 43.3633 24.5007 44.0796C24.4 44.8217 24.6692 47.4293 24.8799 47.7617C25.0929 48.0988 25.451 46.3572 25.5494 44.501C25.6079 43.4289 25.7109 42.5511 25.7834 42.5511C25.966 42.5511 26.172 45.5356 26.0479 46.397C25.9918 46.7926 25.8981 47.6962 25.8373 48.4054C25.7788 49.1147 25.6687 49.7327 25.5938 49.7771C25.5213 49.8216 25.3083 49.6671 25.121 49.4354ZM33.4519 49.0328C33.2459 48.7612 33.0797 48.4546 33.0797 48.3516C33.0797 48.2463 33.4519 47.3287 33.906 46.3104C34.9687 43.9275 35.2379 42.9186 35.2801 41.1419C35.2941 40.4514 35.3292 40.3648 35.4861 40.6269C35.7412 41.0577 35.5633 44.2622 35.2332 45.147C35.0905 45.5262 34.7276 46.3362 34.4257 46.9495C34.0488 47.7126 33.8779 48.2954 33.8873 48.794C33.892 49.1943 33.8803 49.522 33.8592 49.522C33.8405 49.522 33.6555 49.302 33.4519 49.0328ZM49.1446 48.9836C48.9152 48.2299 48.8778 48.1948 48.2856 48.1948C47.5131 48.1948 47.4452 48.0075 47.684 46.5024C47.9555 44.7912 48.2715 44.5923 48.1217 46.2285C47.993 47.6213 48.1872 48.0262 48.5618 47.1554C48.8403 46.5117 48.838 44.4214 48.5571 43.9088C48.3932 43.6115 48.4049 43.5483 48.6133 43.5483C49.0814 43.5483 49.4466 45.243 49.3178 46.802L49.2031 48.1713L49.6409 47.9747C50.1676 47.7406 50.2893 47.345 50.212 46.1278C50.1816 45.6222 50.2144 45.2079 50.2869 45.2079C50.4742 45.2079 50.5397 45.4701 50.6662 46.7411L50.7762 47.86L51.5486 48.1924C51.9723 48.3773 52.4639 48.5272 52.6394 48.5272C52.815 48.5272 52.9578 48.6021 52.9578 48.6933C52.9578 48.9415 51.8927 48.8923 51.2045 48.6114C50.7808 48.4382 50.5632 48.4195 50.4836 48.5435C50.4204 48.6442 50.1863 48.691 49.9639 48.6489C49.6549 48.5904 49.559 48.6465 49.559 48.883C49.559 49.2271 49.2429 49.3043 49.1446 48.9836ZM28.4309 48.7308C28.3864 48.6629 28.459 48.1971 28.5901 47.7008C28.8569 46.6943 28.8897 45.4911 28.6767 44.4144C28.5994 44.0258 28.5947 43.67 28.6673 43.6279C28.9763 43.4406 29.2221 44.7514 29.2502 46.7435C29.2783 48.8385 29.2759 48.8595 28.8944 48.8595C28.6837 48.8595 28.4754 48.801 28.4309 48.7308ZM36.8765 48.4288C36.6565 48.1035 36.4786 48.0145 36.1274 48.066C35.671 48.1316 35.6686 48.1222 35.5797 46.9612C35.5329 46.3151 35.5188 45.7627 35.5493 45.7299C35.7225 45.5497 35.9659 45.9687 35.9659 46.4532C35.9659 47.5089 36.289 47.2069 36.5816 45.875C36.7431 45.1424 36.9186 44.5431 36.9748 44.5431C37.0286 44.5431 37.0497 45.1587 37.0216 45.9125L36.9701 47.2818L37.5015 46.7271C38.1663 46.0295 38.302 46.1395 37.8479 47.0103C37.6536 47.3802 37.4968 47.949 37.4968 48.272C37.4968 48.9672 37.2744 49.0234 36.8765 48.4288ZM44.8024 48.361C44.5777 47.8319 44.3132 47.7523 43.7584 48.0426C43.501 48.176 43.2528 48.1573 42.7542 47.9607C42.052 47.6868 42.0497 47.6891 41.4832 48.4429C41.2421 48.7659 41.2257 48.7659 40.9916 48.471C40.6265 48.0098 40.5211 47.0501 40.7341 46.1208C40.8371 45.6644 41.015 44.7304 41.1274 44.0469C41.4059 42.3521 41.6353 42.8226 41.4855 44.7795C41.42 45.6292 41.4176 46.5492 41.4785 46.8254C41.5838 47.2865 41.6587 47.331 42.4757 47.4129C43.5735 47.5206 43.7327 47.3778 43.8404 46.2027C43.9434 45.0511 43.9363 45.0768 44.1096 45.3741C44.1892 45.5099 44.3085 46.0225 44.3764 46.5117C44.4911 47.3404 45.0155 48.1994 45.2144 47.8834C45.2612 47.8085 45.2846 47.0103 45.2659 46.1044C45.2355 44.5595 45.4743 43.3821 45.816 43.3821C45.8862 43.3821 45.9541 44.0937 45.9705 44.9668C45.9845 45.8376 46.1016 46.8418 46.2257 47.1976L46.455 47.846L45.9799 47.7523C45.5421 47.6681 45.4953 47.7102 45.39 48.2603C45.2495 48.9906 45.081 49.0187 44.8024 48.361ZM39.2875 48.1526C38.4121 45.4162 37.9696 44.4144 37.1972 43.4242C36.9654 43.1269 36.8484 42.8835 36.935 42.8835C37.1738 42.8835 37.9064 43.6887 38.5736 44.6859L39.1681 45.5754L39.2735 44.7702C39.5029 43.0146 40.6335 39.8966 41.0384 39.8966C41.3451 39.8966 41.3498 40.1073 41.0618 40.6925C40.8956 41.0319 40.5492 41.9799 40.2894 42.8016C39.8306 44.2669 39.8259 44.3278 40.0249 46.0974C40.177 47.4621 40.1794 47.9537 40.0295 48.1292C39.7861 48.4171 39.3765 48.4312 39.2875 48.1526ZM32.2183 47.4902C32.1551 46.3643 32.1036 45.8048 31.9842 44.9176C31.8859 44.1756 31.8999 43.8807 32.0381 43.8807C32.1434 43.8807 32.23 44.0469 32.2347 44.2528C32.237 44.4588 32.3892 44.9247 32.5741 45.2898L32.9112 45.9546L32.8246 44.295C32.7777 43.3821 32.7028 42.0385 32.6584 41.3081L32.5788 39.9785L32.8152 41.1419C32.9463 41.781 33.178 42.64 33.3302 43.0497C33.4847 43.4617 33.6555 44.3043 33.7094 44.927C33.796 45.9101 33.7585 46.1489 33.4144 46.7528C33.1968 47.1344 32.9369 47.5019 32.8363 47.5698C32.5507 47.7594 32.23 47.7172 32.2183 47.4902ZM23.0587 40.5333C22.5719 39.7632 22.6631 39.3278 23.3233 39.2646C24.0583 39.1944 24.3532 39.5689 24.077 40.222C23.7118 41.0811 23.4543 41.1606 23.0587 40.5333ZM20.3621 40.1424C19.9033 39.5689 19.7559 38.5179 19.8987 36.8091C19.9619 36.0296 19.9478 35.414 19.8635 35.414C19.6903 35.414 19.1519 36.5469 18.6206 38.0357C18.3514 38.7871 18.1711 39.068 17.9792 39.0305C17.4806 38.9369 17.2582 38.2206 17.3285 36.9495C17.3659 36.2894 17.3378 35.7464 17.2653 35.7464C17.1927 35.7464 16.6777 36.2426 16.1159 36.8489C15.4113 37.6143 15.0157 37.921 14.8285 37.8508C14.4376 37.7033 14.4984 37.2094 14.9923 36.4978C15.4699 35.8119 15.4511 35.6153 14.9385 35.9266C14.7536 36.039 14.4703 36.0811 14.3088 36.0203C14.0162 35.9102 14.0186 35.7206 14.3112 35.0231C14.4188 34.7632 14.3837 34.7305 14.0864 34.8218C13.6089 34.9716 13.3046 34.4051 13.417 33.5858C13.4919 33.0404 13.4638 32.9749 13.1806 33.0474C12.6562 33.1832 12.3285 32.7923 12.4479 32.172C12.5322 31.7366 12.49 31.6102 12.2396 31.5329C11.7878 31.3925 11.4765 30.826 11.4203 30.0395C11.3805 29.4473 11.2798 29.2951 10.6665 28.8855C10.278 28.6257 9.65999 28.0147 9.29015 27.5278C8.1057 25.9618 7.69606 25.8542 5.50507 26.5377C4.04909 26.9918 3.85481 27.0222 3.85481 26.7975C3.85481 26.7132 4.23636 26.5213 4.70218 26.3691C5.17034 26.2193 5.60105 26.0157 5.66191 25.9174C5.78597 25.7231 5.54955 25.7629 4.02569 26.1865C2.8272 26.5213 0.640887 26.5377 0.193794 26.2146C-0.220528 25.9174 -0.0402862 25.8471 1.42271 25.7348C2.242 25.6739 2.69377 25.5241 3.46155 25.063C4.00462 24.7376 4.83326 24.3724 5.29908 24.2554C5.76724 24.136 6.49289 23.8387 6.91423 23.5953C8.26254 22.8134 9.57104 22.2961 11.24 21.8935C12.1366 21.6758 13.1923 21.3177 13.5855 21.093C15.402 20.0653 16.6496 19.4778 17.7241 19.1454C18.8734 18.7896 21.6168 18.4572 23.6814 18.4198L24.7324 18.4034L26.4974 20.063C27.4688 20.9759 28.7188 22.1065 29.2759 22.5747C29.8354 23.0428 30.547 23.7545 30.8606 24.1524C31.172 24.5503 31.7618 25.1215 32.1691 25.4211C32.5764 25.7207 32.9088 26.0742 32.9088 26.2076C32.9088 26.3434 32.8761 26.4534 32.8386 26.4534C32.5086 26.4534 30.4252 25.3673 29.9103 24.9272C29.5498 24.6205 29.1027 24.2577 28.9154 24.1243C28.5924 23.8926 28.5877 23.8972 28.8218 24.2109C28.9576 24.3935 29.2759 24.768 29.5311 25.0419C30.3035 25.8729 32.0568 28.3354 32.1691 28.7474C32.4734 29.885 31.2258 29.2062 28.9435 26.9941L27.4407 25.5405L28.3841 27.3944C29.0348 28.6678 29.3859 29.5948 29.5123 30.3602C29.6106 30.9735 29.6621 31.5048 29.6223 31.5423C29.4281 31.7342 28.4824 30.6458 27.7263 29.363C27.0007 28.1294 26.8696 27.9843 26.8228 28.3541C26.7385 29.0213 27.1177 31.1373 27.3939 31.5493C27.8574 32.2399 27.5788 32.3007 26.8181 31.6757C26.0573 31.0507 25.6266 30.0161 25.2614 27.9351C25.0789 26.9052 24.8658 25.9993 24.7863 25.9197C24.5779 25.7184 24.1893 25.8986 23.9155 26.327C23.5386 26.9169 23.4637 29.5901 23.7961 30.5826C24.1449 31.6242 24.1449 31.8677 23.7914 31.9988C23.4052 32.1439 22.6912 31.4463 22.1856 30.4328C21.9281 29.9154 21.6683 29.6158 21.474 29.6111C21.0667 29.6041 20.3364 28.8714 20.3364 28.4712C20.3364 28.2558 20.1819 28.1224 19.8589 28.0592C19.5756 28.0053 19.3041 27.8017 19.1941 27.5653C19.0747 27.3125 18.8078 27.1252 18.4755 27.0597C18.1267 26.9918 17.8434 26.7834 17.6538 26.4557C17.4432 26.0953 17.2348 25.9571 16.9071 25.9548C16.4109 25.9548 15.917 25.5733 15.917 25.1894C15.917 25.0091 15.8397 24.9881 15.6197 25.1004C15.4582 25.1847 14.674 25.2596 13.8781 25.2666C12.7779 25.2736 12.1623 25.1823 11.2869 24.8827C10.2218 24.5199 10.0743 24.5082 9.27376 24.7142C8.03548 25.0325 8.0425 25.1449 9.29951 25.1004C10.093 25.0723 10.6689 25.1613 11.3805 25.4234C11.9212 25.6248 12.7381 25.7886 13.1969 25.7886C14.3744 25.7886 15.6548 26.0859 16.1019 26.4628C16.3102 26.6407 16.6098 26.7834 16.7667 26.7834C16.9258 26.7834 17.1857 26.9262 17.3472 27.1018C17.5087 27.275 17.8692 27.5091 18.1477 27.6215C18.424 27.7338 18.7634 28.0358 18.8968 28.2886C19.0326 28.5437 19.2901 28.7989 19.4726 28.8551C19.6529 28.9112 19.9572 29.2155 20.1491 29.5339C20.3411 29.8522 20.6594 30.1706 20.8584 30.2408C21.055 30.3134 21.4576 30.8096 21.7526 31.3457C22.4127 32.5465 23.2975 33.0966 24.0372 32.7665C24.4351 32.591 24.5264 32.6097 24.7886 32.9281C24.9525 33.127 25.1655 33.5999 25.2591 33.9791C25.3551 34.3583 25.54 35.0231 25.6711 35.4561C25.8022 35.8892 25.8443 36.2848 25.7624 36.3339C25.6828 36.3831 25.3083 36.149 24.929 35.8166L24.2432 35.2103L24.3275 37.2656L23.5901 37.5137C23.1828 37.6494 22.8247 37.7361 22.7919 37.7056C22.7615 37.6729 22.6819 37.2749 22.621 36.8208C22.5578 36.3667 22.4103 35.8143 22.2933 35.5919C22.0873 35.208 22.0709 35.2057 21.9047 35.51C21.6379 36.0015 21.1463 38.5436 21.1206 39.5502C21.0972 40.5848 20.8654 40.7651 20.3621 40.1424ZM21.5559 38.7239C21.6004 38.5998 21.9047 38.4406 22.2324 38.3751C22.5602 38.3072 23.5152 38.031 24.3579 37.7571C25.451 37.4013 26.0503 37.2913 26.4669 37.3662C26.7853 37.4247 27.8106 37.4739 28.7469 37.4762C30.1912 37.4809 30.6991 37.4037 32.1434 36.9566C34.4046 36.259 36.9069 35.5802 37.2206 35.5802C37.3587 35.5802 38.4893 35.1027 39.7346 34.5151C40.9799 33.9299 42.4195 33.3236 42.9321 33.1692C45.0014 32.5465 46.8389 31.8419 48.3956 31.0765C49.2968 30.6317 50.1278 30.2689 50.2401 30.2689C50.3712 30.2689 50.3993 30.1636 50.3174 29.9786C50.2471 29.8195 50.1161 29.2647 50.0224 28.7474C49.8726 27.9 49.8937 27.7432 50.2284 27.2142C50.5749 26.6687 50.5819 26.5962 50.3361 26.2521C49.9943 25.7746 49.9967 25.2198 50.3455 24.7025C50.5257 24.4309 50.5842 24.1173 50.5163 23.7802C50.4578 23.5016 50.5 23.1107 50.61 22.9118C50.72 22.7151 50.7926 22.2821 50.7738 21.9544C50.7528 21.6079 50.837 21.2755 50.9751 21.1655C51.1156 21.0508 51.1764 20.798 51.1273 20.5405C51.0149 19.9741 51.3192 19.8079 52.2743 19.9202L53.0421 20.0092L52.3211 19.5691C51.5135 19.0799 51.4456 18.9137 51.9302 18.6164C52.2368 18.4291 52.2415 18.3917 51.9934 18.1201C51.7616 17.872 51.757 17.7854 51.9513 17.5584C52.1221 17.3547 52.3796 17.3079 52.9835 17.3641L53.7864 17.439L53.117 16.9661C52.7495 16.704 52.4475 16.4324 52.4475 16.3599C52.4475 16.0696 52.8852 15.8308 53.4166 15.8308C54.1282 15.8308 54.1376 15.6131 53.4353 15.4072C52.7331 15.2012 52.6629 14.9367 53.1942 14.4872C53.5266 14.204 53.5851 14.0565 53.4587 13.8248C53.1942 13.3402 53.2738 12.5982 53.6296 12.2237C53.9175 11.9217 53.9292 11.8491 53.7139 11.6759C53.5313 11.5261 53.4657 11.5238 53.4657 11.6666C53.4657 11.7742 53.2972 12.0832 53.0912 12.3571C52.7612 12.7925 52.7401 12.9142 52.9203 13.3777C53.0982 13.8435 53.0819 13.9488 52.7635 14.2765C52.5037 14.5481 52.4358 14.7658 52.5177 15.0818C52.595 15.3884 52.5271 15.6412 52.2813 15.9479C51.9559 16.3505 51.9513 16.3997 52.2134 16.6829C52.5154 17.0083 52.5388 16.9849 51.6189 17.2587C51.4597 17.3079 51.4175 17.4811 51.4878 17.8182C51.5416 18.0921 51.5065 18.3542 51.4082 18.4151C51.3005 18.4783 51.2724 18.7545 51.3356 19.0846C51.4293 19.5785 51.3988 19.6463 51.0898 19.6463C50.6287 19.6463 50.4765 20.0653 50.7574 20.5756C50.9283 20.887 50.933 21.0274 50.7785 21.1772C50.6685 21.2849 50.5795 21.6103 50.5795 21.9005C50.5795 22.1908 50.4578 22.5255 50.3103 22.6473C50.1067 22.8111 50.0669 23.0335 50.1465 23.5555C50.2237 24.0681 50.1839 24.2975 49.9897 24.4544C49.6807 24.7072 49.6502 25.4398 49.9288 26.0344C50.0903 26.3832 50.0739 26.5728 49.8352 27.0573C49.5332 27.68 49.5824 28.834 49.9428 29.5105C50.0739 29.7563 50.0412 29.8803 49.8024 30.0489C49.3904 30.3438 49.2289 30.3274 49.1025 29.9786C49.044 29.8195 48.6741 29.267 48.2832 28.7521C47.6044 27.8579 47.5669 27.7432 47.4522 26.2825C47.3516 24.9787 47.3773 24.7072 47.6184 24.4473C47.8853 24.1571 47.8759 24.129 47.4593 23.9441C46.8951 23.6936 46.7289 23.1973 47.08 22.8181C47.4499 22.4202 47.4265 22.35 46.8413 22.055C46.2842 21.7741 46.1765 21.306 46.5885 20.9712C46.8179 20.7863 46.8085 20.7348 46.5042 20.5288C46.2608 20.3603 46.1601 20.1075 46.1601 19.6557C46.1601 19.2297 46.0735 18.9862 45.8933 18.9184C45.7341 18.8598 45.6498 18.6702 45.6826 18.4455C45.7317 18.1038 45.8488 18.064 47.0098 17.9867L48.2856 17.9048L47.1807 17.5303C45.8137 17.0668 44.9593 16.4488 45.2659 16.1445C45.4345 15.976 45.8862 16.0556 47.5599 16.5471C48.7069 16.8842 49.7392 17.1581 49.8562 17.1581C50.2471 17.1581 50.0739 16.8678 49.559 16.6595C49.0604 16.4582 48.0304 15.461 48.0304 15.1801C48.0304 15.1029 48.1451 14.9484 48.2856 14.8337C48.4962 14.6628 48.7701 14.7049 49.7743 15.0631C50.4508 15.3042 51.0711 15.4984 51.153 15.4984C51.4246 15.4984 51.0898 14.4521 50.5585 13.6422C50.2706 13.2021 49.9733 12.5982 49.9007 12.3033C49.8281 12.006 49.7134 11.6338 49.6456 11.4723C49.5449 11.2382 49.6128 11.182 49.9943 11.182C50.2542 11.182 50.6029 11.3014 50.7668 11.4489C51.0477 11.6946 51.0734 11.6759 51.1764 11.1399C51.2794 10.6038 51.2233 10.5055 50.3384 9.68858C49.8164 9.20637 49.3904 8.73821 49.3904 8.64692C49.3904 8.37539 50.5163 8.6399 51.7757 9.20637C52.9999 9.75646 53.0819 9.83371 52.7729 10.1357C52.5294 10.3721 52.6394 11.0533 52.9391 11.1492C53.0819 11.1961 53.1287 11.1516 53.0538 11.0369C52.9882 10.9339 52.9835 10.6998 53.0421 10.5172C53.1755 10.1099 53.8192 10.0818 54.896 10.44C55.535 10.6506 57.6019 10.9947 58.351 11.0111C58.9549 11.0252 58.3861 10.6483 56.8576 10.0186C54.7649 9.15487 53.3885 8.2958 52.6605 7.40161C52.0823 6.69001 52.0004 6.45359 52.2719 6.28973C52.4428 6.18674 54.1329 6.96857 55.1535 7.62399C55.8417 8.06406 57.8828 8.92547 58.6483 9.09635C59.1164 9.19935 59.0813 9.14317 58.2246 8.41986C56.0968 6.61979 54.9966 5.04443 54.9966 3.80146C54.9966 2.8113 55.4952 3.04772 56.8295 4.66756C57.4872 5.46811 58.5734 6.64319 59.2452 7.28223L60.4647 8.44327L59.7883 7.11604C58.7372 5.05145 58.3533 3.59547 58.4493 2.05522C58.4938 1.34596 58.6249 0.592223 58.7419 0.381551L58.9502 0L59.3529 0.454116C59.5729 0.706922 59.7531 1.05102 59.7531 1.22424C59.7531 1.39512 59.8304 1.58238 59.924 1.63856C60.0177 1.69474 60.0926 2.00139 60.0926 2.31739C60.0926 3.10156 60.6403 4.62776 61.5368 6.34825C62.2391 7.69655 63.3439 9.22042 63.056 8.44327C62.1244 5.92691 61.7592 4.67692 61.5345 3.21626C61.1763 0.887164 61.2396 -0.152152 61.7147 0.23408C61.9348 0.411981 62.1127 0.919935 62.7119 3.05006C62.8524 3.55334 63.2784 4.82205 63.6576 5.87073C64.0391 6.92175 64.5377 8.31219 64.7671 8.96293C64.9965 9.61367 65.57 10.8988 66.0405 11.8164C67.4918 14.6487 67.5738 15.0303 67.3022 17.748C66.9207 21.5869 67.0541 25.4305 67.5878 26.0578C67.6791 26.1678 68.1473 26.3106 68.6271 26.3738C69.8256 26.5353 73.6528 27.8836 76.3213 29.0845C77.5385 29.6299 79.2754 30.2619 80.179 30.4866C82.0142 30.9407 82.2693 30.9243 84.7295 30.1823C87.5759 29.3232 89.6896 29.466 91.4663 30.6364C91.876 30.9079 92.8404 31.3925 93.6105 31.7155C94.3783 32.0385 95.1039 32.378 95.221 32.4693C95.5159 32.6987 95.4855 32.9351 95.1765 32.818C94.9916 32.7502 94.9494 32.7993 95.0243 32.9889C95.1554 33.3236 95.2233 33.326 93.5309 32.907C91.4218 32.385 91.3306 32.3803 88.2126 32.6729C82.9481 33.1668 81.429 33.2394 77.4777 33.1809C75.3242 33.1504 72.6814 33.1762 71.6046 33.2417C69.8912 33.3447 69.5143 33.422 68.5663 33.8808C67.9717 34.1663 66.9581 34.8241 66.3167 35.3414C65.13 36.3011 64.0555 36.781 62.41 37.0877C61.0125 37.3498 56.9372 37.7384 55.6146 37.7384C53.9971 37.7361 50.7528 37.1883 49.271 36.6663C47.9672 36.2075 47.2907 36.1467 46.5534 36.4252C46.2912 36.5259 45.1957 36.6265 44.1213 36.6523C42.7589 36.6827 41.7313 36.8091 40.7248 37.0689C39.5988 37.3615 38.8568 37.4388 37.3681 37.4247C35.5656 37.406 32.347 37.7993 30.6148 38.2487C28.9974 38.6677 28.3911 38.7332 25.0274 38.8409C22.0452 38.9369 21.4904 38.9182 21.5559 38.7262V38.7239ZM94.1653 32.495C93.7978 32.3639 93.4139 32.2843 93.3155 32.3194C93.2196 32.3546 93.4068 32.4622 93.7322 32.5559C94.6217 32.8157 94.9354 32.7712 94.1653 32.495ZM50.7387 31.0063C50.507 30.7675 50.3033 30.6622 50.2659 30.7675C50.2308 30.8705 50.3455 31.0601 50.5187 31.1888C51.0383 31.5727 51.1741 31.4604 50.7387 31.0063ZM36.3919 23.1154C36.0174 23.0475 34.5076 22.9399 33.0352 22.872L30.3597 22.7526L28.9997 21.7554C28.253 21.2077 27.642 20.6903 27.642 20.6084C27.642 20.5265 27.724 20.5078 27.8246 20.5686C28.3279 20.8729 30.2871 21.1655 31.7759 21.1585C33.5877 21.1491 34.0418 21.093 35.9519 20.6225C37.3072 20.2877 39.2501 20.2128 39.9383 20.4703C40.1747 20.5569 40.6686 20.8963 41.0384 21.2217C41.4059 21.5471 42.0567 21.9286 42.4804 22.0714C43.4658 22.3991 43.8053 22.7549 43.2435 22.8673C42.0263 23.1131 37.3283 23.2816 36.3919 23.1154ZM70.1182 17.336L69.6922 17.2166L70.2867 16.8561C70.6355 16.6454 71.1645 16.4933 71.5625 16.4933C72.5316 16.4886 74.7507 15.7747 74.5142 15.5453C74.4136 15.4446 74.1842 14.8149 74.0039 14.1455C73.7347 13.1342 73.5639 12.8229 73.0021 12.322C72.6299 11.9896 72.3256 11.6338 72.3256 11.5308C72.3256 11.2546 73.3626 10.6858 73.8658 10.6858C74.327 10.6858 75.2914 11.2944 75.7455 11.8772C75.9164 12.0973 76.1247 12.1909 76.2979 12.1277C76.6397 11.9989 76.6467 11.6759 76.3237 10.9198C76.0779 10.3463 76.0849 10.3276 76.6537 9.72135C77.3981 8.93484 77.6205 9.05188 78.524 10.7209C79.1935 11.9615 79.1958 11.9732 78.9758 12.8159C78.723 13.7803 78.8517 14.6511 79.2661 14.7751C79.4206 14.8196 79.8021 14.9671 80.1111 15.0982C80.612 15.3112 80.8648 15.3065 82.2716 15.0607C83.9079 14.7751 84.8793 14.8571 85.0268 15.2925C85.1344 15.6085 84.2871 15.8472 82.5198 16.0017C81.6326 16.079 80.2188 16.3037 79.3761 16.5003C78.4655 16.711 76.8176 16.9146 75.2984 17.0012C73.8986 17.0808 72.3677 17.2189 71.9019 17.3079C70.9141 17.4951 70.694 17.4998 70.1182 17.336Z" fill="#213E7B"/>
<path d="M27.6444 49.6929C27.5507 49.5197 27.4735 48.361 27.4735 47.1156C27.4735 45.8727 27.3962 44.714 27.3026 44.5431C27.1949 44.3465 27.1926 44.1943 27.2933 44.1335C27.6327 43.9298 27.8574 44.838 27.9932 46.9354C28.0704 48.1292 28.1828 49.2645 28.2413 49.4588C28.3864 49.9316 27.8831 50.1283 27.6444 49.6929ZM25.121 49.4354C24.9337 49.2036 24.7394 49.0796 24.6903 49.1568C24.496 49.4635 23.562 49.1521 23.2811 48.6887C22.9698 48.176 22.4852 48.0286 21.1042 48.0286C20.6173 48.0286 19.6318 47.9817 18.9179 47.9209C17.9043 47.839 17.6562 47.7687 17.7943 47.6072C17.9066 47.4761 18.2109 47.4293 18.6206 47.4832L19.269 47.5698L19.2503 46.1981C19.2386 45.2641 19.2971 44.8029 19.4352 44.7561C19.578 44.7093 19.6552 45.0089 19.6927 45.7369C19.7418 46.7201 19.7582 46.7575 19.9525 46.3245C20.0672 46.0693 20.1983 45.669 20.2404 45.4326C20.2849 45.1939 20.3715 44.9551 20.4347 44.8966C20.5517 44.7889 20.4277 46.2121 20.2357 47.1578C20.1538 47.5744 20.1866 47.6962 20.3832 47.6962C20.5377 47.6962 20.6805 47.4785 20.7437 47.1461C20.8022 46.8418 20.9684 46.4485 21.1112 46.273C21.3523 45.9757 21.364 45.9991 21.2774 46.6194C21.1604 47.427 21.3265 47.7055 21.9609 47.7734C22.923 47.8764 22.9417 47.8179 22.6257 45.8305C22.5765 45.5239 22.628 45.3741 22.7802 45.3741C22.9323 45.3741 23.0424 45.7018 23.1126 46.3689C23.2296 47.4668 23.6159 48.5272 23.8991 48.5272C24.0232 48.5272 24.0466 48.0356 23.9693 46.9752C23.8429 45.2126 23.9717 44.0679 24.3462 43.6115C24.5826 43.3236 24.5943 43.3633 24.5007 44.0796C24.4 44.8217 24.6692 47.4293 24.8799 47.7617C25.0929 48.0988 25.451 46.3572 25.5494 44.501C25.6079 43.4289 25.7109 42.5511 25.7834 42.5511C25.966 42.5511 26.172 45.5356 26.0479 46.397C25.9918 46.7926 25.8981 47.6962 25.8373 48.4054C25.7788 49.1147 25.6687 49.7327 25.5938 49.7771C25.5213 49.8216 25.3083 49.6671 25.121 49.4354ZM33.4519 49.0328C33.2459 48.7612 33.0797 48.4546 33.0797 48.3516C33.0797 48.2463 33.4519 47.3287 33.906 46.3104C34.9687 43.9275 35.2379 42.9186 35.2801 41.1419C35.2941 40.4514 35.3292 40.3648 35.4861 40.6269C35.7412 41.0577 35.5633 44.2622 35.2332 45.147C35.0905 45.5262 34.7276 46.3362 34.4257 46.9495C34.0488 47.7126 33.8779 48.2954 33.8873 48.794C33.892 49.1943 33.8803 49.522 33.8592 49.522C33.8405 49.522 33.6555 49.302 33.4519 49.0328ZM49.1446 48.9836C48.9152 48.2299 48.8778 48.1948 48.2856 48.1948C47.5131 48.1948 47.4452 48.0075 47.684 46.5024C47.9555 44.7912 48.2715 44.5923 48.1217 46.2285C47.993 47.6213 48.1872 48.0262 48.5618 47.1554C48.8403 46.5117 48.838 44.4214 48.5571 43.9088C48.3932 43.6115 48.4049 43.5483 48.6133 43.5483C49.0814 43.5483 49.4466 45.243 49.3178 46.802L49.2031 48.1713L49.6409 47.9747C50.1676 47.7406 50.2893 47.345 50.212 46.1278C50.1816 45.6222 50.2144 45.2079 50.2869 45.2079C50.4742 45.2079 50.5397 45.4701 50.6662 46.7411L50.7762 47.86L51.5486 48.1924C51.9723 48.3773 52.4639 48.5272 52.6394 48.5272C52.815 48.5272 52.9578 48.6021 52.9578 48.6933C52.9578 48.9415 51.8927 48.8923 51.2045 48.6114C50.7808 48.4382 50.5632 48.4195 50.4836 48.5435C50.4204 48.6442 50.1863 48.691 49.9639 48.6489C49.6549 48.5904 49.559 48.6465 49.559 48.883C49.559 49.2271 49.2429 49.3043 49.1446 48.9836ZM28.4309 48.7308C28.3864 48.6629 28.459 48.1971 28.5901 47.7008C28.8569 46.6943 28.8897 45.4911 28.6767 44.4144C28.5994 44.0258 28.5947 43.67 28.6673 43.6279C28.9763 43.4406 29.2221 44.7514 29.2502 46.7435C29.2783 48.8385 29.2759 48.8595 28.8944 48.8595C28.6837 48.8595 28.4754 48.801 28.4309 48.7308ZM36.8765 48.4288C36.6565 48.1035 36.4786 48.0145 36.1274 48.066C35.671 48.1316 35.6686 48.1222 35.5797 46.9612C35.5329 46.3151 35.5188 45.7627 35.5493 45.7299C35.7225 45.5497 35.9659 45.9687 35.9659 46.4532C35.9659 47.5089 36.289 47.2069 36.5816 45.875C36.7431 45.1424 36.9186 44.5431 36.9748 44.5431C37.0286 44.5431 37.0497 45.1587 37.0216 45.9125L36.9701 47.2818L37.5015 46.7271C38.1663 46.0295 38.302 46.1395 37.8479 47.0103C37.6536 47.3802 37.4968 47.949 37.4968 48.272C37.4968 48.9672 37.2744 49.0234 36.8765 48.4288ZM44.8024 48.361C44.5777 47.8319 44.3132 47.7523 43.7584 48.0426C43.501 48.176 43.2528 48.1573 42.7542 47.9607C42.052 47.6868 42.0497 47.6891 41.4832 48.4429C41.2421 48.7659 41.2257 48.7659 40.9916 48.471C40.6265 48.0098 40.5211 47.0501 40.7341 46.1208C40.8371 45.6644 41.015 44.7304 41.1274 44.0469C41.4059 42.3521 41.6353 42.8226 41.4855 44.7795C41.42 45.6292 41.4176 46.5492 41.4785 46.8254C41.5838 47.2865 41.6587 47.331 42.4757 47.4129C43.5735 47.5206 43.7327 47.3778 43.8404 46.2027C43.9434 45.0511 43.9363 45.0768 44.1096 45.3741C44.1892 45.5099 44.3085 46.0225 44.3764 46.5117C44.4911 47.3404 45.0155 48.1994 45.2144 47.8834C45.2612 47.8085 45.2846 47.0103 45.2659 46.1044C45.2355 44.5595 45.4743 43.3821 45.816 43.3821C45.8862 43.3821 45.9541 44.0937 45.9705 44.9668C45.9845 45.8376 46.1016 46.8418 46.2257 47.1976L46.455 47.846L45.9799 47.7523C45.5421 47.6681 45.4953 47.7102 45.39 48.2603C45.2495 48.9906 45.081 49.0187 44.8024 48.361ZM39.2875 48.1526C38.4121 45.4162 37.9696 44.4144 37.1972 43.4242C36.9654 43.1269 36.8484 42.8835 36.935 42.8835C37.1738 42.8835 37.9064 43.6887 38.5736 44.6859L39.1681 45.5754L39.2735 44.7702C39.5029 43.0146 40.6335 39.8966 41.0384 39.8966C41.3451 39.8966 41.3498 40.1073 41.0618 40.6925C40.8956 41.0319 40.5492 41.9799 40.2894 42.8016C39.8306 44.2669 39.8259 44.3278 40.0249 46.0974C40.177 47.4621 40.1794 47.9537 40.0295 48.1292C39.7861 48.4171 39.3765 48.4312 39.2875 48.1526ZM32.2183 47.4902C32.1551 46.3643 32.1036 45.8048 31.9842 44.9176C31.8859 44.1756 31.8999 43.8807 32.0381 43.8807C32.1434 43.8807 32.23 44.0469 32.2347 44.2528C32.237 44.4588 32.3892 44.9247 32.5741 45.2898L32.9112 45.9546L32.8246 44.295C32.7777 43.3821 32.7028 42.0385 32.6584 41.3081L32.5788 39.9785L32.8152 41.1419C32.9463 41.781 33.178 42.64 33.3302 43.0497C33.4847 43.4617 33.6555 44.3043 33.7094 44.927C33.796 45.9101 33.7585 46.1489 33.4144 46.7528C33.1968 47.1344 32.9369 47.5019 32.8363 47.5698C32.5507 47.7594 32.23 47.7172 32.2183 47.4902ZM23.0587 40.5333C22.5719 39.7632 22.6631 39.3278 23.3233 39.2646C24.0583 39.1944 24.3532 39.5689 24.077 40.222C23.7118 41.0811 23.4543 41.1606 23.0587 40.5333ZM20.3621 40.1424C19.9033 39.5689 19.7559 38.5179 19.8987 36.8091C19.9619 36.0296 19.9478 35.414 19.8635 35.414C19.6903 35.414 19.1519 36.5469 18.6206 38.0357C18.3514 38.7871 18.1711 39.068 17.9792 39.0305C17.4806 38.9369 17.2582 38.2206 17.3285 36.9495C17.3659 36.2894 17.3378 35.7464 17.2653 35.7464C17.1927 35.7464 16.6777 36.2426 16.1159 36.8489C15.4113 37.6143 15.0157 37.921 14.8285 37.8508C14.4376 37.7033 14.4984 37.2094 14.9923 36.4978C15.4699 35.8119 15.4511 35.6153 14.9385 35.9266C14.7536 36.039 14.4703 36.0811 14.3088 36.0203C14.0162 35.9102 14.0186 35.7206 14.3112 35.0231C14.4188 34.7632 14.3837 34.7305 14.0864 34.8218C13.6089 34.9716 13.3046 34.4051 13.417 33.5858C13.4919 33.0404 13.4638 32.9749 13.1806 33.0474C12.6562 33.1832 12.3285 32.7923 12.4479 32.172C12.5322 31.7366 12.49 31.6102 12.2396 31.5329C11.7878 31.3925 11.4765 30.826 11.4203 30.0395C11.3805 29.4473 11.2798 29.2951 10.6665 28.8855C10.278 28.6257 9.65999 28.0147 9.29015 27.5278C8.1057 25.9618 7.69606 25.8542 5.50507 26.5377C4.04909 26.9918 3.85481 27.0222 3.85481 26.7975C3.85481 26.7132 4.23636 26.5213 4.70218 26.3691C5.17034 26.2193 5.60105 26.0157 5.66191 25.9174C5.78597 25.7231 5.54955 25.7629 4.02569 26.1865C2.8272 26.5213 0.640887 26.5377 0.193794 26.2146C-0.220528 25.9174 -0.0402862 25.8471 1.42271 25.7348C2.242 25.6739 2.69377 25.5241 3.46155 25.063C4.00462 24.7376 4.83326 24.3724 5.29908 24.2554C5.76724 24.136 6.49289 23.8387 6.91423 23.5953C8.26254 22.8134 9.57104 22.2961 11.24 21.8935C12.1366 21.6758 13.1923 21.3177 13.5855 21.093C15.402 20.0653 16.6496 19.4778 17.7241 19.1454C18.8734 18.7896 21.6168 18.4572 23.6814 18.4198L24.7324 18.4034L26.4974 20.063C27.4688 20.9759 28.7188 22.1065 29.2759 22.5747C29.8354 23.0428 30.547 23.7545 30.8606 24.1524C31.172 24.5503 31.7618 25.1215 32.1691 25.4211C32.5764 25.7207 32.9088 26.0742 32.9088 26.2076C32.9088 26.3434 32.8761 26.4534 32.8386 26.4534C32.5086 26.4534 30.4252 25.3673 29.9103 24.9272C29.5498 24.6205 29.1027 24.2577 28.9154 24.1243C28.5924 23.8926 28.5877 23.8972 28.8218 24.2109C28.9576 24.3935 29.2759 24.768 29.5311 25.0419C30.3035 25.8729 32.0568 28.3354 32.1691 28.7474C32.4734 29.885 31.2258 29.2062 28.9435 26.9941L27.4407 25.5405L28.3841 27.3944C29.0348 28.6678 29.3859 29.5948 29.5123 30.3602C29.6106 30.9735 29.6621 31.5048 29.6223 31.5423C29.4281 31.7342 28.4824 30.6458 27.7263 29.363C27.0007 28.1294 26.8696 27.9843 26.8228 28.3541C26.7385 29.0213 27.1177 31.1373 27.3939 31.5493C27.8574 32.2399 27.5788 32.3007 26.8181 31.6757C26.0573 31.0507 25.6266 30.0161 25.2614 27.9351C25.0789 26.9052 24.8658 25.9993 24.7863 25.9197C24.5779 25.7184 24.1893 25.8986 23.9155 26.327C23.5386 26.9169 23.4637 29.5901 23.7961 30.5826C24.1449 31.6242 24.1449 31.8677 23.7914 31.9988C23.4052 32.1439 22.6912 31.4463 22.1856 30.4328C21.9281 29.9154 21.6683 29.6158 21.474 29.6111C21.0667 29.6041 20.3364 28.8714 20.3364 28.4712C20.3364 28.2558 20.1819 28.1224 19.8589 28.0592C19.5756 28.0053 19.3041 27.8017 19.1941 27.5653C19.0747 27.3125 18.8078 27.1252 18.4755 27.0597C18.1267 26.9918 17.8434 26.7834 17.6538 26.4557C17.4432 26.0953 17.2348 25.9571 16.9071 25.9548C16.4109 25.9548 15.917 25.5733 15.917 25.1894C15.917 25.0091 15.8397 24.9881 15.6197 25.1004C15.4582 25.1847 14.674 25.2596 13.8781 25.2666C12.7779 25.2736 12.1623 25.1823 11.2869 24.8827C10.2218 24.5199 10.0743 24.5082 9.27376 24.7142C8.03548 25.0325 8.0425 25.1449 9.29951 25.1004C10.093 25.0723 10.6689 25.1613 11.3805 25.4234C11.9212 25.6248 12.7381 25.7886 13.1969 25.7886C14.3744 25.7886 15.6548 26.0859 16.1019 26.4628C16.3102 26.6407 16.6098 26.7834 16.7667 26.7834C16.9258 26.7834 17.1857 26.9262 17.3472 27.1018C17.5087 27.275 17.8692 27.5091 18.1477 27.6215C18.424 27.7338 18.7634 28.0358 18.8968 28.2886C19.0326 28.5437 19.2901 28.7989 19.4726 28.8551C19.6529 28.9112 19.9572 29.2155 20.1491 29.5339C20.3411 29.8522 20.6594 30.1706 20.8584 30.2408C21.055 30.3134 21.4576 30.8096 21.7526 31.3457C22.4127 32.5465 23.2975 33.0966 24.0372 32.7665C24.4351 32.591 24.5264 32.6097 24.7886 32.9281C24.9525 33.127 25.1655 33.5999 25.2591 33.9791C25.3551 34.3583 25.54 35.0231 25.6711 35.4561C25.8022 35.8892 25.8443 36.2848 25.7624 36.3339C25.6828 36.3831 25.3083 36.149 24.929 35.8166L24.2432 35.2103L24.3275 37.2656L23.5901 37.5137C23.1828 37.6494 22.8247 37.7361 22.7919 37.7056C22.7615 37.6729 22.6819 37.2749 22.621 36.8208C22.5578 36.3667 22.4103 35.8143 22.2933 35.5919C22.0873 35.208 22.0709 35.2057 21.9047 35.51C21.6379 36.0015 21.1463 38.5436 21.1206 39.5502C21.0972 40.5848 20.8654 40.7651 20.3621 40.1424ZM21.5559 38.7239C21.6004 38.5998 21.9047 38.4406 22.2324 38.3751C22.5602 38.3072 23.5152 38.031 24.3579 37.7571C25.451 37.4013 26.0503 37.2913 26.4669 37.3662C26.7853 37.4247 27.8106 37.4739 28.7469 37.4762C30.1912 37.4809 30.6991 37.4037 32.1434 36.9566C34.4046 36.259 36.9069 35.5802 37.2206 35.5802C37.3587 35.5802 38.4893 35.1027 39.7346 34.5151C40.9799 33.9299 42.4195 33.3236 42.9321 33.1692C45.0014 32.5465 46.8389 31.8419 48.3956 31.0765C49.2968 30.6317 50.1278 30.2689 50.2401 30.2689C50.3712 30.2689 50.3993 30.1636 50.3174 29.9786C50.2471 29.8195 50.1161 29.2647 50.0224 28.7474C49.8726 27.9 49.8937 27.7432 50.2284 27.2142C50.5749 26.6687 50.5819 26.5962 50.3361 26.2521C49.9943 25.7746 49.9967 25.2198 50.3455 24.7025C50.5257 24.4309 50.5842 24.1173 50.5163 23.7802C50.4578 23.5016 50.5 23.1107 50.61 22.9118C50.72 22.7151 50.7926 22.2821 50.7738 21.9544C50.7528 21.6079 50.837 21.2755 50.9751 21.1655C51.1156 21.0508 51.1764 20.798 51.1273 20.5405C51.0149 19.9741 51.3192 19.8079 52.2743 19.9202L53.0421 20.0092L52.3211 19.5691C51.5135 19.0799 51.4456 18.9137 51.9302 18.6164C52.2368 18.4291 52.2415 18.3917 51.9934 18.1201C51.7616 17.872 51.757 17.7854 51.9513 17.5584C52.1221 17.3547 52.3796 17.3079 52.9835 17.3641L53.7864 17.439L53.117 16.9661C52.7495 16.704 52.4475 16.4324 52.4475 16.3599C52.4475 16.0696 52.8852 15.8308 53.4166 15.8308C54.1282 15.8308 54.1376 15.6131 53.4353 15.4072C52.7331 15.2012 52.6629 14.9367 53.1942 14.4872C53.5266 14.204 53.5851 14.0565 53.4587 13.8248C53.1942 13.3402 53.2738 12.5982 53.6296 12.2237C53.9175 11.9217 53.9292 11.8491 53.7139 11.6759C53.5313 11.5261 53.4657 11.5238 53.4657 11.6666C53.4657 11.7742 53.2972 12.0832 53.0912 12.3571C52.7612 12.7925 52.7401 12.9142 52.9203 13.3777C53.0982 13.8435 53.0819 13.9488 52.7635 14.2765C52.5037 14.5481 52.4358 14.7658 52.5177 15.0818C52.595 15.3884 52.5271 15.6412 52.2813 15.9479C51.9559 16.3505 51.9513 16.3997 52.2134 16.6829C52.5154 17.0083 52.5388 16.9849 51.6189 17.2587C51.4597 17.3079 51.4175 17.4811 51.4878 17.8182C51.5416 18.0921 51.5065 18.3542 51.4082 18.4151C51.3005 18.4783 51.2724 18.7545 51.3356 19.0846C51.4293 19.5785 51.3988 19.6463 51.0898 19.6463C50.6287 19.6463 50.4765 20.0653 50.7574 20.5756C50.9283 20.887 50.933 21.0274 50.7785 21.1772C50.6685 21.2849 50.5795 21.6103 50.5795 21.9005C50.5795 22.1908 50.4578 22.5255 50.3103 22.6473C50.1067 22.8111 50.0669 23.0335 50.1465 23.5555C50.2237 24.0681 50.1839 24.2975 49.9897 24.4544C49.6807 24.7072 49.6502 25.4398 49.9288 26.0344C50.0903 26.3832 50.0739 26.5728 49.8352 27.0573C49.5332 27.68 49.5824 28.834 49.9428 29.5105C50.0739 29.7563 50.0412 29.8803 49.8024 30.0489C49.3904 30.3438 49.2289 30.3274 49.1025 29.9786C49.044 29.8195 48.6741 29.267 48.2832 28.7521C47.6044 27.8579 47.5669 27.7432 47.4522 26.2825C47.3516 24.9787 47.3773 24.7072 47.6184 24.4473C47.8853 24.1571 47.8759 24.129 47.4593 23.9441C46.8951 23.6936 46.7289 23.1973 47.08 22.8181C47.4499 22.4202 47.4265 22.35 46.8413 22.055C46.2842 21.7741 46.1765 21.306 46.5885 20.9712C46.8179 20.7863 46.8085 20.7348 46.5042 20.5288C46.2608 20.3603 46.1601 20.1075 46.1601 19.6557C46.1601 19.2297 46.0735 18.9862 45.8933 18.9184C45.7341 18.8598 45.6498 18.6702 45.6826 18.4455C45.7317 18.1038 45.8488 18.064 47.0098 17.9867L48.2856 17.9048L47.1807 17.5303C45.8137 17.0668 44.9593 16.4488 45.2659 16.1445C45.4345 15.976 45.8862 16.0556 47.5599 16.5471C48.7069 16.8842 49.7392 17.1581 49.8562 17.1581C50.2471 17.1581 50.0739 16.8678 49.559 16.6595C49.0604 16.4582 48.0304 15.461 48.0304 15.1801C48.0304 15.1029 48.1451 14.9484 48.2856 14.8337C48.4962 14.6628 48.7701 14.7049 49.7743 15.0631C50.4508 15.3042 51.0711 15.4984 51.153 15.4984C51.4246 15.4984 51.0898 14.4521 50.5585 13.6422C50.2706 13.2021 49.9733 12.5982 49.9007 12.3033C49.8281 12.006 49.7134 11.6338 49.6456 11.4723C49.5449 11.2382 49.6128 11.182 49.9943 11.182C50.2542 11.182 50.6029 11.3014 50.7668 11.4489C51.0477 11.6946 51.0734 11.6759 51.1764 11.1399C51.2794 10.6038 51.2233 10.5055 50.3384 9.68858C49.8164 9.20637 49.3904 8.73821 49.3904 8.64692C49.3904 8.37539 50.5163 8.6399 51.7757 9.20637C52.9999 9.75646 53.0819 9.83371 52.7729 10.1357C52.5294 10.3721 52.6394 11.0533 52.9391 11.1492C53.0819 11.1961 53.1287 11.1516 53.0538 11.0369C52.9882 10.9339 52.9835 10.6998 53.0421 10.5172C53.1755 10.1099 53.8192 10.0818 54.896 10.44C55.535 10.6506 57.6019 10.9947 58.351 11.0111C58.9549 11.0252 58.3861 10.6483 56.8576 10.0186C54.7649 9.15487 53.3885 8.2958 52.6605 7.40161C52.0823 6.69001 52.0004 6.45359 52.2719 6.28973C52.4428 6.18674 54.1329 6.96857 55.1535 7.62399C55.8417 8.06406 57.8828 8.92547 58.6483 9.09635C59.1164 9.19935 59.0813 9.14317 58.2246 8.41986C56.0968 6.61979 54.9966 5.04443 54.9966 3.80146C54.9966 2.8113 55.4952 3.04772 56.8295 4.66756C57.4872 5.46811 58.5734 6.64319 59.2452 7.28223L60.4647 8.44327L59.7883 7.11604C58.7372 5.05145 58.3533 3.59547 58.4493 2.05522C58.4938 1.34596 58.6249 0.592223 58.7419 0.381551L58.9502 0L59.3529 0.454116C59.5729 0.706922 59.7531 1.05102 59.7531 1.22424C59.7531 1.39512 59.8304 1.58238 59.924 1.63856C60.0177 1.69474 60.0926 2.00139 60.0926 2.31739C60.0926 3.10156 60.6403 4.62776 61.5368 6.34825C62.2391 7.69655 63.3439 9.22042 63.056 8.44327C62.1244 5.92691 61.7592 4.67692 61.5345 3.21626C61.1763 0.887164 61.2396 -0.152152 61.7147 0.23408C61.9348 0.411981 62.1127 0.919935 62.7119 3.05006C62.8524 3.55334 63.2784 4.82205 63.6576 5.87073C64.0391 6.92175 64.5377 8.31219 64.7671 8.96293C64.9965 9.61367 65.57 10.8988 66.0405 11.8164C67.4918 14.6487 67.5738 15.0303 67.3022 17.748C66.9207 21.5869 67.0541 25.4305 67.5878 26.0578C67.6791 26.1678 68.1473 26.3106 68.6271 26.3738C69.8256 26.5353 73.6528 27.8836 76.3213 29.0845C77.5385 29.6299 79.2754 30.2619 80.179 30.4866C82.0142 30.9407 82.2693 30.9243 84.7295 30.1823C87.5759 29.3232 89.6896 29.466 91.4663 30.6364C91.876 30.9079 92.8404 31.3925 93.6105 31.7155C94.3783 32.0385 95.1039 32.378 95.221 32.4693C95.5159 32.6987 95.4855 32.9351 95.1765 32.818C94.9916 32.7502 94.9494 32.7993 95.0243 32.9889C95.1554 33.3236 95.2233 33.326 93.5309 32.907C91.4218 32.385 91.3306 32.3803 88.2126 32.6729C82.9481 33.1668 81.429 33.2394 77.4777 33.1809C75.3242 33.1504 72.6814 33.1762 71.6046 33.2417C69.8912 33.3447 69.5143 33.422 68.5663 33.8808C67.9717 34.1663 66.9581 34.8241 66.3167 35.3414C65.13 36.3011 64.0555 36.781 62.41 37.0877C61.0125 37.3498 56.9372 37.7384 55.6146 37.7384C53.9971 37.7361 50.7528 37.1883 49.271 36.6663C47.9672 36.2075 47.2907 36.1467 46.5534 36.4252C46.2912 36.5259 45.1957 36.6265 44.1213 36.6523C42.7589 36.6827 41.7313 36.8091 40.7248 37.0689C39.5988 37.3615 38.8568 37.4388 37.3681 37.4247C35.5656 37.406 32.347 37.7993 30.6148 38.2487C28.9974 38.6677 28.3911 38.7332 25.0274 38.8409C22.0452 38.9369 21.4904 38.9182 21.5559 38.7262V38.7239ZM94.1653 32.495C93.7978 32.3639 93.4139 32.2843 93.3155 32.3194C93.2196 32.3546 93.4068 32.4622 93.7322 32.5559C94.6217 32.8157 94.9354 32.7712 94.1653 32.495ZM50.7387 31.0063C50.507 30.7675 50.3033 30.6622 50.2659 30.7675C50.2308 30.8705 50.3455 31.0601 50.5187 31.1888C51.0383 31.5727 51.1741 31.4604 50.7387 31.0063ZM36.3919 23.1154C36.0174 23.0475 34.5076 22.9399 33.0352 22.872L30.3597 22.7526L28.9997 21.7554C28.253 21.2077 27.642 20.6903 27.642 20.6084C27.642 20.5265 27.724 20.5078 27.8246 20.5686C28.3279 20.8729 30.2871 21.1655 31.7759 21.1585C33.5877 21.1491 34.0418 21.093 35.9519 20.6225C37.3072 20.2877 39.2501 20.2128 39.9383 20.4703C40.1747 20.5569 40.6686 20.8963 41.0384 21.2217C41.4059 21.5471 42.0567 21.9286 42.4804 22.0714C43.4658 22.3991 43.8053 22.7549 43.2435 22.8673C42.0263 23.1131 37.3283 23.2816 36.3919 23.1154ZM70.1182 17.336L69.6922 17.2166L70.2867 16.8561C70.6355 16.6454 71.1645 16.4933 71.5625 16.4933C72.5316 16.4886 74.7507 15.7747 74.5142 15.5453C74.4136 15.4446 74.1842 14.8149 74.0039 14.1455C73.7347 13.1342 73.5639 12.8229 73.0021 12.322C72.6299 11.9896 72.3256 11.6338 72.3256 11.5308C72.3256 11.2546 73.3626 10.6858 73.8658 10.6858C74.327 10.6858 75.2914 11.2944 75.7455 11.8772C75.9164 12.0973 76.1247 12.1909 76.2979 12.1277C76.6397 11.9989 76.6467 11.6759 76.3237 10.9198C76.0779 10.3463 76.0849 10.3276 76.6537 9.72135C77.3981 8.93484 77.6205 9.05188 78.524 10.7209C79.1935 11.9615 79.1958 11.9732 78.9758 12.8159C78.723 13.7803 78.8517 14.6511 79.2661 14.7751C79.4206 14.8196 79.8021 14.9671 80.1111 15.0982C80.612 15.3112 80.8648 15.3065 82.2716 15.0607C83.9079 14.7751 84.8793 14.8571 85.0268 15.2925C85.1344 15.6085 84.2871 15.8472 82.5198 16.0017C81.6326 16.079 80.2188 16.3037 79.3761 16.5003C78.4655 16.711 76.8176 16.9146 75.2984 17.0012C73.8986 17.0808 72.3677 17.2189 71.9019 17.3079C70.9141 17.4951 70.694 17.4998 70.1182 17.336Z" fill="#213E7B"/>
</svg>
