<svg width="14" height="14" viewBox="0 0 14 14" fill="none" xmlns="http://www.w3.org/2000/svg">
<path d="M10.1218 4.59442C10.5526 4.59442 10.9018 4.24521 10.9018 3.81442C10.9018 3.38364 10.5526 3.03442 10.1218 3.03442C9.69101 3.03442 9.3418 3.38364 9.3418 3.81442C9.3418 4.24521 9.69101 4.59442 10.1218 4.59442Z" fill="#0A142F"/>
<path fill-rule="evenodd" clip-rule="evenodd" d="M3.50391 7.1521C3.50391 8.94447 4.96153 10.4021 6.75391 10.4021C8.54628 10.4021 10.0039 8.94447 10.0039 7.1521C10.0039 5.35972 8.54628 3.9021 6.75391 3.9021C4.96153 3.9021 3.50391 5.35972 3.50391 7.1521ZM5.12891 7.1521C5.12891 6.25591 5.85772 5.5271 6.75391 5.5271C7.65009 5.5271 8.37891 6.25591 8.37891 7.1521C8.37891 8.04829 7.65009 8.7771 6.75391 8.7771C5.85772 8.7771 5.12891 8.04829 5.12891 7.1521Z" fill="#0A142F"/>
<path fill-rule="evenodd" clip-rule="evenodd" d="M3.50391 13.6521H10.0039C11.6744 13.6521 13.2539 12.0726 13.2539 10.4021V3.9021C13.2539 2.2316 11.6744 0.6521 10.0039 0.6521H3.50391C1.83341 0.6521 0.253906 2.2316 0.253906 3.9021V10.4021C0.253906 12.0726 1.83341 13.6521 3.50391 13.6521ZM1.87891 3.9021C1.87891 3.14241 2.74422 2.2771 3.50391 2.2771H10.0039C10.7636 2.2771 11.6289 3.14241 11.6289 3.9021V10.4021C11.6289 11.1618 10.7636 12.0271 10.0039 12.0271H3.50391C2.72959 12.0271 1.87891 11.1764 1.87891 10.4021V3.9021Z" fill="#0A142F"/>
</svg>
