<svg width="15" height="13" viewBox="0 0 15 13" fill="none" xmlns="http://www.w3.org/2000/svg">
<path d="M14.5396 2.00144C14.0039 2.27131 13.4682 2.36127 12.8432 2.45123C13.4682 2.0914 13.9146 1.55166 14.0932 0.832012C13.5575 1.19184 12.9325 1.37175 12.2182 1.55166C11.6825 1.01192 10.8789 0.6521 10.0753 0.6521C8.55748 0.6521 7.21819 2.00144 7.21819 3.62066C7.21819 3.89053 7.21819 4.07044 7.30748 4.25035C4.89676 4.1604 2.66462 2.99096 1.23605 1.19184C0.968192 1.64162 0.878906 2.0914 0.878906 2.7211C0.878906 3.71061 1.41462 4.61018 2.21819 5.14992C1.77176 5.14992 1.32533 4.97 0.878906 4.79009C0.878906 6.22939 1.86105 7.39882 3.20033 7.66869C2.93248 7.75865 2.66462 7.75865 2.39676 7.75865C2.21819 7.75865 2.03962 7.75865 1.86105 7.66869C2.21819 8.83813 3.28962 9.73769 4.62891 9.73769C3.64676 10.5473 2.39676 10.9971 0.968192 10.9971C0.700335 10.9971 0.521763 10.9971 0.253906 10.9971C1.59319 11.8067 3.11105 12.3464 4.71819 12.3464C10.0753 12.3464 13.0218 7.84861 13.0218 3.98048C13.0218 3.89053 13.0218 3.71061 13.0218 3.62066C13.6468 3.17088 14.1825 2.63114 14.5396 2.00144Z" fill="#0A142F"/>
</svg>
